<svg width="350" height="300" version="1.1" viewBox="0 0 92.6 79.4" xml:space="preserve" xmlns="http://www.w3.org/2000/svg"><g fill="none" stroke="#000"><g><g><path d="m46.1 28.4-2.95-1.35c0.33-0.693 0.178-0.343 0.504-1.04" marker-end="" stroke-linecap="round" stroke-linejoin="round" stroke-width=".265"/><path d="m48.9 22-2.74 6.42" stroke-linejoin="round" stroke-width=".265"/><path transform="matrix(.354 0 0 .354 17.5 -34.4)" d="m182 97.3c-12.8 14.8-31.6 59.8-37.9 76.7-7.74 21-10.9 31-10.9 31s-5.41 18-7.82 28.2c-2.41 10.2-4.83 21.5-6.49 32.8-1.66 11.3-4.83 44-4.07 55.5" stroke-linecap="round" stroke-width="5"/><path transform="matrix(.354 0 0 .354 17.5 -34.4)" d="m147 210c-6.98-1.88-14.3-4.12-14.3-4.12s-47.5-15.6-72.8-21.4c-19.6-4.52-43.7-6.95-62.5-10-18.8-3.1-46.7-9.79-46.7-9.79" stroke-linecap="round" stroke-width="5"/><path transform="matrix(.354 0 0 .354 17.5 -34.4)" d="m212 223c-3.7-0.132-25.9-2.53-32.4-3.12-6.55-0.595-29.5-8.89-35.6-10.7" stroke-width="1.5"/><path transform="matrix(.354 0 0 .354 17.5 -34.4)" d="m-45.1 101s21.6 16.7 30.3 21.9c8.64 5.23 18.1 8.54 18.1 8.54 11 3.85 25.3 5.55 37.3 8.28 8.25 1.87 13.6 3.88 21.2 7.25 7.46 3.27 19 9.31 26.8 12.2 7.76 2.9 14.2 4.35 20.4 6.13s18.4 5.12 18.4 5.12c2.26 0.738 0.848 3.11-1.18 2.56-1.8-0.491-0.749-2.6-0.749-2.6" stroke-linecap="round" stroke-width="2.82"/><path transform="matrix(.354 0 0 .354 17.5 -34.4)" d="m40.1 140s-4.81 17.8-5.67 22.2c-0.86 4.33-4.98 26-5.84 34.8-0.603 6.1-1.22 28-1.22 28s0.535 16.6 1 25.3c0.534 10 9.42 15.7 17.3 22.1 9.83 7.97 11.4 13.9 12.4 24.3 0.816 9.14 10.5 26.5 10.5 26.5" stroke-width="5"/><path transform="matrix(.354 0 0 .354 17.5 -34.4)" d="m55.3 145s2.29-10.2 5.71-29.3c0.459-2.56 4.17-1.87 6.85-4 1.73-1.38 1.71-7.51 1.92-12.4" stroke-linecap="round" stroke-width="2.82"/></g><path transform="matrix(.354 0 0 .354 17.5 -34.4)" d="m212 268s-40 22.4-43.1 23.7c-20.2 8.21-33.3 11.6-54.2 19-15 5.32-25.1 7.05-36.1 7.2-3.73 0.0513-20.9-0.734-30.2-1.16-4.72-0.216-10.8 0.793-15.6 0.68-20.5-0.495-82.4-8.38-82.4-8.38" stroke-linecap="round" stroke-width="5"/></g><path transform="matrix(.354 0 0 .354 17.5 -34.4)" d="m117 268s-0.15 0.0466-9.68-0.159c-5.37-0.116-7.68 3.95-7.71 7.56-0.0819 10.1-0.514 34.8-0.514 34.8" stroke-linecap="square" stroke-width="2.12"/><path transform="matrix(.354 0 0 .354 17.5 -34.4)" d="m67.5 112s3.57 1.58 3.37 4.49c-0.198 2.91-1.98 15.8-2.11 17.4s-3.24 15.2-3.24 15.2" stroke-linecap="round" stroke-width="1.41"/><path d="m57.3 24.5s3.52-8.71 3.57-8.83c0.161-0.356 4.42-9.76 4.56-10 0.388-0.737 2.07-3.63 2.07-3.63" stroke-linecap="round"/></g><g><path transform="matrix(.354 0 0 .354 17.5 -34.4)" d="m84.6 292h11.3l-0.302 16.6h-5.55v1.21h-5.47z" fill="#f77f28"/><path transform="matrix(.354 0 0 .354 17.5 -34.4)" d="m72.2 170 6.9 3.08 5.16-11.5-6-2.68-0.825 1.85-0.897-0.401z" fill="#6b48c8" stroke-width=".314"/><path transform="matrix(.354 0 0 .354 17.5 -34.4)" d="m45 104 0.768 6.82 1.5-0.169 0.447 3.97 10.6-1.19-0.447-3.97 1.48-0.166-0.768-6.82z" fill="#5ab22e" stroke-width=".264"/></g><g transform="matrix(.354 0 0 .354 17.5 -34.4)" fill="#f77f28" aria-label="Partylocation
(Viva-Cafe)"><path d="m55.1 259q-0.247 0-0.383-0.135-0.128-0.143-0.128-0.391v-4.64q0-0.255 0.135-0.383 0.135-0.135 0.383-0.135h1.92q0.925 0 1.43 0.462t0.502 1.29-0.502 1.3q-0.502 0.462-1.43 0.462h-1.42v1.64q0 0.247-0.128 0.391-0.128 0.135-0.383 0.135zm0.51-2.97h1.26q0.542 0 0.821-0.239 0.279-0.247 0.279-0.717t-0.279-0.709q-0.279-0.239-0.821-0.239h-1.26zm5.18 2.99q-0.422 0-0.757-0.159-0.327-0.167-0.518-0.446-0.183-0.279-0.183-0.63 0-0.43 0.223-0.677 0.223-0.255 0.725-0.367t1.35-0.112h0.398v0.574h-0.391q-0.494 0-0.789 0.0478t-0.422 0.167q-0.12 0.112-0.12 0.319 0 0.263 0.183 0.43t0.51 0.167q0.263 0 0.462-0.12 0.207-0.128 0.327-0.343 0.12-0.215 0.12-0.494v-0.917q0-0.398-0.175-0.574-0.175-0.175-0.59-0.175-0.231 0-0.502 0.0558-0.263 0.0558-0.558 0.191-0.151 0.0717-0.271 0.0399-0.112-0.0319-0.175-0.128-0.0638-0.104-0.0638-0.223t0.0638-0.231q0.0638-0.12 0.215-0.175 0.367-0.151 0.701-0.215 0.343-0.0638 0.622-0.0638 0.574 0 0.94 0.175 0.375 0.175 0.558 0.534 0.183 0.351 0.183 0.909v1.91q0 0.247-0.12 0.383-0.12 0.128-0.343 0.128-0.223 0-0.351-0.128-0.12-0.135-0.12-0.383v-0.383h0.0638q-0.0558 0.279-0.223 0.486-0.159 0.199-0.406 0.311t-0.566 0.112zm3.59-0.0159q-0.247 0-0.383-0.128-0.128-0.135-0.128-0.383v-3.01q0-0.247 0.128-0.375t0.359-0.128 0.359 0.128 0.128 0.375v0.502h-0.0797q0.112-0.478 0.438-0.725 0.327-0.247 0.869-0.295 0.167-0.0159 0.263 0.0877 0.104 0.0956 0.12 0.303 0.0159 0.199-0.0956 0.327-0.104 0.12-0.319 0.143l-0.175 0.0159q-0.486 0.0478-0.733 0.303-0.247 0.247-0.247 0.701v1.65q0 0.247-0.128 0.383-0.128 0.128-0.375 0.128zm4.62 0.0159q-0.518 0-0.869-0.175-0.343-0.175-0.51-0.51-0.167-0.343-0.167-0.845v-1.7h-0.414q-0.191 0-0.295-0.0956-0.104-0.104-0.104-0.279 0-0.183 0.104-0.279 0.104-0.0956 0.295-0.0956h0.414v-0.725q0-0.247 0.128-0.375 0.135-0.128 0.375-0.128t0.367 0.128 0.128 0.375v0.725h0.845q0.191 0 0.295 0.0956 0.104 0.0956 0.104 0.279 0 0.175-0.104 0.279-0.104 0.0956-0.295 0.0956h-0.845v1.64q0 0.383 0.167 0.574 0.167 0.191 0.542 0.191 0.135 0 0.239-0.0239 0.104-0.0239 0.183-0.0319 0.0956-8e-3 0.159 0.0638 0.0638 0.0638 0.0638 0.271 0 0.159-0.0558 0.287-0.0478 0.12-0.183 0.167-0.104 0.0319-0.271 0.0558-0.167 0.0319-0.295 0.0319zm2.33 1.42q-0.175 0-0.287-0.0956-0.112-0.0877-0.135-0.239-0.0159-0.151 0.0558-0.319l0.542-1.2v0.414l-1.45-3.36q-0.0717-0.175-0.0478-0.327 0.0239-0.151 0.143-0.239 0.128-0.0956 0.343-0.0956 0.183 0 0.295 0.0877 0.112 0.0797 0.199 0.311l1.08 2.69h-0.239l1.1-2.69q0.0877-0.223 0.207-0.303 0.12-0.0877 0.319-0.0877 0.175 0 0.279 0.0956 0.104 0.0877 0.128 0.239 0.0239 0.143-0.0558 0.319l-1.94 4.42q-0.104 0.223-0.223 0.303t-0.311 0.0797zm4.53-1.42q-0.662 0-0.996-0.375-0.335-0.383-0.335-1.12v-3.77q0-0.247 0.128-0.375 0.128-0.128 0.367-0.128t0.367 0.128q0.135 0.128 0.135 0.375v3.72q0 0.367 0.151 0.542 0.159 0.175 0.446 0.175 0.0638 0 0.12 0 0.0558-8e-3 0.112-0.0159 0.112-0.0159 0.151 0.0638 0.0398 0.0717 0.0398 0.303 0 0.199-0.0797 0.311t-0.263 0.135q-0.0797 8e-3 -0.167 0.0159-0.0877 8e-3 -0.175 8e-3zm2.95 0q-0.606 0-1.05-0.247-0.446-0.247-0.693-0.701-0.247-0.462-0.247-1.08 0-0.47 0.135-0.837 0.143-0.375 0.406-0.638 0.263-0.271 0.63-0.406 0.367-0.143 0.821-0.143 0.606 0 1.05 0.247 0.446 0.247 0.693 0.701 0.247 0.454 0.247 1.08 0 0.47-0.143 0.845-0.135 0.375-0.398 0.646-0.263 0.263-0.63 0.406-0.367 0.135-0.821 0.135zm0-0.757q0.295 0 0.518-0.143t0.343-0.422q0.128-0.287 0.128-0.709 0-0.638-0.271-0.948-0.271-0.319-0.717-0.319-0.295 0-0.518 0.143-0.223 0.135-0.351 0.422-0.12 0.279-0.12 0.701 0 0.63 0.271 0.956 0.271 0.319 0.717 0.319zm4.61 0.757q-0.614 0-1.07-0.247-0.454-0.255-0.701-0.717t-0.247-1.08q0-0.47 0.135-0.837 0.143-0.375 0.406-0.63 0.263-0.263 0.638-0.398 0.375-0.143 0.837-0.143 0.263 0 0.566 0.0717 0.311 0.0717 0.582 0.239 0.128 0.0797 0.167 0.191 0.0398 0.112 0.0159 0.231-0.0239 0.112-0.104 0.199-0.0717 0.0797-0.183 0.104-0.112 0.0159-0.247-0.0558-0.175-0.104-0.359-0.151-0.183-0.0558-0.351-0.0558-0.263 0-0.462 0.0877-0.199 0.0797-0.343 0.239-0.135 0.151-0.207 0.383-0.0717 0.231-0.0717 0.534 0 0.59 0.279 0.932 0.287 0.335 0.805 0.335 0.167 0 0.343-0.0478 0.183-0.0478 0.367-0.151 0.135-0.0717 0.239-0.0478 0.112 0.0239 0.183 0.112 0.0717 0.0797 0.0877 0.199 0.0159 0.112-0.0319 0.223-0.0398 0.112-0.159 0.183-0.263 0.159-0.558 0.231-0.295 0.0717-0.558 0.0717zm3.22 0q-0.422 0-0.757-0.159-0.327-0.167-0.518-0.446-0.183-0.279-0.183-0.63 0-0.43 0.223-0.677 0.223-0.255 0.725-0.367t1.35-0.112h0.398v0.574h-0.391q-0.494 0-0.789 0.0478t-0.422 0.167q-0.12 0.112-0.12 0.319 0 0.263 0.183 0.43t0.51 0.167q0.263 0 0.462-0.12 0.207-0.128 0.327-0.343 0.12-0.215 0.12-0.494v-0.917q0-0.398-0.175-0.574-0.175-0.175-0.59-0.175-0.231 0-0.502 0.0558-0.263 0.0558-0.558 0.191-0.151 0.0717-0.271 0.0399-0.112-0.0319-0.175-0.128-0.0638-0.104-0.0638-0.223t0.0638-0.231q0.0638-0.12 0.215-0.175 0.367-0.151 0.701-0.215 0.343-0.0638 0.622-0.0638 0.574 0 0.94 0.175 0.375 0.175 0.558 0.534 0.183 0.351 0.183 0.909v1.91q0 0.247-0.12 0.383-0.12 0.128-0.343 0.128-0.223 0-0.351-0.128-0.12-0.135-0.12-0.383v-0.383h0.0638q-0.0558 0.279-0.223 0.486-0.159 0.199-0.406 0.311t-0.566 0.112zm4.86 0q-0.518 0-0.869-0.175-0.343-0.175-0.51-0.51-0.167-0.343-0.167-0.845v-1.7h-0.414q-0.191 0-0.295-0.0956-0.104-0.104-0.104-0.279 0-0.183 0.104-0.279 0.104-0.0956 0.295-0.0956h0.414v-0.725q0-0.247 0.128-0.375 0.135-0.128 0.375-0.128 0.239 0 0.367 0.128 0.128 0.128 0.128 0.375v0.725h0.845q0.191 0 0.295 0.0956t0.104 0.279q0 0.175-0.104 0.279-0.104 0.0956-0.295 0.0956h-0.845v1.64q0 0.383 0.167 0.574 0.167 0.191 0.542 0.191 0.135 0 0.239-0.0239t0.183-0.0319q0.0956-8e-3 0.159 0.0638 0.0638 0.0638 0.0638 0.271 0 0.159-0.0558 0.287-0.0478 0.12-0.183 0.167-0.104 0.0319-0.271 0.0558-0.167 0.0319-0.295 0.0319zm1.87-0.0239q-0.239 0-0.367-0.143t-0.128-0.398v-2.92q0-0.263 0.128-0.398 0.128-0.143 0.367-0.143t0.367 0.143q0.135 0.135 0.135 0.398v2.92q0 0.255-0.128 0.398t-0.375 0.143zm0-4.75q-0.279 0-0.438-0.135-0.151-0.143-0.151-0.391 0-0.255 0.151-0.391 0.159-0.135 0.438-0.135 0.287 0 0.438 0.135 0.151 0.135 0.151 0.391 0 0.247-0.151 0.391-0.151 0.135-0.438 0.135zm3.32 4.77q-0.606 0-1.05-0.247-0.446-0.247-0.693-0.701-0.247-0.462-0.247-1.08 0-0.47 0.135-0.837 0.143-0.375 0.406-0.638 0.263-0.271 0.63-0.406 0.367-0.143 0.821-0.143 0.606 0 1.05 0.247 0.446 0.247 0.693 0.701 0.247 0.454 0.247 1.08 0 0.47-0.143 0.845-0.135 0.375-0.398 0.646-0.263 0.263-0.63 0.406-0.367 0.135-0.821 0.135zm0-0.757q0.295 0 0.518-0.143 0.223-0.143 0.343-0.422 0.128-0.287 0.128-0.709 0-0.638-0.271-0.948-0.271-0.319-0.717-0.319-0.295 0-0.518 0.143-0.223 0.135-0.351 0.422-0.12 0.279-0.12 0.701 0 0.63 0.271 0.956 0.271 0.319 0.717 0.319zm3.31 0.741q-0.239 0-0.367-0.128-0.128-0.135-0.128-0.383v-3.01q0-0.247 0.128-0.375t0.359-0.128q0.231 0 0.359 0.128t0.128 0.375v0.542l-0.0877-0.199q0.175-0.422 0.542-0.638 0.375-0.223 0.845-0.223t0.773 0.175q0.303 0.175 0.454 0.534 0.151 0.351 0.151 0.893v1.93q0 0.247-0.128 0.383-0.128 0.128-0.367 0.128-0.239 0-0.375-0.128-0.128-0.135-0.128-0.383v-1.88q0-0.454-0.175-0.661-0.167-0.207-0.526-0.207-0.438 0-0.701 0.279-0.255 0.271-0.255 0.725v1.75q0 0.51-0.502 0.51z"/><path d="m55.7 271q-0.494-0.781-0.717-1.64-0.215-0.869-0.215-1.75 0-0.59 0.0956-1.17t0.303-1.14q0.207-0.566 0.534-1.08 0.0877-0.143 0.231-0.175 0.151-0.0399 0.279 0.0159 0.135 0.0558 0.199 0.207 0.0638 0.143-0.0159 0.367-0.191 0.51-0.319 1-0.12 0.486-0.183 0.972-0.0558 0.486-0.0558 1 0 0.518 0.0638 1t0.191 0.972q0.128 0.486 0.303 1 0.0797 0.223 0.0159 0.367-0.0638 0.151-0.199 0.207-0.128 0.0558-0.279 0.0159-0.143-0.0319-0.231-0.175zm4.21-1.24q-0.215 0-0.359-0.0956-0.135-0.104-0.223-0.303l-2.08-4.67q-0.0877-0.199-0.0478-0.351t0.167-0.239q0.128-0.0877 0.303-0.0877 0.231 0 0.343 0.104 0.12 0.0956 0.199 0.295l1.89 4.38h-0.343l1.88-4.38q0.0877-0.191 0.207-0.287 0.12-0.104 0.335-0.104 0.175 0 0.287 0.0877 0.12 0.0877 0.151 0.239 0.0319 0.151-0.0558 0.351l-2.08 4.67q-0.0877 0.199-0.223 0.303-0.128 0.0956-0.351 0.0956zm4.25-8e-3q-0.239 0-0.367-0.143t-0.128-0.398v-2.92q0-0.263 0.128-0.398 0.128-0.143 0.367-0.143t0.367 0.143q0.135 0.135 0.135 0.398v2.92q0 0.255-0.128 0.398t-0.375 0.143zm0-4.75q-0.279 0-0.438-0.135-0.151-0.143-0.151-0.391 0-0.255 0.151-0.391 0.159-0.135 0.438-0.135 0.287 0 0.438 0.135 0.151 0.135 0.151 0.391 0 0.247-0.151 0.391-0.151 0.135-0.438 0.135zm3.12 4.76q-0.199 0-0.351-0.104-0.143-0.104-0.239-0.319l-1.27-2.94q-0.0717-0.175-0.0558-0.327 0.0239-0.151 0.143-0.239 0.128-0.0956 0.343-0.0956 0.183 0 0.295 0.0877 0.112 0.0797 0.199 0.311l1.08 2.69h-0.239l1.11-2.69q0.0877-0.223 0.199-0.303 0.12-0.0877 0.319-0.0877 0.175 0 0.279 0.0956 0.104 0.0877 0.128 0.239 0.0239 0.143-0.0558 0.319l-1.29 2.95q-0.0877 0.215-0.239 0.319-0.143 0.104-0.351 0.104zm3.83 0.0159q-0.422 0-0.757-0.159-0.327-0.167-0.518-0.446-0.183-0.279-0.183-0.63 0-0.43 0.223-0.677 0.223-0.255 0.725-0.367 0.502-0.112 1.35-0.112h0.398v0.574h-0.391q-0.494 0-0.789 0.0478t-0.422 0.167q-0.12 0.112-0.12 0.319 0 0.263 0.183 0.43 0.183 0.167 0.51 0.167 0.263 0 0.462-0.12 0.207-0.128 0.327-0.343 0.12-0.215 0.12-0.494v-0.917q0-0.398-0.175-0.574-0.175-0.175-0.59-0.175-0.231 0-0.502 0.0558-0.263 0.0558-0.558 0.191-0.151 0.0717-0.271 0.0399-0.112-0.0319-0.175-0.128-0.0638-0.104-0.0638-0.223 0-0.12 0.0638-0.231 0.0638-0.12 0.215-0.175 0.367-0.151 0.701-0.215 0.343-0.0638 0.622-0.0638 0.574 0 0.94 0.175 0.375 0.175 0.558 0.534 0.183 0.351 0.183 0.909v1.91q0 0.247-0.12 0.383-0.12 0.128-0.343 0.128-0.223 0-0.351-0.128-0.12-0.135-0.12-0.383v-0.383h0.0638q-0.0558 0.279-0.223 0.486-0.159 0.199-0.406 0.311t-0.566 0.112zm3.44-1.82q-0.175 0-0.295-0.112-0.112-0.12-0.112-0.287 0-0.175 0.112-0.287 0.12-0.112 0.295-0.112h1.7q0.167 0 0.279 0.112 0.12 0.112 0.12 0.287 0 0.167-0.12 0.287-0.112 0.112-0.279 0.112zm5.8 1.82q-0.877 0-1.51-0.351-0.622-0.359-0.956-1-0.335-0.654-0.335-1.54 0-0.662 0.191-1.19 0.191-0.534 0.55-0.909 0.359-0.383 0.877-0.582 0.526-0.207 1.18-0.207 0.438 0 0.861 0.112 0.422 0.112 0.741 0.319 0.167 0.104 0.223 0.255 0.0558 0.143 0.0239 0.287-0.0319 0.135-0.135 0.231-0.0956 0.0956-0.247 0.112-0.143 8e-3 -0.319-0.104-0.247-0.159-0.534-0.231-0.287-0.0717-0.582-0.0717-0.566 0-0.956 0.231-0.391 0.231-0.59 0.669-0.199 0.438-0.199 1.08 0 0.63 0.199 1.08t0.59 0.677q0.391 0.231 0.956 0.231 0.303 0 0.598-0.0717 0.295-0.0797 0.558-0.239 0.175-0.104 0.311-0.0877 0.143 8e-3 0.239 0.0956 0.0956 0.0877 0.128 0.223 0.0319 0.128-0.0159 0.271-0.0478 0.135-0.191 0.239-0.319 0.231-0.765 0.359-0.438 0.12-0.893 0.12zm3.85 0q-0.422 0-0.757-0.159-0.327-0.167-0.518-0.446-0.183-0.279-0.183-0.63 0-0.43 0.223-0.677 0.223-0.255 0.725-0.367 0.502-0.112 1.35-0.112h0.398v0.574h-0.391q-0.494 0-0.789 0.0478t-0.422 0.167q-0.12 0.112-0.12 0.319 0 0.263 0.183 0.43 0.183 0.167 0.51 0.167 0.263 0 0.462-0.12 0.207-0.128 0.327-0.343 0.12-0.215 0.12-0.494v-0.917q0-0.398-0.175-0.574-0.175-0.175-0.59-0.175-0.231 0-0.502 0.0558-0.263 0.0558-0.558 0.191-0.151 0.0717-0.271 0.0399-0.112-0.0319-0.175-0.128-0.0638-0.104-0.0638-0.223 0-0.12 0.0638-0.231 0.0638-0.12 0.215-0.175 0.367-0.151 0.701-0.215 0.343-0.0638 0.622-0.0638 0.574 0 0.94 0.175 0.375 0.175 0.558 0.534 0.183 0.351 0.183 0.909v1.91q0 0.247-0.12 0.383-0.12 0.128-0.343 0.128-0.223 0-0.351-0.128-0.12-0.135-0.12-0.383v-0.383h0.0638q-0.0558 0.279-0.223 0.486-0.159 0.199-0.406 0.311t-0.566 0.112zm3.84-0.0159q-0.239 0-0.375-0.128-0.128-0.135-0.128-0.383v-2.7h-0.367q-0.191 0-0.295-0.0956-0.104-0.104-0.104-0.279 0-0.183 0.104-0.279 0.104-0.0956 0.295-0.0956h0.654l-0.287 0.263v-0.271q0-0.821 0.414-1.23 0.414-0.414 1.2-0.486l0.271-0.0239q0.159-0.0159 0.255 0.0558 0.0956 0.0638 0.128 0.175 0.0319 0.104 8e-3 0.215-0.0239 0.112-0.104 0.199-0.0717 0.0797-0.191 0.0877l-0.112 8e-3q-0.454 0.0319-0.661 0.231-0.207 0.199-0.207 0.606v0.295l-0.128-0.128h0.805q0.191 0 0.295 0.0956t0.104 0.279q0 0.175-0.104 0.279-0.104 0.0956-0.295 0.0956h-0.677v2.7q0 0.51-0.494 0.51zm3.95 0.0159q-0.661 0-1.14-0.247-0.478-0.247-0.741-0.701-0.255-0.454-0.255-1.08 0-0.606 0.247-1.06 0.255-0.454 0.693-0.709 0.446-0.263 1.01-0.263 0.414 0 0.741 0.135 0.335 0.135 0.566 0.391 0.239 0.255 0.359 0.622 0.128 0.359 0.128 0.813 0 0.143-0.104 0.223-0.0956 0.0717-0.279 0.0717h-2.56v-0.574h2.24l-0.128 0.12q0-0.367-0.112-0.614-0.104-0.247-0.311-0.375-0.199-0.135-0.502-0.135-0.335 0-0.574 0.159-0.231 0.151-0.359 0.438-0.12 0.279-0.12 0.669v0.0558q0 0.654 0.303 0.98 0.311 0.319 0.909 0.319 0.207 0 0.462-0.0478 0.263-0.0558 0.494-0.183 0.167-0.0956 0.295-0.0797 0.128 8e-3 0.199 0.0877 0.0797 0.0797 0.0956 0.199 0.0159 0.112-0.0478 0.231-0.0558 0.12-0.199 0.207-0.279 0.175-0.646 0.263-0.359 0.0797-0.669 0.0797zm2.92 1.22q-0.0877 0.143-0.239 0.175-0.143 0.0399-0.279-0.0239-0.135-0.0558-0.199-0.199-0.0558-0.143 0.0239-0.367 0.199-0.518 0.319-1t0.175-0.972q0.0638-0.486 0.0638-1 0-0.518-0.0638-1t-0.191-0.972q-0.12-0.486-0.303-1-0.0797-0.223-0.0159-0.367 0.0638-0.151 0.199-0.207 0.135-0.0558 0.279-0.0159 0.143 0.0319 0.231 0.175 0.486 0.773 0.709 1.64 0.223 0.869 0.223 1.75 0 0.59-0.104 1.17-0.0956 0.582-0.303 1.14-0.199 0.566-0.526 1.08z"/></g><path transform="matrix(.354 0 0 .354 17.5 -34.4)" d="m-2.51 109q-0.351 0-0.701-0.0558-0.351-0.0478-0.661-0.151-0.311-0.112-0.558-0.271-0.143-0.0956-0.199-0.231-0.0558-0.135-0.0398-0.263 0.0239-0.135 0.104-0.231 0.0877-0.104 0.215-0.128 0.128-0.0239 0.279 0.0717 0.351 0.207 0.741 0.303 0.391 0.0956 0.821 0.0956 0.63 0 0.917-0.207 0.287-0.215 0.287-0.55 0-0.279-0.207-0.438-0.199-0.159-0.693-0.263l-0.877-0.183q-0.757-0.159-1.13-0.534-0.367-0.383-0.367-1 0-0.391 0.159-0.709 0.159-0.319 0.446-0.55 0.295-0.231 0.693-0.351 0.406-0.128 0.893-0.128 0.478 0 0.909 0.12t0.773 0.351q0.128 0.0877 0.167 0.215 0.0478 0.128 0.0239 0.255-0.0239 0.12-0.112 0.207-0.0877 0.0877-0.223 0.104-0.128 0.0159-0.295-0.0797-0.295-0.167-0.598-0.239-0.303-0.0717-0.654-0.0717-0.367 0-0.63 0.104t-0.406 0.295q-0.135 0.183-0.135 0.438 0 0.287 0.191 0.462 0.191 0.167 0.654 0.263l0.869 0.183q0.789 0.167 1.17 0.526 0.391 0.359 0.391 0.956 0 0.383-0.159 0.693-0.151 0.311-0.446 0.534-0.287 0.223-0.693 0.343t-0.917 0.12zm4.8 0q-0.614 0-1.07-0.247-0.454-0.255-0.701-0.717-0.247-0.462-0.247-1.08 0-0.47 0.135-0.837 0.143-0.375 0.406-0.63 0.263-0.263 0.638-0.398 0.375-0.143 0.837-0.143 0.263 0 0.566 0.0717 0.311 0.0717 0.582 0.239 0.128 0.0797 0.167 0.191 0.0398 0.112 0.0159 0.231-0.0239 0.112-0.104 0.199-0.0717 0.0797-0.183 0.104-0.112 0.0159-0.247-0.0558-0.175-0.104-0.359-0.151-0.183-0.0558-0.351-0.0558-0.263 0-0.462 0.0877-0.199 0.0797-0.343 0.239-0.135 0.151-0.207 0.383-0.0717 0.231-0.0717 0.534 0 0.59 0.279 0.932 0.287 0.335 0.805 0.335 0.167 0 0.343-0.0478 0.183-0.0478 0.367-0.151 0.135-0.0717 0.239-0.0478 0.112 0.0239 0.183 0.112 0.0717 0.0797 0.0877 0.199 0.0159 0.112-0.0319 0.223-0.0398 0.112-0.159 0.183-0.263 0.159-0.558 0.231-0.295 0.0717-0.558 0.0717zm2.45-0.0159q-0.239 0-0.367-0.128-0.128-0.135-0.128-0.383v-4.73q0-0.247 0.128-0.375t0.367-0.128 0.367 0.128q0.135 0.128 0.135 0.375v2.06h-0.112q0.175-0.422 0.542-0.638 0.375-0.223 0.845-0.223 0.47 0 0.773 0.175 0.303 0.175 0.454 0.534 0.151 0.351 0.151 0.893v1.93q0 0.247-0.128 0.383-0.128 0.128-0.367 0.128t-0.375-0.128q-0.128-0.136-0.128-0.383v-1.88q0-0.454-0.175-0.662-0.167-0.207-0.526-0.207-0.438 0-0.701 0.279-0.255 0.271-0.255 0.725v1.75q0 0.51-0.502 0.51zm5.5 0.0159q-0.661 0-0.996-0.375-0.335-0.383-0.335-1.12v-3.77q0-0.247 0.128-0.375 0.128-0.128 0.367-0.128t0.367 0.128q0.135 0.128 0.135 0.375v3.72q0 0.367 0.151 0.542 0.159 0.175 0.446 0.175 0.0638 0 0.12 0 0.0558-8e-3 0.112-0.0159 0.112-0.0159 0.151 0.0638 0.0398 0.0717 0.0398 0.303 0 0.199-0.0797 0.311t-0.263 0.135q-0.0797 8e-3 -0.167 0.0159-0.0877 8e-3 -0.175 8e-3zm2.49 0q-0.422 0-0.757-0.159-0.327-0.167-0.518-0.446-0.183-0.279-0.183-0.63 0-0.43 0.223-0.677 0.223-0.255 0.725-0.367 0.502-0.112 1.35-0.112h0.398v0.574h-0.391q-0.494 0-0.789 0.0478t-0.422 0.167q-0.12 0.112-0.12 0.319 0 0.263 0.183 0.43 0.183 0.167 0.51 0.167 0.263 0 0.462-0.12 0.207-0.128 0.327-0.343 0.12-0.215 0.12-0.494v-0.917q0-0.398-0.175-0.574t-0.59-0.175q-0.231 0-0.502 0.0558-0.263 0.0558-0.558 0.191-0.151 0.0717-0.271 0.0399-0.112-0.0319-0.175-0.128-0.0638-0.104-0.0638-0.223 0-0.12 0.0638-0.231 0.0638-0.12 0.215-0.175 0.367-0.151 0.701-0.215 0.343-0.0638 0.622-0.0638 0.574 0 0.94 0.175 0.375 0.175 0.558 0.534 0.183 0.351 0.183 0.909v1.91q0 0.247-0.12 0.383-0.12 0.128-0.343 0.128t-0.351-0.128q-0.12-0.135-0.12-0.383v-0.383h0.0638q-0.0558 0.279-0.223 0.486-0.159 0.199-0.406 0.311t-0.566 0.112zm3.84-0.0159q-0.239 0-0.375-0.128-0.128-0.135-0.128-0.383v-2.7h-0.367q-0.191 0-0.295-0.0956-0.104-0.104-0.104-0.279 0-0.183 0.104-0.279 0.104-0.0956 0.295-0.0956h0.654l-0.287 0.263v-0.271q0-0.821 0.414-1.23 0.414-0.414 1.2-0.486l0.271-0.0239q0.159-0.0159 0.255 0.0558 0.0956 0.0638 0.128 0.175 0.0319 0.104 8e-3 0.215-0.0239 0.112-0.104 0.199-0.0717 0.0797-0.191 0.0877l-0.112 8e-3q-0.454 0.0319-0.661 0.231-0.207 0.199-0.207 0.606v0.295l-0.128-0.128h0.805q0.191 0 0.295 0.0956 0.104 0.0956 0.104 0.279 0 0.175-0.104 0.279-0.104 0.0956-0.295 0.0956h-0.677v2.7q0 0.51-0.494 0.51zm2.63 0q-0.239 0-0.367-0.128-0.128-0.135-0.128-0.383v-4.73q0-0.247 0.128-0.375t0.367-0.128 0.367 0.128q0.135 0.128 0.135 0.375v2.06h-0.112q0.175-0.422 0.542-0.638 0.375-0.223 0.845-0.223t0.773 0.175 0.454 0.534q0.151 0.351 0.151 0.893v1.93q0 0.247-0.128 0.383-0.128 0.128-0.367 0.128-0.239 0-0.375-0.128-0.128-0.135-0.128-0.383v-1.88q0-0.454-0.175-0.662-0.167-0.207-0.526-0.207-0.438 0-0.701 0.279-0.255 0.271-0.255 0.725v1.75q0 0.51-0.502 0.51zm5.45 0.0159q-0.422 0-0.757-0.159-0.327-0.167-0.518-0.446-0.183-0.279-0.183-0.63 0-0.43 0.223-0.677 0.223-0.255 0.725-0.367 0.502-0.112 1.35-0.112h0.398v0.574h-0.391q-0.494 0-0.789 0.0478t-0.422 0.167q-0.12 0.112-0.12 0.319 0 0.263 0.183 0.43 0.183 0.167 0.51 0.167 0.263 0 0.462-0.12 0.207-0.128 0.327-0.343 0.12-0.215 0.12-0.494v-0.917q0-0.398-0.175-0.574-0.175-0.175-0.59-0.175-0.231 0-0.502 0.0558-0.263 0.0558-0.558 0.191-0.151 0.0717-0.271 0.0399-0.112-0.0319-0.175-0.128-0.0638-0.104-0.0638-0.223 0-0.12 0.0638-0.231 0.0638-0.12 0.215-0.175 0.367-0.151 0.701-0.215 0.343-0.0638 0.622-0.0638 0.574 0 0.94 0.175 0.375 0.175 0.558 0.534 0.183 0.351 0.183 0.909v1.91q0 0.247-0.12 0.383-0.12 0.128-0.343 0.128-0.223 0-0.351-0.128-0.12-0.135-0.12-0.383v-0.383h0.0638q-0.0558 0.279-0.223 0.486-0.159 0.199-0.406 0.311t-0.566 0.112zm4.41 0q-0.662 0-0.996-0.375-0.335-0.383-0.335-1.12v-3.77q0-0.247 0.128-0.375t0.367-0.128 0.367 0.128q0.135 0.128 0.135 0.375v3.72q0 0.367 0.151 0.542 0.159 0.175 0.446 0.175 0.0638 0 0.12 0 0.0558-8e-3 0.112-0.0159 0.112-0.0159 0.151 0.0638 0.0398 0.0717 0.0398 0.303 0 0.199-0.0797 0.311t-0.263 0.135q-0.0797 8e-3 -0.167 0.0159-0.0877 8e-3 -0.175 8e-3zm2.54 0q-0.662 0-0.996-0.375-0.335-0.383-0.335-1.12v-3.77q0-0.247 0.128-0.375t0.367-0.128 0.367 0.128q0.135 0.128 0.135 0.375v3.72q0 0.367 0.151 0.542 0.159 0.175 0.446 0.175 0.0638 0 0.12 0 0.0558-8e-3 0.112-0.0159 0.112-0.0159 0.151 0.0638 0.0398 0.0717 0.0398 0.303 0 0.199-0.0797 0.311t-0.263 0.135q-0.0797 8e-3 -0.167 0.0159-0.0877 8e-3 -0.175 8e-3zm3.09 0q-0.661 0-1.14-0.247-0.478-0.247-0.741-0.701-0.255-0.454-0.255-1.08 0-0.606 0.247-1.06 0.255-0.454 0.693-0.709 0.446-0.263 1.01-0.263 0.414 0 0.741 0.135 0.335 0.135 0.566 0.391 0.239 0.255 0.359 0.622 0.128 0.359 0.128 0.813 0 0.143-0.104 0.223-0.0956 0.0717-0.279 0.0717h-2.56v-0.574h2.24l-0.128 0.12q0-0.367-0.112-0.614-0.104-0.247-0.311-0.375-0.199-0.135-0.502-0.135-0.335 0-0.574 0.159-0.231 0.151-0.359 0.438-0.12 0.279-0.12 0.669v0.0558q0 0.654 0.303 0.98 0.311 0.319 0.909 0.319 0.207 0 0.462-0.0478 0.263-0.0558 0.494-0.183 0.167-0.0956 0.295-0.0797 0.128 8e-3 0.199 0.0877 0.0797 0.0797 0.0956 0.199 0.0159 0.112-0.0478 0.231-0.0558 0.12-0.199 0.207-0.279 0.175-0.646 0.263-0.359 0.0797-0.669 0.0797z" fill="#5ab22e" stroke-width="1.5" aria-label="Schlafhalle"/><path d="m43.4 30.6q-0.0762 0-0.124-0.0367-0.0452-0.0367-0.0734-0.116l-0.59-1.67q-0.031-0.0903 0.0113-0.152 0.0452-0.0621 0.15-0.0621 0.0762 0 0.119 0.0367 0.0423 0.0338 0.0677 0.11l0.508 1.51h-0.113l0.531-1.5q0.0282-0.0762 0.0706-0.113 0.0423-0.0367 0.11-0.0367 0.0677 0 0.107 0.0367 0.0395 0.0367 0.0677 0.116l0.514 1.5h-0.0988l0.516-1.51q0.0254-0.0734 0.0677-0.11 0.0423-0.0367 0.116-0.0367 0.0903 0 0.133 0.0621 0.0423 0.0621 0.0113 0.152l-0.595 1.67q-0.0282 0.0762-0.0734 0.113-0.0452 0.0367-0.121 0.0367-0.0762 0-0.121-0.0367-0.0452-0.0367-0.0734-0.116l-0.491-1.4h0.0649l-0.497 1.4q-0.0282 0.0762-0.0734 0.113-0.0423 0.0367-0.119 0.0367zm2.91 0.0056q-0.234 0-0.404-0.0875t-0.262-0.248q-0.0903-0.161-0.0903-0.381 0-0.214 0.0875-0.375 0.0903-0.161 0.246-0.251 0.158-0.0931 0.358-0.0931 0.147 0 0.262 0.048 0.119 0.048 0.2 0.138 0.0847 0.0903 0.127 0.22 0.0452 0.127 0.0452 0.288 0 0.0508-0.0367 0.079-0.0339 0.0254-0.0988 0.0254h-0.906v-0.203h0.793l-0.0452 0.0423q0-0.13-0.0395-0.217-0.0367-0.0875-0.11-0.133-0.0706-0.048-0.178-0.048-0.119 0-0.203 0.0564-0.0818 0.0536-0.127 0.155-0.0423 0.0988-0.0423 0.237v0.0198q0 0.231 0.107 0.347 0.11 0.113 0.322 0.113 0.0734 0 0.164-0.0169 0.0931-0.0198 0.175-0.0649 0.0593-0.0338 0.104-0.0282 0.0452 0.0028 0.0706 0.0311 0.0282 0.0282 0.0339 0.0706 0.0056 0.0395-0.0169 0.0818-0.0198 0.0423-0.0706 0.0734-0.0988 0.0621-0.229 0.0931-0.127 0.0282-0.237 0.0282zm1.48 0q-0.183 0-0.308-0.0621-0.121-0.0621-0.181-0.181-0.0593-0.121-0.0593-0.299v-0.601h-0.147q-0.0677 0-0.104-0.0338-0.0367-0.0367-0.0367-0.0988 0-0.0649 0.0367-0.0988 0.0367-0.0338 0.104-0.0338h0.147v-0.257q0-0.0875 0.0452-0.133 0.048-0.0452 0.133-0.0452 0.0847 0 0.13 0.0452 0.0452 0.0452 0.0452 0.133v0.257h0.299q0.0677 0 0.104 0.0338 0.0367 0.0338 0.0367 0.0988 0 0.0621-0.0367 0.0988-0.0367 0.0338-0.104 0.0338h-0.299v0.581q0 0.135 0.0593 0.203 0.0593 0.0677 0.192 0.0677 0.048 0 0.0847-0.0085t0.0649-0.0113q0.0339-0.0028 0.0564 0.0226 0.0226 0.0226 0.0226 0.096 0 0.0564-0.0198 0.102-0.0169 0.0423-0.0649 0.0593-0.0367 0.0113-0.096 0.0198-0.0593 0.0113-0.104 0.0113zm1 0q-0.183 0-0.308-0.0621-0.121-0.0621-0.181-0.181-0.0593-0.121-0.0593-0.299v-0.601h-0.147q-0.0677 0-0.104-0.0338-0.0367-0.0367-0.0367-0.0988 0-0.0649 0.0367-0.0988 0.0367-0.0338 0.104-0.0338h0.147v-0.257q0-0.0875 0.0452-0.133 0.048-0.0452 0.133-0.0452 0.0847 0 0.13 0.0452 0.0452 0.0452 0.0452 0.133v0.257h0.299q0.0677 0 0.104 0.0338 0.0367 0.0338 0.0367 0.0988 0 0.0621-0.0367 0.0988-0.0367 0.0338-0.104 0.0338h-0.299v0.581q0 0.135 0.0593 0.203 0.0593 0.0677 0.192 0.0677 0.048 0 0.0847-0.0085t0.0649-0.0113q0.0339-0.0028 0.0564 0.0226 0.0226 0.0226 0.0226 0.096 0 0.0564-0.0198 0.102-0.0169 0.0423-0.0649 0.0593-0.0367 0.0113-0.096 0.0198-0.0593 0.0113-0.104 0.0113zm0.663-0.0056q-0.0847 0-0.13-0.0452-0.0452-0.048-0.0452-0.135v-1.68q0-0.0875 0.0452-0.133 0.0452-0.0452 0.13-0.0452 0.0847 0 0.13 0.0452 0.048 0.0452 0.048 0.133v1.04h0.0056l0.466-0.491q0.0564-0.0564 0.0988-0.0875 0.0423-0.0311 0.116-0.0311 0.0734 0 0.11 0.0395 0.0395 0.0367 0.0395 0.0903t-0.0508 0.107l-0.491 0.519v-0.147l0.539 0.581q0.0508 0.0536 0.0452 0.11-0.0028 0.0536-0.0452 0.0903-0.0423 0.0338-0.107 0.0338-0.079 0-0.127-0.0311-0.0452-0.0311-0.102-0.0931l-0.491-0.514h-0.0056v0.457q0 0.181-0.178 0.181zm1.78 0.0056q-0.15 0-0.268-0.0564-0.116-0.0593-0.183-0.158-0.0649-0.0988-0.0649-0.223 0-0.152 0.079-0.24 0.079-0.0903 0.257-0.13 0.178-0.0395 0.477-0.0395h0.141v0.203h-0.138q-0.175 0-0.279 0.0169t-0.15 0.0593q-0.0423 0.0395-0.0423 0.113 0 0.0931 0.0649 0.152 0.0649 0.0593 0.181 0.0593 0.0931 0 0.164-0.0423 0.0734-0.0452 0.116-0.121 0.0423-0.0762 0.0423-0.175v-0.325q0-0.141-0.0621-0.203-0.0621-0.0621-0.209-0.0621-0.0818 0-0.178 0.0198-0.0931 0.0198-0.198 0.0677-0.0536 0.0254-0.096 0.0141-0.0395-0.0113-0.0621-0.0452-0.0226-0.0367-0.0226-0.079t0.0226-0.0818q0.0226-0.0423 0.0762-0.0621 0.13-0.0536 0.248-0.0762 0.121-0.0226 0.22-0.0226 0.203 0 0.333 0.0621 0.133 0.0621 0.198 0.189 0.0649 0.124 0.0649 0.322v0.677q0 0.0875-0.0423 0.135-0.0423 0.0452-0.121 0.0452-0.079 0-0.124-0.0452-0.0423-0.048-0.0423-0.135v-0.135h0.0226q-0.0198 0.0988-0.079 0.172-0.0564 0.0706-0.144 0.11-0.0875 0.0395-0.2 0.0395zm1.27-0.0056q-0.0847 0-0.13-0.0452-0.0452-0.048-0.0452-0.135v-1.07q0-0.0875 0.0452-0.133 0.0452-0.0452 0.127-0.0452 0.0818 0 0.127 0.0452 0.0452 0.0452 0.0452 0.133v0.206l-0.0311-0.0847q0.0564-0.141 0.175-0.223 0.119-0.0818 0.282-0.0818 0.167 0 0.274 0.079 0.107 0.079 0.15 0.243h-0.0395q0.0564-0.15 0.186-0.234 0.13-0.0875 0.299-0.0875 0.158 0 0.26 0.0621 0.104 0.0621 0.155 0.189 0.0508 0.124 0.0508 0.316v0.683q0 0.0875-0.048 0.135-0.0452 0.0452-0.13 0.0452-0.0847 0-0.13-0.0452-0.0452-0.048-0.0452-0.135v-0.669q0-0.158-0.0536-0.231-0.0508-0.0734-0.175-0.0734-0.138 0-0.217 0.0988-0.079 0.096-0.079 0.268v0.607q0 0.0875-0.0452 0.135-0.0452 0.0452-0.13 0.0452-0.0847 0-0.133-0.0452-0.0452-0.048-0.0452-0.135v-0.669q0-0.158-0.0536-0.231-0.0508-0.0734-0.172-0.0734-0.138 0-0.217 0.0988-0.079 0.096-0.079 0.268v0.607q0 0.181-0.178 0.181zm2.47 0.508q-0.0847 0-0.13-0.0452-0.0452-0.0452-0.0452-0.133v-1.58q0-0.0875 0.0452-0.133 0.0452-0.0452 0.127-0.0452 0.0847 0 0.13 0.0452 0.0452 0.0452 0.0452 0.133v0.22l-0.0311-0.0847q0.0423-0.144 0.172-0.231 0.133-0.0875 0.308-0.0875 0.181 0 0.316 0.0875 0.138 0.0875 0.214 0.248 0.0762 0.158 0.0762 0.381 0 0.22-0.0762 0.384-0.0762 0.161-0.212 0.248-0.135 0.0875-0.319 0.0875-0.172 0-0.302-0.0847-0.13-0.0875-0.175-0.226h0.0338v0.635q0 0.0875-0.048 0.133-0.0452 0.0452-0.13 0.0452zm0.522-0.77q0.104 0 0.183-0.0508 0.079-0.0508 0.121-0.15 0.0452-0.102 0.0452-0.251 0-0.226-0.096-0.336-0.096-0.113-0.254-0.113-0.104 0-0.183 0.0508-0.079 0.048-0.124 0.15-0.0423 0.0988-0.0423 0.248 0 0.223 0.096 0.339 0.096 0.113 0.254 0.113zm1.25 0.262q-0.0847 0-0.133-0.0452-0.0452-0.048-0.0452-0.135v-0.957h-0.13q-0.0677 0-0.104-0.0338-0.0367-0.0367-0.0367-0.0988 0-0.0649 0.0367-0.0988 0.0367-0.0338 0.104-0.0338h0.231l-0.102 0.0931v-0.096q0-0.291 0.147-0.435 0.147-0.147 0.423-0.172l0.096-0.0085q0.0564-0.0056 0.0903 0.0198 0.0338 0.0226 0.0452 0.0621 0.0113 0.0367 0.0028 0.0762t-0.0367 0.0706q-0.0254 0.0282-0.0677 0.031l-0.0395 0.0028q-0.161 0.0113-0.234 0.0818-0.0734 0.0706-0.0734 0.214v0.104l-0.0452-0.0452h0.285q0.0677 0 0.104 0.0338 0.0367 0.0338 0.0367 0.0988 0 0.0621-0.0367 0.0988-0.0367 0.0338-0.104 0.0338h-0.24v0.957q0 0.181-0.175 0.181zm0.931 0q-0.0847 0-0.13-0.0452-0.0452-0.048-0.0452-0.135v-1.68q0-0.0875 0.0452-0.133 0.0452-0.0452 0.13-0.0452 0.0847 0 0.13 0.0452 0.048 0.0452 0.048 0.133v0.731h-0.0395q0.0621-0.15 0.192-0.226 0.133-0.079 0.299-0.079 0.167 0 0.274 0.0621 0.107 0.0621 0.161 0.189 0.0536 0.124 0.0536 0.316v0.683q0 0.0875-0.0452 0.135-0.0452 0.0452-0.13 0.0452-0.0847 0-0.133-0.0452-0.0452-0.048-0.0452-0.135v-0.666q0-0.161-0.0621-0.234-0.0593-0.0734-0.186-0.0734-0.155 0-0.248 0.0988-0.0903 0.096-0.0903 0.257v0.618q0 0.181-0.178 0.181zm1.93 0.0056q-0.15 0-0.268-0.0564-0.116-0.0593-0.183-0.158-0.0649-0.0988-0.0649-0.223 0-0.152 0.079-0.24 0.079-0.0903 0.257-0.13 0.178-0.0395 0.477-0.0395h0.141v0.203h-0.138q-0.175 0-0.279 0.0169-0.104 0.0169-0.15 0.0593-0.0423 0.0395-0.0423 0.113 0 0.0931 0.0649 0.152 0.0649 0.0593 0.181 0.0593 0.0931 0 0.164-0.0423 0.0734-0.0452 0.116-0.121 0.0423-0.0762 0.0423-0.175v-0.325q0-0.141-0.0621-0.203-0.0621-0.0621-0.209-0.0621-0.0818 0-0.178 0.0198-0.0931 0.0198-0.198 0.0677-0.0536 0.0254-0.096 0.0141-0.0395-0.0113-0.0621-0.0452-0.0226-0.0367-0.0226-0.079t0.0226-0.0818q0.0226-0.0423 0.0762-0.0621 0.13-0.0536 0.248-0.0762 0.121-0.0226 0.22-0.0226 0.203 0 0.333 0.0621 0.133 0.0621 0.198 0.189 0.0649 0.124 0.0649 0.322v0.677q0 0.0875-0.0423 0.135-0.0423 0.0452-0.121 0.0452-0.079 0-0.124-0.0452-0.0423-0.048-0.0423-0.135v-0.135h0.0226q-0.0198 0.0988-0.079 0.172-0.0564 0.0706-0.144 0.11-0.0875 0.0395-0.2 0.0395zm1.56 0q-0.234 0-0.353-0.133-0.119-0.135-0.119-0.395v-1.33q0-0.0875 0.0452-0.133 0.0452-0.0452 0.13-0.0452 0.0847 0 0.13 0.0452 0.048 0.0452 0.048 0.133v1.32q0 0.13 0.0536 0.192 0.0564 0.0621 0.158 0.0621 0.0226 0 0.0423 0 0.0198-0.0028 0.0395-0.0056 0.0395-0.0056 0.0536 0.0226 0.0141 0.0254 0.0141 0.107 0 0.0706-0.0282 0.11-0.0282 0.0395-0.0931 0.048-0.0282 0.0028-0.0593 0.0056-0.0311 0.0028-0.0621 0.0028zm0.9 0q-0.234 0-0.353-0.133-0.119-0.135-0.119-0.395v-1.33q0-0.0875 0.0452-0.133 0.0452-0.0452 0.13-0.0452 0.0847 0 0.13 0.0452 0.048 0.0452 0.048 0.133v1.32q0 0.13 0.0536 0.192 0.0564 0.0621 0.158 0.0621 0.0226 0 0.0423 0 0.0198-0.0028 0.0395-0.0056 0.0395-0.0056 0.0536 0.0226 0.0141 0.0254 0.0141 0.107 0 0.0706-0.0282 0.11-0.0282 0.0395-0.0931 0.048-0.0282 0.0028-0.0593 0.0056-0.0311 0.0028-0.0621 0.0028zm1.1 0q-0.234 0-0.404-0.0875-0.169-0.0875-0.262-0.248-0.0903-0.161-0.0903-0.381 0-0.214 0.0875-0.375 0.0903-0.161 0.246-0.251 0.158-0.0931 0.358-0.0931 0.147 0 0.262 0.048 0.119 0.048 0.2 0.138 0.0847 0.0903 0.127 0.22 0.0452 0.127 0.0452 0.288 0 0.0508-0.0367 0.079-0.0338 0.0254-0.0988 0.0254h-0.906v-0.203h0.793l-0.0452 0.0423q0-0.13-0.0395-0.217-0.0367-0.0875-0.11-0.133-0.0706-0.048-0.178-0.048-0.119 0-0.203 0.0564-0.0818 0.0536-0.127 0.155-0.0423 0.0988-0.0423 0.237v0.0198q0 0.231 0.107 0.347 0.11 0.113 0.322 0.113 0.0734 0 0.164-0.0169 0.0931-0.0198 0.175-0.0649 0.0593-0.0338 0.104-0.0282 0.0452 0.0028 0.0706 0.0311 0.0282 0.0282 0.0338 0.0706 0.0056 0.0395-0.0169 0.0818-0.0198 0.0423-0.0706 0.0734-0.0988 0.0621-0.229 0.0931-0.127 0.0282-0.237 0.0282z" fill="#6b48c8" stroke-width=".531" aria-label="Wettkampfhalle"/><path d="m14.9 17c-0.0522 0-0.0926 0.0135-0.12 0.0413-0.0278 0.0278-0.0413 0.069-0.0413 0.123v1.55c0 0.054 0.0135 0.0955 0.0413 0.125 0.0278 0.0278 0.0682 0.0419 0.12 0.0419 0.11 0 0.164-0.0555 0.164-0.167v-0.572c0-0.0992 0.028-0.178 0.0837-0.237 0.0574-0.0609 0.134-0.0915 0.229-0.0915 0.0783 0 0.136 0.0224 0.173 0.0677 0.0383 0.0452 0.0574 0.117 0.0574 0.217v0.616c0 0.054 0.014 0.0955 0.0419 0.125 0.0296 0.0278 0.0703 0.0419 0.122 0.0419 0.0522 0 0.092-0.014 0.12-0.0419 0.0278-0.0296 0.0419-0.0711 0.0419-0.125v-0.632c0-0.118-0.0165-0.216-0.0496-0.292-0.0331-0.0783-0.0827-0.136-0.149-0.175-0.0661-0.0383-0.151-0.0574-0.253-0.0574s-0.195 0.0241-0.276 0.0729c-0.0579 0.034-0.105 0.0798-0.141 0.137v-0.605c0-0.054-0.0149-0.0951-0.0444-0.123-0.0278-0.0278-0.0677-0.0413-0.12-0.0413zm2.95 0c-0.0522 0-0.092 0.0135-0.12 0.0413-0.0278 0.0278-0.0419 0.069-0.0419 0.123v1.23c0 0.16 0.0365 0.282 0.11 0.365 0.0731 0.0818 0.182 0.123 0.327 0.123 0.0191 0 0.0382-8.5e-4 0.0574-0.00258 0.0191-0.00173 0.0374-0.00343 0.0548-0.00517 0.04-0.00522 0.0689-0.0201 0.0863-0.0444 0.0174-0.0244 0.0258-0.0583 0.0258-0.102 0-0.0505-0.00422-0.0836-0.0129-0.0992-0.0087-0.0174-0.0252-0.0241-0.0496-0.0207-0.0122 0.00173-0.0245 0.00343-0.0367 0.00517h-0.0393c-0.0627 0-0.111-0.0196-0.146-0.0579-0.0331-0.0383-0.0496-0.0972-0.0496-0.177v-1.22c0-0.054-0.0149-0.0951-0.0444-0.123-0.0278-0.0278-0.0682-0.0413-0.12-0.0413zm6.87 0c-0.0522 0-0.092 0.0135-0.12 0.0413-0.0278 0.0278-0.0419 0.069-0.0419 0.123v1.23c0 0.16 0.0365 0.282 0.11 0.365 0.0731 0.0818 0.182 0.123 0.327 0.123 0.0191 0 0.0382-8.5e-4 0.0574-0.00258 0.0191-0.00173 0.0374-0.00343 0.0548-0.00517 0.04-0.00522 0.0689-0.0201 0.0863-0.0444 0.0174-0.0244 0.0258-0.0583 0.0258-0.102 0-0.0505-0.00422-0.0836-0.0129-0.0992-0.0087-0.0174-0.0252-0.0241-0.0496-0.0207-0.0122 0.00173-0.0245 0.00343-0.0367 0.00517h-0.0388c-0.0627 0-0.111-0.0196-0.146-0.0579-0.0331-0.0383-0.0496-0.0972-0.0496-0.177v-1.22c0-0.054-0.0149-0.0951-0.0444-0.123-0.0278-0.0278-0.0682-0.0413-0.12-0.0413zm0.833 0c-0.0522 0-0.092 0.0135-0.12 0.0413-0.0278 0.0278-0.0419 0.069-0.0419 0.123v1.23c0 0.16 0.0365 0.282 0.11 0.365 0.0731 0.0818 0.182 0.123 0.326 0.123 0.0191 0 0.0387-8.5e-4 0.0579-0.00258 0.0191-0.00173 0.0374-0.00343 0.0548-0.00517 0.04-0.00522 0.0684-0.0201 0.0858-0.0444 0.0174-0.0244 0.0264-0.0583 0.0264-0.102 0-0.0505-0.00422-0.0836-0.0129-0.0992-0.0087-0.0174-0.0252-0.0241-0.0496-0.0207-0.0122 0.00173-0.0245 0.00343-0.0367 0.00517h-0.0393c-0.0627 0-0.111-0.0196-0.146-0.0579-0.0331-0.0383-0.0496-0.0972-0.0496-0.177v-1.22c0-0.054-0.0149-0.0951-0.0444-0.123-0.0278-0.0278-0.0677-0.0413-0.12-0.0413zm-15.2 0.0207c-0.0574 0-0.102 0.0157-0.133 0.047-0.0296 0.0296-0.0444 0.0728-0.0444 0.13v1.49c0 0.0574 0.0149 0.102 0.0444 0.133 0.0313 0.0296 0.0759 0.0439 0.133 0.0439h0.655c0.197 0 0.35-0.044 0.459-0.133 0.111-0.0905 0.167-0.218 0.167-0.381 0-0.125-0.0356-0.227-0.107-0.305-0.0565-0.062-0.131-0.105-0.223-0.13 0.0758-0.029 0.138-0.0727 0.187-0.131 0.0644-0.0766 0.0961-0.171 0.0961-0.282 0-0.0992-0.0241-0.184-0.0729-0.256-0.047-0.0714-0.116-0.126-0.206-0.164-0.0905-0.0383-0.2-0.0574-0.329-0.0574h-0.626zm8.37 0.162c-0.0522 0-0.0934 0.014-0.123 0.0419-0.0278 0.0278-0.0413 0.0685-0.0413 0.122v0.238h-0.136c-0.0418 0-0.074 0.0106-0.0966 0.0315s-0.0341 0.0514-0.0341 0.0915c0 0.0383 0.0115 0.0683 0.0341 0.091 0.0226 0.0209 0.0549 0.0315 0.0966 0.0315h0.136v0.556c0 0.11 0.0182 0.202 0.0548 0.276 0.0365 0.0731 0.0921 0.129 0.167 0.167 0.0766 0.0383 0.172 0.0574 0.285 0.0574 0.0278 0 0.0596-0.00338 0.0961-0.0103 0.0365-0.00522 0.0663-0.0116 0.0889-0.0186 0.0296-0.0104 0.0495-0.0287 0.0599-0.0548 0.0122-0.0278 0.0186-0.0592 0.0186-0.0941 0-0.0453-0.00727-0.0744-0.0212-0.0884-0.0139-0.0157-0.0313-0.0229-0.0522-0.0212-0.0174 0.00176-0.0373 0.00514-0.0599 0.0103-0.0226 0.0052-0.0484 0.00827-0.078 0.00827-0.0818 0-0.141-0.0213-0.178-0.063-0.0365-0.0418-0.0548-0.104-0.0548-0.188v-0.538h0.276c0.0418 0 0.074-0.0106 0.0966-0.0315 0.0226-0.0226 0.0341-0.0527 0.0341-0.091 0-0.04-0.0115-0.0706-0.0341-0.0915s-0.0549-0.0315-0.0966-0.0315h-0.276v-0.238c0-0.054-0.014-0.0946-0.0419-0.122-0.0278-0.0278-0.0677-0.0419-0.12-0.0419zm3.66 0c-0.0522 0-0.0929 0.014-0.122 0.0419-0.0278 0.0278-0.0419 0.0685-0.0419 0.122v0.238h-0.136c-0.0418 0-0.0735 0.0106-0.0961 0.0315-0.0226 0.0209-0.0341 0.0514-0.0341 0.0915 0 0.0383 0.0115 0.0683 0.0341 0.091 0.0226 0.0209 0.0544 0.0315 0.0961 0.0315h0.136v0.556c0 0.11 0.0182 0.202 0.0548 0.276 0.0365 0.0731 0.0926 0.129 0.167 0.167 0.0766 0.0383 0.171 0.0574 0.284 0.0574 0.0278 0 0.0601-0.00338 0.0966-0.0103 0.0365-0.00522 0.0663-0.0116 0.0889-0.0186 0.0296-0.0104 0.0495-0.0287 0.0599-0.0548 0.0122-0.0278 0.0181-0.0592 0.0181-0.0941 0-0.0453-0.00675-0.0744-0.0207-0.0884-0.0139-0.0157-0.0313-0.0229-0.0522-0.0212-0.0174 0.00176-0.0373 0.00514-0.0599 0.0103s-0.049 0.00827-0.0785 0.00827c-0.0818 0-0.141-0.0213-0.177-0.063-0.0365-0.0418-0.0548-0.104-0.0548-0.188v-0.538h0.276c0.0418 0 0.074-0.0106 0.0966-0.0315 0.0226-0.0226 0.0341-0.0527 0.0341-0.091 0-0.04-0.0115-0.0706-0.0341-0.0915-0.0226-0.0209-0.0549-0.0315-0.0966-0.0315h-0.276v-0.238c0-0.054-0.014-0.0946-0.0419-0.122-0.0278-0.0278-0.0682-0.0419-0.12-0.0419zm-11.9 0.0915h0.425c0.115 0 0.2 0.0224 0.256 0.0677 0.0574 0.0435 0.0863 0.109 0.0863 0.196 0 0.087-0.0289 0.153-0.0863 0.198-0.0557 0.0435-0.141 0.0651-0.256 0.0651h-0.425v-0.527zm3.46 0.285c-0.106 0-0.2 0.0165-0.282 0.0496-0.0818 0.0331-0.146 0.0796-0.193 0.141-0.0452 0.0609-0.0677 0.134-0.0677 0.217 0 0.0922 0.0275 0.168 0.0832 0.227 0.0574 0.0574 0.14 0.0964 0.248 0.117l0.261 0.0496c0.054 0.0104 0.0943 0.027 0.12 0.0496 0.0278 0.0209 0.0419 0.0514 0.0419 0.0915 0 0.047-0.0213 0.0857-0.063 0.115-0.04 0.0278-0.101 0.0413-0.185 0.0413-0.0592 0-0.119-0.00591-0.18-0.0181-0.0609-0.0139-0.126-0.0372-0.196-0.0703-0.0278-0.0139-0.0537-0.0186-0.078-0.0134-0.0226 0.00522-0.0417 0.0167-0.0574 0.0341-0.0139 0.0174-0.0229 0.0382-0.0264 0.0625-0.00174 0.0226 0.00248 0.0464 0.0129 0.0708 0.0122 0.0226 0.0321 0.0425 0.0599 0.0599 0.0661 0.0383 0.141 0.065 0.225 0.0806 0.0835 0.0157 0.163 0.0238 0.238 0.0238 0.165 0 0.297-0.0356 0.396-0.107 0.0992-0.0731 0.149-0.173 0.149-0.3 0-0.094-0.0292-0.169-0.0884-0.225-0.0574-0.0557-0.143-0.0938-0.256-0.115l-0.261-0.0496c-0.0505-0.0087-0.0878-0.0252-0.112-0.0496-0.0244-0.0244-0.0367-0.0549-0.0367-0.0915 0-0.0487 0.0204-0.0877 0.0605-0.117 0.0418-0.0296 0.105-0.0444 0.19-0.0444 0.0452 0 0.0923 0.00642 0.141 0.0186 0.0505 0.0122 0.103 0.0321 0.157 0.0599 0.0296 0.0139 0.0559 0.019 0.0785 0.0155 0.0244-0.00522 0.0443-0.0167 0.0599-0.0341 0.0157-0.0191 0.0263-0.0399 0.0315-0.0625 0.00524-0.0244 0.00269-0.0477-0.00775-0.0703-0.0087-0.0226-0.0261-0.0409-0.0522-0.0548-0.0627-0.0348-0.128-0.0603-0.196-0.076-0.0661-0.0174-0.138-0.0258-0.214-0.0258zm2.84 0c-0.0609 0-0.129 0.00675-0.204 0.0207-0.0731 0.0139-0.15 0.0372-0.23 0.0703-0.0331 0.0122-0.0564 0.0313-0.0703 0.0574-0.0139 0.0244-0.0212 0.0499-0.0212 0.076s0.00727 0.0502 0.0212 0.0729c0.0139 0.0209 0.033 0.0349 0.0574 0.0419 0.0261 0.00696 0.0558 0.00274 0.0889-0.0129 0.0644-0.0296 0.125-0.0503 0.182-0.0625 0.0592-0.0122 0.114-0.0186 0.164-0.0186 0.0905 0 0.155 0.0196 0.193 0.0579 0.0383 0.0383 0.0574 0.101 0.0574 0.188v0.0548h-0.091c-0.184 0-0.332 0.0123-0.441 0.0367-0.11 0.0244-0.189 0.0642-0.238 0.12-0.0487 0.054-0.0729 0.128-0.0729 0.222 0 0.0766 0.0199 0.145 0.0599 0.206 0.0418 0.0609 0.0981 0.11 0.169 0.146 0.0731 0.0348 0.156 0.0522 0.248 0.0522 0.0696 0 0.132-0.0123 0.186-0.0367 0.054-0.0244 0.098-0.0583 0.133-0.102 0.0217-0.0269 0.0396-0.0565 0.0527-0.0889v0.0548c0 0.054 0.0126 0.096 0.0388 0.126 0.0278 0.0278 0.0665 0.0419 0.115 0.0419 0.0487 0 0.086-0.014 0.112-0.0419 0.0261-0.0296 0.0393-0.0716 0.0393-0.126v-0.626c0-0.122-0.0204-0.221-0.0605-0.298-0.04-0.0783-0.101-0.136-0.182-0.175-0.0801-0.0383-0.183-0.0574-0.308-0.0574zm3.24 0c-0.124 0-0.234 0.0284-0.332 0.0858-0.0957 0.0557-0.171 0.133-0.227 0.233-0.054 0.0992-0.0811 0.215-0.0811 0.347 0 0.136 0.028 0.253 0.0837 0.352 0.0574 0.0992 0.138 0.175 0.243 0.229 0.104 0.054 0.229 0.0811 0.373 0.0811 0.0679 0 0.141-0.00895 0.219-0.0264 0.0801-0.0191 0.151-0.0475 0.212-0.0858 0.0313-0.0191 0.0529-0.0421 0.0651-0.0682 0.0139-0.0261 0.019-0.0511 0.0155-0.0754-0.00348-0.0261-0.0136-0.0477-0.031-0.0651-0.0157-0.0174-0.0378-0.0272-0.0656-0.0289-0.0278-0.00348-0.0601 0.00495-0.0966 0.0258-0.0505 0.0278-0.104 0.0483-0.162 0.0605-0.0557 0.0104-0.106 0.0155-0.151 0.0155-0.131 0-0.23-0.0348-0.298-0.104-0.0525-0.0567-0.0843-0.136-0.0951-0.238h0.79c0.04 0 0.0706-0.00759 0.0915-0.0233 0.0226-0.0174 0.0341-0.0421 0.0341-0.0734 0-0.0992-0.014-0.188-0.0419-0.266-0.0261-0.0801-0.0656-0.148-0.118-0.204-0.0505-0.0557-0.112-0.0986-0.185-0.128-0.0714-0.0296-0.152-0.0439-0.243-0.0439zm1.35 0c-0.106 0-0.2 0.0165-0.282 0.0496-0.0818 0.0331-0.146 0.0796-0.193 0.141-0.0452 0.0609-0.0677 0.134-0.0677 0.217 0 0.0922 0.028 0.168 0.0837 0.227 0.0574 0.0574 0.14 0.0964 0.248 0.117l0.261 0.0496c0.054 0.0104 0.0938 0.027 0.12 0.0496 0.0278 0.0209 0.0419 0.0514 0.0419 0.0915 0 0.047-0.0208 0.0857-0.0625 0.115-0.04 0.0278-0.102 0.0413-0.186 0.0413-0.0592 0-0.119-0.00591-0.18-0.0181-0.0609-0.0139-0.126-0.0372-0.195-0.0703-0.0278-0.0139-0.0542-0.0186-0.0785-0.0134-0.0226 0.00522-0.0417 0.0167-0.0574 0.0341-0.0139 0.0174-0.0229 0.0382-0.0264 0.0625-0.00174 0.0226 3e-3 0.0464 0.0134 0.0708 0.0122 0.0226 0.0321 0.0425 0.0599 0.0599 0.0661 0.0383 0.141 0.065 0.224 0.0806 0.0835 0.0157 0.163 0.0238 0.238 0.0238 0.165 0 0.298-0.0356 0.397-0.107 0.0992-0.0731 0.149-0.173 0.149-0.3 0-0.094-0.0297-0.169-0.0889-0.225-0.0574-0.0557-0.143-0.0938-0.256-0.115l-0.261-0.0496c-0.0505-0.0087-0.0883-0.0252-0.113-0.0496s-0.0362-0.0549-0.0362-0.0915c0-0.0487 0.0199-0.0877 0.0599-0.117 0.0418-0.0296 0.105-0.0444 0.191-0.0444 0.0453 0 0.0918 0.00642 0.141 0.0186 0.0505 0.0122 0.103 0.0321 0.157 0.0599 0.0296 0.0139 0.0554 0.019 0.078 0.0155 0.0244-0.00522 0.0443-0.0167 0.0599-0.0341 0.0157-0.0191 0.0263-0.0399 0.0315-0.0625 0.00524-0.0244 0.00269-0.0477-0.00775-0.0703-0.0087-0.0226-0.0261-0.0409-0.0522-0.0548-0.0627-0.0348-0.128-0.0603-0.196-0.076-0.0661-0.0174-0.137-0.0258-0.214-0.0258zm2.31 0c-0.124 0-0.234 0.0284-0.332 0.0858-0.0957 0.0557-0.172 0.133-0.227 0.233-0.054 0.0992-0.0806 0.215-0.0806 0.347 0 0.136 0.0275 0.253 0.0832 0.352 0.0574 0.0992 0.138 0.175 0.243 0.229 0.104 0.054 0.229 0.0811 0.374 0.0811 0.0679 0 0.141-0.00895 0.219-0.0264 0.0801-0.0191 0.15-0.0475 0.211-0.0858 0.0313-0.0191 0.0534-0.0421 0.0656-0.0682 0.0139-0.0261 0.019-0.0511 0.0155-0.0754-0.00348-0.0261-0.0141-0.0477-0.0315-0.0651-0.0157-0.0174-0.0373-0.0272-0.0651-0.0289-0.0278-0.00348-0.0601 0.00495-0.0966 0.0258-0.0505 0.0278-0.104 0.0483-0.162 0.0605-0.0557 0.0104-0.106 0.0155-0.151 0.0155-0.131 0-0.23-0.0348-0.298-0.104-0.0525-0.0567-0.0843-0.136-0.0951-0.238h0.79c0.04 0 0.0701-0.00759 0.091-0.0233 0.0226-0.0174 0.0341-0.0421 0.0341-0.0734 0-0.0992-0.014-0.188-0.0419-0.266-0.0261-0.0801-0.0651-0.148-0.117-0.204-0.0505-0.0557-0.112-0.0986-0.186-0.128-0.0714-0.0296-0.152-0.0439-0.242-0.0439zm3.07 0c-0.124 0-0.234 0.0284-0.331 0.0858-0.0957 0.0557-0.172 0.133-0.227 0.233-0.054 0.0992-0.0806 0.215-0.0806 0.347 0 0.136 0.0275 0.253 0.0832 0.352 0.0574 0.0992 0.138 0.175 0.243 0.229 0.104 0.054 0.229 0.0811 0.373 0.0811 0.0679 0 0.141-0.00895 0.22-0.0264 0.0801-0.0191 0.15-0.0475 0.211-0.0858 0.0313-0.0191 0.0529-0.0421 0.0651-0.0682 0.0139-0.0261 0.0195-0.0511 0.016-0.0754-0.00349-0.0261-0.0141-0.0477-0.0315-0.0651-0.0157-0.0174-0.0373-0.0272-0.0651-0.0289-0.0278-0.00348-0.0601 0.00495-0.0966 0.0258-0.0505 0.0278-0.104 0.0483-0.162 0.0605-0.0557 0.0104-0.106 0.0155-0.151 0.0155-0.131 0-0.23-0.0348-0.298-0.104-0.0525-0.0567-0.0843-0.136-0.0951-0.238h0.789c0.04 0 0.0706-0.00759 0.0915-0.0233 0.0226-0.0174 0.0341-0.0421 0.0341-0.0734 0-0.0992-0.014-0.188-0.0419-0.266-0.0261-0.0801-0.0651-0.148-0.117-0.204-0.0505-0.0557-0.112-0.0986-0.186-0.128-0.0714-0.0296-0.152-0.0439-0.243-0.0439zm-14.7 0.00517c-0.0522 0-0.092 0.014-0.12 0.0419-0.0278 0.0261-0.0419 0.0668-0.0419 0.122v0.631c0 0.117 0.0165 0.214 0.0496 0.292 0.0348 0.0783 0.087 0.138 0.157 0.178 0.0696 0.0383 0.158 0.0574 0.264 0.0574 0.101 0 0.188-0.0255 0.261-0.076 0.0532-0.0359 0.0964-0.0827 0.13-0.141v0.0439c0 0.054 0.014 0.096 0.0419 0.126 0.0278 0.0278 0.0668 0.0419 0.117 0.0419 0.106 0 0.16-0.056 0.16-0.167v-0.987c0-0.0557-0.0149-0.0964-0.0444-0.122-0.0278-0.0278-0.0682-0.0419-0.12-0.0419-0.0522 0-0.092 0.014-0.12 0.0419-0.0278 0.0261-0.0419 0.0668-0.0419 0.122v0.574c0 0.0992-0.0275 0.179-0.0832 0.24-0.0557 0.0592-0.127 0.0889-0.214 0.0889-0.0801 0-0.138-0.0216-0.175-0.0651-0.0365-0.0435-0.0548-0.111-0.0548-0.201v-0.637c0-0.0557-0.0149-0.0964-0.0444-0.122-0.0278-0.0278-0.0682-0.0419-0.12-0.0419zm7.96 0.217c0.0661 0 0.121 0.0149 0.164 0.0444 0.0452 0.0278 0.0792 0.0685 0.102 0.122 0.0203 0.0449 0.0323 0.0988 0.0357 0.162h-0.641c0.00598-0.0495 0.0173-0.0935 0.0341-0.133 0.0278-0.0627 0.0668-0.111 0.117-0.144 0.0522-0.0348 0.115-0.0522 0.188-0.0522zm3.67 0c0.0661 0 0.121 0.0149 0.164 0.0444 0.0452 0.0278 0.0792 0.0685 0.102 0.122 0.0203 0.0449 0.0323 0.0988 0.0357 0.162h-0.642c0.00598-0.0495 0.0178-0.0935 0.0346-0.133 0.0278-0.0627 0.0668-0.111 0.117-0.144 0.0522-0.0348 0.115-0.0522 0.188-0.0522zm3.07 0c0.0661 0 0.121 0.0149 0.164 0.0444 0.0452 0.0278 0.0792 0.0685 0.102 0.122 0.0203 0.0449 0.0323 0.0988 0.0357 0.162h-0.642c0.00598-0.0495 0.0173-0.0935 0.0341-0.133 0.0278-0.0627 0.0673-0.111 0.118-0.144 0.0522-0.0348 0.115-0.0522 0.188-0.0522zm-16.3 0.274h0.47c0.118 0 0.205 0.023 0.261 0.0682 0.0557 0.0452 0.0837 0.115 0.0837 0.209 0 0.0922-0.028 0.162-0.0837 0.209-0.0557 0.0452-0.143 0.0677-0.261 0.0677h-0.47v-0.553zm6.45 0.238h0.0884v0.0574c0 0.0609-0.0127 0.115-0.0388 0.162-0.0261 0.047-0.0617 0.0848-0.107 0.113-0.0435 0.0261-0.094 0.0388-0.151 0.0388-0.0714 0-0.127-0.0182-0.167-0.0548-0.04-0.0365-0.0599-0.0831-0.0599-0.141 0-0.0452 0.0132-0.0805 0.0393-0.105 0.0278-0.0261 0.0741-0.0443 0.138-0.0548 0.0644-0.0104 0.15-0.0155 0.258-0.0155zm-5.92 2.01c-0.143 0-0.271 0.0224-0.386 0.0677-0.113 0.0435-0.209 0.107-0.287 0.191-0.0783 0.0818-0.139 0.181-0.18 0.298-0.0418 0.115-0.0625 0.245-0.0625 0.389 0 0.193 0.0365 0.361 0.11 0.504 0.0731 0.141 0.178 0.25 0.314 0.329 0.137 0.0766 0.302 0.115 0.493 0.115 0.0992 0 0.197-0.0127 0.292-0.0388 0.0975-0.0278 0.181-0.0673 0.251-0.118 0.0313-0.0226 0.0521-0.0484 0.0625-0.078 0.0104-0.0313 0.0121-0.061 0.00517-0.0889-0.00696-0.0296-0.0205-0.0537-0.0413-0.0729-0.0209-0.0192-0.0472-0.0298-0.0785-0.0315-0.0296-0.00348-0.0635 0.0058-0.102 0.0284-0.0574 0.0348-0.119 0.0611-0.183 0.0785-0.0644 0.0157-0.129 0.0233-0.195 0.0233-0.124 0-0.228-0.025-0.314-0.0754-0.0853-0.0505-0.149-0.124-0.193-0.222-0.0435-0.0975-0.0656-0.215-0.0656-0.352 0-0.139 0.0221-0.257 0.0656-0.352 0.0435-0.0957 0.107-0.169 0.193-0.22s0.19-0.0754 0.314-0.0754c0.0644 0 0.128 0.00759 0.19 0.0233 0.0627 0.0157 0.121 0.0412 0.175 0.076 0.0383 0.0244 0.0731 0.0353 0.104 0.0336 0.0331-0.00348 0.0597-0.0153 0.0806-0.0362 0.0226-0.0209 0.0375-0.0464 0.0444-0.076 0.00698-0.0313 0.00443-0.0627-0.00775-0.0941-0.0122-0.0331-0.0363-0.0606-0.0729-0.0832-0.0696-0.0452-0.151-0.08-0.243-0.104-0.0922-0.0244-0.186-0.0367-0.282-0.0367zm10 0.188c-0.0522 0-0.0929 0.0135-0.122 0.0413-0.0278 0.0278-0.0419 0.069-0.0419 0.123v0.237h-0.135c-0.0418 0-0.074 0.0106-0.0966 0.0315-0.0226 0.0209-0.0341 0.0514-0.0341 0.0915 0 0.0383 0.0115 0.0688 0.0341 0.0915 0.0226 0.0209 0.0549 0.031 0.0966 0.031h0.135v0.556c0 0.11 0.0182 0.202 0.0548 0.277 0.0365 0.0731 0.0926 0.129 0.167 0.167 0.0766 0.0383 0.171 0.0574 0.284 0.0574 0.0278 0 0.0601-0.00338 0.0966-0.0103 0.0365-0.00522 0.0663-0.0111 0.0889-0.0181 0.0296-0.0104 0.0495-0.0287 0.0599-0.0548 0.0122-0.0278 0.0181-0.0592 0.0181-0.0941 0-0.0453-0.00675-0.075-0.0207-0.0889-0.0139-0.0157-0.0313-0.0224-0.0522-0.0207-0.0174 0.00176-0.0373 0.00514-0.0599 0.0103-0.0226 0.0052-0.049 0.00775-0.0785 0.00775-0.0818 0-0.141-0.0208-0.177-0.0625-0.0365-0.0418-0.0548-0.105-0.0548-0.188v-0.538h0.276c0.0418 0 0.074-0.0101 0.0966-0.031 0.0226-0.0226 0.0341-0.0532 0.0341-0.0915 0-0.04-0.0115-0.0706-0.0341-0.0915-0.0226-0.0209-0.0549-0.0315-0.0966-0.0315h-0.276v-0.237c0-0.054-0.014-0.0951-0.0419-0.123-0.0278-0.0278-0.0682-0.0413-0.12-0.0413zm-7.01 0.375c-0.00432 2.6e-5 -0.00887 8.4e-5 -0.0134 5.17e-4 -0.118 0.0104-0.213 0.0427-0.284 0.0966-0.0513 0.0388-0.0908 0.0907-0.118 0.156v-0.0827c0-0.054-0.014-0.0946-0.0419-0.122-0.0278-0.0278-0.0668-0.0419-0.117-0.0419-0.0505 0-0.0895 0.014-0.117 0.0419-0.0278 0.0278-0.0419 0.0685-0.0419 0.122v0.987c0 0.054 0.014 0.0955 0.0419 0.125 0.0296 0.0278 0.0711 0.0419 0.125 0.0419 0.054 0 0.0951-0.014 0.123-0.0419 0.0278-0.0296 0.0419-0.0711 0.0419-0.125v-0.541c0-0.0992 0.0267-0.175 0.0806-0.229 0.054-0.0557 0.134-0.0888 0.24-0.0992l0.0574-0.00517c0.047-0.00522 0.0818-0.0209 0.104-0.047 0.0244-0.0278 0.035-0.0635 0.0315-0.107-0.00348-0.0452-0.0166-0.0783-0.0393-0.0992-0.0183-0.0198-0.0426-0.0296-0.0729-0.0295zm1.02 0c-0.00432 2.6e-5 -0.00835 8.4e-5 -0.0129 5.17e-4 -0.118 0.0104-0.213 0.0427-0.285 0.0966-0.0513 0.0388-0.0903 0.0907-0.117 0.156v-0.0827c0-0.054-0.014-0.0946-0.0419-0.122-0.0278-0.0278-0.0673-0.0419-0.118-0.0419-0.0505 0-0.0895 0.014-0.117 0.0419-0.0278 0.0278-0.0419 0.0685-0.0419 0.122v0.987c0 0.054 0.014 0.0955 0.0419 0.125 0.0296 0.0278 0.0716 0.0419 0.126 0.0419 0.054 0 0.0946-0.014 0.122-0.0419 0.0278-0.0296 0.0419-0.0711 0.0419-0.125v-0.541c0-0.0992 0.0267-0.175 0.0806-0.229 0.054-0.0557 0.134-0.0888 0.24-0.0992l0.0574-0.00517c0.047-0.00522 0.0818-0.0209 0.104-0.047 0.0244-0.0278 0.035-0.0635 0.0315-0.107-0.00348-0.0452-0.0166-0.0783-0.0393-0.0992-0.0183-0.0198-0.0426-0.0296-0.0729-0.0295zm7.48 0c-0.00432 2.6e-5 -0.00887 8.4e-5 -0.0134 5.17e-4 -0.118 0.0104-0.213 0.0427-0.285 0.0966-0.0513 0.0388-0.0903 0.0907-0.117 0.156v-0.0827c0-0.054-0.014-0.0946-0.0419-0.122-0.0278-0.0278-0.0668-0.0419-0.117-0.0419-0.0505 0-0.09 0.014-0.118 0.0419-0.0278 0.0278-0.0413 0.0685-0.0413 0.122v0.987c0 0.054 0.0135 0.0955 0.0413 0.125 0.0296 0.0278 0.0716 0.0419 0.126 0.0419 0.054 0 0.0946-0.014 0.122-0.0419 0.0278-0.0296 0.0419-0.0711 0.0419-0.125v-0.541c0-0.0992 0.0272-0.175 0.0811-0.229 0.054-0.0557 0.134-0.0888 0.24-0.0992l0.0579-0.00517c0.047-0.00522 0.0818-0.0209 0.104-0.047 0.0244-0.0278 0.0345-0.0635 0.031-0.107-0.00348-0.0452-0.0166-0.0783-0.0393-0.0992-0.0183-0.0198-0.0421-0.0296-0.0723-0.0295zm-10.2 5.17e-4c-0.0992 0-0.189 0.0157-0.269 0.047-0.0801 0.0296-0.149 0.0742-0.206 0.133-0.0574 0.0574-0.101 0.127-0.133 0.209-0.0296 0.0801-0.0444 0.171-0.0444 0.274 0 0.136 0.0267 0.254 0.0806 0.355 0.054 0.0992 0.13 0.176 0.227 0.23 0.0975 0.054 0.212 0.0806 0.345 0.0806 0.0992 0 0.189-0.0149 0.269-0.0444 0.0801-0.0313 0.149-0.0754 0.206-0.133 0.0574-0.0592 0.101-0.13 0.131-0.211 0.0313-0.0818 0.047-0.174 0.047-0.277 0-0.136-0.0272-0.253-0.0811-0.352-0.054-0.0992-0.129-0.175-0.227-0.229-0.0975-0.054-0.212-0.0811-0.345-0.0811zm3.52 0c-0.124 0-0.234 0.0289-0.331 0.0863-0.0957 0.0557-0.172 0.133-0.227 0.232-0.054 0.0992-0.0806 0.215-0.0806 0.347 0 0.136 0.0275 0.253 0.0832 0.352 0.0574 0.0992 0.138 0.176 0.243 0.23 0.104 0.054 0.229 0.0806 0.374 0.0806 0.0679 0 0.141-0.00843 0.219-0.0258 0.0801-0.0191 0.15-0.048 0.211-0.0863 0.0313-0.0191 0.0529-0.0416 0.0651-0.0677 0.0139-0.0261 0.0195-0.0516 0.016-0.076-0.00348-0.0261-0.0141-0.0477-0.0315-0.0651-0.0157-0.0174-0.0373-0.0272-0.0651-0.0289-0.0278-0.00348-0.0601 0.00547-0.0966 0.0264-0.0505 0.0278-0.104 0.0478-0.162 0.0599-0.0557 0.0104-0.106 0.0155-0.151 0.0155-0.131 0-0.23-0.0348-0.298-0.104-0.0525-0.0567-0.0843-0.136-0.0951-0.237h0.79c0.04 0 0.0701-0.00811 0.091-0.0238 0.0226-0.0174 0.0341-0.0415 0.0341-0.0729 0-0.0992-0.014-0.188-0.0419-0.267-0.0261-0.0801-0.0651-0.148-0.117-0.204-0.0505-0.0557-0.112-0.0981-0.186-0.128-0.0714-0.0296-0.152-0.0444-0.243-0.0444zm1.59 0c-0.103 0-0.195 0.0241-0.277 0.0729-0.0622 0.0365-0.112 0.0871-0.149 0.151v-0.0543c0-0.054-0.0135-0.0946-0.0413-0.122-0.0278-0.0278-0.0673-0.0419-0.118-0.0419-0.0505 0-0.0895 0.014-0.117 0.0419-0.0278 0.0278-0.0419 0.0685-0.0419 0.122v0.987c0 0.054 0.014 0.0955 0.0419 0.125 0.0278 0.0278 0.0677 0.0419 0.12 0.0419 0.11 0 0.165-0.0555 0.165-0.167v-0.572c0-0.0992 0.0275-0.179 0.0832-0.238 0.0574-0.0609 0.134-0.0915 0.23-0.0915 0.0783 0 0.136 0.0224 0.172 0.0677 0.0383 0.0452 0.0574 0.118 0.0574 0.217v0.616c0 0.054 0.014 0.0955 0.0419 0.125 0.0296 0.0278 0.0708 0.0419 0.123 0.0419 0.0522 0 0.092-0.014 0.12-0.0419 0.0278-0.0296 0.0419-0.0711 0.0419-0.125v-0.632c0-0.118-0.0165-0.215-0.0496-0.292-0.0331-0.0783-0.0827-0.137-0.149-0.175-0.0661-0.0383-0.151-0.0574-0.253-0.0574zm1.29 0c-0.106 0-0.2 0.0165-0.282 0.0496-0.0818 0.0331-0.146 0.0802-0.193 0.141-0.0453 0.0609-0.0677 0.133-0.0677 0.217 0 0.0922 0.0275 0.168 0.0832 0.227 0.0574 0.0574 0.14 0.0964 0.248 0.117l0.261 0.0496c0.054 0.0104 0.0943 0.027 0.12 0.0496 0.0278 0.0209 0.0419 0.0514 0.0419 0.0915 0 0.047-0.0213 0.0851-0.063 0.115-0.04 0.0278-0.101 0.0419-0.185 0.0419-0.0592 0-0.119-0.00642-0.18-0.0186-0.0609-0.0139-0.126-0.0372-0.196-0.0703-0.0278-0.0139-0.0537-0.0181-0.078-0.0129-0.0226 0.00522-0.0417 0.0162-0.0574 0.0336-0.0139 0.0174-0.0229 0.0387-0.0264 0.063-0.00174 0.0226 0.00248 0.0459 0.0129 0.0703 0.0122 0.0226 0.0326 0.0425 0.0605 0.0599 0.0661 0.0383 0.141 0.0655 0.224 0.0811 0.0835 0.0157 0.163 0.0233 0.238 0.0233 0.165 0 0.297-0.0356 0.396-0.107 0.0992-0.0731 0.149-0.173 0.149-0.3 0-0.094-0.0292-0.169-0.0884-0.224-0.0574-0.0557-0.143-0.0938-0.256-0.115l-0.261-0.0496c-0.0505-0.0087-0.0878-0.0252-0.112-0.0496-0.0244-0.0244-0.0367-0.0549-0.0367-0.0915 0-0.0487 0.0204-0.0882 0.0605-0.118 0.0418-0.0296 0.105-0.0439 0.19-0.0439 0.0452 0 0.0923 0.00591 0.141 0.0181 0.0505 0.0122 0.103 0.0321 0.157 0.0599 0.0296 0.0139 0.0559 0.019 0.0785 0.0155 0.0244-0.00522 0.0443-0.0162 0.0599-0.0336 0.0157-0.0191 0.0263-0.0404 0.0315-0.063 0.00524-0.0244 0.00269-0.0477-0.00775-0.0703-0.0087-0.0226-0.0261-0.0409-0.0522-0.0548-0.0627-0.0348-0.128-0.0603-0.196-0.076-0.0661-0.0174-0.138-0.0258-0.214-0.0258zm1.27 0c-0.106 0-0.2 0.0165-0.282 0.0496-0.0818 0.0331-0.146 0.0802-0.193 0.141-0.0452 0.0609-0.0677 0.133-0.0677 0.217 0 0.0922 0.028 0.168 0.0837 0.227 0.0574 0.0574 0.14 0.0964 0.248 0.117l0.261 0.0496c0.054 0.0104 0.0938 0.027 0.12 0.0496 0.0278 0.0209 0.0419 0.0514 0.0419 0.0915 0 0.047-0.0208 0.0851-0.0625 0.115-0.04 0.0278-0.102 0.0419-0.186 0.0419-0.0592 0-0.119-0.00642-0.18-0.0186-0.0609-0.0139-0.126-0.0372-0.195-0.0703-0.0278-0.0139-0.0542-0.0181-0.0785-0.0129-0.0226 0.00522-0.0417 0.0162-0.0574 0.0336-0.0139 0.0174-0.0229 0.0387-0.0264 0.063-0.00174 0.0226 3e-3 0.0459 0.0134 0.0703 0.0122 0.0226 0.0321 0.0425 0.0599 0.0599 0.0661 0.0383 0.141 0.0655 0.224 0.0811 0.0835 0.0157 0.163 0.0233 0.238 0.0233 0.165 0 0.298-0.0356 0.397-0.107 0.0992-0.0731 0.149-0.173 0.149-0.3 0-0.094-0.0297-0.169-0.0889-0.224-0.0574-0.0557-0.143-0.0938-0.256-0.115l-0.261-0.0496c-0.0505-0.0087-0.0883-0.0252-0.113-0.0496-0.0244-0.0244-0.0362-0.0549-0.0362-0.0915 0-0.0487 0.0199-0.0882 0.0599-0.118 0.0418-0.0296 0.105-0.0439 0.191-0.0439 0.0453 0 0.0918 0.00591 0.141 0.0181 0.0505 0.0122 0.103 0.0321 0.157 0.0599 0.0296 0.0139 0.0554 0.019 0.078 0.0155 0.0244-0.00522 0.0443-0.0162 0.0599-0.0336 0.0157-0.0191 0.0263-0.0404 0.0315-0.063 0.00524-0.0244 0.00269-0.0477-0.00775-0.0703-0.0087-0.0226-0.0261-0.0409-0.0522-0.0548-0.0627-0.0348-0.128-0.0603-0.196-0.076-0.0661-0.0174-0.137-0.0258-0.214-0.0258zm-4.14 0.222c0.0661 0 0.121 0.0149 0.164 0.0444 0.0452 0.0278 0.0792 0.069 0.102 0.123 0.0203 0.0449 0.0323 0.0988 0.0357 0.162h-0.642c0.00598-0.0495 0.0178-0.094 0.0346-0.133 0.0278-0.0627 0.0668-0.111 0.117-0.144 0.0522-0.0348 0.115-0.0522 0.188-0.0522zm-3.53 0.0264c0.0975 0 0.175 0.0348 0.235 0.104 0.0592 0.0679 0.0889 0.171 0.0889 0.311 0 0.0922-0.014 0.17-0.0419 0.233-0.0261 0.0609-0.0634 0.107-0.112 0.138-0.0487 0.0313-0.105 0.047-0.169 0.047-0.0975 0-0.176-0.0348-0.235-0.104-0.0592-0.0714-0.0889-0.176-0.0889-0.313 0-0.0922 0.0132-0.169 0.0393-0.229 0.0278-0.0627 0.066-0.109 0.115-0.138 0.0487-0.0313 0.106-0.047 0.17-0.047zm10.5 0.681c-0.0592 0-0.107 0.0187-0.144 0.0553-0.0348 0.0348-0.0522 0.0797-0.0522 0.135 0 0.0574 0.0174 0.105 0.0522 0.141 0.0365 0.0365 0.0845 0.0548 0.144 0.0548 0.0609 0 0.107-0.0182 0.141-0.0548 0.0348-0.0365 0.0527-0.0836 0.0527-0.141 0-0.0557-0.0179-0.101-0.0527-0.135-0.0331-0.0365-0.0796-0.0553-0.141-0.0553z" fill="#5ab22e" stroke-width=".354"/><path transform="matrix(.141 -.325 .325 .141 17.5 -34.4)" d="m-78.7 194q-0.147 0-0.229-0.0811-0.0737-0.0885-0.0737-0.236v-4.62q0-0.155 0.0811-0.229 0.0811-0.0811 0.229-0.0811h1.75q0.833 0 1.28 0.391t0.45 1.11q0 0.457-0.206 0.796-0.199 0.332-0.59 0.509-0.391 0.17-0.936 0.17l0.0737-0.0958h0.147q0.288 0 0.501 0.147 0.214 0.147 0.391 0.472l0.708 1.32q0.059 0.103 0.0516 0.206 0 0.0958-0.0664 0.162-0.0664 0.059-0.192 0.059-0.125 0-0.206-0.059-0.0811-0.059-0.14-0.17l-0.804-1.49q-0.17-0.317-0.391-0.42-0.221-0.111-0.582-0.111h-0.944v1.93q0 0.147-0.0737 0.236-0.0737 0.0811-0.229 0.0811zm0.302-2.73h1.36q0.605 0 0.914-0.251 0.31-0.258 0.31-0.767 0-0.494-0.31-0.745-0.31-0.258-0.914-0.258h-1.36zm4.54 2.71q-0.147 0-0.221-0.0811-0.0737-0.0885-0.0737-0.243v-3.02q0-0.155 0.0737-0.236 0.0737-0.0811 0.221-0.0811 0.14 0 0.221 0.0811 0.0811 0.0811 0.0811 0.236v3.02q0 0.155-0.0811 0.243-0.0737 0.0811-0.221 0.0811zm0-4.48q-0.184 0-0.288-0.0958-0.103-0.103-0.103-0.273 0-0.177 0.103-0.265 0.103-0.0958 0.288-0.0958 0.192 0 0.288 0.0958 0.103 0.0885 0.103 0.265 0 0.17-0.103 0.273-0.0958 0.0958-0.288 0.0958zm1.71 4.5q-0.147 0-0.221-0.0811-0.0737-0.0811-0.0737-0.229v-3.07q0-0.147 0.0737-0.221 0.0737-0.0811 0.214-0.0811 0.14 0 0.214 0.0811 0.0811 0.0737 0.0811 0.221v0.634l-0.0811-0.0885q0.155-0.428 0.501-0.641 0.354-0.221 0.811-0.221 0.428 0 0.708 0.155 0.288 0.155 0.428 0.472 0.14 0.31 0.14 0.789v1.98q0 0.147-0.0811 0.229-0.0737 0.0811-0.214 0.0811-0.147 0-0.229-0.0811-0.0737-0.0811-0.0737-0.229v-1.94q0-0.501-0.199-0.73-0.192-0.236-0.619-0.236-0.494 0-0.789 0.31-0.288 0.302-0.288 0.811v1.78q0 0.31-0.302 0.31zm5.48 1.34q-0.391 0-0.767-0.0958-0.369-0.0885-0.671-0.288-0.0885-0.0516-0.118-0.125-0.0221-0.0737-0.0074-0.147 0.0147-0.0663 0.0664-0.125 0.0516-0.0516 0.118-0.0663 0.0737-0.0147 0.147 0.0221 0.324 0.199 0.619 0.273 0.295 0.0737 0.582 0.0737 0.523 0 0.789-0.28 0.273-0.28 0.273-0.811v-0.833h0.0737q-0.111 0.428-0.472 0.678-0.354 0.251-0.833 0.251-0.494 0-0.855-0.221-0.361-0.229-0.56-0.634-0.192-0.405-0.192-0.936 0-0.398 0.111-0.722 0.111-0.332 0.317-0.56 0.214-0.236 0.509-0.361 0.302-0.133 0.671-0.133 0.487 0 0.84 0.251 0.354 0.243 0.457 0.663l-0.0737 0.0885v-0.686q0-0.147 0.0737-0.221 0.0811-0.0811 0.221-0.0811 0.147 0 0.221 0.0811 0.0737 0.0737 0.0737 0.221v3.07q0 0.818-0.413 1.23-0.405 0.42-1.2 0.42zm-0.0885-1.96q0.346 0 0.597-0.155 0.251-0.162 0.383-0.457 0.14-0.295 0.14-0.693 0-0.597-0.302-0.944-0.302-0.354-0.818-0.354-0.339 0-0.59 0.162-0.251 0.155-0.391 0.45-0.133 0.288-0.133 0.686 0 0.597 0.302 0.951 0.302 0.354 0.811 0.354z" stroke-width="5" aria-label="Ring"/><path transform="rotate(-66.6)" d="m3.46 60.8q-0.0522 0-0.0809-0.0287-0.0261-0.0313-0.0261-0.0835v-1.64q0-0.0548 0.0287-0.0809 0.0287-0.0287 0.0809-0.0287h0.619q0.295 0 0.454 0.146 0.159 0.144 0.159 0.407 0 0.261-0.159 0.407-0.159 0.146-0.454 0.146h-0.514v0.64q0 0.0522-0.0261 0.0835-0.0261 0.0287-0.0809 0.0287zm0.107-0.932h0.488q0.211 0 0.318-0.094 0.11-0.0966 0.11-0.279 0-0.185-0.11-0.279-0.107-0.0966-0.318-0.0966h-0.488zm1.51 0.932q-0.0522 0-0.0783-0.0287t-0.0261-0.0809v-1.66q0-0.0522 0.0261-0.0783 0.0261-0.0287 0.0783-0.0287 0.0496 0 0.0783 0.0287 0.0287 0.0261 0.0287 0.0783v0.765h-0.0339q0.0548-0.151 0.178-0.227 0.125-0.0783 0.287-0.0783 0.151 0 0.251 0.0548 0.102 0.0548 0.151 0.167 0.0496 0.11 0.0496 0.279v0.7q0 0.0522-0.0287 0.0809-0.0261 0.0287-0.0757 0.0287-0.0522 0-0.0809-0.0287-0.0261-0.0287-0.0261-0.0809v-0.687q0-0.178-0.0705-0.258-0.0679-0.0835-0.219-0.0835-0.175 0-0.279 0.11-0.102 0.107-0.102 0.287v0.632q0 0.11-0.107 0.11zm1.48-0.0052q-0.0522 0-0.0783-0.0287-0.0261-0.0313-0.0261-0.0862v-1.07q0-0.0548 0.0261-0.0835t0.0783-0.0287q0.0496 0 0.0783 0.0287t0.0287 0.0835v1.07q0 0.0548-0.0287 0.0862-0.0261 0.0287-0.0783 0.0287zm0-1.59q-0.0653 0-0.102-0.0339-0.0365-0.0366-0.0365-0.0966 0-0.0626 0.0365-0.094 0.0365-0.0339 0.102-0.0339 0.0679 0 0.102 0.0339 0.0365 0.0313 0.0365 0.094 0 0.06-0.0365 0.0966-0.0339 0.0339-0.102 0.0339zm0.888 1.6q-0.188 0-0.287-0.115-0.0992-0.115-0.0992-0.329v-1.33q0-0.0522 0.0261-0.0783 0.0261-0.0287 0.0783-0.0287 0.0496 0 0.0783 0.0287 0.0287 0.0261 0.0287 0.0783v1.32q0 0.141 0.0548 0.211 0.0574 0.0679 0.167 0.0679 0.0235 0 0.0418-0.0026t0.0365-0.0026q0.0287-0.0026 0.0392 0.013 0.0131 0.0157 0.0131 0.0626t-0.0209 0.0705q-0.0209 0.0235-0.0679 0.0313-0.0209 0.0026-0.0444 0.0052t-0.0444 0.0026zm0.491-0.0105q-0.0522 0-0.0783-0.0287-0.0261-0.0313-0.0261-0.0862v-1.07q0-0.0548 0.0261-0.0835t0.0783-0.0287q0.0496 0 0.0783 0.0287t0.0287 0.0835v1.07q0 0.0548-0.0287 0.0862-0.0261 0.0287-0.0783 0.0287zm0-1.59q-0.0653 0-0.102-0.0339-0.0365-0.0366-0.0365-0.0966 0-0.0626 0.0365-0.094 0.0365-0.0339 0.102-0.0339 0.0679 0 0.102 0.0339 0.0365 0.0313 0.0365 0.094 0 0.06-0.0365 0.0966-0.0339 0.0339-0.102 0.0339zm0.606 2.06q-0.0522 0-0.0783-0.0287-0.0261-0.0261-0.0261-0.0783v-1.56q0-0.0522 0.0261-0.0783 0.0261-0.0287 0.0757-0.0287 0.0522 0 0.0783 0.0287 0.0287 0.0261 0.0287 0.0783v0.248l-0.0287-0.0366q0.0418-0.149 0.164-0.235 0.125-0.0888 0.298-0.0888 0.17 0 0.295 0.0809 0.128 0.0783 0.196 0.227 0.0705 0.146 0.0705 0.35 0 0.201-0.0705 0.35-0.0679 0.146-0.193 0.227-0.125 0.0809-0.298 0.0809-0.172 0-0.295-0.0862-0.123-0.0888-0.167-0.235h0.0313v0.679q0 0.0522-0.0287 0.0783-0.0287 0.0287-0.0783 0.0287zm0.493-0.634q0.12 0 0.206-0.0574 0.0888-0.0574 0.136-0.167 0.0496-0.11 0.0496-0.264 0-0.238-0.107-0.363-0.104-0.125-0.285-0.125-0.117 0-0.206 0.0574-0.0888 0.0548-0.138 0.164-0.047 0.107-0.047 0.266 0 0.235 0.107 0.363 0.107 0.125 0.285 0.125zm1.03 0.634q-0.0522 0-0.0783-0.0287-0.0261-0.0261-0.0261-0.0783v-1.56q0-0.0522 0.0261-0.0783 0.0261-0.0287 0.0757-0.0287 0.0522 0 0.0783 0.0287 0.0287 0.0261 0.0287 0.0783v0.248l-0.0287-0.0366q0.0418-0.149 0.164-0.235 0.125-0.0888 0.298-0.0888 0.17 0 0.295 0.0809 0.128 0.0783 0.196 0.227 0.0705 0.146 0.0705 0.35 0 0.201-0.0705 0.35-0.0679 0.146-0.193 0.227-0.125 0.0809-0.298 0.0809t-0.295-0.0862q-0.123-0.0888-0.167-0.235h0.0313v0.679q0 0.0522-0.0287 0.0783-0.0287 0.0287-0.0783 0.0287zm0.493-0.634q0.12 0 0.206-0.0574 0.0888-0.0574 0.136-0.167 0.0496-0.11 0.0496-0.264 0-0.238-0.107-0.363-0.104-0.125-0.285-0.125-0.117 0-0.206 0.0574-0.0888 0.0548-0.138 0.164-0.047 0.107-0.047 0.266 0 0.235 0.107 0.363 0.107 0.125 0.285 0.125zm1.03 0.159q-0.0522 0-0.0783-0.0287-0.0261-0.0313-0.0261-0.0862v-1.07q0-0.0548 0.0261-0.0835t0.0783-0.0287q0.0496 0 0.0783 0.0287t0.0287 0.0835v1.07q0 0.0548-0.0287 0.0862-0.0261 0.0287-0.0783 0.0287zm0-1.59q-0.0653 0-0.102-0.0339-0.0366-0.0366-0.0366-0.0966 0-0.0626 0.0366-0.094 0.0366-0.0339 0.102-0.0339 0.0679 0 0.102 0.0339 0.0366 0.0313 0.0366 0.094 0 0.06-0.0366 0.0966-0.0339 0.0339-0.102 0.0339zm0.929 1.6q-0.117 0-0.238-0.0287-0.117-0.0287-0.219-0.0992-0.0261-0.0183-0.0366-0.0418-0.0104-0.0261-0.0078-0.0496 0.0052-0.0261 0.0209-0.0444 0.0183-0.0183 0.0418-0.0209 0.0261-0.0052 0.0574 0.0104 0.102 0.0626 0.196 0.0888 0.0966 0.0235 0.191 0.0235 0.149 0 0.225-0.0548 0.0757-0.0548 0.0757-0.149 0-0.0731-0.0496-0.115-0.0496-0.0444-0.157-0.0679l-0.238-0.0522q-0.164-0.0339-0.245-0.117-0.0783-0.0835-0.0783-0.217 0-0.117 0.06-0.201 0.0626-0.0862 0.175-0.133 0.112-0.047 0.261-0.047 0.115 0 0.217 0.0313 0.104 0.0287 0.188 0.094 0.0261 0.0183 0.0339 0.0444 0.0104 0.0235 0.0026 0.0496-0.0052 0.0235-0.0235 0.0418-0.0183 0.0157-0.0444 0.0183-0.0261 0.0026-0.0548-0.0157-0.0783-0.0522-0.159-0.0757-0.0809-0.0261-0.159-0.0261-0.146 0-0.222 0.0574-0.0757 0.0574-0.0757 0.151 0 0.0731 0.047 0.12 0.047 0.047 0.146 0.0679l0.238 0.0496q0.17 0.0366 0.253 0.117 0.0862 0.0783 0.0862 0.214 0 0.172-0.138 0.274-0.138 0.102-0.368 0.102zm1.32 0q-0.149 0-0.251-0.0522-0.0992-0.0548-0.149-0.157-0.0496-0.104-0.0496-0.253v-0.666h-0.175q-0.0444 0-0.0679-0.0209-0.0235-0.0235-0.0235-0.0626 0-0.0392 0.0235-0.06t0.0679-0.0209h0.175v-0.3q0-0.0522 0.0287-0.0783 0.0287-0.0287 0.0783-0.0287t0.0757 0.0287q0.0287 0.0261 0.0287 0.0783v0.3h0.329q0.0444 0 0.0679 0.0209 0.0235 0.0209 0.0235 0.06t-0.0235 0.0626q-0.0235 0.0209-0.0679 0.0209h-0.329v0.645q0 0.149 0.0626 0.227 0.0626 0.0757 0.204 0.0757 0.0496 0 0.0835-0.0104 0.0366-0.0104 0.06-0.0104 0.0235-0.0026 0.0392 0.0157 0.0157 0.0183 0.0157 0.0626 0 0.0313-0.013 0.0574-0.0104 0.0261-0.0392 0.0366-0.0313 0.0104-0.0835 0.0183-0.0496 0.0104-0.0914 0.0104zm0.512-0.0052q-0.0522 0-0.0809-0.0287-0.0261-0.0287-0.0261-0.0809v-1.09q0-0.0522 0.0261-0.0783 0.0261-0.0287 0.0757-0.0287t0.0757 0.0287q0.0287 0.0261 0.0287 0.0783v0.211h-0.0261q0.0418-0.154 0.159-0.238 0.117-0.0835 0.29-0.0888 0.0392-0.0026 0.0626 0.0183 0.0235 0.0183 0.0261 0.0653 0.0026 0.0444-0.0209 0.0705-0.0235 0.0261-0.0731 0.0313l-0.0418 0.0052q-0.178 0.0157-0.274 0.115-0.094 0.0966-0.094 0.266v0.632q0 0.0522-0.0287 0.0809-0.0261 0.0287-0.0783 0.0287zm1.21 0.0052q-0.131 0-0.235-0.0496-0.102-0.0522-0.162-0.141-0.06-0.0888-0.06-0.198 0-0.141 0.0705-0.222 0.0731-0.0809 0.238-0.115 0.167-0.0339 0.454-0.0339h0.117v0.138h-0.115q-0.211 0-0.334 0.0209-0.12 0.0183-0.17 0.0653-0.047 0.047-0.047 0.133 0 0.107 0.0731 0.175 0.0757 0.0679 0.204 0.0679 0.104 0 0.183-0.0496 0.0809-0.0496 0.125-0.136 0.047-0.0862 0.047-0.198v-0.298q0-0.162-0.0653-0.232-0.0653-0.0731-0.214-0.0731-0.0914 0-0.183 0.0235-0.0914 0.0235-0.193 0.0757-0.0366 0.0183-0.0626 0.013-0.0261-0.0078-0.0418-0.0287-0.0157-0.0209-0.0183-0.047-0.0026-0.0287 0.0104-0.0548 0.0157-0.0261 0.047-0.0418 0.115-0.0574 0.227-0.0835 0.112-0.0261 0.214-0.0261 0.164 0 0.271 0.0548 0.107 0.0522 0.159 0.162 0.0522 0.107 0.0522 0.277v0.707q0 0.0522-0.0261 0.0809-0.0235 0.0287-0.0705 0.0287-0.0496 0-0.0757-0.0287-0.0261-0.0287-0.0261-0.0809v-0.204h0.0235q-0.0209 0.0992-0.0809 0.17-0.0574 0.0705-0.144 0.11-0.0862 0.0392-0.193 0.0392zm1.84 0q-0.112 0-0.227-0.0313-0.115-0.0339-0.204-0.0966-0.0287-0.0183-0.0392-0.0444t-0.0052-0.0522q0.0052-0.0261 0.0235-0.0444 0.0209-0.0183 0.047-0.0209 0.0261-0.0026 0.0548 0.0157 0.0862 0.0548 0.18 0.0809 0.094 0.0235 0.172 0.0235 0.128 0 0.201-0.0548 0.0731-0.0548 0.0731-0.149 0-0.0757-0.0626-0.125-0.0626-0.0522-0.217-0.0992-0.209-0.0653-0.292-0.146-0.0835-0.0835-0.0835-0.209 0-0.0548 0.0183-0.104 0.0183-0.0522 0.0626-0.107 0.0444-0.0574 0.123-0.123 0.0809-0.0705 0.112-0.125 0.0339-0.0574 0.0339-0.123 0-0.0862-0.0626-0.136-0.06-0.0522-0.172-0.0522-0.183 0-0.282 0.11-0.0966 0.11-0.0966 0.311v1.19q0 0.0522-0.0287 0.0809t-0.0783 0.0287q-0.0522 0-0.0783-0.0287t-0.0261-0.0809v-1.16q0-0.292 0.154-0.452 0.154-0.159 0.433-0.159 0.138 0 0.238 0.0418 0.0992 0.0392 0.151 0.115 0.0522 0.0757 0.0522 0.178 0 0.0992-0.0444 0.178-0.0444 0.0783-0.154 0.175-0.06 0.0522-0.094 0.0914-0.0339 0.0366-0.047 0.0679-0.013 0.0313-0.013 0.0679 0 0.0679 0.06 0.117 0.06 0.0496 0.219 0.0992 0.201 0.06 0.287 0.151 0.0862 0.0888 0.0862 0.227 0 0.112-0.06 0.198-0.0574 0.0835-0.164 0.133-0.107 0.047-0.251 0.047zm1.32 0q-0.201 0-0.347-0.0783-0.144-0.0809-0.225-0.227-0.0783-0.146-0.0783-0.35 0-0.198 0.0783-0.345 0.0783-0.149 0.214-0.232 0.138-0.0835 0.318-0.0835 0.128 0 0.23 0.0444 0.102 0.0418 0.172 0.123 0.0731 0.0809 0.11 0.196 0.0392 0.115 0.0392 0.258 0 0.0418-0.0235 0.0626-0.0235 0.0183-0.0679 0.0183h-0.908v-0.138h0.859l-0.0418 0.0339q0-0.141-0.0418-0.238-0.0418-0.0992-0.123-0.151-0.0783-0.0522-0.198-0.0522-0.133 0-0.227 0.0626-0.0914 0.06-0.138 0.17-0.047 0.107-0.047 0.251v0.0157q0 0.24 0.115 0.365 0.117 0.125 0.332 0.125 0.0888 0 0.175-0.0235 0.0888-0.0235 0.172-0.0783 0.0366-0.0235 0.0653-0.0209 0.0313 0 0.0496 0.0183 0.0183 0.0157 0.0235 0.0418 0.0078 0.0235-0.0052 0.0522-0.0104 0.0287-0.0444 0.0496-0.0862 0.0626-0.204 0.0966-0.117 0.0339-0.232 0.0339z" stroke-width="1.77" aria-label="Philippistraße"/><path transform="matrix(.339 .101 -.101 .339 17.5 -34.4)" d="m119 170q-0.147 0-0.229-0.0811-0.0737-0.0885-0.0737-0.236v-4.67q0-0.155 0.0737-0.236 0.0811-0.0811 0.229-0.0811t0.221 0.0811q0.0811 0.0811 0.0811 0.236v2.03h3.12v-2.03q0-0.155 0.0737-0.236 0.0811-0.0811 0.229-0.0811t0.221 0.0811q0.0811 0.0811 0.0811 0.236v4.67q0 0.147-0.0811 0.236-0.0737 0.0811-0.221 0.0811-0.147 0-0.229-0.0811-0.0737-0.0885-0.0737-0.236v-2.11h-3.12v2.11q0 0.147-0.0737 0.236-0.0737 0.0811-0.229 0.0811zm6.84 0.0148q-0.568 0-0.98-0.221-0.405-0.229-0.634-0.641-0.221-0.413-0.221-0.988 0-0.56 0.221-0.973 0.221-0.42 0.605-0.656 0.391-0.236 0.899-0.236 0.361 0 0.649 0.125 0.288 0.118 0.487 0.346 0.206 0.229 0.31 0.553 0.111 0.324 0.111 0.73 0 0.118-0.0663 0.177-0.0663 0.0516-0.192 0.0516h-2.57v-0.391h2.43l-0.118 0.0958q0-0.398-0.118-0.671-0.118-0.28-0.346-0.428-0.221-0.147-0.56-0.147-0.376 0-0.641 0.177-0.258 0.17-0.391 0.479-0.133 0.302-0.133 0.708v0.0442q0 0.678 0.324 1.03 0.332 0.354 0.936 0.354 0.251 0 0.494-0.0663 0.251-0.0663 0.487-0.221 0.103-0.0663 0.184-0.059 0.0885 0 0.14 0.0516 0.0516 0.0442 0.0663 0.118 0.0221 0.0663-0.0148 0.147-0.0295 0.0811-0.125 0.14-0.243 0.177-0.575 0.273-0.332 0.0958-0.656 0.0958zm2.6-0.0148q-0.147 0-0.221-0.0811-0.0737-0.0811-0.0737-0.229v-3.07q0-0.147 0.0737-0.221 0.0737-0.0811 0.214-0.0811 0.14 0 0.214 0.0811 0.0811 0.0737 0.0811 0.221v0.634l-0.0811-0.0885q0.155-0.428 0.501-0.641 0.354-0.221 0.811-0.221 0.428 0 0.708 0.155 0.288 0.155 0.428 0.472 0.14 0.31 0.14 0.789v1.98q0 0.147-0.0811 0.229-0.0737 0.0811-0.214 0.0811-0.147 0-0.229-0.0811-0.0737-0.0811-0.0737-0.229v-1.94q0-0.501-0.199-0.73-0.192-0.236-0.619-0.236-0.494 0-0.789 0.31-0.288 0.302-0.288 0.811v1.78q0 0.31-0.302 0.31zm4.19 0q-0.147 0-0.229-0.0811-0.0737-0.0811-0.0737-0.229v-3.07q0-0.147 0.0737-0.221 0.0737-0.0811 0.214-0.0811 0.14 0 0.214 0.0811 0.0811 0.0737 0.0811 0.221v0.597h-0.0737q0.118-0.435 0.45-0.671 0.332-0.236 0.818-0.251 0.111-7e-3 0.177 0.0516 0.0663 0.0516 0.0737 0.184 7e-3 0.125-0.059 0.199-0.0663 0.0737-0.206 0.0885l-0.118 0.0147q-0.501 0.0442-0.774 0.324-0.265 0.273-0.265 0.752v1.78q0 0.147-0.0811 0.229-0.0737 0.0811-0.221 0.0811zm2.63-0.0147q-0.147 0-0.221-0.0811-0.0737-0.0885-0.0737-0.243v-3.02q0-0.155 0.0737-0.236t0.221-0.0811q0.14 0 0.221 0.0811 0.0811 0.0811 0.0811 0.236v3.02q0 0.155-0.0811 0.243-0.0737 0.0811-0.221 0.0811zm0-4.48q-0.184 0-0.288-0.0958-0.103-0.103-0.103-0.273 0-0.177 0.103-0.265 0.103-0.0958 0.288-0.0958 0.192 0 0.288 0.0958 0.103 0.0885 0.103 0.265 0 0.17-0.103 0.273-0.0958 0.0958-0.288 0.0958zm3.03 4.51q-0.568 0-0.98-0.221-0.405-0.229-0.634-0.641-0.221-0.413-0.221-0.988 0-0.56 0.221-0.973 0.221-0.42 0.605-0.656 0.391-0.236 0.899-0.236 0.361 0 0.649 0.125 0.288 0.118 0.487 0.346 0.206 0.229 0.31 0.553 0.111 0.324 0.111 0.73 0 0.118-0.0663 0.177-0.0663 0.0516-0.192 0.0516h-2.57v-0.391h2.43l-0.118 0.0958q0-0.398-0.118-0.671-0.118-0.28-0.346-0.428-0.221-0.147-0.56-0.147-0.376 0-0.641 0.177-0.258 0.17-0.391 0.479-0.133 0.302-0.133 0.708v0.0442q0 0.678 0.324 1.03 0.332 0.354 0.936 0.354 0.251 0 0.494-0.0663 0.251-0.0663 0.487-0.221 0.103-0.0663 0.184-0.059 0.0885 0 0.14 0.0516 0.0516 0.0442 0.0663 0.118 0.0221 0.0663-0.0147 0.147-0.0295 0.0811-0.125 0.14-0.243 0.177-0.575 0.273-0.332 0.0958-0.656 0.0958zm3.74 0q-0.42 0-0.708-0.147-0.28-0.155-0.42-0.442-0.14-0.295-0.14-0.715v-1.88h-0.494q-0.125 0-0.192-0.059-0.0663-0.0663-0.0663-0.177 0-0.111 0.0663-0.17 0.0663-0.059 0.192-0.059h0.494v-0.848q0-0.147 0.0811-0.221 0.0811-0.0811 0.221-0.0811 0.14 0 0.214 0.0811 0.0811 0.0737 0.0811 0.221v0.848h0.929q0.125 0 0.192 0.059 0.0663 0.059 0.0663 0.17 0 0.111-0.0663 0.177-0.0663 0.059-0.192 0.059h-0.929v1.82q0 0.42 0.177 0.641 0.177 0.214 0.575 0.214 0.14 0 0.236-0.0295 0.103-0.0295 0.17-0.0295 0.0663-7e-3 0.111 0.0442 0.0442 0.0516 0.0442 0.177 0 0.0885-0.0369 0.162-0.0295 0.0737-0.111 0.103-0.0885 0.0295-0.236 0.0516-0.14 0.0295-0.258 0.0295zm2.48 0q-0.42 0-0.708-0.147-0.28-0.155-0.42-0.442-0.14-0.295-0.14-0.715v-1.88h-0.494q-0.125 0-0.192-0.059-0.0663-0.0663-0.0663-0.177 0-0.111 0.0663-0.17 0.0663-0.059 0.192-0.059h0.494v-0.848q0-0.147 0.0811-0.221 0.0811-0.0811 0.221-0.0811t0.214 0.0811q0.0811 0.0737 0.0811 0.221v0.848h0.929q0.125 0 0.192 0.059 0.0663 0.059 0.0663 0.17 0 0.111-0.0663 0.177-0.0663 0.059-0.192 0.059h-0.929v1.82q0 0.42 0.177 0.641 0.177 0.214 0.575 0.214 0.14 0 0.236-0.0295 0.103-0.0295 0.17-0.0295 0.0663-7e-3 0.111 0.0442 0.0442 0.0516 0.0442 0.177 0 0.0885-0.0369 0.162-0.0295 0.0737-0.111 0.103-0.0885 0.0295-0.236 0.0516-0.14 0.0295-0.258 0.0295zm2.72 0q-0.568 0-0.98-0.221-0.405-0.229-0.634-0.641-0.221-0.413-0.221-0.988 0-0.56 0.221-0.973 0.221-0.42 0.605-0.656 0.391-0.236 0.899-0.236 0.361 0 0.649 0.125 0.288 0.118 0.487 0.346 0.206 0.229 0.31 0.553 0.111 0.324 0.111 0.73 0 0.118-0.0663 0.177-0.0663 0.0516-0.192 0.0516h-2.57v-0.391h2.43l-0.118 0.0958q0-0.398-0.118-0.671-0.118-0.28-0.346-0.428-0.221-0.147-0.56-0.147-0.376 0-0.641 0.177-0.258 0.17-0.391 0.479-0.133 0.302-0.133 0.708v0.0442q0 0.678 0.324 1.03 0.332 0.354 0.936 0.354 0.251 0 0.494-0.0663 0.251-0.0663 0.487-0.221 0.103-0.0663 0.184-0.059 0.0885 0 0.14 0.0516 0.0516 0.0442 0.0663 0.118 0.0221 0.0663-0.0147 0.147-0.0295 0.0811-0.125 0.14-0.243 0.177-0.575 0.273-0.332 0.0958-0.656 0.0958zm2.57-1.78q-0.111 0-0.184-0.0663-0.0737-0.0737-0.0737-0.177 0-0.111 0.0737-0.177 0.0737-0.0737 0.184-0.0737h1.66q0.103 0 0.177 0.0737 0.0737 0.0663 0.0737 0.177 0 0.103-0.0737 0.177-0.0737 0.0663-0.177 0.0663zm4.56 1.78q-0.346 0-0.678-0.059t-0.619-0.17q-0.28-0.111-0.509-0.28-0.0885-0.0663-0.125-0.147-0.0295-0.0885-0.0147-0.17 0.0221-0.0885 0.0737-0.147 0.059-0.059 0.14-0.0663 0.0811-7e-3 0.177 0.0516 0.332 0.236 0.708 0.346 0.376 0.103 0.848 0.103 0.663 0 0.98-0.243 0.324-0.251 0.324-0.656 0-0.332-0.236-0.516-0.229-0.192-0.774-0.302l-0.767-0.155q-0.693-0.147-1.04-0.479-0.339-0.339-0.339-0.899 0-0.346 0.14-0.627 0.14-0.288 0.391-0.487 0.251-0.206 0.597-0.317t0.767-0.111q0.464 0 0.863 0.133 0.405 0.125 0.73 0.383 0.0811 0.0663 0.111 0.155 0.0295 0.0811 7e-3 0.162-0.0221 0.0737-0.0811 0.125-0.0516 0.0516-0.14 0.059-0.0811 7e-3 -0.184-0.059-0.295-0.221-0.612-0.317-0.317-0.103-0.7-0.103-0.391 0-0.678 0.118-0.28 0.118-0.442 0.346-0.155 0.221-0.155 0.516 0 0.354 0.214 0.56 0.221 0.206 0.715 0.302l0.767 0.162q0.745 0.155 1.1 0.472 0.361 0.31 0.361 0.848 0 0.324-0.133 0.597-0.133 0.273-0.383 0.472-0.251 0.192-0.605 0.295-0.354 0.103-0.796 0.103zm4.26 0q-0.523 0-0.907-0.229t-0.597-0.641q-0.206-0.42-0.206-0.988 0-0.428 0.118-0.767 0.118-0.346 0.346-0.59 0.229-0.243 0.538-0.369 0.317-0.133 0.708-0.133 0.523 0 0.907 0.229 0.383 0.229 0.59 0.649 0.214 0.413 0.214 0.98 0 0.428-0.118 0.767-0.118 0.339-0.346 0.59-0.229 0.243-0.546 0.376-0.31 0.125-0.7 0.125zm0-0.479q0.332 0 0.582-0.162t0.383-0.472q0.14-0.31 0.14-0.745 0-0.671-0.302-1.02-0.295-0.354-0.804-0.354-0.339 0-0.59 0.162-0.243 0.155-0.383 0.464-0.133 0.302-0.133 0.752 0 0.663 0.302 1.02 0.302 0.354 0.804 0.354zm2.9 0.464q-0.147 0-0.221-0.0811-0.0737-0.0811-0.0737-0.229v-3.07q0-0.147 0.0737-0.221 0.0737-0.0811 0.214-0.0811 0.14 0 0.214 0.0811 0.0811 0.0737 0.0811 0.221v0.634l-0.0811-0.0885q0.155-0.428 0.501-0.641 0.354-0.221 0.811-0.221 0.428 0 0.708 0.155 0.288 0.155 0.428 0.472 0.14 0.31 0.14 0.789v1.98q0 0.147-0.0811 0.229-0.0737 0.0811-0.214 0.0811-0.147 0-0.229-0.0811-0.0737-0.0811-0.0737-0.229v-1.94q0-0.501-0.199-0.73-0.192-0.236-0.619-0.236-0.494 0-0.789 0.31-0.288 0.302-0.288 0.811v1.78q0 0.31-0.302 0.31zm4.07-1.77q-0.111 0-0.184-0.0663-0.0737-0.0737-0.0737-0.177 0-0.111 0.0737-0.177 0.0737-0.0737 0.184-0.0737h1.66q0.103 0 0.177 0.0737 0.0737 0.0663 0.0737 0.177 0 0.103-0.0737 0.177-0.0737 0.0663-0.177 0.0663zm4.56 1.78q-0.346 0-0.678-0.059t-0.619-0.17q-0.28-0.111-0.509-0.28-0.0885-0.0663-0.125-0.147-0.0295-0.0885-0.0147-0.17 0.0221-0.0885 0.0737-0.147 0.059-0.059 0.14-0.0663 0.0811-7e-3 0.177 0.0516 0.332 0.236 0.708 0.346 0.376 0.103 0.848 0.103 0.663 0 0.98-0.243 0.324-0.251 0.324-0.656 0-0.332-0.236-0.516-0.229-0.192-0.774-0.302l-0.767-0.155q-0.693-0.147-1.04-0.479-0.339-0.339-0.339-0.899 0-0.346 0.14-0.627 0.14-0.288 0.391-0.487 0.251-0.206 0.597-0.317t0.767-0.111q0.464 0 0.863 0.133 0.405 0.125 0.73 0.383 0.0811 0.0663 0.111 0.155 0.0295 0.0811 7e-3 0.162-0.0221 0.0737-0.0811 0.125-0.0516 0.0516-0.14 0.059-0.0811 7e-3 -0.184-0.059-0.295-0.221-0.612-0.317-0.317-0.103-0.7-0.103-0.391 0-0.678 0.118-0.28 0.118-0.442 0.346-0.155 0.221-0.155 0.516 0 0.354 0.214 0.56 0.221 0.206 0.715 0.302l0.767 0.162q0.745 0.155 1.1 0.472 0.361 0.31 0.361 0.848 0 0.324-0.133 0.597-0.133 0.273-0.383 0.472-0.251 0.192-0.605 0.295-0.354 0.103-0.796 0.103zm4.2 0q-0.42 0-0.708-0.147-0.28-0.155-0.42-0.442-0.14-0.295-0.14-0.715v-1.88h-0.494q-0.125 0-0.192-0.059-0.0663-0.0663-0.0663-0.177 0-0.111 0.0663-0.17 0.0663-0.059 0.192-0.059h0.494v-0.848q0-0.147 0.0811-0.221 0.0811-0.0811 0.221-0.0811t0.214 0.0811q0.0811 0.0737 0.0811 0.221v0.848h0.929q0.125 0 0.192 0.059 0.0663 0.059 0.0663 0.17 0 0.111-0.0663 0.177-0.0663 0.059-0.192 0.059h-0.929v1.82q0 0.42 0.177 0.641 0.177 0.214 0.575 0.214 0.14 0 0.236-0.0295 0.103-0.0295 0.17-0.0295 0.0663-7e-3 0.111 0.0442 0.0442 0.0516 0.0442 0.177 0 0.0885-0.0369 0.162-0.0295 0.0737-0.111 0.103-0.0885 0.0295-0.236 0.0516-0.14 0.0295-0.258 0.0295zm1.44-0.0148q-0.147 0-0.229-0.0811-0.0737-0.0811-0.0737-0.229v-3.07q0-0.147 0.0737-0.221 0.0737-0.0811 0.214-0.0811 0.14 0 0.214 0.0811 0.0811 0.0737 0.0811 0.221v0.597h-0.0737q0.118-0.435 0.45-0.671 0.332-0.236 0.818-0.251 0.111-7e-3 0.177 0.0516 0.0663 0.0516 0.0737 0.184 7e-3 0.125-0.059 0.199-0.0663 0.0737-0.206 0.0885l-0.118 0.0147q-0.501 0.0442-0.774 0.324-0.265 0.273-0.265 0.752v1.78q0 0.147-0.0811 0.229-0.0737 0.0811-0.221 0.0811zm2.47-0.0221q-0.184 0-0.295-0.111-0.111-0.118-0.111-0.295t0.111-0.288q0.111-0.118 0.295-0.118 0.184 0 0.288 0.118 0.111 0.111 0.111 0.288t-0.111 0.295q-0.103 0.111-0.288 0.111z" stroke-width="5" aria-label="Henriette-Son-Str."/><path transform="matrix(.0115 -.354 .354 .0115 17.5 -34.4)" d="m-237 29.1q-0.767 0-1.31-0.324t-0.84-0.922q-0.288-0.597-0.288-1.42 0-0.619 0.162-1.11 0.17-0.494 0.479-0.833 0.317-0.346 0.774-0.531 0.457-0.192 1.02-0.192 0.457 0 0.87 0.133 0.413 0.125 0.715 0.376 0.0958 0.0737 0.125 0.17 0.0369 0.0885 7e-3 0.177-0.0221 0.0811-0.0885 0.14-0.059 0.0516-0.147 0.0516-0.0885 0-0.199-0.0737-0.265-0.214-0.582-0.317-0.317-0.103-0.686-0.103-0.582 0-0.988 0.251-0.405 0.243-0.612 0.715-0.206 0.472-0.206 1.14 0 0.671 0.206 1.15 0.206 0.472 0.612 0.722 0.405 0.243 0.988 0.243 0.361 0 0.686-0.103 0.324-0.111 0.597-0.324 0.111-0.0737 0.199-0.0664 0.0885 0 0.147 0.0516 0.059 0.0516 0.0811 0.133 0.0295 0.0811 0 0.17-0.0221 0.0885-0.111 0.155-0.31 0.265-0.73 0.405-0.413 0.133-0.885 0.133zm3.86 0q-0.523 0-0.907-0.229-0.383-0.229-0.597-0.641-0.206-0.42-0.206-0.988 0-0.428 0.118-0.767 0.118-0.346 0.346-0.59 0.229-0.243 0.538-0.369 0.317-0.133 0.708-0.133 0.523 0 0.907 0.229t0.59 0.649q0.214 0.413 0.214 0.98 0 0.428-0.118 0.767-0.118 0.339-0.346 0.59-0.229 0.243-0.546 0.376-0.31 0.125-0.7 0.125zm0-0.479q0.332 0 0.582-0.162t0.383-0.472q0.14-0.31 0.14-0.745 0-0.671-0.302-1.02-0.295-0.354-0.804-0.354-0.339 0-0.59 0.162-0.243 0.155-0.383 0.464-0.133 0.302-0.133 0.752 0 0.663 0.302 1.02 0.302 0.354 0.804 0.354zm2.91 0.464q-0.147 0-0.229-0.0811-0.0737-0.0811-0.0737-0.229v-3.07q0-0.147 0.0737-0.221 0.0737-0.0811 0.214-0.0811 0.14 0 0.214 0.0811 0.0811 0.0737 0.0811 0.221v0.597h-0.0737q0.118-0.435 0.45-0.671 0.332-0.236 0.818-0.251 0.111-0.0074 0.177 0.0516 0.0663 0.0516 0.0737 0.184 7e-3 0.125-0.059 0.199-0.0663 0.0737-0.206 0.0885l-0.118 0.0147q-0.501 0.0442-0.774 0.324-0.265 0.273-0.265 0.752v1.78q0 0.147-0.0811 0.229-0.0737 0.0811-0.221 0.0811zm2.64 0q-0.147 0-0.229-0.0811-0.0737-0.0811-0.0737-0.229v-3.07q0-0.147 0.0737-0.221 0.0737-0.0811 0.214-0.0811 0.14 0 0.214 0.0811 0.0811 0.0737 0.0811 0.221v0.597h-0.0737q0.118-0.435 0.45-0.671 0.332-0.236 0.818-0.251 0.111-0.0074 0.177 0.0516 0.0663 0.0516 0.0737 0.184 7e-3 0.125-0.059 0.199-0.0663 0.0737-0.206 0.0885l-0.118 0.0147q-0.501 0.0442-0.774 0.324-0.265 0.273-0.265 0.752v1.78q0 0.147-0.0811 0.229-0.0737 0.0811-0.221 0.0811zm3.9 0.0147q-0.568 0-0.98-0.221-0.405-0.229-0.634-0.641-0.221-0.413-0.221-0.988 0-0.56 0.221-0.973 0.221-0.42 0.605-0.656 0.391-0.236 0.899-0.236 0.361 0 0.649 0.125 0.288 0.118 0.487 0.346 0.206 0.229 0.31 0.553 0.111 0.324 0.111 0.73 0 0.118-0.0663 0.177-0.0663 0.0516-0.192 0.0516h-2.57v-0.391h2.43l-0.118 0.0958q0-0.398-0.118-0.671-0.118-0.28-0.346-0.428-0.221-0.147-0.56-0.147-0.376 0-0.641 0.177-0.258 0.17-0.391 0.479-0.133 0.302-0.133 0.708v0.0442q0 0.678 0.324 1.03 0.332 0.354 0.936 0.354 0.251 0 0.494-0.0664 0.251-0.0664 0.487-0.221 0.103-0.0664 0.184-0.059 0.0885 0 0.14 0.0516 0.0516 0.0442 0.0663 0.118 0.0221 0.0664-0.0147 0.147-0.0295 0.0811-0.125 0.14-0.243 0.177-0.575 0.273-0.332 0.0958-0.656 0.0958zm2.6-0.0147q-0.147 0-0.221-0.0811-0.0737-0.0811-0.0737-0.229v-3.07q0-0.147 0.0737-0.221 0.0737-0.0811 0.214-0.0811 0.14 0 0.214 0.0811 0.0811 0.0737 0.0811 0.221v0.634l-0.0811-0.0885q0.155-0.428 0.501-0.641 0.354-0.221 0.811-0.221 0.428 0 0.708 0.155 0.288 0.155 0.428 0.472 0.14 0.31 0.14 0.789v1.98q0 0.147-0.0811 0.229-0.0737 0.0811-0.214 0.0811-0.147 0-0.229-0.0811-0.0737-0.0811-0.0737-0.229v-1.94q0-0.501-0.199-0.73-0.192-0.236-0.619-0.236-0.494 0-0.789 0.31-0.288 0.302-0.288 0.811v1.78q0 0.31-0.302 0.31zm5.1 0.0147q-0.332 0-0.671-0.0811-0.332-0.0811-0.619-0.28-0.0737-0.0516-0.103-0.118-0.0295-0.0737-0.0221-0.14 0.0148-0.0737 0.059-0.125 0.0516-0.0516 0.118-0.059 0.0737-0.0147 0.162 0.0295 0.288 0.177 0.553 0.251 0.273 0.0664 0.538 0.0664 0.42 0 0.634-0.155 0.214-0.155 0.214-0.42 0-0.206-0.14-0.324-0.14-0.125-0.442-0.192l-0.671-0.147q-0.464-0.0958-0.693-0.332-0.221-0.236-0.221-0.612 0-0.332 0.17-0.568 0.177-0.243 0.494-0.376 0.317-0.133 0.737-0.133 0.324 0 0.612 0.0885 0.295 0.0811 0.531 0.265 0.0737 0.0516 0.0958 0.125 0.0295 0.0664 7e-3 0.14-0.0147 0.0664-0.0663 0.118-0.0516 0.0442-0.125 0.0516-0.0737 0.0074-0.155-0.0442-0.221-0.147-0.45-0.214-0.229-0.0737-0.45-0.0737-0.413 0-0.627 0.162t-0.214 0.428q0 0.206 0.133 0.339 0.133 0.133 0.413 0.192l0.671 0.14q0.479 0.103 0.715 0.332 0.243 0.221 0.243 0.605 0 0.487-0.391 0.774-0.391 0.288-1.04 0.288zm3.55 0q-0.332 0-0.671-0.0811-0.332-0.0811-0.619-0.28-0.0737-0.0516-0.103-0.118-0.0295-0.0737-0.0221-0.14 0.0147-0.0737 0.059-0.125 0.0516-0.0516 0.118-0.059 0.0737-0.0147 0.162 0.0295 0.288 0.177 0.553 0.251 0.273 0.0664 0.538 0.0664 0.42 0 0.634-0.155 0.214-0.155 0.214-0.42 0-0.206-0.14-0.324-0.14-0.125-0.442-0.192l-0.671-0.147q-0.464-0.0958-0.693-0.332-0.221-0.236-0.221-0.612 0-0.332 0.17-0.568 0.177-0.243 0.494-0.376 0.317-0.133 0.737-0.133 0.324 0 0.612 0.0885 0.295 0.0811 0.531 0.265 0.0737 0.0516 0.0958 0.125 0.0295 0.0664 7e-3 0.14-0.0147 0.0664-0.0663 0.118-0.0516 0.0442-0.125 0.0516-0.0737 0.0074-0.155-0.0442-0.221-0.147-0.45-0.214-0.229-0.0737-0.45-0.0737-0.413 0-0.627 0.162t-0.214 0.428q0 0.206 0.133 0.339 0.133 0.133 0.413 0.192l0.671 0.14q0.479 0.103 0.715 0.332 0.243 0.221 0.243 0.605 0 0.487-0.391 0.774-0.391 0.288-1.04 0.288zm3.74 0q-0.42 0-0.708-0.147-0.28-0.155-0.42-0.442-0.14-0.295-0.14-0.715v-1.88h-0.494q-0.125 0-0.192-0.059-0.0663-0.0664-0.0663-0.177 0-0.111 0.0663-0.17 0.0663-0.059 0.192-0.059h0.494v-0.848q0-0.147 0.0811-0.221 0.0811-0.0811 0.221-0.0811 0.14 0 0.214 0.0811 0.0811 0.0737 0.0811 0.221v0.848h0.929q0.125 0 0.192 0.059 0.0663 0.059 0.0663 0.17 0 0.111-0.0663 0.177-0.0663 0.059-0.192 0.059h-0.929v1.82q0 0.42 0.177 0.641 0.177 0.214 0.575 0.214 0.14 0 0.236-0.0295 0.103-0.0295 0.17-0.0295 0.0663-0.0074 0.111 0.0442 0.0442 0.0516 0.0442 0.177 0 0.0885-0.0369 0.162-0.0295 0.0737-0.111 0.103-0.0885 0.0295-0.236 0.0516-0.14 0.0295-0.258 0.0295zm1.44-0.0147q-0.147 0-0.229-0.0811-0.0737-0.0811-0.0737-0.229v-3.07q0-0.147 0.0737-0.221 0.0737-0.0811 0.214-0.0811 0.14 0 0.214 0.0811 0.0811 0.0737 0.0811 0.221v0.597h-0.0737q0.118-0.435 0.45-0.671 0.332-0.236 0.818-0.251 0.111-0.0074 0.177 0.0516 0.0663 0.0516 0.0737 0.184 7e-3 0.125-0.059 0.199-0.0663 0.0737-0.206 0.0885l-0.118 0.0147q-0.501 0.0442-0.774 0.324-0.265 0.273-0.265 0.752v1.78q0 0.147-0.0811 0.229-0.0737 0.0811-0.221 0.0811zm2.47-0.0221q-0.184 0-0.295-0.111-0.111-0.118-0.111-0.295t0.111-0.288q0.111-0.118 0.295-0.118t0.288 0.118q0.111 0.111 0.111 0.288t-0.111 0.295q-0.103 0.111-0.288 0.111z" stroke-width="5" aria-label="Corrensstr."/><path transform="translate(-10 -.369)" d="m43.4 18.7q-0.0497-0.016-0.0683-0.0521-0.0178-0.0386-0.0018-0.0883l0.499-1.55q0.0168-0.0522 0.0504-0.0715 0.0361-0.0186 0.0858-0.0026 0.0497 0.016 0.0658 0.0513 0.0186 0.0361 0.0018 0.0883l-0.475 1.48 0.815 0.262q0.0447 0.0144 0.0616 0.0472 0.0177 0.0304 0.0041 0.0726-0.0136 0.0422-0.0464 0.0591-0.032 0.0144-0.0768-3e-6zm1.59 0.558q-0.123-0.0442-0.204-0.126-0.0781-0.0836-0.105-0.187-0.0265-0.104 0.0106-0.207 0.0477-0.133 0.141-0.185 0.0962-0.0514 0.262-0.0277 0.169 0.0246 0.439 0.122l0.111 0.0398-0.0468 0.13-0.108-0.0389q-0.199-0.0716-0.322-0.0934-0.119-0.0234-0.182 4e-3 -0.0601 0.0283-0.0893 0.109-0.0362 0.101 0.0096 0.189 0.0483 0.0895 0.169 0.133 0.0983 0.0353 0.189 0.0152 0.0929-0.0193 0.164-0.0853 0.0734-0.0652 0.111-0.171l0.101-0.28q0.0548-0.152 0.0172-0.241-0.0367-0.0909-0.177-0.141-0.086-0.0309-0.18-0.0397-0.0939-0.0088-0.207 0.0059-0.0406 0.0048-0.0634-0.0089-0.0219-0.0162-0.0296-0.0412-0.0077-0.025-0.0013-0.0504 0.0073-0.0279 0.0284-0.048 0.0236-0.0193 0.0584-0.0234 0.128-0.0152 0.242-0.0017 0.114 0.0134 0.21 0.0479 0.155 0.0557 0.237 0.143 0.083 0.0854 0.0951 0.206 0.0129 0.118-0.0445 0.278l-0.239 0.666q-0.0177 0.0491-0.052 0.0673-0.0318 0.0191-0.076 0.0032-0.0467-0.0168-0.0615-0.0526-0.0148-0.0359 0.0028-0.085l0.0689-0.192 0.0221 8e-3q-0.0532 0.0863-0.134 0.132-0.0779 0.0469-0.172 0.0546-0.0943 0.0077-0.195-0.0285zm1.02 0.371q-0.0487-0.0188-0.0627-0.055t0.0049-0.0849l0.393-1.02q0.0188-0.0487 0.0526-0.0636 0.0347-0.0174 0.081 5.48e-4 0.0463 0.0179 0.0602 0.0541 0.0174 0.0347-0.0015 0.0834l-0.081 0.209-0.0155-0.0396q0.106-0.121 0.248-0.148 0.145-0.0278 0.296 0.0306 0.141 0.0547 0.214 0.142 0.0752 0.0879 0.0809 0.21 0.0067 0.12-0.0546 0.278l-0.253 0.652q-0.0188 0.0487-0.056 0.0651-0.0347 0.0174-0.081-5.48e-4 -0.0487-0.0188-0.0651-0.056-0.014-0.0362 0.0049-0.0849l0.248-0.64q0.0641-0.166 0.0276-0.266-0.0331-0.102-0.174-0.157-0.163-0.0631-0.3 0.0014-0.134 0.0631-0.199 0.231l-0.228 0.589q-0.0396 0.102-0.139 0.0636zm1.73 0.685q-0.158-0.0625-0.247-0.185-0.0867-0.121-0.0983-0.283-0.0083-0.163 0.0658-0.35 0.075-0.189 0.192-0.3 0.12-0.112 0.266-0.139 0.149-0.0281 0.306 0.0344 0.16 0.0635 0.242 0.189 0.0823 0.125 0.0673 0.277l-0.0267-0.0106 0.287-0.723q0.0192-0.0485 0.0531-0.0632 0.0373-0.0161 0.0858 0.0031 0.0461 0.0183 0.0598 0.0546 0.0171 0.0348-0.0022 0.0834l-0.612 1.54q-0.0192 0.0485-0.0541 0.0656-0.0348 0.0171-0.0834-0.0022-0.0461-0.0183-0.0622-0.0556-0.0137-0.0363 0.0056-0.0848l0.0914-0.231 0.0132 0.0446q-0.0937 0.123-0.243 0.159-0.147 0.0373-0.307-0.0262zm0.104-0.141q0.109 0.0433 0.213 0.0226 0.104-0.0207 0.188-0.105 0.0865-0.0836 0.143-0.227 0.0875-0.221 0.0342-0.377-0.0509-0.155-0.218-0.221-0.112-0.0442-0.215-0.0236-0.1 0.0192-0.187 0.103-0.0831 0.0822-0.142 0.23-0.0866 0.218-0.0342 0.377 0.0533 0.156 0.218 0.221zm1.27 0.676q-0.0407-0.0176-0.0626-0.0526-0.0218-0.035-0.0203-0.0912l0.0621-1.12q0.0032-0.047 0.0215-0.076 0.0206-0.028 0.0519-0.0345 0.0312-0.0064 0.0672 0.0091 0.036 0.0155 0.0503 0.0416 0.0167 0.0271 0.0114 0.0789l-0.0784 1.1-0.0575-0.0248 0.759-0.81q0.0354-0.0359 0.0666-0.0423 0.0346-0.0078 0.0754 0.0098 0.0384 0.0166 0.0564 0.0471t0.0149 0.0775l-0.076 1.1-0.0551-0.0238 0.756-0.816q0.0354-0.0359 0.0656-0.0399 0.0312-0.0064 0.0648 0.0081 0.0384 0.0166 0.0492 0.044 0.0133 0.0285 0.0022 0.0607-0.0111 0.0322-0.041 0.0619l-0.776 0.816q-0.0364 0.0383-0.0803 0.0478-0.0405 0.0081-0.0812-0.0095-0.0407-0.0176-0.0626-0.0526-0.0208-0.0374-0.0179-0.0902l0.0655-1.13 0.103 0.0445-0.772 0.821q-0.0364 0.0383-0.078 0.0488-0.0405 0.0081-0.0836-0.0105zm2.1 0.963q-0.182-0.0851-0.281-0.218-0.0958-0.134-0.107-0.301-9e-3 -0.166 0.0772-0.35 0.084-0.18 0.217-0.279 0.134-0.102 0.292-0.12 0.161-0.0171 0.324 0.0592 0.116 0.0542 0.189 0.138 0.0745 0.081 0.104 0.184 0.0319 0.104 0.0164 0.224-0.0132 0.121-0.074 0.251-0.0177 0.0378-0.0478 0.0468-0.029 0.0066-0.0692-0.0122l-0.823-0.385 0.0586-0.125 0.778 0.364-0.0522 0.013q0.0597-0.128 0.0628-0.233 0.0042-0.108-0.047-0.189-0.0488-0.0805-0.158-0.131-0.121-0.0564-0.232-0.0394-0.108 0.0157-0.197 0.0951-0.0879 0.0771-0.149 0.207l-0.0066 0.0142q-0.102 0.218-0.0507 0.38 0.0534 0.163 0.247 0.254 0.0804 0.0376 0.168 0.0528 0.0904 0.0163 0.189 2e-3 0.0431-0.0058 0.068 0.0087 0.0284 0.0133 0.0372 0.0376 0.0099 0.0219 0.0036 0.0478-0.0029 0.0246-0.0268 0.0451-0.0216 0.0216-0.0612 0.0261-0.105 0.0203-0.225 0.0013-0.121-0.019-0.225-0.0677zm1.06 1.01q-0.126-0.0562-0.234-0.141-0.107-0.0816-0.176-0.19-0.0212-0.0294-0.0202-0.0575 0.0034-0.027 0.0188-0.0488 0.0143-0.0194 0.0395-0.031 0.0241-0.0093 0.0477-0.0045 0.026 0.0058 0.0445 0.0284 0.0764 0.111 0.161 0.177 0.0848 0.0663 0.178 0.108 0.169 0.0753 0.296 0.0228 0.129-0.0514 0.205-0.223l0.12-0.27 0.0239 0.0106q-0.0973 0.122-0.25 0.152-0.151 0.0302-0.306-0.0387-0.16-0.071-0.245-0.195-0.084-0.126-0.0902-0.286-0.0037-0.159 0.0726-0.331 0.0572-0.129 0.14-0.218 0.0835-0.0914 0.183-0.136 0.103-0.0456 0.217-0.0438 0.117 5.19e-4 0.236 0.0535 0.157 0.07 0.236 0.202 0.0795 0.13 0.0525 0.28l-0.0366 0.018 0.0986-0.222q0.0212-0.0477 0.0557-0.061 0.0379-0.0146 0.0832 0.0056 0.0477 0.0212 0.0599 0.058 0.0133 0.0345-0.0079 0.0822l-0.442 0.995q-0.118 0.265-0.311 0.339-0.192 0.0777-0.449-0.0368zm0.253-0.647q0.112 0.0498 0.215 0.0358 0.104-0.0164 0.19-0.0928 0.0877-0.0753 0.145-0.204 0.0859-0.193 0.0379-0.349-0.0469-0.158-0.214-0.232-0.11-0.0488-0.214-0.0323-0.103 0.0141-0.191 0.0893-0.0843 0.074-0.142 0.203-0.0859 0.193-0.0389 0.351 0.0469 0.158 0.212 0.231z" stroke-width="1.77" aria-label="Landweg"/><path d="m19.5 11.5q-0.0499-0.0154-0.0689-0.0512-0.0157-0.0376-3.74e-4 -0.0875l0.486-1.58q0.0161-0.0524 0.0495-0.0722 0.0359-0.019 0.0858-0.00364 0.0499 0.0154 0.0664 0.0505 0.019 0.0359 0.0029 0.0883l-0.212 0.689 1.06 0.325 0.212-0.689q0.0161-0.0524 0.0495-0.0722 0.0359-0.019 0.0858-0.0036 0.0499 0.0154 0.0664 0.0505 0.019 0.0359 0.0029 0.0883l-0.486 1.58q-0.0154 0.0499-0.052 0.0714-0.0334 0.0198-0.0833 0.0044t-0.0689-0.0512q-0.0157-0.0376-3.73e-4 -0.0875l0.22-0.714-1.06-0.325-0.22 0.714q-0.0154 0.0499-0.0495 0.0722-0.0334 0.0198-0.0858 0.0036zm2.28 0.659q-0.18-0.0454-0.291-0.157-0.112-0.112-0.149-0.272-0.0344-0.162 0.0149-0.357 0.0371-0.147 0.107-0.253 0.0706-0.109 0.17-0.172 0.0996-0.0637 0.217-0.0798 0.12-0.018 0.254 0.0159 0.18 0.0454 0.291 0.157 0.112 0.112 0.146 0.274 0.0376 0.16-0.0117 0.355-0.0371 0.147-0.107 0.253-0.0699 0.106-0.17 0.172-0.0996 0.0637-0.22 0.0817-0.117 0.0161-0.251-0.0178zm0.0416-0.165q0.114 0.0288 0.214-0.0051 0.1-0.0339 0.173-0.129 0.075-0.0941 0.113-0.243 0.0582-0.23-0.0148-0.378-0.0705-0.147-0.245-0.191-0.116-0.0294-0.217 0.0045-0.097 0.032-0.172 0.126-0.0718 0.0922-0.111 0.247-0.0576 0.228 0.0148 0.378 0.073 0.148 0.245 0.191zm0.963 0.401q-0.0509-0.0115-0.0726-0.0458-0.0191-0.0338-0.0076-0.0847l0.24-1.06q0.0115-0.0509 0.0427-0.0706 0.0318-0.0223 0.0802-0.0113 0.0484 0.0109 0.0675 0.0447 0.0223 0.0318 0.0108 0.0827l-0.0466 0.206-0.0255-0.0058q0.0747-0.141 0.208-0.197 0.133-0.0556 0.302-0.0228 0.0388 0.0061 0.0571 0.0316 0.0189 0.023 0.0111 0.0694-0.0072 0.0439-0.0359 0.0642-0.0287 0.0203-0.0782 0.0145l-0.0419-0.0041q-0.177-0.0238-0.293 0.0517-0.113 0.0735-0.15 0.239l-0.139 0.616q-0.0115 0.0509-0.0458 0.0726-0.0318 0.0223-0.0827 0.0108zm1.21 0.269q-0.115-0.0239-0.227-0.0764-0.109-0.052-0.195-0.142-0.0218-0.0232-0.0273-0.0483-0.0049-0.0277 0.0024-0.0502 0.0104-0.0245 0.0295-0.0392 0.0216-0.0142 0.0451-0.012 0.0266 1.95e-4 0.0541 0.0219 0.087 0.082 0.174 0.127 0.0898 0.0426 0.182 0.0617 0.146 0.0302 0.231-8e-3 0.0853-0.0383 0.104-0.13 0.0149-0.0716-0.0252-0.123-0.0395-0.0535-0.14-0.0983l-0.222-0.0994q-0.154-0.0667-0.216-0.165-0.0597-0.0977-0.0326-0.228 0.0239-0.115 0.0996-0.185 0.0789-0.0716 0.198-0.0948 0.119-0.0232 0.265 0.0071 0.112 0.0234 0.206 0.0747 0.0964 0.0493 0.165 0.13 0.0218 0.0232 0.0242 0.0504 0.0054 0.0251-0.0075 0.0491-0.0099 0.0219-0.0315 0.0361-0.0211 0.0116-0.0472 0.0089-0.0261-0.0028-0.0505-0.0265-0.0661-0.067-0.141-0.106-0.0739-0.042-0.151-0.0579-0.143-0.0297-0.229 0.0111t-0.105 0.133q-0.0149 0.0716 0.0216 0.127t0.129 0.0962l0.223 0.0969q0.159 0.0703 0.224 0.166 0.0684 0.0942 0.0408 0.227-0.035 0.169-0.191 0.24-0.156 0.0716-0.381 0.0249zm1.3 0.259q-0.146-0.0284-0.236-0.099-0.0869-0.0727-0.116-0.182-0.0288-0.112-3.92e-4 -0.258l0.127-0.653-0.172-0.0334q-0.0436-0.0085-0.0626-0.0334-0.0186-0.0275-0.0111-0.066 0.0075-0.0384 0.0345-0.0545 0.027-0.016 0.0706-0.0076l0.172 0.0334 0.0573-0.295q0.01-0.0512 0.0431-0.0714 0.0337-0.0227 0.0824-0.0132 0.0487 0.0095 0.0688 0.0426 0.0232 0.0311 0.0132 0.0824l-0.0573 0.295 0.323 0.0627q0.0436 0.0085 0.0626 0.0334 0.0191 0.025 0.0116 0.0634-0.0075 0.0384-0.035 0.057-0.027 0.016-0.0706 0.0076l-0.323-0.0627-0.123 0.633q-0.0284 0.146 0.0182 0.235 0.0471 0.0863 0.185 0.113 0.0487 0.0095 0.084 0.0057 0.0379-0.0033 0.0609 0.0012 0.0236 0.0019 0.0354 0.0228 0.0119 0.0209 0.0034 0.0645-6e-3 0.0308-0.0238 0.0539-0.0152 0.0236-0.0454 0.0284-0.0327 0.0043-0.0855 2e-3 -0.0507 7.9e-4 -0.0917-0.0072zm0.505 0.0913q-0.0514-0.0094-0.0718-0.0424-0.0205-0.033-0.011-0.0843l0.197-1.07q0.0094-0.0514 0.0398-0.0723 0.0309-0.0235 0.0796-0.0146 0.0488 9e-3 0.0693 0.0419 0.0235 0.0309 0.0141 0.0822l-0.0415 0.226-0.0216-0.0411q0.0752-0.135 0.197-0.192 0.125-0.0593 0.277-0.0315 0.159 0.0292 0.243 0.124 0.0865 0.0929 0.0906 0.258l-0.0385-0.0071q0.0726-0.135 0.206-0.196 0.136-0.0626 0.295-0.0333 0.141 0.026 0.221 0.0964 0.0825 0.0709 0.108 0.19 0.0264 0.116-0.0043 0.283l-0.126 0.688q-0.0094 0.0514-0.0429 0.0744-0.0309 0.0235-0.0822 0.0141-0.0488-9e-3 -0.0718-0.0424-0.0205-0.033-0.011-0.0843l0.125-0.678q0.0316-0.172-0.0128-0.262-0.044-0.093-0.185-0.119-0.154-0.0283-0.264 0.063-0.107 0.0892-0.14 0.272l-0.113 0.616q-0.0094 0.0514-0.0429 0.0744-0.0309 0.0235-0.0822 0.0141-0.0488-9e-3 -0.0718-0.0424-0.0205-0.033-0.011-0.0843l0.125-0.678q0.0316-0.172-0.0154-0.263-0.044-0.093-0.183-0.118-0.154-0.0283-0.264 0.063-0.107 0.0892-0.14 0.272l-0.113 0.616q-0.0198 0.108-0.125 0.0885zm2.48 0.457q-0.128-0.0233-0.222-0.0907-0.0909-0.0695-0.134-0.168-0.0432-0.098-0.0237-0.206 0.0251-0.139 0.109-0.206 0.0864-0.0666 0.254-0.0707 0.17-0.0036 0.453 0.0476l0.116 0.021-0.0247 0.136-0.113-0.0205q-0.208-0.0377-0.333-0.039-0.121-0.0034-0.179 0.034-0.0546 0.0379-0.07 0.123-0.0191 0.105 0.0407 0.185 0.0624 0.0803 0.188 0.103 0.103 0.0186 0.189-0.0162 0.0885-0.0344 0.148-0.111 0.0616-0.0764 0.0816-0.187l0.0531-0.293q0.0289-0.159-0.0228-0.24-0.0512-0.0836-0.198-0.11-0.0899-0.0163-0.184-0.0095-0.0941 0.0068-0.204 0.04-0.0392 0.0115-0.064 0.0017-0.0243-0.0124-0.036-0.0357t-0.0096-0.0495q0.0026-0.0287 0.02-0.0521 0.0201-0.0229 0.0537-0.0327 0.123-0.036 0.238-0.0417 0.115-0.0057 0.215 0.0125 0.162 0.0293 0.257 0.102 0.096 0.0705 0.128 0.188 0.0323 0.115 2e-3 0.282l-0.126 0.696q-0.0093 0.0514-0.0401 0.075-0.0282 0.0241-0.0745 0.0157-0.0488-0.0088-0.0694-0.0418-0.0206-0.0329-0.0113-0.0843l0.0363-0.2 0.0231 0.0042q-0.0382 0.0939-0.11 0.153-0.0691 0.0591-0.161 0.0823-0.0918 0.0232-0.197 0.0041zm1.07 0.191q-0.0513-0.0095-0.0743-0.043-0.0204-0.033-0.0109-0.0843l0.199-1.07q0.0095-0.0513 0.04-0.0722 0.0309-0.0235 0.0797-0.0144 0.0488 0.0091 0.0692 0.042 0.0235 0.0309 0.0139 0.0822l-0.0386 0.208-0.0257-0.0048q0.0692-0.144 0.2-0.205 0.131-0.0607 0.301-0.0344 0.039 0.0046 0.0583 0.0294 0.0198 0.0222 0.0138 0.0689-0.0055 0.0441-0.0334 0.0655-0.0279 0.0214-0.0776 0.0175l-0.042-0.0025q-0.177-0.017-0.29 0.0629-0.11 0.0778-0.141 0.245l-0.115 0.621q-0.0095 0.0513-0.043 0.0743-0.0309 0.0235-0.0822 0.0139zm1.36 0.263q-0.197-0.0385-0.326-0.143-0.125-0.107-0.177-0.266-0.0489-0.158-0.0099-0.358 0.038-0.195 0.143-0.323 0.105-0.131 0.255-0.187 0.152-0.0555 0.329-0.021 0.126 0.0245 0.217 0.0875 0.0919 0.0605 0.146 0.153 0.0562 0.0934 0.0701 0.213 0.0164 0.12-0.011 0.261-8e-3 0.041-0.035 0.057-0.0266 0.0134-0.0701 0.0049l-0.892-0.174 0.0265-0.136 0.843 0.164-0.0475 0.0253q0.027-0.138 0.0045-0.241-0.022-0.105-0.0914-0.172-0.0669-0.0662-0.185-0.0892-0.131-0.0255-0.235 0.018-0.101 0.0414-0.168 0.14-0.0666 0.0961-0.0941 0.237l-3e-3 0.0154q-0.046 0.236 0.0428 0.381 0.0913 0.145 0.301 0.186 0.0871 0.017 0.176 0.0104 0.0916-0.0061 0.184-0.0439 0.0404-0.0161 0.068-8e-3 0.0308 6e-3 0.0452 0.0274 0.0149 0.0189 0.0151 0.0455 0.0032 0.0246-0.0151 0.0502-0.0157 0.0262-0.053 0.0402-0.0966 0.045-0.218 0.0558-0.122 0.0108-0.235-0.0112zm0.907 0.177q-0.0511-0.0107-0.0734-0.0446-0.0197-0.0334-9e-3 -0.0846l0.222-1.07q0.0107-0.0511 0.0416-0.0713 0.0314-0.0228 0.08-0.0126 0.0486 0.0101 0.0682 0.0436 0.0228 0.0314 0.0121 0.0825l-0.0432 0.207-0.0256-0.0053q0.0724-0.142 0.204-0.2 0.132-0.0578 0.302-0.0277 0.0389 0.0054 0.0576 0.0307 0.0193 0.0227 0.0122 0.0692-0.0065 0.044-0.0348 0.0647-0.0283 0.0208-0.078 0.0157l-0.042-0.0034q-0.177-0.0209-0.292 0.0564-0.112 0.0754-0.146 0.241l-0.129 0.618q-0.0107 0.0511-0.0446 0.0734-0.0314 0.0228-0.0825 0.0121zm0.972-0.437q-0.0379-0.0099-0.0572-0.0393-0.0186-0.0319-0.0094-0.0672 0.0099-0.0379 0.0411-0.054 0.0319-0.0186 0.0698-0.0087l0.568 0.149q0.0354 0.0093 0.054 0.0411 0.0193 0.0294 0.0094 0.0672-0.0093 0.0354-0.0411 0.054-0.0312 0.0161-0.0666 0.0068z" stroke-width="1.77" aria-label="Horstmarer-"/><rect transform="matrix(.353 -.0295 .0295 .353 17.5 -34.4)" x="50.6" y="104" width="7.18" height="8.91" fill="#0020f1"/><path transform="matrix(.353 -.0295 .0295 .353 17.5 -34.4)" d="m52.7 111q-0.15 0-0.228-0.0472-0.0708-0.0393-0.0944-0.118-0.0236-0.0866-0.0236-0.197v-4.78q0-0.102 0.0236-0.181 0.0315-0.0787 0.11-0.126 0.0787-0.0472 0.22-0.0472h1.72q0.378 0 0.693 0.118 0.323 0.11 0.559 0.346 0.244 0.228 0.378 0.559t0.134 0.763q0 0.425-0.134 0.756t-0.378 0.559q-0.244 0.22-0.567 0.338-0.315 0.118-0.693 0.118h-1.35v1.58q0 0.11-0.0315 0.189-0.0236 0.0787-0.102 0.118-0.0708 0.0472-0.236 0.0472zm0.37-2.65h1.36q0.315 0 0.551-0.118 0.236-0.126 0.37-0.362 0.134-0.244 0.134-0.59 0-0.331-0.126-0.567-0.126-0.236-0.37-0.362-0.236-0.126-0.567-0.126h-1.35z" fill="#fff" stroke-width="3.72" aria-label="P"/><g transform="matrix(.354 0 0 .354 17.2 -33.4)"><circle cx="37.9" cy="148" r="5.12" fill="#ffd43b" stroke="#5ab22e"/><path d="m39.8 151q-0.403 0-0.574-0.117-0.17-0.126-0.206-0.314-0.0359-0.197-0.0359-0.395v-4.63q0-0.197 0.0359-0.386 0.0359-0.188 0.206-0.305 0.17-0.126 0.583-0.126t0.574 0.126q0.17 0.117 0.206 0.305 0.0359 0.188 0.0359 0.394v4.63q0 0.197-0.0359 0.386-0.0359 0.188-0.206 0.314-0.17 0.117-0.583 0.117zm-3.69 0q-0.403 0-0.574-0.117-0.17-0.126-0.206-0.314-0.0359-0.197-0.0359-0.395v-4.63q0-0.197 0.0359-0.386 0.0359-0.188 0.206-0.305 0.17-0.126 0.583-0.126 0.412 0 0.574 0.126 0.17 0.117 0.206 0.305 0.0359 0.188 0.0359 0.394v4.63q0 0.197-0.0359 0.386-0.0359 0.188-0.206 0.314-0.17 0.117-0.583 0.117zm0.681-2.43v-1.4h2.33v1.4z" fill="#5ab22e" stroke-width="2.27" aria-label="H"/></g><g fill="#0020f1"><rect transform="rotate(6.06)" x="45.9" y="12.6" width="1.38" height="1.54"/><rect transform="rotate(5.34)" x="50" y="13.6" width="1.5" height="2.77"/><rect transform="rotate(21.9)" x="63" y="-5.29" width="1.39" height="2.73"/></g><path transform="matrix(.354 0 0 .354 17.5 -34.4)" d="m55.4 145c2.03 0.802 4.13 1.69 6.44 2.71 7.46 3.27 19 9.31 26.8 12.2 7.76 2.9 15.5 4.72 21.7 6.5" fill="none" stroke="#0020f1" stroke-linecap="round" stroke-width="3.11"/></svg>
