<?xml version="1.0" encoding="UTF-8" standalone="no"?>
<!-- Created with Inkscape (http://www.inkscape.org/) -->

<svg
   width="60.354454mm"
   height="78.956505mm"
   viewBox="0 0 60.354454 78.956505"
   version="1.1"
   id="svg1"
   inkscape:version="1.4.4 (dcaf3e7d9e, 2026-05-05)"
   sodipodi:docname="Banane.svg"
   xmlns:inkscape="http://www.inkscape.org/namespaces/inkscape"
   xmlns:sodipodi="http://sodipodi.sourceforge.net/DTD/sodipodi-0.dtd"
   xmlns="http://www.w3.org/2000/svg"
   xmlns:svg="http://www.w3.org/2000/svg">
  <sodipodi:namedview
     id="namedview1"
     pagecolor="#ffffff"
     bordercolor="#000000"
     borderopacity="0.25"
     inkscape:showpageshadow="2"
     inkscape:pageopacity="0.0"
     inkscape:pagecheckerboard="0"
     inkscape:deskcolor="#d1d1d1"
     inkscape:document-units="mm"
     inkscape:zoom="1.6920978"
     inkscape:cx="72.099853"
     inkscape:cy="108.44527"
     inkscape:window-width="1600"
     inkscape:window-height="996"
     inkscape:window-x="0"
     inkscape:window-y="0"
     inkscape:window-maximized="1"
     inkscape:current-layer="layer1" />
  <defs
     id="defs1" />
  <g
     inkscape:label="Ebene 1"
     inkscape:groupmode="layer"
     id="layer1"
     transform="translate(-72.426506,-49.424282)">
    <g
       id="g273"
       style="display:inline"
       inkscape:label="Banane"
       transform="matrix(-1.2939501,1.1382691,-1.1190046,-1.2720508,323.27216,0.44994666)">
      <path
         style="display:inline;fill:#ffffff;fill-opacity:1;stroke:none;stroke-width:0.0462461;stroke-linecap:round;stroke-linejoin:round"
         d="m 121.21534,59.076618 c 0,0 -0.13028,0.665259 -0.45843,0.921607 -0.32815,0.256356 -0.57074,0.166756 -0.68285,0.156324 -0.11212,-0.01044 -0.43627,-0.209125 -0.44405,-0.449262 -0.008,-0.240135 0.0461,-0.606277 0.0938,-0.778871 0.0476,-0.172603 0.89192,-0.300889 0.89192,-0.300889 z"
         id="path198" />
      <path
         style="display:inline;fill:#ffea8a;stroke:#ffea8a;stroke-width:0.707107;stroke-dasharray:none;stroke-opacity:1"
         d="m 812.99602,376.6788 c -6.68919,-1.29673 -12.62345,-7.83336 -14.89585,-16.4079 -0.96605,-3.64525 -1.28777,-14.1222 -0.67772,-22.07031 2.70958,-35.30188 12.63633,-67.02982 30.59386,-97.78428 7.85748,-13.4569 21.11109,-31.99659 22.87365,-31.99659 0.21653,0 2.23974,0.54956 4.49602,1.22124 6.35075,1.89059 7.18389,2.00574 14.35536,1.98404 12.74403,-0.0386 21.01296,-1.66062 31.62877,-6.20438 1.59794,-0.68394 2.96759,-1.24354 3.04366,-1.24354 0.0761,0 -0.55451,1.07392 -1.4013,2.38649 -4.84029,7.50267 -8.1778,16.59341 -9.63775,26.25134 -0.73888,4.88786 -0.83018,17.96926 -0.15793,22.62741 1.03204,7.15124 2.65072,13.27397 5.15895,19.51398 0.87692,2.18164 1.59442,4.15996 1.59442,4.39625 0,0.47816 -1.83835,3.25316 -5.415,8.17399 -1.30707,1.79829 -8.10412,11.86633 -15.10455,22.37343 -14.33782,21.51992 -18.35916,27.26704 -25.10236,35.87525 -10.1791,12.99438 -16.28349,20.17056 -20.32962,23.89905 -6.15677,5.67343 -14.15021,8.33677 -21.02261,7.00453 z m 26.76283,-36.20332 c 2.12554,-1.08437 4.7971,-3.93107 5.86396,-6.24839 1.36242,-2.95931 -0.13841,-5.77615 -1.30577,-8.04203 -1.06937,-2.07566 -0.59147,-2.27642 -2.90962,-2.02651 -2.1721,0.23417 -4.21516,0.0385 -5.54172,1.71338 -3.18951,4.0271 -5.43978,10.00848 -3.39493,13.12932 1.42687,2.17768 4.63656,2.82694 7.28808,1.47423 z m -20.27543,-10.60467 c 4.13706,-1.14865 7.97903,-3.24417 8.54697,-8.72479 0.40287,-3.8877 -1.38479,-7.14318 -4.21393,-7.67393 -3.38327,-0.6347 -5.17904,0.37154 -7.892,4.17012 -2.44581,3.42453 -2.85542,6.96632 -2.88527,9.7878 1.28189,2.48818 3.39329,3.28789 6.44423,2.4408 z"
         id="path95"
         sodipodi:nodetypes="ssssssssssssssssssssssssssssssss"
         transform="matrix(0.12937048,0,0,0.12937048,11.857751,16.439572)" />
      <path
         style="display:inline;fill:#ffd43b;fill-opacity:1;stroke:#ffd43b;stroke-width:0.5;stroke-dasharray:none;stroke-opacity:1"
         d="m 905.50391,285.57737 c -5.27798,-7.23398 -9.39191,-24.73314 -10.77114,-32.48026 -0.43794,-2.45989 0.48955,-13.20072 1.02727,-17.43206 1.37322,-10.80679 5.03552,-20.5817 11.34351,-30.27657 2.69319,-4.13921 3.59441,-5.82123 3.47023,-6.47671 -0.15392,-0.81243 -1.28096,-0.58964 -3.37062,0.66628 -6.29261,3.78197 -18.35143,7.80638 -27.57812,9.2037 -3.53974,0.53607 -10.74577,0.60095 -13.625,0.12267 -6.51171,-1.08169 -12.24992,-0.59491 -16.79753,-3.75823 -5.11664,-3.55914 -9.55491,-3.44094 -10.85979,-9.02119 -0.63344,-2.70886 -9.44979,-14.31473 -10.882,-19.0625 -1.85898,-7.64619 -2.67151,-10.12037 -2.5785,-23.83249 0.0502,-7.40552 5.63506,-22.44108 9.66481,-30.43187 5.7847,-11.47076 26.91343,-26.7726 38.70291,-32.34697 4.7665,-2.253726 33.46957,-8.330715 42.38895,-6.715542 2.32141,0.420374 -5.64626,9.901671 -7.04672,10.995089 -17.22765,13.450613 -36.02712,30.442293 -47.01831,47.041913 -7.93382,11.98216 -10.24298,20.68934 -13.4925,31.03987 -1.12324,3.57779 1.82565,1.81352 5.73108,1.44556 5.19057,-0.48905 10.3893,-1.67256 17.6875,-4.05316 10.89433,-3.55362 19.36796,-7.28025 32.75,-14.40317 6.32848,-3.36849 9.89223,-5.456 18.98799,-11.12246 15.27222,-9.51426 28.58269,-17.18681 41.63701,-24.0008 14.59098,-7.61609 24.68158,-9.91199 41.62496,-9.47089 6.4971,0.16914 10.8389,0.62467 14.5178,1.52314 7.981,1.94917 10.8474,4.51845 12.8517,11.51928 0.7843,2.73974 1.5354,4.139 2.8345,5.28084 2.0603,1.81088 8.0057,4.83472 9.5185,4.84111 0.7218,0.003 0.7223,0.004 0.587,1.31569 -0.2335,2.26218 -3.039,10.25799 -4.934,14.06236 -2.2015,4.41934 -4.3428,7.41121 -8.0698,11.27474 -5.3302,5.52566 -12.0505,10.62733 -26.3057,19.96991 -29.12193,19.08598 -31.00222,21.02207 -39.03313,27.88855 -3.41891,2.9232 -13.61949,10.91789 -13.61949,10.91789 0,0 4.16862,8.25022 12.95184,12.95286 6.27663,3.36059 22.36001,3.6907 39.31528,-0.44686 2.2836,-0.55727 23.5143,-11.26072 26.9497,-9.75383 5.8638,2.57214 2.9218,15.77801 1.4608,18.29557 -7.0009,12.06366 -24.2019,21.90472 -34.2465,25.81076 -12.01203,4.67114 -31.82542,5.20363 -46.76891,2.429 -13.53475,-2.51306 -22.85219,-8.23137 -22.85125,-6.98526 0.005,5.98443 -0.84348,15.14687 0.84336,20.52695 0.48033,1.53202 0.87334,2.83257 0.87334,2.89011 0,0.28049 0.33387,2.98709 12.69447,7.4469 12.90727,4.65705 32.05752,7.35723 49.40096,5.41553 20.01013,-2.24025 40.36053,-11.72899 40.98833,-11.43836 2.0272,0.93847 -1.9422,10.14353 -6.2807,16.55283 -7.7963,11.51756 -22.0558,21.80856 -26.5011,23.53357 -17.98019,6.97739 -35.51708,6.38306 -48.2087,1.21119 -30.80642,-12.55367 -46.28873,-37.62698 -49.96429,-42.66468 z m 22.88464,-101.41561 c 0.6113,-0.39228 3.54859,-2.84855 6.52731,-5.45838 16.50563,-14.46151 26.12101,-20.83891 47.22126,-31.31948 8.85589,-4.39875 14.7361,-6.97302 22.09788,-9.67415 2.7583,-1.01202 5.7463,-2.20447 6.64,-2.64989 1.3742,-0.68488 1.6377,-0.92136 1.7075,-1.53238 l 0.082,-0.72252 -1.7075,0.12986 c -6.3523,0.48314 -32.36884,12.30967 -48.9575,22.25501 -14.86863,8.91413 -35.625,25.85868 -35.625,29.08262 0,0.81646 0.62206,0.78226 2.01355,-0.11069 z"
         id="path97"
         transform="matrix(0.12937048,0,0,0.12937048,11.857751,16.439572)"
         sodipodi:nodetypes="sssssssssscsssssssssssssssssssssscsssssscssssssssscssssccssscc" />
      <path
         d="m 127.30424,55.062629 c 0.89225,-0.939036 1.55843,-1.816832 2.93869,-3.205495 0.17009,-0.171144 0.54351,-0.518235 0.68514,-0.649559"
         id="path164-4"
         style="display:none;fill:none;stroke:#000000;stroke-width:0.585236;stroke-linecap:round;stroke-linejoin:round;stroke-dasharray:none;stroke-opacity:1"
         sodipodi:nodetypes="csc" />
      <path
         d="m 130.5322,51.067457 -0.23291,0.686439 0.75999,-0.134829"
         id="path166-5"
         style="display:none;fill:none;stroke:#000000;stroke-width:0.585236;stroke-linecap:round;stroke-dasharray:none;stroke-opacity:1"
         sodipodi:nodetypes="ccc" />
      <path
         d="m 118.43795,47.487223 c 0.44923,-1.214944 0.61974,-1.977857 1.33991,-3.79853 0.0888,-0.224377 0.29487,-0.690667 0.37319,-0.867227"
         id="path164-4-1"
         style="display:none;fill:none;stroke:#000000;stroke-width:0.585236;stroke-linecap:round;stroke-linejoin:round;stroke-dasharray:none;stroke-opacity:1"
         sodipodi:nodetypes="csc" />
      <path
         d="m 119.66857,42.711816 0.12044,0.859779 0.74421,-0.468186"
         id="path166-5-7"
         style="display:none;fill:none;stroke:#000000;stroke-width:0.438927;stroke-linecap:round;stroke-dasharray:none;stroke-opacity:1"
         sodipodi:nodetypes="ccc" />
      <path
         style="display:inline;fill:#000000;stroke:#000000;stroke-width:0;stroke-dasharray:none;stroke-opacity:1"
         d="m 118.78627,64.953036 c 0.87022,-0.417739 1.2973,-0.841741 3.01085,-2.989166 1.56009,-1.955105 1.89195,-2.425174 4.35311,-6.166098 0.72157,-1.096765 1.51687,-2.254973 1.76734,-2.573794 0.29642,-0.377317 0.43245,-0.631997 0.38967,-0.729556 -0.67044,-1.528774 -0.94214,-2.784649 -0.94785,-4.381305 -0.007,-1.985035 0.44093,-3.571306 1.43366,-5.076028 l 0.17217,-0.260958 -0.6635,0.278141 c -1.21144,0.507838 -2.11864,0.702624 -3.48445,0.748144 -1.08899,0.03629 -1.35911,0.01348 -1.94548,-0.164299 -0.37451,-0.113544 -0.76847,-0.227347 -0.87547,-0.252895 -0.15533,-0.03709 -0.34402,0.155358 -0.93597,0.954566 -3.45208,4.660747 -5.41301,9.531558 -5.97117,14.831939 -0.3282,3.116577 -0.16085,4.302335 0.75431,5.344644 0.68023,0.774733 1.87058,0.951363 2.94278,0.436665 z m 12.3963,-8.864355 c 0.82472,0.828196 3.56639,2.719049 5.64806,3.169399 1.18565,0.256504 2.65112,0.115829 3.45323,-0.09674 l -1e-5,3e-6 c 0.85003,-0.225264 2.24053,-0.947433 2.96298,-1.538857 1.27348,-1.042509 2.4009,-2.598945 2.59859,-3.587432 l 0.0644,-0.321909 -0.86922,0.655591 c -1.71119,1.290631 -4.12559,1.988532 -6.82163,1.997358 -3.29625,0.01079 -6.10999,-1.320216 -7.98603,-2.984166 -1.02108,-1.013686 -1.08214,-1.100093 -1.50111,-1.744481 -0.30221,-0.464808 -0.54356,-1.110113 -0.84703,-1.25751 -0.0645,0.06454 0.53412,1.560202 0.67462,1.889174 0.0569,0.133288 0.25477,0.660447 0.65355,1.282646 0.58546,0.913468 1.47902,2.044284 1.9696,2.536924 z m -1.0353,-4.262817 -0.34276,-0.47022 c -0.70619,-0.968817 -1.23812,-2.33721 -1.27237,-3.273177 -0.0301,-0.823486 0.1424,-0.667225 0.33927,0.307279 0.19874,0.983736 0.57041,1.876826 1.05316,2.593553 0.32052,0.475866 0.42761,0.61555 0.75439,0.989831 l 0.47452,0.408743 c 0.49044,0.422453 1.42641,1.083865 1.47107,1.039547 0.0139,-0.01384 -0.035,-0.19615 -0.1087,-0.405136 v 8e-6 c -0.2464,-0.698379 -0.38137,-1.8023 -0.31607,-2.585271 0.15354,-1.841007 0.9397,-3.374442 2.6221,-5.114473 1.4023,-1.450333 2.46908,-2.233331 7.64905,-5.614259 3.10216,-2.024752 4.00587,-2.994979 4.63502,-4.976176 0.25942,-0.816934 0.27277,-0.912291 0.12766,-0.912291 -0.21204,0 -1.02609,-0.419057 -1.28354,-0.660741 -0.14713,-0.138118 -0.24749,-0.361897 -0.2675,-0.433759 -0.0269,-0.09677 -0.0937,-0.40043 -0.20821,-0.666624 -0.26009,-0.604583 -0.71185,-0.887653 -1.75749,-1.10123 -0.9816,-0.200494 -3.0146,-0.200761 -4.07011,-5.34e-4 -1.49371,0.283352 -2.11187,0.561581 -5.53981,2.493422 -1.06312,0.599126 -1.42635,0.819453 -3.59915,2.183182 -1.12906,0.708643 -3.35638,1.854718 -4.47461,2.302432 -1.13295,0.453612 -2.92839,1.003989 -3.72141,1.140769 -0.76854,0.132558 -0.76848,-0.07557 -0.69308,0.97066 0.0588,0.815276 0.60741,1.507847 1.20038,2.029804 0.40344,0.355124 0.97533,0.613087 1.35917,0.613087 0.0874,0 0.15894,0.06566 0.15894,0.145911 0,0.384617 -1.19896,-0.005 -1.79346,-0.582753 -0.97712,-0.949658 -1.51977,-2.035892 -1.08994,-3.624257 0.61756,-2.28204 2.69661,-5.397634 5.22223,-7.825844 0.8351,-0.802883 1.33245,-1.225526 2.72125,-2.312454 0.49357,-0.386288 -0.89596,0.502379 -1.76378,1.115654 -2.98106,2.10667 -5.73472,5.056479 -6.5842,7.553194 -0.34842,1.024021 -0.46602,2.249668 -0.27029,3.08917 0.18749,0.804132 0.8263,1.959842 1.35839,2.457557 1.23195,1.152344 3.66056,1.111796 6.47357,-0.108082 0.321,-0.139206 0.66128,-0.318683 0.75617,-0.398839 0.10769,-0.09096 0.2069,-0.111369 0.26397,-0.0543 0.0571,0.05707 -0.0668,0.318846 -0.32962,0.696487 -1.05877,1.521389 -1.62048,3.246062 -1.6396,5.034193 -0.0102,0.950822 0.0182,1.145865 0.25458,1.750934 0.32739,0.838003 0.64509,1.535042 1.15675,2.220183 0.19345,0.27173 0.47023,0.601392 0.68301,0.857355 0.45641,0.593879 1.3674,1.236063 2.10414,1.712656 2.40678,1.556942 5.4128,2.167276 8.53093,1.661224 0.88464,-0.14357 2.54688,-0.665391 3.35638,-1.070997 0.45273,-0.226847 1.1567,-0.765513 1.1567,-0.814275 0,-0.01189 -0.38963,0.12502 -0.86584,0.30424 -1.35941,0.511609 -2.56153,0.728033 -4.38696,0.789814 -3.73583,0.126437 -6.45806,-0.755218 -8.98221,-2.909096 l -0.34099,-0.342107 z m 8.79628,-0.54577 c 2.45915,-0.17925 5.14855,-1.447327 6.3736,-3.005213 0.28263,-0.359413 0.36825,-0.803889 -0.34297,-0.238741 -3.11351,2.474065 -6.96536,3.198185 -11.66449,1.930261 -0.48337,-0.130423 -0.71661,0.114518 -0.74264,0.140548 -0.026,0.02603 0.28566,0.20118 0.69265,0.389221 0.88714,0.409884 2.15087,0.724482 3.2791,0.816314 0.85191,0.06934 1.04459,0.06675 2.40475,-0.0324 z m 0.79977,-1.01506 c 2.07803,-0.347422 4.14022,-1.350285 5.3714,-2.630174 0.94195,-0.979205 1.12503,-1.265722 0.81136,-2.016446 -0.18483,-0.442364 -0.26951,-0.429284 -1.92308,0.297041 -1.74164,0.765007 -3.07027,1.125736 -4.40007,1.194636 -1.74836,0.09059 -2.71935,-0.25734 -3.7571,-1.346242 l -0.54706,-0.574027 -0.58118,0.659136 c -0.95953,1.088236 -1.53987,2.01905 -1.8859,3.024783 -0.27473,0.798529 -0.25956,0.619646 0.38406,0.85432 2.01643,0.735228 4.25771,0.916467 6.52757,0.536973 z m -20.47341,-4.641191 c -0.40115,0.928234 -0.48189,1.339008 -0.50306,1.419259 -0.046,0.174423 10e-4,0.10891 0.83537,-1.151898 h -3e-5 c 0.34176,-0.516723 0.92664,-1.34681 1.29974,-1.84464 0.3731,-0.497829 0.66254,-0.916386 0.64319,-0.930126 -0.0193,-0.01374 -0.40542,-0.291087 -0.54586,-0.392023 -0.14044,-0.100936 -0.5191,-0.438309 -1.14229,-1.171264 -0.14999,-0.176406 -0.87451,-1.492167 -1.06662,-2.037357 -0.57427,-1.629704 -0.64659,-3.970244 0.26876,-6.087429 0.91147,-2.108221 2.8542,-4.099007 5.0668,-5.19213 1.65124,-0.815782 2.90907,-1.125688 4.89527,-1.206102 1.09324,-0.04426 1.32257,-0.02789 1.53207,0.109378 0.54447,0.356753 0.32736,0.658694 -1.40728,1.957075 -1.21971,0.912951 -1.62698,1.270632 -2.74766,2.413119 -1.61608,1.647511 -2.96035,3.466648 -3.85912,5.222342 -0.45108,0.881154 -0.86813,1.994831 -0.77913,2.080592 0.14774,0.14237 2.73544,-0.611277 4.56496,-1.329508 0.82287,-0.323043 3.14325,-1.551188 4.13415,-2.188151 1.06576,-0.685085 2.84612,-1.756827 3.84232,-2.312996 0.45476,-0.253886 1.24268,-0.695909 1.75094,-0.982273 1.98132,-1.116325 3.3826,-1.487934 5.62269,-1.491102 1.58596,-0.0022 2.56182,0.148304 3.2639,0.503524 0.37443,0.189439 0.37551,0.189417 0.58992,-0.01201 0.25813,-0.2425 0.37227,-0.248066 0.96256,-0.04693 0.54119,0.184401 1.40337,0.92883 1.58826,1.371348 0.25304,0.605596 0.10741,1.35102 -0.3146,1.610315 -0.0648,0.03982 -0.21382,0.388459 -0.33116,0.774765 -0.45686,1.504106 -1.25332,2.671615 -2.47144,3.622788 -0.76713,0.599018 -2.119,1.516659 -4.02814,2.734272 -2.59652,1.656012 -5.26022,3.643103 -5.26749,3.929486 -0.002,0.07795 0.27213,0.410755 0.60912,0.739566 0.77025,0.751545 1.40645,1.011849 2.64596,1.082603 1.47004,0.08391 3.403,-0.418313 5.57175,-1.447667 0.53058,-0.251832 0.90892,-0.371899 1.10903,-0.351953 0.99896,0.09957 1.00143,2.14118 0.004,3.36567 -0.55753,0.68449 -0.9452,1.029504 -1.79578,1.598192 -2.77144,1.852948 -7.50528,2.233201 -10.55976,0.848232 -0.34672,-0.157209 -0.6744,-0.285834 -0.72818,-0.285834 -0.21684,0 0.15419,2.301725 0.47177,2.926655 0.25037,0.492698 2.45541,1.213835 4.45892,1.458253 0.58195,0.07099 1.46819,0.09512 2.23731,0.06092 2.0459,-0.09099 3.59519,-0.447456 5.19895,-1.196209 1.02042,-0.476405 1.27885,-0.464261 1.27885,0.0601 0,0.423767 -0.47122,1.538678 -0.86235,2.040357 -1.03021,1.32137 -2.26253,2.384367 -3.46978,2.99304 -1.19783,0.603921 -2.16501,0.775068 -3.49051,0.791877 -1.13847,0.01444 -1.59148,-0.07628 -2.24523,-0.262693 -1.07507,-0.306533 -2.76458,-1.152107 -3.70442,-1.854005 -0.99809,-0.74539 -2.27741,-2.087133 -2.96212,-3.106645 l -0.83492,-1.291922 c -0.0818,-0.183365 -0.15379,-0.118687 -0.72935,0.655488 -0.35121,0.472411 -0.71886,0.990248 -0.81699,1.15075 -0.17804,0.291185 -0.1882,0.290122 0.33727,-0.220197 l 0.20108,0.231952 c -0.24083,0.308923 -0.31561,0.357985 -0.48213,0.507316 -0.96671,0.866913 -1.5385,1.765749 -2.38284,3.031441 -1.25589,1.882615 -3.72863,5.059599 -4.57231,5.874514 -0.95115,0.918721 -2.40764,1.392213 -3.34533,1.087543 l 7e-5,-6e-6 c -1.28709,-0.418198 -1.95323,-1.436354 -2.20288,-3.366987 -0.0734,-0.568062 0.19052,-3.524169 0.4383,-4.908271 0.47011,-2.626055 1.22654,-4.988089 2.41929,-7.554478 0.16565,-0.356408 0.30118,-0.680075 0.30118,-0.71926 0,-0.03831 0.32234,-0.939354 0.69253,-1.959823 0.008,-0.02328 0.22923,-0.861535 0.64868,-1.698525 z m 2.27057,-3.396691 c -0.21677,-0.317559 -0.42281,-0.644735 -0.56748,-0.98256 -0.24083,-0.562365 -0.37332,-0.756659 -0.42723,-1.913153 -0.0319,-0.684372 0.16117,-1.580976 0.32983,-2.150732 0.56095,-1.632853 1.90239,-3.526206 3.37151,-4.943556 1.63796,-1.580232 3.51609,-3.156966 5.63297,-4.43216 0.29544,-0.177972 0.50033,-0.408964 0.46499,-0.444297 -0.0959,-0.09595 -1.32472,-0.07612 -2.31544,0.03738 -1.07483,0.123126 -2.18151,0.399794 -2.98952,0.747375 -3.89766,1.676659 -6.40491,5.091683 -6.39806,8.714548 0.003,1.817561 0.57053,3.396599 1.74925,4.870654 0.28228,0.353018 1.19409,1.129663 1.32626,1.129663 -0.0935,-0.202988 -0.0511,-0.447226 -0.17708,-0.633162 z"
         id="path260"
         sodipodi:nodetypes="ssssccscsssssssssssssscsscscssscscsscscsssssssssssssssscssscssssssssssccsscsssssssccssssssssssssssscsssscsccsczsssssssssssssscsssssssssssssssssssssssssssccssccssscccssssccssscsscsscsss" />
      <path
         style="display:inline;fill:#000000;stroke:#000000;stroke-width:0;stroke-dasharray:none"
         d="m 131.72053,40.326007 c -0.15426,-0.249603 1.90934,-2.032632 3.84553,-3.32267 2.33714,-1.557188 7.29556,-3.797896 7.29556,-3.296863 0,0.128258 -0.0912,0.170073 -1.41048,0.646784 -1.51892,0.548847 -4.35113,1.984964 -5.72815,2.904546 -1.15419,0.770782 -1.94506,1.398349 -3.38333,2.684725 -0.35329,0.315977 -0.57571,0.45374 -0.61913,0.383478 z"
         id="path259" />
      <path
         style="display:inline;fill:#000000"
         d="m 117.02173,59.008224 c -0.45278,-0.608361 0.19948,-1.859516 1.06667,-2.046178 0.73007,-0.157138 1.13744,0.258497 0.95016,0.969449 -0.12459,0.472876 -0.50234,0.946138 -0.94081,1.178602 -0.35145,0.186331 -0.90019,0.134378 -1.07602,-0.101884 z m 1.44902,-0.589608 c -0.59592,0.354522 -1.2171,-0.193681 -0.89598,-0.825648 -0.44441,0.461956 -0.4426,1.061432 -0.30028,1.205158 0.30291,0.400449 0.93677,-0.06865 1.19626,-0.37951 z"
         id="path257"
         sodipodi:nodetypes="cscscccccc" />
      <path
         style="display:inline;fill:#000000"
         d="m 119.34699,60.2735 c -0.3571,-0.569849 0.33088,-1.795637 1.1008,-1.961354 0.734,-0.157984 1.14216,0.255821 0.95462,0.967806 -0.14928,0.566679 -0.4358,0.919859 -0.9523,1.173833 -0.49664,0.244213 -0.87597,0.182218 -1.10312,-0.180285 z m 0.80699,0.0063 c 0.37598,-0.112984 0.59344,-0.355092 0.73305,-0.5236 -0.73601,0.335337 -1.11838,-0.404811 -0.94658,-0.773702 -0.34488,0.32631 -0.48029,0.984929 -0.30226,1.164779 0.1532,0.196253 0.51579,0.132523 0.51579,0.132523 z"
         id="path256"
         sodipodi:nodetypes="cscscccccc" />
      <path
         style="display:inline;fill:#000000"
         d="m 116.68167,60.075001 c -0.28416,-0.116422 -0.636,-0.586639 -0.6014,-0.803764 0.0474,-0.297659 0.19083,-0.241851 0.3077,0.119745 0.0807,0.249715 0.19025,0.366387 0.41097,0.437734 0.31292,0.101153 0.43481,0.277621 0.2149,0.311136 -0.0697,0.01062 -0.21918,-0.01856 -0.33217,-0.06485 z"
         id="path255" />
      <path
         style="display:inline;fill:#000000"
         d="m 119.13413,61.503455 c -0.29273,-0.151187 -0.52404,-0.513474 -0.4392,-0.687905 0.065,-0.133685 0.10764,-0.114744 0.30045,0.133501 0.20365,0.262199 0.26985,0.287969 0.70697,0.275231 0.5427,-0.01582 0.65702,0.167163 0.20425,0.326908 -0.29324,0.103459 -0.50507,0.09037 -0.77247,-0.04774 z"
         id="path254" />
      <path
         style="display:inline;fill:#1a1a1a;stroke:none;stroke-width:2"
         d="m 1034.5771,114.61916 c -1.8747,1.87917 1.2017,8.94775 2.5276,11.24584 1.3258,2.2981 9.949,8.38671 13.0658,5.68052 1.5752,-1.36765 1.1973,-5.27258 0.446,-7.65907 -0.7513,-2.38649 -6.1019,-7.54687 -8.8933,-8.77043 -2.7294,-1.19639 -5.2715,-2.37603 -7.1461,-0.49686 z"
         id="path98"
         sodipodi:nodetypes="zssssz"
         transform="matrix(0.12937048,0,0,0.12937048,11.857751,16.439572)" />
      <g
         id="g191"
         inkscape:label="Arm_test"
         style="display:inline">
        <path
           style="baseline-shift:baseline;display:inline;overflow:visible;opacity:1;stroke:none;stroke-width:0.234094;stroke-linecap:round;stroke-linejoin:round;stroke-dasharray:none;enable-background:accumulate;stop-color:#000000;stop-opacity:1"
           d="m 120.62618,42.688111 c -0.14006,-0.08157 -0.27988,0.149917 -0.36064,0.289887 -0.0967,0.167713 -0.44843,0.754512 -0.4485,0.755212 -0.56572,1.119534 -0.60618,1.309159 -1.11978,2.502001 -0.0723,0.144566 -0.0738,0.306941 0.0198,0.361095 0.11519,0.06663 0.15344,-0.08658 0.22474,-0.232109 0.53366,-1.013717 0.60007,-1.588004 1.23329,-2.557642 0.32973,-0.504903 0.20472,-0.419285 0.30068,-0.585766 0.0797,-0.139429 0.28949,-0.451454 0.15053,-0.532618 z"
           id="path8"
           sodipodi:nodetypes="ccccscsccc" />
        <path
           style="baseline-shift:baseline;display:inline;overflow:visible;opacity:1;stroke-width:0;stroke-linecap:round;stroke-dasharray:none;enable-background:accumulate;stop-color:#000000;stop-opacity:1"
           d="m 120.15131,42.462668 c -0.12144,0.0034 -0.20324,0.138432 -0.19896,0.259917 l 0.0854,0.945657 0.88897,-0.452624 c 0.10866,-0.05327 0.11798,-0.09882 0.0643,-0.207723 -0.0536,-0.108881 -0.17811,-0.03764 -0.29986,-0.01329 l -0.35375,0.115936 -0.052,-0.336582 c -0.003,-0.180369 0.034,-0.274413 -0.13404,-0.31129 z"
           id="path191"
           sodipodi:nodetypes="ccccscccc" />
        <path
           style="baseline-shift:baseline;display:inline;overflow:visible;opacity:1;vector-effect:none;stroke-linecap:round;stroke-linejoin:round;enable-background:accumulate;stop-color:#000000;stop-opacity:1"
           d="m 130.35425,51.227745 c -0.32099,0.401676 -1.32894,1.593714 -1.90347,2.314343 -0.57452,0.720629 -1.09422,1.316588 -1.47995,1.586231 -0.13295,0.09259 -0.22603,0.207811 -0.13297,0.340431 0.0925,0.131716 0.2033,0.09288 0.32092,-0.01756 0.6571,-0.616995 0.9795,-1.041546 1.56188,-1.695928 0.58237,-0.654383 1.61198,-1.967012 1.91239,-2.274427 0.30041,-0.307414 0.38355,-0.392034 0.58055,-0.644288 0.11885,-0.109938 0.25723,-0.198999 0.14702,-0.317569 -0.10973,-0.117576 -0.2523,-0.0069 -0.37062,0.102057 -0.20745,0.208527 -0.382,0.327643 -0.63575,0.60671 z"
           id="path193"
           sodipodi:nodetypes="csccsczcccc" />
        <path
           style="baseline-shift:baseline;display:inline;overflow:visible;opacity:1;vector-effect:none;stroke-linecap:round;enable-background:accumulate;stop-color:#000000;stop-opacity:1"
           d="m 130.8585,50.290847 c -0.13391,-0.02933 -0.17915,0.168914 -0.23086,0.322146 l -0.20756,0.815096 0.87488,-0.192786 c 0.15823,-0.02857 0.29026,-0.03631 0.26282,-0.194741 -0.0276,-0.159023 -0.30053,-0.138082 -0.4596,-0.110727 l -0.0845,-0.006 -0.0937,-0.152865 c 0.0806,-0.158058 0.15723,-0.424899 -0.0615,-0.480117 z"
           id="path194"
           sodipodi:nodetypes="cccccccccc" />
      </g>
    </g>
    <path
       style="display:inline;fill:#000000;stroke-width:1.70871"
       d="m 103.88038,68.513641 c -0.87373,-0.247032 -1.38482,-0.637638 -1.32766,-1.014677 0.0416,-0.274183 0.60775,-0.137441 2.19041,-0.489647 1.63272,-0.363346 2.39199,-0.985579 2.36101,-0.320752 -0.0317,0.67983 -0.42732,1.28018 -1.11553,1.692706 -0.57756,0.346201 -1.21127,0.386001 -2.10823,0.132401 z"
       id="path226"
       sodipodi:nodetypes="ccssscc" />
  </g>
</svg>
