<?xml version="1.0" encoding="UTF-8" standalone="no"?>
<!-- Created with Inkscape (http://www.inkscape.org/) -->

<svg
   width="36.779716mm"
   height="58.786358mm"
   viewBox="0 0 36.779716 58.786358"
   version="1.1"
   id="svg1"
   sodipodi:docname="Erdbeere.svg"
   inkscape:version="1.4.4 (dcaf3e7d9e, 2026-05-05)"
   xmlns:inkscape="http://www.inkscape.org/namespaces/inkscape"
   xmlns:sodipodi="http://sodipodi.sourceforge.net/DTD/sodipodi-0.dtd"
   xmlns="http://www.w3.org/2000/svg"
   xmlns:svg="http://www.w3.org/2000/svg">
  <sodipodi:namedview
     id="namedview1"
     pagecolor="#ffffff"
     bordercolor="#000000"
     borderopacity="0.25"
     inkscape:showpageshadow="2"
     inkscape:pageopacity="0.0"
     inkscape:pagecheckerboard="0"
     inkscape:deskcolor="#d1d1d1"
     inkscape:document-units="mm"
     inkscape:zoom="3.764413"
     inkscape:cx="40.378141"
     inkscape:cy="133.2213"
     inkscape:window-width="1600"
     inkscape:window-height="996"
     inkscape:window-x="0"
     inkscape:window-y="0"
     inkscape:window-maximized="1"
     inkscape:current-layer="svg1">
    <inkscape:page
       x="0"
       y="0"
       width="36.779716"
       height="58.786358"
       id="page2"
       margin="0"
       bleed="0" />
  </sodipodi:namedview>
  <defs
     id="defs1" />
  <path
     style="display:inline;fill:#367815;fill-opacity:1;stroke:#367815;stroke-width:1.13093023;stroke-dasharray:none;stroke-opacity:1"
     d="m 304.52986,420.4375 c 0.49342,-5.97369 1.38955,-13.16712 2.10999,-16.9375 0.26274,-1.375 0.50751,-3.0625 0.54393,-3.75 0.0579,-1.09213 0.002,-1.25919 -0.44181,-1.32275 -0.28554,-0.0409 -1.48986,0.55046 -2.75,1.35031 -5.78634,3.67279 -8.39153,4.79793 -11.64413,5.02894 -2.20156,0.15637 -2.60706,-0.10944 -1.68653,-1.10554 0.80715,-0.87341 4.59562,-3.71286 9.08869,-6.81193 4.42527,-3.05231 8.6663,-6.31883 9.51782,-7.3308 0.43442,-0.51628 0.60718,-1.02383 0.60718,-1.78383 0,-1.34773 -0.7064,-2.06294 -2.33868,-2.36789 -0.65143,-0.1217 -1.24369,-0.28054 -1.31613,-0.35299 -0.1284,-0.1284 3.56435,-2.17432 6.48804,-3.59462 l 1.45824,-0.70839 0.75352,0.87474 c 1.89266,2.19713 3.7181,4.00622 4.08705,3.93635 0.60589,-0.11474 0.46178,-1.52262 -0.12964,-2.68198 -0.68658,-1.3458 -5.47764,-6.28204 -8.36262,-8.61603 -6.08132,-4.91987 -11.97356,-7.86315 -18.93337,-9.45758 -3.49213,-0.80001 -4.95637,-1.37936 -4.95637,-1.96108 0,-0.1477 0.73831,-1.0333 1.64069,-1.96801 l 1.6407,-1.69946 2.2968,1.43774 c 1.26325,0.79076 4.54681,2.64943 7.29681,4.13037 4.8485,2.61104 8.42261,4.87502 11,6.96781 4.47378,3.63263 7.48124,6.79745 10.14318,10.67389 1.90907,2.78008 2.58063,3.42443 3.11061,2.98459 0.75493,-0.62654 0.57991,-2.37693 -1.68731,-5.53627 -0.75051,-1.046 -1.7907,-2.40398 -1.7907,-2.60207 0,-0.19809 0.6198,-1.0152 1.56163,-2.06847 0.94182,-1.05328 2.4185,-2.81505 3.28151,-3.91505 0.86301,-1.1 1.66025,-2.03511 1.77166,-2.07802 0.1114,-0.0429 0.90079,0.77271 1.7542,1.8125 0.8534,1.03979 1.63538,1.89052 1.73773,1.89052 0.10235,0 1.08381,-1.09687 2.18103,-2.4375 2.91918,-3.56676 13.90104,-13.96055 17.90861,-16.94962 l 0.97216,-0.72509 -0.19293,0.61861 c -0.33461,1.07287 -2.99572,6.24493 -4.88461,9.4936 -1.95795,3.36743 -3.98348,6.41359 -5.98452,9 -1.2653,1.63544 -1.67505,2.41553 -1.4087,2.68189 0.0793,0.0793 1.91771,0.23779 4.08533,0.35218 8.6799,0.45806 14.2849,1.30214 16.64631,2.50684 1.17532,0.5996 1.07229,0.7669 -1.43457,2.32936 -4.61971,2.87933 -14.43412,6.98337 -20.64562,8.63326 -0.61875,0.16435 -1.8429,0.62419 -2.72034,1.02186 l -1.59534,0.72303 0.16262,0.93829 c 1.1338,6.54214 1.88901,19.98345 1.1485,20.44111 -0.39773,0.24581 -1.72899,-0.70443 -3.39952,-2.42653 -2.1414,-2.20752 -3.65548,-4.28472 -6.23717,-8.55691 -2.77303,-4.58882 -3.6809,-5.69959 -4.57339,-5.59548 -0.59318,0.0692 -0.76007,0.37102 -1.83906,3.3261 -2.48927,6.81747 -2.78249,7.56769 -3.90842,10 -0.84976,1.83571 -2.03005,3.6625 -4.44192,6.875 -3.421,4.55662 -5.24042,6.75 -5.59914,6.75 -0.11588,0 -0.15726,-0.64687 -0.092,-1.4375 z"
     id="path4"
     transform="matrix(0.16715931,0.14753038,-0.14503352,0.16433024,19.366156,-101.04571)"
     inkscape:label="füllung grün"
     sodipodi:nodetypes="csssssssssssscssssssscsssssssssssssscssssssssscsssssssssc" />
  <g
     inkscape:label="Ebene 1"
     inkscape:groupmode="layer"
     id="layer1"
     transform="translate(-79.143968,-89.242002)">
    <g
       id="g274"
       inkscape:label="Erdbeere"
       style="display:inline"
       transform="matrix(1.2920978,1.1403713,-1.1210712,1.2702298,101.61868,-46.207976)">
      <path
         style="display:inline;fill:#ffffff;fill-opacity:1;stroke:none;stroke-width:0.585236;stroke-linecap:round;stroke-linejoin:round"
         d="m 60.143455,72.418016 c 0,0 -0.702996,-0.474871 -0.840299,-0.988846 -0.137303,-0.513977 0.08238,-0.759792 0.148288,-0.888286 0.06591,-0.128494 0.450357,-0.419002 0.730456,-0.312855 0.280099,0.106147 0.675534,0.346376 0.851282,0.486042 0.17575,0.139669 -0.08238,1.206728 -0.08238,1.206728 z"
         id="path195" />
      <path
         style="display:inline;fill:#ffffff;fill-opacity:1;stroke:none;stroke-width:0.585236;stroke-linecap:round;stroke-linejoin:round"
         d="m 57.507224,74.999071 c 0,0 -0.702996,-0.474871 -0.840299,-0.988846 -0.137303,-0.513977 0.08238,-0.759792 0.148288,-0.888286 0.06591,-0.128494 0.450357,-0.419002 0.730456,-0.312855 0.280099,0.106147 0.675534,0.346376 0.851282,0.486042 0.17575,0.139669 -0.08238,1.206728 -0.08238,1.206728 z"
         id="path196" />
      <path
         style="fill:#e60000;fill-opacity:1;stroke:#e60000;stroke-width:1.39783;stroke-dasharray:none;stroke-opacity:1"
         d="m 413.875,509.11831 c -0.89375,-0.10503 -3.7625,-0.75779 -6.375,-1.45057 -18.45564,-4.89404 -36.69632,-9.22788 -51.6793,-12.2786 -20.37182,-4.14796 -32.338,-7.74984 -42.8207,-12.88926 -4.97051,-2.43693 -7.39756,-4.00304 -10.24012,-6.60768 -4.50573,-4.12863 -11.12236,-11.63863 -14.15446,-16.06562 -3.78723,-5.52951 -5.55545,-11.6342 -5.56173,-19.20158 -0.006,-7.54785 1.75091,-13.21991 7.78067,-25.11559 2.06123,-4.06645 2.64166,-4.9919 4.08158,-6.50777 1.918,-2.01915 4.71836,-4.11116 7.53156,-5.62646 2.30834,-1.24336 2.20226,-1.52842 1.32905,3.57132 -0.75274,4.39615 -1.1424,9.15773 -1.1388,13.91597 0.003,4.1374 0.16493,5.49664 0.67775,5.69342 0.7655,0.29375 4.23653,-3.76818 9.45473,-11.06431 3.38906,-4.73862 4.74514,-7.05284 5.38369,-9.18756 0.45598,-1.52438 0.8563,-2.52515 2.71957,-6.79856 l 0.54264,-1.24454 1.94649,3.7738 c 3.39151,6.57535 5.26025,8.77252 9.11847,10.72107 2.21693,1.11963 3.54269,1.18079 3.939,0.18171 0.73543,-1.85397 0.46611,-15.30079 -0.39719,-19.83161 -0.19385,-1.01732 -0.33176,-1.87036 -0.30648,-1.89564 0.0253,-0.0253 1.73293,-0.50987 3.79477,-1.07686 4.13137,-1.1361 5.99994,-1.77691 8.99881,-3.08605 7.68386,-3.35435 14.58062,-7.25272 15.18751,-8.58469 0.2332,-0.51182 0.17389,-0.69948 -0.4155,-1.31468 -2.16666,-2.2615 -11.49911,-4.57734 -16.8667,-4.18545 -1.18542,0.0865 -2.65853,0.23294 -3.27358,0.32532 l -1.11826,0.16796 1.30898,-1.6029 c 2.03206,-2.48835 4.56589,-6.34426 6.0639,-9.2279 1.94016,-3.73477 3.64008,-5.37032 9.33076,-8.97744 5.53412,-3.50788 8.81309,-5.09863 11.65789,-5.65566 2.82148,-0.55247 11.46597,-0.78906 14.20376,-0.38874 1.10751,0.16194 3.51162,0.67605 5.34245,1.14247 8.9107,2.27008 14.07098,4.91182 19.8917,10.1833 5.03989,4.56432 8.53636,8.87602 10.68391,13.1749 2.14192,4.28763 3.53261,8.70583 7.87575,25.02117 1.66542,6.25625 3.63039,13.175 4.3666,15.375 2.55904,7.64712 6.44992,23.17173 8.11403,32.375 1.65238,9.1384 2.13924,14.48161 2.12986,23.375 -0.006,5.42821 -0.11636,8.0607 -0.4403,10.47627 -1.16945,8.72025 -3.29199,14.69832 -6.75584,19.0276 -3.24664,4.0578 -9.99857,9.89465 -12.44392,10.75742 -2.08558,0.73584 -6.153,0.99661 -9.468,0.60702 z m -7.13917,-17.54894 c 1.03682,-1.48027 -0.11935,-5.02914 -2.2492,-6.90391 -1.13467,-0.99877 -2.82357,-1.65053 -3.88739,-1.50016 -0.54606,0.0772 -0.59659,0.19576 -0.5694,1.33612 0.0347,1.45607 1.31578,4.7532 2.30238,5.9257 1.42947,1.69883 3.61643,2.26611 4.40361,1.14225 z m -36.2188,-6.31037 c 1.77616,-0.74213 2.09083,-3.35373 0.65547,-5.43996 -0.76818,-1.11651 -3.7004,-3.52604 -5.22258,-4.29163 -0.94596,-0.47578 -2.10456,-0.52277 -2.52492,-0.10241 -0.57774,0.57774 -0.34716,2.52576 0.49952,4.22011 0.83384,1.66868 4.70475,5.97989 5.36915,5.97989 0.19107,0 0.74158,-0.1647 1.22336,-0.366 z m 59.2188,-2.68963 c 0.22803,-0.32556 0.3882,-1.07604 0.38683,-1.8125 -0.003,-1.59089 -0.93402,-3.28678 -2.72294,-4.95978 -1.07066,-1.00129 -1.42146,-1.18985 -2.09298,-1.125 -0.73739,0.0712 -0.81347,0.1596 -0.88509,1.02817 -0.1303,1.58025 1.19744,4.98803 2.58673,6.6391 0.82959,0.98591 2.12167,1.09488 2.72745,0.23001 z m -96.45129,-5.16764 c 0.52509,-0.55893 0.94983,-0.16589 0.94983,-1.71874 0,-2.17478 -0.25154,-2.00384 -2.9764,-4.20081 -1.99894,-1.61169 -2.95808,-2.49024 -3.70113,-2.77905 -1.28638,-0.5 -1.41374,-0.0781 -1.93182,1.32812 -0.16254,0.44121 0.46469,1.10848 0.86988,2.32838 0.39022,1.17487 2.27267,3.09471 3.29602,4.26136 1.40257,1.59898 2.48298,1.85652 3.49362,0.78074 z m 51.97245,-18.51152 c 3.10921,-1.53065 5.32353,-4.32909 6.2354,-7.88023 0.52222,-2.03371 0.51824,-6.33009 -0.007,-7.07935 -0.40241,-0.57452 -1.93094,-0.79894 -2.223,-0.32639 -0.0779,0.12608 -0.0409,0.94171 0.0824,1.8125 0.76836,5.42966 -2.76454,10.63813 -8.05259,11.87175 -1.83139,0.42724 -2.66761,0.92248 -2.66761,1.57985 0,0.79342 0.73422,1.02929 2.91363,0.93603 1.69562,-0.0725 2.32127,-0.22637 3.71836,-0.91416 z m 40.39129,-5.11148 c 0.52336,-0.85827 0.6229,-2.4867 0.21723,-3.55369 -0.57852,-1.52163 -5.75252,-5.73776 -7.24732,-5.90562 -0.53519,-0.0601 -0.62893,0.0427 -0.69821,0.76558 -0.19204,2.00402 2.10353,7.52187 3.60609,8.66794 1.67289,1.27597 3.35346,1.28648 4.12221,0.0258 z m -64.24387,0.59226 c 2.14125,-0.59478 3.93878,-2.64694 4.4948,-5.13152 0.79392,-3.54759 -1.44176,-8.24578 -5.61051,-11.79027 -4.55108,-3.86956 -10.56147,-4.28577 -13.64123,-0.94462 -3.01755,3.27366 -1.99809,9.7002 2.20341,13.88991 1.74803,1.74313 4.39417,3.38607 6.26773,3.89153 1.39175,0.37548 5.06139,0.42508 6.2858,0.085 z m -60.14742,-6.04466 c 1.5277,-0.69607 1.81415,-3.13729 0.65433,-5.57633 -1.31352,-2.76224 -3.29267,-4.80686 -5.08624,-5.25446 -0.53244,-0.13287 -0.81655,-0.0268 -1.34582,0.50247 -0.62218,0.62219 -0.6597,0.77804 -0.51668,2.14638 0.32394,3.09928 2.56395,7.38526 4.24102,8.11466 0.99314,0.43195 1.23559,0.43989 2.05339,0.0673 z m 35.36574,-3.07359 c 0.4155,-0.50065 0.12997,-1.96862 -0.64135,-3.29726 -0.33351,-0.57448 -0.60589,-1.30573 -0.6053,-1.625 6e-4,-0.31926 0.45569,-1.47875 1.01131,-2.57664 0.81527,-1.61096 0.99597,-2.21357 0.93641,-3.12276 -0.0965,-1.47275 -0.61652,-1.57344 -1.80518,-0.34951 -2.3062,2.37462 -3.30985,6.55933 -2.14853,8.95829 0.51932,1.07277 1.98146,2.38514 2.65733,2.38514 0.1575,0 0.42539,-0.16752 0.59531,-0.37226 z m -10.13193,-4.72081 c 0.70555,-0.70555 1.12664,-2.06611 0.94809,-3.06336 -0.16179,-0.90369 -5.55388,-6.33821 -6.78491,-6.83831 -0.77119,-0.31329 -0.87817,-0.30108 -1.20941,0.13803 -0.85272,1.1304 0.17387,5.24634 1.96216,7.86695 1.55756,2.28248 3.84493,3.13583 5.08407,1.89669 z m 55.52498,-5.23002 c 2.80465,-1.4678 4.24013,-5.5771 3.27043,-9.36219 -0.8234,-3.21405 -2.68475,-5.97077 -5.6003,-8.29424 -3.53458,-2.81678 -7.12541,-3.71433 -9.85694,-2.46379 -4.64237,2.12535 -5.97647,7.1012 -3.32033,12.38396 1.84013,3.65979 5.84311,7.02244 9.49136,7.97308 1.58665,0.41344 5.03247,0.27779 6.01578,-0.23682 z m 36.15537,-15.38496 c 0.76442,-0.81951 0.95385,-1.21459 0.95385,-1.98941 0,-2.77646 -5.61641,-7.38536 -7.94852,-6.52266 -0.43019,0.15914 -0.55148,0.40403 -0.55148,1.11348 0,1.81175 1.22426,5.38777 2.46999,7.21478 0.73881,1.08355 1.47736,1.41712 2.88866,1.30468 1.06234,-0.0846 1.36609,-0.24028 2.1875,-1.12087 z m -52.6422,-11.53687 c 2.17475,-1.72163 3.77736,-2.50508 5.12431,-2.50508 1.90619,0 2.63967,-1.14176 1.20882,-1.88168 -3.29369,-1.70323 -9.73708,1.84167 -9.73708,5.35696 0,1.27206 0.89307,1.01752 3.40395,-0.9702 z m 23.29185,-9.89525 c 0.70078,-0.49085 1.3042,-1.63848 1.3042,-2.48044 0,-1.72692 -1.79453,-3.9836 -4.84436,-6.09195 -2.14931,-1.48581 -2.91636,-1.74101 -3.4947,-1.16266 -0.59612,0.59611 -0.50926,1.57736 0.34975,3.95136 0.91734,2.53518 2.63915,5.42012 3.49258,5.85192 0.86094,0.4356 2.52396,0.40005 3.19253,-0.0682 z M 414.57491,381.855 c 1.51967,-0.52976 1.57752,-2.5067 0.11811,-4.03655 -1.14503,-1.2003 -5.22378,-3.74115 -5.86073,-3.65093 -0.88507,0.12537 -0.87611,1.19743 0.0261,3.12546 1.42583,3.04694 2.57129,4.26345 4.39158,4.664 0.275,0.0605 0.51134,0.12307 0.5252,0.13902 0.0138,0.0159 0.37372,-0.0925 0.79971,-0.241 z m -32.31778,-13.4844 c 1.69045,-1.04476 2.05022,-2.44341 0.96137,-3.73745 -0.79377,-0.94334 -4.48097,-3.85369 -5.43041,-4.28628 -0.90985,-0.41456 -1.42576,0.093 -1.59053,1.56486 -0.22453,2.00573 1.44864,5.79933 2.90771,6.59268 0.9258,0.5034 2.20898,0.44892 3.15186,-0.13381 z"
         id="path3"
         inkscape:label="füllung rot"
         transform="matrix(0.12937048,0,0,0.12937048,11.857751,16.439572)"
         sodipodi:nodetypes="sssssscsssscsssscssssssssssscssssssssssscsssssssssssssssssssssssssssssssscscscsssccsssssssssssssssssssssssssssssssssssssssssssssssssssssssssssssssssssssssssssssss" />
      <path
         id="path287"
         style="display:inline;fill:#000000;stroke:#000000;stroke-width:0;stroke-dasharray:none"
         d="m 61.293304,82.378628 c 0.32697,-0.247095 0.336129,-0.446557 -0.04946,-0.795159 -0.270138,-0.05793 -0.510891,-0.105335 -0.535008,-0.105335 L 60.09923,81.340196 c -0.482276,-0.14632 -4.600808,-0.953455 -4.644123,-0.91014 -0.01859,0.01859 0.02419,0.251064 0.09505,0.516619 0.07086,0.265555 0.228883,0.854901 0.351153,1.309657 0.561407,2.088021 1.240881,2.628531 2.575012,2.048378 h 2e-6 c 0.214003,-0.09306 0.685534,-0.394013 1.047847,-0.668784 0.362312,-0.27477 0.743942,-0.545177 0.848067,-0.600902 z m 5.47906,-0.191778 c 0.564667,-0.356569 1.283241,-1.031708 1.622755,-1.524667 0.916342,-1.330489 1.065886,-4.210598 0.381896,-7.355067 -0.298087,-1.370383 -0.804562,-3.294722 -0.928653,-3.528398 -0.05036,-0.09484 -0.326711,-1.080079 -0.614103,-2.189414 -0.764223,-2.949915 -0.979241,-3.405789 -2.143514,-4.544607 -0.806669,-0.789032 -1.470641,-1.160191 -2.622905,-1.4662 -0.806584,-0.214206 -1.120818,-0.250842 -1.870328,-0.218061 -0.736808,0.03222 -1.061196,0.108322 -1.340259,0.238936 -0.483943,0.226505 -0.566893,0.29885 -1.173597,0.685066 -0.648699,0.412949 -0.771466,0.522379 -1.029428,1.042305 -0.160084,0.32265 -0.450297,0.780963 -0.644919,1.018474 l -0.353857,0.431836 0.501836,-0.06657 c 0.792999,-0.105195 2.356769,0.324688 2.356769,0.64788 0,0.213865 -1.956904,1.218839 -2.830632,1.45368 l -0.821836,0.220894 0.07163,0.389096 c 0.11639,0.63225 0.12326,2.377837 0.0098,2.491292 -0.14803,0.14803 -0.836248,-0.227131 -1.133454,-0.617867 -0.132632,-0.174371 -0.360629,-0.555391 -0.506659,-0.84671 L 53.4374,67.919072 53.208868,68.4369 c -0.125693,0.284805 -0.228532,0.570931 -0.228532,0.635834 0,0.266004 -1.721614,2.606705 -1.878741,2.554329 -0.141903,-0.0473 -0.09104,-1.777523 0.07585,-2.580151 0.07004,-0.336831 0.09943,-0.599442 0.06533,-0.583579 -0.566616,0.263538 -1.209293,0.743321 -1.417861,1.058487 -0.298495,0.451057 -0.870538,1.663918 -1.122627,2.380225 -0.400212,1.137198 -0.324746,2.518523 0.196185,3.590947 0.277611,0.571509 1.374188,1.873764 2.202962,2.616156 1.005701,0.900878 3.40269,1.772 6.6077,2.401393 1.117463,0.219445 2.622691,0.547793 3.344951,0.729662 3.062418,0.771132 3.662886,0.92459 3.939602,1.006822 0.521934,0.155102 1.4896,0.122364 1.778675,-0.06018 z m 4.078738,-7.652221 c 1.462705,-1.545247 1.741151,-2.754176 0.824994,-3.581869 -0.202462,-0.182912 -0.650722,-0.445633 -0.996133,-0.583824 -0.605341,-0.242183 -2.307032,-0.619394 -2.395434,-0.530992 -0.0237,0.0237 0.06942,0.430944 0.20694,0.904986 0.252156,0.869213 0.671285,2.695395 0.869488,3.788433 0.0633,0.349086 0.151239,0.577242 0.214334,0.556086 0.05885,-0.01973 0.162696,0.03124 0.230778,0.113277 0.06808,0.08203 0.157432,0.149151 0.198558,0.149151 0.04113,0 0.42204,-0.366862 0.846475,-0.815248 z M 52.361338,69.687921 c 0.114307,-0.15549 0.329077,-0.619493 0.477266,-1.031116 0.148188,-0.411623 0.307086,-0.851653 0.353106,-0.977845 0.114391,-0.313672 0.243221,-0.190655 0.79518,0.759296 0.381763,0.657034 0.944869,1.269715 1.166977,1.269715 0.121598,0 0.01111,-2.02381 -0.148618,-2.722192 -0.02171,-0.09494 0.241671,-0.209136 0.89331,-0.387302 0.864004,-0.236228 2.626401,-1.079706 2.626401,-1.256987 0,-0.160777 -1.191624,-0.399951 -1.99265,-0.399951 -0.455564,0 -0.828299,-0.03363 -0.828299,-0.07474 0,-0.04111 0.173782,-0.28504 0.386183,-0.542074 0.368023,-0.445358 1.321895,-2.182143 1.242227,-2.261812 -0.06232,-0.06232 -2.03971,1.751752 -2.398929,2.200807 l -0.332785,0.416011 -0.222236,-0.27871 c -0.12223,-0.153291 -0.236642,-0.258535 -0.254249,-0.233875 -0.221228,0.309839 -0.817927,1.025292 -0.876104,1.050464 -0.0418,0.01809 0.05594,0.19948 0.217201,0.403094 0.275637,0.34802 0.383705,0.682887 0.220254,0.682497 -0.04012,-9.6e-5 -0.194981,-0.19333 -0.344124,-0.429409 -0.446626,-0.706964 -1.50085,-1.623989 -2.406633,-2.093427 -0.453237,-0.234897 -0.993978,-0.533535 -1.201649,-0.663638 l -0.377582,-0.236553 -0.251162,0.251162 c -0.311462,0.311462 -0.236264,0.388304 0.519956,0.531324 0.865714,0.163728 1.914883,0.740588 2.733051,1.5027 0.666742,0.621061 0.914065,0.976555 0.775682,1.114937 -0.03274,0.03275 -0.185538,-0.09093 -0.339542,-0.274834 l -0.280007,-0.33437 -0.617762,0.310302 c -0.495961,0.249121 -0.567368,0.311452 -0.362169,0.31614 0.326263,0.0075 0.474423,0.188764 0.372898,0.456329 -0.04326,0.114018 -0.649402,0.591425 -1.346977,1.060905 -0.697574,0.469481 -1.242158,0.895927 -1.210186,0.947659 0.134747,0.218024 1.005655,-0.01554 1.592253,-0.427012 0.320152,-0.224574 0.608353,-0.382057 0.640448,-0.349962 0.03209,0.03209 0.0092,0.26864 -0.05089,0.525657 -0.09962,0.426108 -0.296022,2.060023 -0.300088,2.496441 -0.0015,0.163928 0.288935,-0.175205 1.13025,-1.319633 z M 66.906594,65.2514 c 0.108178,0.284333 0.388392,1.261116 0.622698,2.170629 0.234306,0.909513 0.452577,1.746006 0.485047,1.858874 0.05049,0.175497 0.181163,0.222207 0.902411,0.322575 0.787855,0.109636 1.572413,0.318785 2.290898,0.657915 0.176991,0.08354 0.339848,0.172042 0.490048,0.286513 0.203489,0.155083 0.571381,0.595381 0.702684,0.902934 0.189967,0.444964 0.121529,1.170526 -0.165918,1.758998 -0.268389,0.549458 -1.008375,1.48807 -1.611362,2.043884 -0.344453,0.317506 -0.462936,0.498459 -0.467614,0.714164 -0.0079,0.362156 -0.177582,0.426593 -0.43792,0.166255 l -0.200628,-0.200627 v 0.789396 c 0,0.759413 0.01128,0.799131 0.297078,1.045697 0.509821,0.439842 3.876506,4.192358 4.299732,4.792492 0.221358,0.313884 0.433126,0.534648 0.478072,0.576763 0.09924,0.09298 0.390368,0.47879 0.519993,0.944545 0.141409,0.508095 -0.199159,1.080936 -0.560261,0.942369 -0.216474,-0.08307 -0.488339,-0.968334 -0.43974,-1.43191 0.05561,-0.530482 -0.149866,-0.823978 -2.159763,-3.084884 -2.03212,-2.285906 -2.223706,-2.472249 -2.395348,-2.329799 -0.07537,0.06255 -0.138067,0.250634 -0.139326,0.417961 -0.0045,0.593467 -0.375043,1.72132 -0.71774,2.184449 -0.910961,1.231094 -2.115893,2.037905 -2.888704,1.93425 -0.208728,-0.028 -0.379506,-0.03852 -0.379506,-0.02337 0,0.01514 0.426791,0.346553 0.948423,0.736473 1.370172,1.024203 2.388817,1.964027 3.210999,2.962539 0.396477,0.481507 0.793739,0.963014 0.882805,1.070015 0.57115,0.686165 0.525075,1.990411 -0.06629,1.876524 -0.269501,-0.0519 -0.406929,-0.478096 -0.391082,-1.212838 l 0.01506,-0.698153 -0.504777,-0.634362 c -0.694187,-0.872396 -2.034113,-2.1142 -3.340662,-3.096025 -1.809173,-1.359529 -1.627839,-1.263352 -2.965224,-1.572719 l -0.605731,-0.140119 0.15243,0.294768 c 0.133696,0.258539 0.134961,0.312237 0.01029,0.436907 -0.124669,0.124669 -0.193577,0.117286 -0.56066,-0.06007 l -0.418521,-0.202207 -0.420833,0.246624 -1.39665,0.996342 c -1.759293,1.331891 -2.656805,1.492094 -3.477043,0.620643 -0.463217,-0.492138 -0.641842,-0.931215 -1.087042,-2.672043 -0.161414,-0.631163 -0.283226,-1.194551 -0.270694,-1.251973 0.01253,-0.05742 -0.530906,-0.291397 -1.20764,-0.519945 -1.392933,-0.470424 -2.404051,-0.96945 -3.002916,-1.482056 -0.67747,-0.579889 -2.038756,-2.166817 -2.298616,-2.679626 -0.286452,-0.565286 -0.517038,-1.571914 -0.517038,-2.257145 0,-0.895061 0.265148,-1.802733 0.895091,-3.064135 0.333977,-0.66876 0.622284,-1.248757 0.640681,-1.288882 0.0184,-0.04013 -0.06062,-0.07296 -0.175601,-0.07296 -0.252655,0 -0.585356,-0.166572 -0.585356,-0.293069 0,-0.05042 0.470564,-0.40582 1.045697,-0.789773 0.575133,-0.383953 1.217414,-0.832337 1.427291,-0.996409 l 0.381594,-0.298313 -0.423097,-0.103015 c -0.232703,-0.05666 -0.440217,-0.154376 -0.461142,-0.21715 -0.02095,-0.06284 0.281872,-0.274314 0.673785,-0.47054 0.391506,-0.196023 0.732005,-0.375097 0.756665,-0.397944 0.07137,-0.06612 -0.473788,-0.48713 -1.209501,-0.93407 -0.44861,-0.272528 -0.959166,-0.480459 -1.507749,-0.614054 -0.709237,-0.172719 -0.834066,-0.233452 -0.861275,-0.419039 -0.03652,-0.249088 0.191326,-0.640538 0.454948,-0.781624 0.133078,-0.07122 0.266081,-0.04693 0.510689,0.09325 0.181911,0.104255 0.702821,0.382918 1.157578,0.619251 0.454756,0.236334 1.133243,0.694771 1.507748,1.018749 0.374506,0.323978 0.709994,0.590504 0.745531,0.59228 0.06094,0.003 0.562608,-0.730126 0.840481,-1.22835 0.173418,-0.310935 0.273778,-0.286385 0.463477,0.113375 l 0.16177,0.340907 1.16911,-1.127161 c 1.272241,-1.226593 1.535855,-1.406917 1.771208,-1.211592 0.08125,0.06743 0.118566,0.169771 0.08293,0.227427 -0.06027,0.09752 0.374831,-0.140961 0.942397,-0.516528 0.968369,-0.640783 2.517645,-0.772173 4.13415,-0.350605 0.791688,0.206465 1.117584,0.351951 1.750934,0.781654 0.723699,0.491001 1.423607,1.187303 1.845954,1.836443 0.286198,0.411713 0.449977,0.89336 0.650593,1.35025 z"
         sodipodi:nodetypes="ccccssssssccsssssssssssscssscsssscsssscsssssssssssssssssssssssssssssssscsssssssscssssscscsssssscsscsssssssscscssssssssscsssssssscssscssscccssssssssssssscssssssssssscsscsssssscc" />
      <path
         style="display:inline;fill:#000000"
         d="m 58.737062,69.297903 c 0.04277,-0.296582 0.632177,-0.676505 0.993201,-0.640208 0.396015,0.03982 0.456414,0.272087 0.07075,0.272087 -0.190784,0 -0.41508,0.104076 -0.628911,0.291822 -0.396787,0.348384 -0.476295,0.362328 -0.435042,0.0763 z"
         id="path222" />
      <path
         style="display:inline;fill:#000000"
         d="m 60.227257,72.668081 c -1.021114,-0.529986 -1.440781,-1.680205 -0.834312,-2.286674 0.447982,-0.447982 1.037164,-0.375485 1.703561,0.20962 0.726784,0.638125 0.850703,1.649838 0.257833,2.10503 -0.21608,0.165901 -0.780536,0.15189 -1.127082,-0.02798 z m -0.160342,-0.666995 c -0.204389,-0.448585 0.02029,-0.889336 0.545386,-1.069853 l 0.365594,-0.125686 -0.416451,-0.258664 c -0.484126,-0.300698 -0.900521,-0.171152 -1.071497,0.148319 -0.155828,0.291167 -0.04587,0.820946 0.251242,1.210479 0.293549,0.384863 0.482879,0.440318 0.325726,0.0954 z"
         id="path219"
         sodipodi:nodetypes="sssssssscsssss" />
      <path
         style="display:inline;fill:#000000"
         d="m 55.086806,73.907417 c -0.215996,-0.238673 -0.202596,-0.67678 0.03249,-1.062356 0.341837,-0.560652 0.549193,-0.317984 0.219933,0.257387 -0.140881,0.246185 -0.149266,0.33117 -0.04864,0.492933 0.254339,0.408856 0.09903,0.646653 -0.20379,0.312036 z"
         id="path217" />
      <path
         style="display:inline;fill:#000000"
         d="m 57.454945,75.046502 c -0.448922,-0.270792 -0.662781,-0.504931 -0.832748,-0.91172 -0.598554,-1.43254 0.946222,-2.081549 2.06966,-0.869529 0.596908,0.643973 0.676677,1.348507 0.20268,1.790102 -0.289085,0.269324 -0.985526,0.265042 -1.439592,-0.0089 z m 0.197971,-0.371156 c -0.252948,-0.472637 -0.01455,-1.017541 0.531585,-1.215053 0.188978,-0.06834 0.18793,-0.07576 -0.03662,-0.258914 -0.473413,-0.386148 -1.105553,-0.357115 -1.295373,0.05949 -0.167582,0.367802 0.04577,0.946873 0.481056,1.305674 0.422899,0.348589 0.453209,0.358915 0.319351,0.108799 z"
         id="path214" />
      <path
         style="display:inline;fill:#000000"
         d="m 60.859539,75.800036 c 0,-0.07929 0.14977,-0.157428 0.368906,-0.192469 0.639811,-0.10231 1.147754,-0.885538 1.017201,-1.568483 -0.04218,-0.220657 -0.01999,-0.258725 0.132771,-0.227735 0.153464,0.03113 0.181281,0.119453 0.170325,0.540793 -0.01553,0.597511 -0.253841,1.053565 -0.711788,1.362175 -0.364922,0.245921 -0.977415,0.299637 -0.977415,0.08572 z"
         id="path213" />
      <g
         id="g104"
         inkscape:label="stippen filled"
         style="display:inline">
        <path
           style="display:inline;fill:#deaa1f;fill-opacity:1;stroke:#000000;stroke-width:0.175571;stroke-dasharray:none"
           d="m 60.897431,64.088905 c -0.217732,-0.144052 -0.427179,-0.686286 -0.347885,-0.900637 0.07619,-0.205961 0.08488,-0.203966 0.502266,0.115243 0.498939,0.381582 0.55186,0.490906 0.340129,0.702637 -0.16982,0.169821 -0.323933,0.195612 -0.49451,0.08276 z"
           id="path225"
           sodipodi:nodetypes="ssssss" />
        <path
           style="display:inline;fill:#deaa1f;fill-opacity:1;stroke:#000000;stroke-width:0.175571;stroke-dasharray:none"
           d="m 65.174022,65.793245 c -0.224956,-0.10153 -0.59549,-0.809429 -0.48271,-0.922208 0.03769,-0.03769 0.143027,-0.0141 0.234087,0.05241 0.09106,0.06652 0.285664,0.196288 0.432453,0.288382 0.4614,0.289477 0.300046,0.799802 -0.18383,0.581411 z"
           id="path224"
           sodipodi:nodetypes="ssssss" />
        <path
           style="display:inline;fill:#deaa1f;fill-opacity:1;stroke:#000000;stroke-width:0.175571;stroke-dasharray:none"
           d="m 61.749591,67.986648 c -0.17478,-0.06962 -0.596604,-0.990673 -0.531458,-1.160441 0.07495,-0.195307 0.163456,-0.169107 0.630904,0.186755 0.436429,0.332247 0.569447,0.657942 0.367896,0.900796 -0.120256,0.1449 -0.239758,0.163538 -0.467342,0.07289 z"
           id="path223"
           sodipodi:nodetypes="sssss" />
        <path
           style="display:inline;fill:#deaa1f;fill-opacity:1;stroke:#000000;stroke-width:0.175571;stroke-dasharray:none"
           d="m 57.419704,69.040113 c -0.220671,-0.342639 -0.296915,-0.910612 -0.130796,-0.974358 0.164724,-0.06321 0.850913,0.536427 0.850913,0.743584 0,0.182344 -0.263016,0.449641 -0.442439,0.449641 -0.0752,0 -0.200151,-0.09849 -0.277678,-0.218867 z"
           id="path221"
           sodipodi:nodetypes="sssss" />
        <path
           style="display:inline;fill:#deaa1f;fill-opacity:1;stroke:#000000;stroke-width:0.175571;stroke-dasharray:none"
           d="m 53.633035,73.380069 c -0.357705,-0.267364 -0.645621,-1.240245 -0.367041,-1.240245 0.139973,0 0.872491,0.693427 0.932608,0.882838 0.06636,0.209066 -0.09565,0.479 -0.287481,0.479 -0.06347,0 -0.188613,-0.05472 -0.278086,-0.121593 z"
           id="path218"
           sodipodi:nodetypes="sssss" />
        <path
           style="display:inline;fill:#deaa1f;fill-opacity:1;stroke:#000000;stroke-width:0.175571;stroke-dasharray:none"
           d="m 50.430595,74.307775 c -0.238641,-0.268397 -0.456639,-0.868605 -0.397549,-1.094565 0.103594,-0.396142 0.645272,-0.0325 0.917734,0.616095 0.199206,0.474209 -0.198619,0.840131 -0.520185,0.47847 z"
           id="path216"
           sodipodi:nodetypes="ssss" />
        <path
           style="display:inline;fill:#deaa1f;fill-opacity:1;stroke:#000000;stroke-width:0.175571;stroke-dasharray:none"
           d="m 65.389797,70.819739 c -0.235092,-0.235092 -0.488311,-1.009837 -0.36904,-1.129109 0.134843,-0.134842 0.651981,0.154789 0.92111,0.515883 0.149746,0.200916 0.168124,0.296832 0.0862,0.449901 -0.134631,0.251561 -0.465399,0.3362 -0.638274,0.163325 z"
           id="path220"
           sodipodi:nodetypes="ssssss" />
        <path
           style="display:inline;fill:#deaa1f;fill-opacity:1;stroke:#000000;stroke-width:0.175571;stroke-dasharray:none"
           d="m 66.32141,75.051224 c -0.19179,-0.205862 -0.471035,-1.028199 -0.380047,-1.119186 0.102995,-0.102995 0.95065,0.563024 1.00815,0.792124 0.129393,0.515541 -0.262428,0.719568 -0.628103,0.327062 z"
           id="path215"
           sodipodi:nodetypes="ssss" />
        <path
           style="display:inline;fill:#deaa1f;fill-opacity:1;stroke:#000000;stroke-width:0.175571;stroke-dasharray:none"
           d="m 67.102536,78.824133 c -0.205299,-0.247369 -0.394054,-0.80796 -0.315076,-0.93575 0.125156,-0.202505 0.689494,0.363097 0.714758,0.71636 0.02292,0.320532 -0.209747,0.448248 -0.399682,0.21939 z"
           id="path211"
           sodipodi:nodetypes="ssss" />
        <path
           style="display:inline;fill:#deaa1f;fill-opacity:1;stroke:#000000;stroke-width:0.175571;stroke-dasharray:none"
           d="m 59.253684,78.906173 c -0.559662,-0.593414 -0.544853,-1.242065 0.02016,-0.882851 0.499095,0.317307 0.710232,0.565525 0.710232,0.834965 0,0.226843 -0.147035,0.382548 -0.361248,0.382548 -0.02943,0 -0.195545,-0.150598 -0.36914,-0.334662 z"
           id="path210"
           sodipodi:nodetypes="ssssss" />
        <path
           style="display:inline;fill:#deaa1f;fill-opacity:1;stroke:#000000;stroke-width:0.175571;stroke-dasharray:none"
           d="m 54.363449,77.997178 c -0.559662,-0.593414 -0.544853,-1.242065 0.02016,-0.882851 0.499095,0.317307 0.710232,0.565525 0.710232,0.834965 0,0.226843 -0.147035,0.382548 -0.361248,0.382548 -0.02943,0 -0.195545,-0.150598 -0.36914,-0.334662 z"
           id="path210-9"
           sodipodi:nodetypes="ssssss" />
        <path
           style="display:inline;fill:#deaa1f;fill-opacity:1;stroke:#000000;stroke-width:0.175571;stroke-dasharray:none"
           d="m 64.01135,79.977059 c -0.200436,-0.140391 -0.490628,-0.900705 -0.384343,-1.00699 0.0315,-0.0315 0.174487,-0.01606 0.317743,0.03432 0.322728,0.113497 0.649385,0.643826 0.563413,0.9147 -0.07375,0.232372 -0.22296,0.249781 -0.496813,0.05797 z"
           id="path209"
           sodipodi:nodetypes="sssss" />
      </g>
      <g
         id="g277"
         inkscape:label="stippen og"
         style="display:none">
        <path
           style="display:inline;fill:#000000"
           d="m 60.897431,64.088905 c -0.217732,-0.144052 -0.427179,-0.686286 -0.347885,-0.900637 0.07619,-0.205961 0.08488,-0.203966 0.502266,0.115243 0.498939,0.381582 0.55186,0.490906 0.340129,0.702637 -0.16982,0.169821 -0.323933,0.195612 -0.49451,0.08276 z m 0.390642,-0.202492 c 0.05411,-0.08755 -0.494856,-0.661987 -0.56521,-0.591438 -0.02279,0.02285 0.01842,0.183809 0.09156,0.357686 0.125668,0.298725 0.361546,0.415134 0.473646,0.233752 z"
           id="path105" />
        <path
           style="display:inline;fill:#000000"
           d="m 65.174022,65.793245 c -0.224956,-0.10153 -0.59549,-0.809429 -0.48271,-0.922208 0.03769,-0.03769 0.143027,-0.0141 0.234087,0.05241 0.09106,0.06652 0.285664,0.196288 0.432453,0.288382 0.4614,0.289477 0.300046,0.799802 -0.18383,0.581411 z m 0.2574,-0.203806 c 0,-0.07166 -0.110806,-0.180784 -0.246235,-0.24249 -0.226436,-0.103171 -0.238258,-0.09729 -0.147026,0.07318 0.08246,0.154085 0.182101,0.232922 0.368943,0.291925 0.01337,0.0042 0.02432,-0.05095 0.02432,-0.122618 z"
           id="path106" />
        <path
           style="display:inline;fill:#000000"
           d="m 61.749591,67.986648 c -0.17478,-0.06962 -0.596604,-0.990673 -0.531458,-1.160441 0.07495,-0.195307 0.163456,-0.169107 0.630904,0.186755 0.436429,0.332247 0.569447,0.657942 0.367896,0.900796 -0.120256,0.1449 -0.239758,0.163538 -0.467342,0.07289 z m 0.356959,-0.334089 c -0.03633,-0.242195 -0.663578,-0.771173 -0.663003,-0.559133 2e-4,0.07373 0.0871,0.276322 0.193119,0.4502 0.22148,0.363254 0.51836,0.43208 0.469884,0.108933 z"
           id="path107" />
        <path
           style="display:inline;fill:#000000"
           d="m 57.707569,69.489104 c -0.220671,-0.342639 -0.296915,-0.910612 -0.130796,-0.974358 0.164724,-0.06321 0.850913,0.536427 0.850913,0.743584 0,0.182344 -0.263016,0.449641 -0.442439,0.449641 -0.0752,0 -0.200151,-0.09849 -0.277678,-0.218867 z m 0.496274,-0.136921 c 0.04083,-0.106395 -0.0302,-0.240441 -0.208825,-0.394085 -0.341264,-0.293543 -0.396059,-0.240291 -0.210275,0.204352 0.157323,0.376528 0.319284,0.44985 0.4191,0.189733 z"
           id="path108" />
        <path
           style="display:inline;fill:#000000"
           d="m 53.633035,73.380069 c -0.357705,-0.267364 -0.645621,-1.240245 -0.367041,-1.240245 0.139973,0 0.872491,0.693427 0.932608,0.882838 0.06636,0.209066 -0.09565,0.479 -0.287481,0.479 -0.06347,0 -0.188613,-0.05472 -0.278086,-0.121593 z m 0.417316,-0.226349 c 0,-0.17417 -0.512893,-0.722074 -0.675934,-0.722074 -0.104384,0 0.09487,0.483141 0.310906,0.753875 0.136627,0.171218 0.365028,0.15132 0.365028,-0.0318 z"
           id="path109" />
        <path
           style="display:inline;fill:#000000"
           d="m 50.430595,74.307775 c -0.238641,-0.268397 -0.456639,-0.868605 -0.397549,-1.094565 0.103594,-0.396142 0.645272,-0.0325 0.917734,0.616095 0.199206,0.474209 -0.198619,0.840131 -0.520185,0.47847 z m 0.282425,-0.564952 c -0.153415,-0.321713 -0.402686,-0.521807 -0.512833,-0.41166 -0.06271,0.06271 0.15108,0.560051 0.335625,0.78076 0.24413,0.291973 0.368711,0.03249 0.177208,-0.3691 z"
           id="path110" />
        <path
           style="display:inline;fill:#000000"
           d="m 65.389797,70.819739 c -0.235092,-0.235092 -0.488311,-1.009837 -0.36904,-1.129109 0.134843,-0.134842 0.651981,0.154789 0.92111,0.515883 0.149746,0.200916 0.168124,0.296832 0.0862,0.449901 -0.134631,0.251561 -0.465399,0.3362 -0.638274,0.163325 z m 0.420489,-0.175334 c 0.06097,-0.07347 0.08704,-0.193847 0.05791,-0.267504 -0.05862,-0.148269 -0.647306,-0.588099 -0.707099,-0.528305 -0.06472,0.06472 0.351609,0.92939 0.447491,0.92939 0.04996,0 0.140722,-0.06011 0.201696,-0.133581 z"
           id="path212" />
        <path
           style="display:inline;fill:#000000"
           d="m 66.32141,75.051224 c -0.19179,-0.205862 -0.471035,-1.028199 -0.380047,-1.119186 0.102995,-0.102995 0.95065,0.563024 1.00815,0.792124 0.129393,0.515541 -0.262428,0.719568 -0.628103,0.327062 z m 0.47185,-0.180665 c 0,-0.20527 -0.510283,-0.664877 -0.562908,-0.507005 -0.05443,0.163285 0.266438,0.694494 0.419495,0.694494 0.07888,0 0.143413,-0.08437 0.143413,-0.187489 z"
           id="path270" />
        <path
           style="display:inline;fill:#000000"
           d="m 67.102536,78.824133 c -0.205299,-0.247369 -0.394054,-0.80796 -0.315076,-0.93575 0.125156,-0.202505 0.689494,0.363097 0.714758,0.71636 0.02292,0.320532 -0.209747,0.448248 -0.399682,0.21939 z m 0.185816,-0.387187 c -0.107222,-0.282015 -0.300544,-0.439527 -0.300544,-0.244873 0,0.152345 0.292432,0.594208 0.353103,0.533537 0.02279,-0.02279 -8.61e-4,-0.152689 -0.05256,-0.288664 z"
           id="path272" />
        <path
           style="display:inline;fill:#000000"
           d="m 59.253684,78.906173 c -0.559662,-0.593414 -0.544853,-1.242065 0.02016,-0.882851 0.499095,0.317307 0.710232,0.565525 0.710232,0.834965 0,0.226843 -0.147035,0.382548 -0.361248,0.382548 -0.02943,0 -0.195545,-0.150598 -0.36914,-0.334662 z m 0.53584,-0.04579 c 0,-0.182507 -0.508705,-0.689566 -0.691805,-0.689566 -0.117853,0 0.06708,0.365936 0.33182,0.656601 0.243926,0.267807 0.359985,0.278435 0.359985,0.03296 z"
           id="path273" />
        <path
           style="display:inline;fill:#000000"
           d="m 54.363449,77.997178 c -0.559662,-0.593414 -0.544853,-1.242065 0.02016,-0.882851 0.499095,0.317307 0.710232,0.565525 0.710232,0.834965 0,0.226843 -0.147035,0.382548 -0.361248,0.382548 -0.02943,0 -0.195545,-0.150598 -0.36914,-0.334662 z m 0.53584,-0.04579 c 0,-0.182507 -0.508705,-0.689566 -0.691805,-0.689566 -0.117853,0 0.06708,0.365936 0.33182,0.656601 0.243926,0.267807 0.359985,0.278435 0.359985,0.03296 z"
           id="path274" />
        <path
           style="display:inline;fill:#000000"
           d="m 64.01135,79.977059 c -0.200436,-0.140391 -0.490628,-0.900705 -0.384343,-1.00699 0.0315,-0.0315 0.174487,-0.01606 0.317743,0.03432 0.322728,0.113497 0.649385,0.643826 0.563413,0.9147 -0.07375,0.232372 -0.22296,0.249781 -0.496813,0.05797 z m 0.350057,-0.188099 c 0,-0.161075 -0.368476,-0.6454 -0.491023,-0.6454 -0.09767,0 0.05404,0.457371 0.216738,0.653413 0.135539,0.163315 0.274285,0.159262 0.274285,-0.008 z"
           id="path275" />
      </g>
    </g>
  </g>
</svg>
