<?xml version="1.0" encoding="UTF-8" standalone="no"?>
<svg
   viewBox="0 0 520 500"
   width="520"
   height="500"
   role="img"
   aria-label="Freche Früchte springen auf einem Wettkampftrampolin in einen Mixer"
   version="1.1"
   id="svg110"
   sodipodi:docname="hero-illustration.svg.2026_03_12_23_46_38.0.svg"
   inkscape:version="1.4.2 (ebf0e940, 2025-05-08)"
   xmlns:inkscape="http://www.inkscape.org/namespaces/inkscape"
   xmlns:sodipodi="http://sodipodi.sourceforge.net/DTD/sodipodi-0.dtd"
   xmlns="http://www.w3.org/2000/svg"
   xmlns:svg="http://www.w3.org/2000/svg">
  <sodipodi:namedview
     id="namedview110"
     pagecolor="#ffffff"
     bordercolor="#000000"
     borderopacity="0.25"
     inkscape:showpageshadow="2"
     inkscape:pageopacity="0.0"
     inkscape:pagecheckerboard="0"
     inkscape:deskcolor="#d1d1d1"
     inkscape:zoom="1.2543116"
     inkscape:cx="243.95851"
     inkscape:cy="265.08564"
     inkscape:window-width="1472"
     inkscape:window-height="896"
     inkscape:window-x="0"
     inkscape:window-y="32"
     inkscape:window-maximized="1"
     inkscape:current-layer="svg110" />
  <!-- ==================== EUROTRAMP ULTIMATE ==================== -->
  <!--
    Perspektive: leicht von vorne-schräg, wie im Produktfoto.
    Tuch-Ebene: y=295..325, x=72..448
    Polster-Rahmen: dicker blauer Rand rundherum
    Beine: X-förmige Scherenkonstruktion, Silber/Grau
  -->
  <!-- Schatten unter dem Trampolin -->
  <!-- === BEINE (X-Scherenkonstruktion, Silber) ===
       Wie beim echten Eurotramp: Beine stehen weit außen,
       kreuzen sich flach in der Mitte, Füße zeigen nach außen.
       Linkes Bein-Paar: Rahmen-Unterkante bei x≈90..115, y=347
       Füße bei y=430, weit gespreizt: x≈48 und x≈145
  -->
  <!-- Linkes X -->
  <!-- Rechtes X -->
  <!-- Horizontale Querstrebe links (verbindet Kreuzpunkt) -->
  <!-- Horizontale Querstrebe rechts -->
  <!-- Boden-Füße -->
  <!-- Längsstrebe (verbindet linkes und rechtes Beinpaar) -->
  <!-- === TUCH-FLÄCHE (weißes Gitternetz) === -->
  <!-- Clip-Pfad damit das Gitternetz nicht aus dem Tuch rausragt -->
  <defs
     id="defs14">
    <clipPath
       id="tuch-clip">
      <rect
         x="76"
         y="298"
         width="368"
         height="30"
         id="rect14" />
    </clipPath>
    <clipPath
       id="tuch-clip-4">
      <rect
         x="76"
         y="298"
         width="368"
         height="30"
         id="rect14-7" />
    </clipPath>
  </defs>
  <!-- Tuch-Hintergrund (leicht grau-weiß) -->
  <!-- Gitternetz vertikal -->
  <!-- Rote Markierungslinien (wie auf dem echten Eurotramp) -->
  <!-- Rotes Kreuz in der Mitte (Wettkampfmarkierung) -->
  <!-- === BLAUE POLSTER (dicker Rahmen, charakteristisch für Eurotramp) === -->
  <!-- Vorderes Polster (untere Längsseite, am nächsten zum Betrachter) -->
  <!-- Polster-Segmente (Fugen) vorne -->
  <!-- Hinteres Polster (obere Längsseite) -->
  <!-- Linkes Seitenpolster -->
  <!-- Rechtes Seitenpolster -->
  <!-- ==================== MIXER (rechts) ====================
       translate(330, 245): Fuß-Unterkante landet bei 245+195=440 → steht auf dem Boden
  -->
  <!-- Mixer-Schatten am Boden -->
  <g
     id="g5"
     inkscape:label="kasten"
     style="fill:#f9d89e;fill-opacity:1;stroke:#f7ce94;stroke-opacity:1">
    <rect
       style="fill:#f9d89e;fill-opacity:1;stroke:#f7ce94;stroke-width:1.5;stroke-dasharray:none;stroke-opacity:1"
       id="rect4"
       width="79.535004"
       height="9.7019997"
       x="412.7876"
       y="472.48547"
       ry="4" />
    <rect
       style="fill:#f9d89e;fill-opacity:1;stroke:#f7ce94;stroke-width:2.70035;stroke-dasharray:none;stroke-opacity:1"
       id="rect4-8"
       width="59.304153"
       height="36.721584"
       x="423.06409"
       y="435.18845"
       ry="1.8360792" />
    <rect
       style="fill:#f9d89e;fill-opacity:1;stroke:#f7ce94;stroke-width:2.18598;stroke-dasharray:none;stroke-opacity:1"
       id="rect4-8-0"
       width="59.818527"
       height="23.857351"
       x="422.94168"
       y="410.94861"
       ry="1.1928676" />
    <rect
       style="fill:#f9d89e;fill-opacity:1;stroke:#f7ce94;stroke-width:1.80675;stroke-dasharray:none;stroke-opacity:1"
       id="rect4-8-5"
       width="60.197765"
       height="16.194927"
       x="422.75208"
       y="394.65393"
       ry="0.80974638" />
    <rect
       style="fill:#f9d89e;fill-opacity:1;stroke:#f7ce94;stroke-width:2.18598;stroke-dasharray:none;stroke-opacity:1"
       id="rect4-8-8"
       width="59.818527"
       height="23.857351"
       x="423.25104"
       y="370.60767"
       ry="1.1928676" />
    <rect
       style="fill:#f9db9e;fill-opacity:1;stroke:#f7ce94;stroke-width:1.4019;stroke-dasharray:none;stroke-opacity:1"
       id="rect4-8-1"
       width="71.300003"
       height="8.2319088"
       x="417.47864"
       y="363.01831"
       ry="4.375587" />
  </g>
  <g
     transform="translate(372.6684,167.92546)"
     id="g53"
     inkscape:label="mixer">
    <!-- Mixer-Behälter -->
    <path
       d="M 20,0 H 140 L 120,160 H 40 Z"
       fill="#f0f4ff"
       stroke="#8090c8"
       stroke-width="3"
       id="path44" />
    <!-- Mixer-Glas Highlight -->
    <!-- Smoothie-Inhalt -->
    <!-- Smoothie-Blasen -->
    <path
       d="m 44,80 h 72 l -4,75 H 48 Z"
       fill="#c0e843"
       opacity="0.8"
       id="path46" />
    <circle
       cx="70"
       cy="110"
       r="5"
       fill="#ffffff"
       opacity="0.5"
       id="circle46" />
    <circle
       cx="90"
       cy="125"
       r="3"
       fill="#ffffff"
       opacity="0.5"
       id="circle47" />
    <circle
       cx="80"
       cy="100"
       r="4"
       fill="#ffffff"
       opacity="0.4"
       id="circle48" />
    <!-- Strohhalm -->
    <rect
       x="107.87533"
       y="-53.274067"
       width="9.200758"
       height="126.43159"
       rx="4.600379"
       fill="#e8294a"
       transform="matrix(0.97700343,0.21322359,-0.14103777,0.99000422,0,0)"
       id="rect48"
       style="stroke-width:1.27108" />
    <ellipse
       cx="106"
       cy="-28"
       rx="5"
       ry="3"
       fill="#c01535"
       transform="rotate(10,104,50)"
       id="ellipse48" />
    <!-- Mixer-Deckel -->
    <path
       d="M 15,-15 H 145 L 140,0 H 20 Z"
       fill="#8090c8"
       stroke="#6070b0"
       stroke-width="2"
       id="path48" />
    <rect
       x="70"
       y="-35"
       width="20"
       height="22"
       rx="4"
       fill="#6070b0"
       id="rect49" />
    <!-- Mixer-Fuß -->
    <rect
       x="30"
       y="160"
       width="100"
       height="20"
       rx="6"
       fill="#6070b0"
       stroke="#5060a0"
       stroke-width="2"
       id="rect50" />
    <rect
       x="45"
       y="180"
       width="70"
       height="15"
       rx="4"
       fill="#5060a0"
       id="rect51" />
    <!-- Mixer-Knöpfe -->
    <circle
       cx="55"
       cy="188"
       r="4"
       fill="#c0e843"
       id="circle51" />
    <circle
       cx="80"
       cy="188"
       r="4"
       fill="#e8294a"
       id="circle52" />
    <circle
       cx="105"
       cy="188"
       r="4"
       fill="#f7c948"
       id="circle53" />
  </g>
  <!-- Mixer-Spritzeffekt — neu positioniert passend zum neuen translate -->
  <!-- ==================== FRÜCHTE (springen auf dem Trampolin) ==================== -->
  <!-- Erdbeere (links, springt hoch) -->
  <g
     transform="rotate(-12,841.80545,-590.5093)"
     id="g68"
     inkscape:label="erdbeere">
    <!-- Körper -->
    <path
       d="M 0,45 C -20,45 -32,25 -28,8 -24,-8 -12,-15 0,-15 12,-15 24,-8 28,8 32,25 20,45 0,45 Z"
       fill="#e8294a"
       id="path55" />
    <!-- Punkte -->
    <circle
       cx="-10"
       cy="15"
       r="2.5"
       fill="#c01535"
       id="circle56" />
    <circle
       cx="8"
       cy="8"
       r="2.5"
       fill="#c01535"
       id="circle57" />
    <circle
       cx="-2"
       cy="28"
       r="2"
       fill="#c01535"
       id="circle58" />
    <circle
       cx="14"
       cy="25"
       r="2"
       fill="#c01535"
       id="circle59" />
    <!-- Blatt/Strunk -->
    <path
       d="m -8,-14 c -6,-8 2,-14 8,-6 6,-8 14,-2 8,6"
       fill="#5ab22e"
       id="path59" />
    <line
       x1="0"
       y1="-20"
       x2="0"
       y2="-28"
       stroke="#5ab22e"
       stroke-width="3"
       stroke-linecap="round"
       id="line59" />
    <!-- Gesicht -->
    <circle
       cx="-9"
       cy="18"
       r="5"
       fill="#ffffff"
       id="circle60" />
    <circle
       cx="9"
       cy="18"
       r="5"
       fill="#ffffff"
       id="circle61" />
    <circle
       cx="-8"
       cy="19"
       r="2.5"
       fill="#1a1a2e"
       id="circle62" />
    <circle
       cx="10"
       cy="19"
       r="2.5"
       fill="#1a1a2e"
       id="circle63" />
    <!-- Glanz Augen -->
    <circle
       cx="-7"
       cy="18"
       r="1"
       fill="#ffffff"
       id="circle64" />
    <circle
       cx="11"
       cy="18"
       r="1"
       fill="#ffffff"
       id="circle65" />
    <!-- Fröhlicher Mund -->
    <path
       d="m -6,30 q 6,6 12,0"
       stroke="#c01535"
       stroke-width="2"
       fill="none"
       stroke-linecap="round"
       id="path65" />
    <!-- Wangen -->
    <circle
       cx="-14"
       cy="26"
       r="4"
       fill="#f77f28"
       opacity="0.4"
       id="circle66" />
    <circle
       cx="14"
       cy="26"
       r="4"
       fill="#f77f28"
       opacity="0.4"
       id="circle67" />
    <!-- Sprung-Linien -->
    <line
       x1="-5"
       y1="46"
       x2="-12"
       y2="58"
       stroke="#e8294a"
       stroke-width="2"
       stroke-linecap="round"
       opacity="0.5"
       id="line67" />
    <line
       x1="5"
       y1="46"
       x2="12"
       y2="58"
       stroke="#e8294a"
       stroke-width="2"
       stroke-linecap="round"
       opacity="0.5"
       id="line68" />
  </g>
  <!-- Banane (Mitte, auf Tuch) -->
  <g
     transform="rotate(8,-1783.345,1851.0277)"
     id="g78"
     inkscape:label="zitrone">
    <!-- Bananen-Körper (gebogen) -->
    <path
       d="M 0,0 C -35,-10 -50,-40 -30,-60 -10,-80 30,-70 40,-45 50,-20 25,5 0,0 Z"
       fill="#f7c948"
       id="path68" />
    <!-- Schattierung -->
    <path
       d="M 0,0 C -35,-10 -50,-40 -30,-60"
       stroke="#d4a520"
       stroke-width="4"
       fill="none"
       stroke-linecap="round"
       id="path69" />
    <!-- Bananen-Enden -->
    <path
       d="m -30,-60 c -2,-8 2,-12 5,-5"
       fill="#d4a520"
       id="path70" />
    <path
       d="M 0,0 C -2,8 4,10 5,4"
       fill="#d4a520"
       id="path71" />
    <!-- Gesicht (schräg) -->
    <circle
       cx="10"
       cy="-35"
       r="4.5"
       fill="#ffffff"
       id="circle71" />
    <circle
       cx="22"
       cy="-28"
       r="4.5"
       fill="#ffffff"
       id="circle72" />
    <circle
       cx="11"
       cy="-34"
       r="2.2"
       fill="#1a1a2e"
       id="circle73" />
    <circle
       cx="23"
       cy="-27"
       r="2.2"
       fill="#1a1a2e"
       id="circle74" />
    <circle
       cx="12"
       cy="-35"
       r="0.89999998"
       fill="#ffffff"
       id="circle75" />
    <circle
       cx="24"
       cy="-28"
       r="0.89999998"
       fill="#ffffff"
       id="circle76" />
    <!-- Grinsen -->
    <path
       d="m 8,-22 q 8,5 15,1"
       stroke="#d4a520"
       stroke-width="2"
       fill="none"
       stroke-linecap="round"
       id="path76" />
    <!-- Wangen -->
    <circle
       cx="5"
       cy="-26"
       r="3.5"
       fill="#f77f28"
       opacity="0.4"
       id="circle77" />
    <circle
       cx="26"
       cy="-22"
       r="3.5"
       fill="#f77f28"
       opacity="0.4"
       id="circle78" />
  </g>
  <!-- Kiwi (rechts, hüpft freudig) -->
  <g
     transform="rotate(5,-1619.7242,3951.1526)"
     id="g94"
     inkscape:label="limette">
    <!-- Körper -->
    <ellipse
       cx="0"
       cy="0"
       rx="30"
       ry="35"
       fill="#5ab22e"
       id="ellipse78" />
    <!-- Schnittfläche (Kiwi innen) -->
    <ellipse
       cx="0"
       cy="0"
       rx="24"
       ry="28"
       fill="#c8e830"
       id="ellipse79" />
    <!-- Kern-Strahlen -->
    <g
       stroke="#5ab22e"
       stroke-width="1.5"
       opacity="0.7"
       id="g82">
      <line
         x1="0"
         y1="-28"
         x2="0"
         y2="28"
         id="line79" />
      <line
         x1="-28"
         y1="0"
         x2="28"
         y2="0"
         id="line80" />
      <line
         x1="-20"
         y1="-20"
         x2="20"
         y2="20"
         id="line81" />
      <line
         x1="20"
         y1="-20"
         x2="-20"
         y2="20"
         id="line82" />
    </g>
    <!-- Kerne (Punkte) -->
    <circle
       cx="0"
       cy="0"
       r="4"
       fill="#3a7a1e"
       id="circle82" />
    <circle
       cx="-8"
       cy="-6"
       r="2.5"
       fill="#3a7a1e"
       id="circle83" />
    <circle
       cx="8"
       cy="-6"
       r="2.5"
       fill="#3a7a1e"
       id="circle84" />
    <circle
       cx="-12"
       cy="4"
       r="2"
       fill="#3a7a1e"
       id="circle85" />
    <circle
       cx="12"
       cy="4"
       r="2"
       fill="#3a7a1e"
       id="circle86" />
    <!-- Gesicht (über dem Muster) -->
    <circle
       cx="-9"
       cy="-8"
       r="5"
       fill="#ffffff"
       id="circle87" />
    <circle
       cx="9"
       cy="-8"
       r="5"
       fill="#ffffff"
       id="circle88" />
    <circle
       cx="-8"
       cy="-7"
       r="2.5"
       fill="#1a1a2e"
       id="circle89" />
    <circle
       cx="10"
       cy="-7"
       r="2.5"
       fill="#1a1a2e"
       id="circle90" />
    <circle
       cx="-7"
       cy="-8"
       r="1"
       fill="#ffffff"
       id="circle91" />
    <circle
       cx="11"
       cy="-8"
       r="1"
       fill="#ffffff"
       id="circle92" />
    <!-- Zunge raus (frech!) -->
    <path
       d="M -5,8 Q 0,14 5,8"
       stroke="#ffffff"
       stroke-width="2"
       fill="none"
       stroke-linecap="round"
       id="path92" />
    <ellipse
       cx="0"
       cy="14"
       rx="5"
       ry="4"
       fill="#e8294a"
       id="ellipse92" />
    <!-- Kiwi-Rand -->
    <ellipse
       cx="0"
       cy="0"
       rx="30"
       ry="35"
       fill="none"
       stroke="#3a7a1e"
       stroke-width="2"
       id="ellipse93" />
    <!-- Ärmchen (Siegespose) -->
    <path
       d="m -30,-5 c -12,-10 -8,-23 2,-17"
       stroke="#5ab22e"
       stroke-width="5"
       fill="none"
       stroke-linecap="round"
       id="path93" />
    <path
       d="m 30,-5 c 12,-10 8,-23 -2,-17"
       stroke="#5ab22e"
       stroke-width="5"
       fill="none"
       stroke-linecap="round"
       id="path94" />
  </g>
  <!-- Orange (ganz links, kleiner im Hintergrund) -->
  <g
     transform="matrix(0.7,0,0,0.7,60.51897,202.88987)"
     opacity="0.85"
     id="g105"
     inkscape:label="orange">
    <circle
       cx="0"
       cy="0"
       r="32"
       fill="#f77f28"
       id="circle94" />
    <!-- Schalen-Textur -->
    <circle
       cx="0"
       cy="0"
       r="32"
       fill="none"
       stroke="#d96010"
       stroke-width="1.5"
       stroke-dasharray="3, 3"
       opacity="0.4"
       id="circle95" />
    <circle
       cx="-8"
       cy="-8"
       r="2"
       fill="#d96010"
       opacity="0.3"
       id="circle96" />
    <circle
       cx="10"
       cy="5"
       r="1.5"
       fill="#d96010"
       opacity="0.3"
       id="circle97" />
    <circle
       cx="-5"
       cy="12"
       r="1.5"
       fill="#d96010"
       opacity="0.3"
       id="circle98" />
    <!-- Blatt -->
    <path
       d="m 0,-32 c -8,-10 -2,-18 0,-8 2,-10 8,-2 0,8"
       fill="#5ab22e"
       id="path98" />
    <!-- Gesicht (erschrocken-begeistert) -->
    <circle
       cx="-10"
       cy="-5"
       r="5.5"
       fill="#ffffff"
       id="circle99" />
    <circle
       cx="10"
       cy="-5"
       r="5.5"
       fill="#ffffff"
       id="circle100" />
    <circle
       cx="-9"
       cy="-4"
       r="2.8"
       fill="#1a1a2e"
       id="circle101" />
    <circle
       cx="11"
       cy="-4"
       r="2.8"
       fill="#1a1a2e"
       id="circle102" />
    <!-- Glanzpunkt -->
    <circle
       cx="-8"
       cy="-5"
       r="1.1"
       fill="#ffffff"
       id="circle103" />
    <circle
       cx="12"
       cy="-5"
       r="1.1"
       fill="#ffffff"
       id="circle104" />
    <!-- Oh-Mund (überrascht) -->
    <ellipse
       cx="1"
       cy="12"
       rx="7"
       ry="5"
       fill="#c04000"
       id="ellipse104" />
    <ellipse
       cx="1"
       cy="13"
       rx="5"
       ry="3.5"
       fill="#d05010"
       id="ellipse105" />
  </g>
  <!-- Bewegungslinien / Sprung-Effekte -->
  <!-- Kleine Sterne / Funken -->
  <g
     fill="#f7c948"
     id="g109"
     transform="translate(-54.335734,52.318193)"
     inkscape:label="sterne">
    <path
       d="m 165,65 2,-5 2,5 5,2 -5,2 -2,5 -2,-5 -5,-2 z"
       opacity="0.9"
       id="path107" />
    <path
       d="m 420,140 2,-5 2,5 5,2 -5,2 -2,5 -2,-5 -5,-2 z"
       opacity="0.7"
       fill="#e8294a"
       id="path108" />
    <path
       d="m 70,230 1.5,-4 1.5,4 4,1.5 -4,1.5 -1.5,4 -1.5,-4 -4,-1.5 z"
       opacity="0.6"
       fill="#5ab22e"
       id="path109" />
  </g>
  <!-- Pfeil zum Mixer (zeigt jetzt auf den Mixer in neuer Position) -->
  <g
     id="g4"
     inkscape:label="trampolin"
     transform="translate(-55.809474,119.99037)">
    <ellipse
       cx="257.5"
       cy="357"
       rx="167.5"
       ry="14"
       fill="rgba(0,0,0,0.10)"
       id="ellipse1"
       style="fill:#000000;fill-opacity:0.600418;stroke:none;stroke-width:0.951524"
       inkscape:label="trampolin_schatten" />
    <g
       id="g3"
       inkscape:label="trampolin_fuß">
      <g
         id="g1"
         transform="translate(31,-72)"
         inkscape:label="fuß_links">
        <line
           x1="90"
           y1="347"
           x2="46"
           y2="430"
           id="line1"
           style="fill:none;stroke:#b8c2d0;stroke-width:4;stroke-linecap:round" />
        <line
           x1="114"
           y1="347"
           x2="46"
           y2="430"
           id="line4"
           style="fill:none;stroke:#b8c2d0;stroke-width:4;stroke-linecap:round" />
        <rect
           x="39"
           y="427"
           width="14"
           height="6"
           rx="3"
           fill="#8090a8"
           id="rect10" />
      </g>
      <g
         id="g2"
         transform="translate(-20,-72)"
         inkscape:label="fuß_rechts">
        <line
           x1="414"
           y1="347"
           x2="458"
           y2="430"
           id="line6"
           style="fill:none;stroke:#b8c2d0;stroke-width:4;stroke-linecap:round" />
        <line
           x1="390"
           y1="347"
           x2="458"
           y2="430"
           id="line7"
           style="fill:none;stroke:#b8c2d0;stroke-width:4;stroke-linecap:round" />
        <rect
           x="451"
           y="427"
           width="14"
           height="6"
           rx="3"
           fill="#8090a8"
           id="rect13" />
      </g>
      <line
         x1="139.09782"
         y1="282.00128"
         x2="374.90219"
         y2="282.00128"
         stroke="#98a2b0"
         stroke-width="2.19819"
         stroke-linecap="round"
         id="line13"
         style="stroke:#b8c2d0;stroke-opacity:1"
         inkscape:label="fuß_strebe" />
    </g>
    <rect
       style="fill:#1a6fd4;fill-opacity:1;stroke:#1458b0;stroke-width:1.01943;stroke-opacity:1"
       id="rect110"
       width="383.98056"
       height="58.980564"
       x="65.50972"
       y="215.50972"
       ry="10.395989"
       inkscape:label="trampolin_base" />
    <g
       stroke="#c8cdd6"
       stroke-width="0.7"
       clip-path="url(#tuch-clip)"
       id="g31"
       transform="matrix(0.96467391,0,0,1,6.6847828,-68)"
       inkscape:label="trampolin_tuch"
       style="fill:none;fill-opacity:1">
      <rect
         style="fill:#ffffff;fill-opacity:1;stroke:none;stroke-width:1.01974"
         id="rect1"
         width="368"
         height="30"
         x="76"
         y="298" />
      <line
         x1="100"
         y1="298"
         x2="100"
         y2="328"
         id="line15"
         style="fill:none;fill-opacity:1" />
      <line
         x1="124"
         y1="298"
         x2="124"
         y2="328"
         id="line16"
         style="fill:none;fill-opacity:1" />
      <line
         x1="148"
         y1="298"
         x2="148"
         y2="328"
         id="line17"
         style="fill:none;fill-opacity:1" />
      <line
         x1="172"
         y1="298"
         x2="172"
         y2="328"
         id="line18"
         style="fill:none;fill-opacity:1" />
      <line
         x1="196"
         y1="298"
         x2="196"
         y2="328"
         id="line19"
         style="fill:none;fill-opacity:1" />
      <line
         x1="220"
         y1="298"
         x2="220"
         y2="328"
         id="line20"
         style="fill:none;fill-opacity:1" />
      <line
         x1="244"
         y1="298"
         x2="244"
         y2="328"
         id="line21"
         style="fill:none;fill-opacity:1" />
      <line
         x1="292"
         y1="298"
         x2="292"
         y2="328"
         id="line23"
         style="fill:none;fill-opacity:1" />
      <line
         x1="316"
         y1="298"
         x2="316"
         y2="328"
         id="line24"
         style="fill:none;fill-opacity:1" />
      <line
         x1="340"
         y1="298"
         x2="340"
         y2="328"
         id="line25"
         style="fill:none;fill-opacity:1" />
      <line
         x1="364"
         y1="298"
         x2="364"
         y2="328"
         id="line26"
         style="fill:none;fill-opacity:1" />
      <line
         x1="388"
         y1="298"
         x2="388"
         y2="328"
         id="line27"
         style="fill:none;fill-opacity:1" />
      <line
         x1="412"
         y1="298"
         x2="412"
         y2="328"
         id="line28"
         style="fill:none;fill-opacity:1" />
      <!-- Horizontale Gitterlinien -->
      <line
         x1="76"
         y1="306"
         x2="444"
         y2="306"
         id="line29"
         style="fill:none;fill-opacity:1" />
      <line
         x1="76"
         y1="320"
         x2="444"
         y2="320"
         id="line31"
         style="fill:none;fill-opacity:1" />
      <line
         x1="76"
         y1="313.24994"
         x2="444"
         y2="313.24994"
         id="line30"
         style="fill:none;fill-opacity:1;stroke:#ff0000;stroke-width:1.52722;stroke-dasharray:none;stroke-opacity:1"
         inkscape:label="rot_2" />
      <line
         x1="268"
         y1="298"
         x2="268"
         y2="328"
         id="line22"
         style="fill:none;fill-opacity:1;stroke:#ff0000;stroke-width:1.52722;stroke-dasharray:none;stroke-opacity:1"
         inkscape:label="rot_1" />
    </g>
  </g>
</svg>
