<?xml version="1.0" encoding="UTF-8" standalone="no"?>
<!-- Created with Inkscape (http://www.inkscape.org/) -->

<svg
   width="32.197227mm"
   height="59.586319mm"
   viewBox="0 0 32.197227 59.586319"
   version="1.1"
   id="svg1"
   inkscape:version="1.4.4 (dcaf3e7d9e, 2026-05-05)"
   sodipodi:docname="Limette.svg"
   xmlns:inkscape="http://www.inkscape.org/namespaces/inkscape"
   xmlns:sodipodi="http://sodipodi.sourceforge.net/DTD/sodipodi-0.dtd"
   xmlns="http://www.w3.org/2000/svg"
   xmlns:svg="http://www.w3.org/2000/svg">
  <sodipodi:namedview
     id="namedview1"
     pagecolor="#ffffff"
     bordercolor="#000000"
     borderopacity="0.25"
     inkscape:showpageshadow="2"
     inkscape:pageopacity="0.0"
     inkscape:pagecheckerboard="0"
     inkscape:deskcolor="#d1d1d1"
     inkscape:document-units="mm"
     inkscape:zoom="3.2004507"
     inkscape:cx="84.675574"
     inkscape:cy="120.76424"
     inkscape:window-width="1600"
     inkscape:window-height="996"
     inkscape:window-x="0"
     inkscape:window-y="0"
     inkscape:window-maximized="1"
     inkscape:current-layer="layer1" />
  <defs
     id="defs1" />
  <g
     inkscape:label="Ebene 1"
     inkscape:groupmode="layer"
     id="layer1"
     transform="translate(-58.094318,-76.128413)">
    <g
       id="g276"
       inkscape:label="Limette"
       style="display:inline"
       transform="matrix(1.392104,-1.0158789,0.99868575,1.3685435,-204.88201,153.41565)">
      <g
         id="g285"
         inkscape:label="color"
         style="display:inline">
        <path
           style="display:inline;fill:#78ac02;stroke:#78ac02;stroke-width:0.353553"
           d="m 1020.2828,509.8978 c -9.3404,-0.71586 -26.26174,-6.00493 -35.43333,-11.07536 -4.96365,-2.7441 -15.47022,-9.50882 -17.19784,-11.07294 l -0.85809,-0.77688 0.78576,-1.15872 c 1.46842,-2.1654 1.26272,-2.23029 7.05274,2.22497 3.19904,2.46157 11.09656,7.45053 12.54567,7.92526 0.35774,0.11719 2.00278,0.84628 3.65564,1.62019 3.47679,1.62791 4.97093,2.21782 8.75045,3.45478 4.4131,1.44431 12.0203,3.10136 16.5286,3.60033 3.3308,0.36867 15.7892,0.31198 19.6222,-0.0893 6.4208,-0.67212 12.3038,-1.72133 16.1284,-2.87644 2.714,-0.81967 10.6627,-4.00447 15.6246,-6.26027 3.7277,-1.69466 12.1928,-6.44445 13.8554,-7.77423 0.3889,-0.31106 1.7015,-1.24875 2.9168,-2.08376 3.4863,-2.39528 4.6169,-3.28499 8.9377,-7.03345 9.7202,-8.43268 17.4854,-17.35606 23.064,-26.50401 3.1457,-5.15844 8.8537,-16.07403 10.3072,-19.7106 1.4527,-3.63484 2.3766,-6.24803 3.1249,-8.83884 1.0544,-3.65031 2.7192,-11.84048 3.0724,-15.1144 1.1798,-10.93551 -0.286,-25.07089 -3.6569,-35.26695 -0.4431,-1.34025 -1.6357,-4.16896 -2.7202,-6.45235 -1.9567,-4.11952 -5.6264,-11.22633 -6.2984,-12.19759 -0.7344,-1.06151 -6.066,-7.65399 -7.7917,-9.63433 -2.1436,-2.46001 -12.0466,-12.41514 -13.8968,-13.96998 -0.7292,-0.6128 -1.3511,-1.17681 -1.3819,-1.25335 -0.031,-0.0765 0.6832,-1.02427 1.5868,-2.10606 l 1.6429,-1.96688 6.8188,6.8639 c 9.7075,9.77169 14.1324,15.08975 19.164,23.03184 9.9546,15.71304 14.5229,33.47504 13.5506,52.68658 -0.6352,12.55127 -2.9817,22.36284 -8.0536,33.67596 -11.0331,24.60946 -30.1915,44.73459 -54.0105,56.73589 -12.2159,6.155 -24.4684,9.81675 -36.6812,10.96241 -6.1977,0.5814 -16.1266,0.78927 -20.7551,0.43455 z"
           id="path99"
           transform="matrix(0.12937048,0,0,0.12937048,11.857751,16.439572)" />
        <path
           style="display:inline;fill:#cde44a;fill-opacity:1;stroke:#cde44a;stroke-width:0.258741"
           d="m 138.14415,78.713725 c 4.18515,2.447056 10.49719,4.894113 16.62626,-2.835841 6.12908,-7.729953 1.78384,-14.52225 -0.96052,-16.214606 -3.97933,4.139413 -15.66574,19.050447 -15.66574,19.050447 z"
           id="path100"
           sodipodi:nodetypes="cscc" />
        <path
           style="display:inline;fill:#edf8ba;fill-opacity:1;stroke:#edf8ba;stroke-width:1"
           d="m 1019.648,503.71704 c -5.1448,-0.23603 -7.2537,-0.58129 -14.1029,-2.30877 -7.64026,-1.92699 -12.10114,-3.74603 -20.52429,-8.3693 -5.25868,-2.88636 -7.84976,-4.53237 -12.34133,-7.83995 l -2.77429,-2.04299 0.6686,-0.80816 c 0.36774,-0.44449 2.64525,-3.23442 5.06115,-6.19985 7.04925,-8.65273 13.69,-16.69941 18.46856,-22.3786 5.52384,-6.56494 9.8916,-11.84587 21.9909,-26.58855 5.2265,-6.36838 11.0739,-13.44828 12.9942,-15.73312 1.9203,-2.28484 7.5361,-9.08632 12.4795,-15.11441 10.6361,-12.96967 14.8498,-18.05399 18.8259,-22.7158 3.21,-3.76352 6.893,-8.2049 20.1564,-24.3068 12.6086,-15.30692 15.7582,-19.09188 15.8873,-19.09188 0.063,0 0.7886,0.75572 1.6125,1.67938 0.8239,0.92366 4.2839,4.50338 7.6889,7.95495 7.1851,7.28334 8.1113,8.30996 10.3799,11.50581 6.8734,9.68281 10.2009,16.5205 13.2334,27.19404 1.9408,6.83088 2.1807,8.94457 2.1888,19.2829 0.01,11.96458 -0.5182,16.15771 -3.1108,24.71804 -5.6516,18.66136 -16.207,35.9885 -30.2115,49.59362 -8.0395,7.81023 -15.5223,13.4974 -24.3889,18.5364 -1.7208,0.97794 -7.2887,3.68854 -9.6343,4.69025 -6.6133,2.82422 -15.1001,5.71287 -19.2957,6.56768 -4.7098,0.95958 -9.7001,1.50294 -16.3522,1.78052 -4.4791,0.1869 -4.7113,0.18676 -8.8998,-0.005 z m 19.7989,-7.24803 c 12.6136,-1.07892 24.0847,-5.11396 28.1754,-9.91082 0.764,-0.89591 1.431,-2.41346 1.433,-3.26056 0,-0.94642 -0.7197,-2.70266 -3.8921,-9.46729 -2.9405,-6.27034 -4.2377,-9.21876 -6.3585,-14.45212 -1.5994,-3.94692 -1.5968,-3.90533 -0.2478,-3.91037 1.391,-0.005 2.3189,0.96497 4.3439,4.54205 1.228,2.16911 6.2505,11.60659 7.9793,14.99342 2.1439,4.19994 5.0043,5.78169 8.1648,4.51501 2.0249,-0.81151 5.4901,-2.63076 7.3363,-3.85147 6.2287,-4.11867 13.5776,-11.7629 20.1858,-20.99721 4.8968,-6.84281 5.0635,-9.32683 0.7988,-11.89765 -0.5328,-0.32117 -2.5887,-1.24745 -4.5685,-2.0584 -4.0489,-1.65841 -7.5899,-3.24784 -13.4109,-6.01977 -8.5641,-4.07811 -10.4353,-4.93692 -12.9931,-5.96327 -1.4584,-0.5852 -3.7147,-1.56956 -5.0139,-2.18748 -2.6938,-1.28114 -2.6197,-1.14255 -1.6436,-3.07452 0.4359,-0.86271 0.5499,-0.96949 1.0111,-0.94758 0.2859,0.0136 1.3562,0.38372 2.3784,0.82253 2.985,1.2814 17.4175,8.04051 23.9508,11.21676 9.6381,4.68567 12.2359,5.69355 15.0439,5.8367 2.1599,0.11012 2.9211,-0.2138 4.0243,-1.71236 1.9095,-2.59379 4.5998,-8.86045 5.7598,-13.41627 1.2921,-5.07427 1.855,-11.93724 1.8223,-22.21749 -0.024,-7.59331 -0.2029,-10.47271 -0.7219,-11.62689 -0.4277,-0.95104 -1.4893,-2.00221 -2.2882,-2.26589 -0.8306,-0.27411 -3.0823,0.0369 -6.0282,0.83246 -4.7369,1.27933 -11.9581,2.89488 -36.2619,8.11263 -18.3345,3.93622 -27.754,6.11247 -31.889,7.36757 -1.5784,0.47912 -2.2643,1.07449 -2.2643,1.96568 0,1.44582 1.6713,2.69972 7.8361,5.87913 2.1713,1.11981 4.1317,2.20877 4.3565,2.41993 0.5675,0.53314 0.4372,0.98797 -0.484,1.68928 -1.0674,0.81264 -1.5869,0.73385 -4.9829,-0.75558 -7.2458,-3.17788 -8.2152,-3.4724 -9.3069,-2.82755 -1.1274,0.666 -1.2718,1.92214 -0.4768,4.14687 0.5625,1.57384 3.3335,7.15194 6.7181,13.52341 3.2393,6.09805 7.1587,13.86559 7.1587,14.18741 0,0.3396 -0.2096,0.25246 -2.5419,-1.05669 -2.1828,-1.22522 -1.8471,-0.74682 -3.881,-5.52932 -0.5375,-1.26395 -2.2447,-4.92323 -3.7937,-8.13173 -6.4453,-13.35032 -7.0051,-14.38022 -8.2188,-15.12027 -0.8005,-0.48809 -1.2755,-0.43395 -1.9901,0.22684 -0.7586,0.70141 -1.3673,2.34835 -1.7515,4.73862 -0.1476,0.91824 -0.5493,5.01061 -0.8927,9.09415 -0.3434,4.08354 -0.7804,8.93606 -0.9711,10.78338 -0.1906,1.84732 -0.549,6.10322 -0.7963,9.45755 -0.2474,3.35434 -0.6055,7.37159 -0.7958,8.92723 -0.1904,1.55563 -0.5476,5.63844 -0.7938,9.0729 -0.2462,3.43446 -0.5663,7.08985 -0.7113,8.12308 -0.375,2.67114 -0.9682,11.03485 -0.9689,13.66103 -6e-4,2.00787 0.041,2.30246 0.4366,3.0936 0.6426,1.28521 1.9043,2.63244 2.956,3.15657 0.8812,0.43909 1.0424,0.45779 3.9335,0.45604 1.6581,-10e-4 3.9693,-0.0835 5.136,-0.18328 z m -20.8018,-2.9262 c 1.8205,-0.51276 3.0191,-2.09091 3.746,-4.93204 0.4603,-1.79931 1.9593,-12.38268 4.3315,-30.58236 1.0265,-7.87541 2.2261,-16.90428 2.6657,-20.06416 1.152,-8.28084 1.4942,-11.77056 1.5946,-16.26345 0.1096,-4.90296 0.1224,-4.8622 -1.5311,-4.85948 -1.7854,0.003 -2.5116,0.45187 -4.0807,2.52273 -0.716,0.94492 -2.5797,3.30902 -4.1415,5.25356 -2.6974,3.35849 -6.978,8.86586 -13.6024,17.50089 -1.6409,2.139 -3.9843,5.08233 -5.2074,6.54074 -1.2232,1.45841 -3.79932,4.68016 -5.72468,7.15946 -1.92536,2.47929 -4.45415,5.70105 -5.61954,7.15945 -4.1226,5.15919 -8.91096,11.65675 -9.39609,12.75003 -0.63949,1.44113 -0.66415,3.11204 -0.0649,4.39731 0.82723,1.77427 3.20276,3.84635 6.47873,5.65113 3.04846,1.67944 9.37805,4.49347 12.72788,5.65863 6.0161,2.09253 14.3701,3.08034 17.8239,2.10756 z m 35.1208,-93.31529 c 5.1924,-1.03474 13.2599,-2.86537 18.7383,-4.25203 5.4389,-1.37665 11.3667,-2.72238 24.13,-5.478 13.5258,-2.92023 21.4443,-4.76155 22.5757,-5.2496 1.1049,-0.47659 1.9378,-1.1959 2.4449,-2.11128 l 0.5236,-0.9454 v -3.18198 c 0,-2.40029 -0.084,-3.55112 -0.3278,-4.68459 -1.008,-4.68951 -3.762,-10.89462 -7.4855,-16.86512 -1.7512,-2.80801 -2.7643,-4.25334 -5.96,-8.50233 -6.3761,-8.47769 -9.0436,-11.05116 -11.4508,-11.04689 -1.9561,0.003 -2.9233,0.89284 -8.4574,7.77652 -2.0714,2.57652 -5.7977,7.11084 -8.2808,10.07627 -2.4831,2.96543 -8.0109,9.56804 -12.284,14.67247 -4.2731,5.10442 -8.9751,10.67289 -10.4488,12.37436 -5.7366,6.62324 -10.719,13.16313 -11.3148,14.85171 -0.3084,0.8741 -0.3452,2.16772 -0.076,2.67078 0.1036,0.19355 0.3621,0.42768 0.5745,0.5203 0.6938,0.30252 3.8361,0.026 7.1038,-0.62519 z"
           id="path101"
           transform="matrix(0.12937048,0,0,0.12937048,11.857751,16.439572)" />
      </g>
      <path
         style="display:inline;opacity:1;fill:#000000;stroke:#000000;stroke-width:0.22618604;stroke-dasharray:none"
         d="m 974.83394,486.9226 c 5.21935,3.84564 16.74385,10.05295 22.75357,12.25552 3.15849,1.15759 5.64939,1.84061 13.15829,3.6081 8.7687,2.06402 28.6603,1.19124 37.9711,-1.66606 20.6017,-6.32219 34.1156,-14.10195 48.7435,-28.06107 15.9091,-15.18162 27.2484,-34.62373 32.5559,-55.81972 2.2198,-8.86471 2.4242,-27.20651 0.3919,-35.18877 -3.0003,-11.78634 -6.3609,-19.42162 -12.4106,-28.19638 -4.2954,-6.23015 -3.8572,-5.69678 -13.3531,-15.21437 -3.6573,-3.66564 -8.1066,-7.70914 -7.8739,-7.94181 0.6098,-0.60957 13.4098,11.38062 17.9677,17.14095 2.127,2.68806 4.3271,5.4233 4.8893,6.07831 0.9986,1.16383 7.7707,14.62415 8.8581,17.60666 4.4669,12.25267 5.9236,30.48717 3.3637,42.10659 -0.1825,0.82709 -0.7382,3.53395 -1.2353,6.01522 -0.4971,2.48129 -1.2925,4.46517 -1.5893,5.77762 -0.2968,1.31246 -1.478,3.78453 -2.1307,5.79766 -0.6524,2.01314 -6.8063,14.94508 -12.6313,23.76419 -4.9135,7.43914 -12.7341,16.25468 -19.6778,22.18115 -2.1803,1.86097 -4.5224,3.89111 -5.2045,4.51142 -0.6826,0.62032 -2.7515,2.14198 -4.5985,3.38146 -1.8471,1.23947 -3.5275,2.43997 -3.7343,2.66776 -0.463,0.50985 -5.9771,3.70624 -10.5266,6.10178 -2.8729,1.51272 -6.4129,3.03839 -15.4141,6.64316 -10.3623,4.14992 -31.9007,5.78324 -43.9863,3.33562 -3.1016,-0.62812 -6.6785,-1.46166 -8.0063,-1.79131 -1.5053,-0.37373 -2.7664,-0.84321 -4.68714,-1.45729 -0.6949,-0.22223 -3.42172,-1.09869 -5.98289,-2.33933 -2.5611,-1.24064 -4.79615,-2.25571 -4.96667,-2.25571 -0.84408,0 -10.23031,-5.89701 -13.20023,-8.29318 0,0 -5.217,-3.52938 -4.97204,-3.80468 0.33295,-0.37418 5.52851,3.05651 5.52851,3.05651 z"
         transform="matrix(0.12937048,0,0,0.12937048,11.857751,16.439572)"
         id="path285"
         sodipodi:nodetypes="cssssscssssscssscsscssssssssscsc" />
      <path
         id="path1-9"
         style="display:inline;opacity:1;fill:#000000;stroke:#000000;stroke-width:0;stroke-dasharray:none"
         transform="matrix(0.12937048,0,0,0.12937048,11.857751,16.439572)"
         d="m 1062.6362,523.43151 c -1.6309,2.4564 -4.2047,5.06995 -4.1436,6.79762 0.074,2.09049 0.095,3.58171 -0.7469,3.56684 -0.4098,-0.007 -0.9959,-1.12986 -0.9998,-1.93369 0.04,-0.44947 -0.3477,-0.56531 -1.3505,1.27344 -0.8965,1.29633 -2.5748,0.46762 -1.839,-0.66223 1.0873,-1.47842 1.7947,-1.88184 0.4592,-1.77012 -1.5386,0.12871 -3.0167,-1.23082 0.1163,-1.78438 1.8016,-0.31832 4.533,-4.40661 6.284,-6.74001 4.3254,-5.76382 14.1563,-15.49079 14.1563,-15.49079 l 8.2556,-7.72451 -5.2324,2.52303 c -15.1071,7.28455 -29.9665,11.04856 -45.8356,11.16786 -12.4132,0.0933 -20.3067,0.0327 -30.6238,-4.40168 -5.886,-2.52986 -3.62244,-2.13043 -8.49287,5.21084 -1.98594,2.99343 -3.63831,5.61541 -4.9893,7.60013 -4.77621,7.92946 -13.25744,23.1494 -15.57412,29.50645 -1.15833,3.17848 -4.43029,3.96341 -6.86616,3.96341 -2.80536,0 -4.42953,-1.18224 -3.76092,-3.14493 0.52321,-1.53586 3.81114,-2.74849 7.63187,-2.33794 1.07533,0.11555 2.58578,-3.9396 7.52363,-13.44811 2.34173,-4.49355 6.80898,-12.9247 15.04002,-25.37221 1.62223,-2.45324 2.53737,-4.4918 2.09036,-4.4918 -1.2094,0 -15.24165,-7.13792 -17.90865,-9.10973 -1.38779,-1.02599 -2.55359,-1.42436 -2.92137,-0.99821 -3.3122,3.83784 -7.85454,9.75585 -8.85956,11.221 -5.78721,7.5074 -11.29232,15.38852 -16.79128,25.94112 -1.51814,2.91334 -3.29264,3.20827 -6.86323,3.44989 -2.10833,0.14266 -4.45701,-1.43583 -3.84033,-3.37895 0.46223,-1.45537 4.74571,-2.57022 7.53702,-2.30064 0.38245,0.0369 4.80765,-6.44657 8.87782,-12.47304 4.67135,-7.15289 11.62754,-16.04811 15.19071,-20.5053 3.56317,-4.45719 3.00841,-3.99639 1.69181,-5.02399 -1.3166,-1.0276 -6.09466,-4.61441 -6.09466,-5.60083 0,-0.4426 1.29836,-2.23522 2.88527,-3.98355 1.58692,-1.74834 8.25707,-9.77675 14.82255,-17.84091 6.56556,-8.06417 12.3985,-15.13506 12.96215,-15.7131 0.93345,-0.95734 19.90844,-24.14994 21.35094,-26.09663 0.3587,-0.48388 -0.3363,-2.68238 -1.6637,-5.26332 -1.2537,-2.43778 -2.8487,-7.19749 -3.5445,-10.5771 -2.8526,-13.85408 2.396,-30.62997 15.9613,-51.01755 2.28,-3.42651 4.7816,-7.42282 4.7872,-8.18599 0.4538,-2.77594 0.8728,-4.51502 1.5036,-4.53973 0.5715,-0.0224 1.2753,0.82137 1.2247,1.31504 -0.19,1.85489 0.3222,1.02614 0.894,0.0958 1.2533,-1.80824 3.0543,-0.91758 2.0256,0.6585 -1.5196,2.06215 -1.8487,2.12954 -0.2639,1.2696 1.6818,-0.91263 1.9646,1.44107 -0.9681,2.67838 -2.5622,1.08097 -3.8476,2.86465 -9.0854,11.05028 -9.6731,15.11706 -13.7739,27.64813 -14.2727,39.28613 0.2392,3.55064 1.0436,9.72372 4.2206,16.81461 l 1.5885,3.54526 3.6705,-4.37382 c 2.1634,-2.57791 4.4228,-5.34112 5.0496,-6.11555 0.6269,-0.77443 1.6785,-1.95868 2.337,-2.63166 0.6585,-0.67295 7.3966,-8.83663 14.9734,-18.14143 7.5768,-9.30481 14.0002,-17.08701 14.2742,-17.29378 0.2736,-0.20678 6.7164,-7.98898 14.3165,-17.29379 7.6,-9.3048 14.024,-17.087 14.2756,-17.29377 0.2513,-0.20677 3.1096,-3.59034 6.3512,-7.51904 3.2415,-3.9287 6.1301,-7.23893 6.4191,-7.35609 1.0062,-0.40782 19.2604,18.29984 23.6856,24.27392 7.9139,10.68392 13.9573,23.95035 17.2976,37.97112 2.5205,10.57991 2.1234,30.73954 -0.8117,41.20808 -7.6099,27.14228 -19.9267,44.82738 -46.5633,66.85768 0,0 -10.6427,9.36162 -17.55,16.19131 -6.9072,6.82968 -11.8112,12.29559 -13.2698,14.49251 z m -94.77603,-38.25748 c -0.57973,0.76509 -1.0647,1.60746 -1.07784,1.87187 -0.0386,0.81404 14.33248,10.11834 19.90153,12.88319 8.7169,4.32765 22.15114,8.59195 30.82804,9.78544 6.6467,0.91424 21.8363,0.43997 29.8135,-0.9309 l 10e-4,3e-5 c 34.6711,-5.95818 65.8991,-29.54489 82.1777,-62.06935 7.4466,-14.87818 10.4297,-27.18204 10.4822,-43.23446 0.087,-26.74988 -9.903,-48.74754 -31.9895,-70.4368 l -7.793,-7.65286 -6.0059,7.21053 c -3.3033,3.96579 -11.8625,14.34589 -19.0204,23.06688 -7.1579,8.721 -13.9435,16.87143 -15.0789,18.11206 -1.1355,1.24064 -8.2915,9.86874 -15.9021,19.17354 -7.6106,9.30481 -14.1902,17.30302 -14.6213,17.7738 -1.2212,1.33378 -2.8113,3.25925 -17.6119,21.32518 -7.623,9.30481 -15.61642,18.94797 -17.76304,21.42926 -2.14663,2.48127 -8.52614,10.1778 -14.17658,17.10338 -4.09061,4.8323 -7.97095,9.83225 -12.16351,14.58921 z"
         sodipodi:nodetypes="csscccsssccsssscsssscsssscsscsszzsssssscscssccssscscsssssssssssscsccccssssscscssssssscc" />
      <path
         style="display:none;fill:#000000"
         d="m 146.86297,72.231512 c -0.0724,-0.163575 -0.1062,-0.322853 -0.0751,-0.35395 0.0311,-0.0311 0.10285,0.06527 0.15946,0.214149 0.0566,0.14888 0.12607,0.308158 0.15437,0.35395 0.0283,0.04579 0.0158,0.08326 -0.0278,0.08326 -0.0436,0 -0.13851,-0.133833 -0.21092,-0.297408 z"
         id="path207" />
      <path
         style="display:none;fill:#000000"
         d="m 147.20653,72.950442 c -0.0357,-0.03567 -0.0648,-0.110082 -0.0648,-0.165366 0,-0.06095 0.0453,-0.05521 0.1151,0.01459 0.0633,0.06331 0.0925,0.137724 0.0649,0.165366 -0.0276,0.02764 -0.0794,0.02108 -0.1151,-0.01459 z"
         id="path206" />
      <path
         style="display:none;fill:#000000"
         d="m 147.48839,73.432901 c -0.0528,-0.138635 -0.0416,-0.149808 0.0545,-0.05445 0.0665,0.06598 0.0964,0.144475 0.0664,0.174425 -0.03,0.02995 -0.0843,-0.02404 -0.12087,-0.119972 z"
         id="path205" />
      <path
         id="path203"
         style="display:inline;fill:#000000;stroke:#000000;stroke-width:0.0292618;stroke-dasharray:none"
         d="m 150.17284,71.498054 c 0.078,0.05752 0.96031,0.447226 1.01254,0.447226 0.0315,0 0.65579,0.289171 1.38721,0.642604 0.73143,0.353432 1.54873,0.725163 1.81624,0.82607 1.38302,0.521697 1.42986,0.76081 0.41437,2.115232 -0.99398,1.325718 -2.00679,2.282683 -2.86725,2.709157 -0.64425,0.319313 -0.72655,0.337714 -1.00135,0.22389 -0.17921,-0.07423 -0.36897,-0.265 -0.47269,-0.475218 -0.0953,-0.19316 -0.44744,-0.865536 -0.78252,-1.49417 0,0 -0.34599,-0.666056 -0.53469,-0.989971 -0.27955,-0.479876 -0.76317,-1.360162 -0.76317,-1.360162 0.0231,-0.0231 -0.37432,-0.823385 -0.88318,-1.778405 -1.03477,-1.942069 -1.12239,-2.17281 -0.8964,-2.360368 0.12948,-0.10746 0.27622,-0.0712 0.94016,0.23229 0.85596,0.427713 1.73646,0.847102 2.63073,1.261825 z m -2.26619,-1.667979 c -0.88173,-0.439196 -1.09006,-0.617778 -0.86033,-0.844409 0.0843,-0.08319 1.67985,-0.468168 3.84068,-0.926698 2.03303,-0.43141 4.19337,-0.903586 4.80075,-1.049279 0,0 0.63469,-0.20616 1.01254,-0.229198 0.1294,-0.0079 0.20176,0.02772 0.29715,0.115496 0.1319,0.121361 0.17947,0.277313 0.19437,0.455925 0.0473,0.567147 0.0401,1.670871 0.0401,1.670871 -0.039,1.289214 -0.10105,1.89271 -0.25363,2.467694 -0.19957,0.752015 -0.60591,1.62359 -0.85226,1.828045 -0.2628,0.218107 -0.78027,0.09048 -1.93174,-0.476445 -0.64201,-0.316091 -1.34238,-0.653973 -1.55639,-0.750849 -0.214,-0.09688 -0.79244,-0.366325 -1.28543,-0.598776 -0.49298,-0.232452 -0.90153,-0.417759 -0.9881,-0.454361 -0.84402,-0.390067 -1.66486,-0.791927 -2.45771,-1.208016 z m 0.72606,5.592759 c 0.0237,0.04013 0.16438,0.379369 0.31253,0.753875 0.14816,0.374505 0.4815,1.117811 0.74077,1.65179 0.25927,0.533979 0.47139,1.028603 0.47139,1.099164 0,0.793968 -1.87186,1.608232 -4.00406,1.741777 0,0 -0.42482,0.02114 -0.77585,0.01921 -0.0614,-3.39e-4 -0.26595,-0.03885 -0.44335,-0.256447 l -5e-5,-9e-6 c -0.23223,-0.284865 -0.24262,-0.273582 -0.17513,-1.288634 0.0374,-0.561758 0.0807,-1.043264 0.0964,-1.070015 0.0157,-0.02675 0.0577,-0.508257 0.0934,-1.070015 0.0357,-0.561758 0.0811,-1.087038 0.10086,-1.16729 0.0198,-0.08025 0.0622,-0.539871 0.0942,-1.021378 0.032,-0.481507 0.0783,-1.05056 0.10279,-1.264563 0.0435,-0.380402 0.067,-0.645171 0.19852,-2.241339 0.0987,-1.197441 0.43014,-1.441679 0.84155,-0.620083 0.10848,0.216634 0.98052,2.014553 1.11116,2.297924 0.0808,0.175245 0.16316,0.371606 0.2513,0.583623 0.0442,0.106323 0.0954,0.158584 0.16169,0.292713 z m -1.09955,-1.832648 c -0.12149,-0.289956 -0.39195,-0.829358 -0.47052,-0.989728 -0.0437,-0.08914 -0.68714,-1.402522 -0.75071,-1.523501 -0.19885,-0.378441 -0.39682,-0.688069 -0.4399,-0.688069 -0.11961,0 -0.25727,0.873463 -0.38326,2.431853 -0.0627,0.775761 -0.12996,1.563681 -0.14944,1.750934 -0.0195,0.187253 -0.0845,0.953286 -0.1445,1.702297 -0.06,0.749011 -0.12581,1.536931 -0.14626,1.750934 -0.16591,1.736146 -0.1823,2.007288 0.003,2.252504 0.12696,0.168016 0.2335,0.230891 0.33552,0.23451 0.39525,0.01402 0.48937,-0.01901 0.8179,-0.03934 1.20581,-0.07461 1.93838,-0.254486 2.8512,-0.70009 0.58209,-0.284151 0.71625,-0.395206 0.80601,-0.667202 0.10045,-0.304373 0.0622,-0.420325 -0.5686,-1.724721 -0.37196,-0.769126 -0.67666,-1.495767 -0.74496,-1.641597 -0.13561,-0.314358 -0.19493,-0.393195 -0.32132,-0.648563 z m 4.33509,4.487009 c 1.24805,-0.625629 3.52708,-3.225296 3.42735,-3.909541 -0.0229,-0.157062 -0.15154,-0.259059 -0.46927,-0.372041 -0.24075,-0.08561 -0.7332,-0.296206 -1.09433,-0.467989 -1.05343,-0.501096 -2.45424,-1.140275 -3.2201,-1.4693 l -0.50857,-0.232156 c -0.44719,-0.204137 -1.09372,-0.519464 -1.80762,-0.879992 l -0.40304,-0.203543 c -0.94707,-0.478286 -1.0292,-0.444655 -1.09299,-0.341447 -0.0348,0.05631 0.0405,0.307615 0.16735,0.558457 0.60569,1.197779 1.79191,3.368153 1.84611,3.468566 0.17783,0.329456 0.32407,0.701439 0.63188,1.206841 0.11354,0.186427 1.30159,2.581235 1.5104,2.760088 0.26519,0.227139 0.34233,0.218155 1.0128,-0.117943 z m 4.1086,-4.940311 c 0.64257,-0.548752 1.00042,-1.901626 1.06137,-4.012558 0.0604,-2.09074 -0.0346,-2.287138 -0.9697,-2.004291 -0.28195,0.08529 -0.64395,0.179283 -0.80445,0.208881 -0.33011,0.06087 -0.41552,0.07865 -1.36184,0.283412 -0.37451,0.08103 -0.83413,0.173162 -1.02138,0.204728 -0.35885,0.06049 -4.56377,0.955334 -5.16837,1.099872 -0.76689,0.183333 -0.75135,0.30904 0.0858,0.69375 0.36113,0.165957 0.73159,0.348611 0.82829,0.395805 0.94536,0.461375 1.05521,0.497057 2.52944,1.197919 0.4404,0.20778 1.1947,0.563886 1.6762,0.791347 2.27168,1.073126 2.74339,1.286423 2.88313,1.303682 0.0342,0.0042 0.15188,-0.06892 0.26151,-0.16255 z m -13.22156,7.167327 c -0.87998,-0.07728 -1.48173,-0.265459 -2.69673,-0.843342 -1.14624,-0.545179 -1.48059,-1.022958 -1.12288,-1.604586 0.101,-0.164217 1.32564,-1.763515 1.39785,-1.825494 0.0312,-0.02675 0.27154,-0.333164 0.53415,-0.680919 0.26262,-0.347755 0.57724,-0.741715 0.69916,-0.875467 0.12191,-0.133752 0.4084,-0.491746 0.63663,-0.795542 0.52784,-0.70261 1.64036,-2.136141 1.77293,-2.28451 0.0881,-0.09856 0.36513,-0.451966 0.68479,-0.873482 0.0535,-0.07055 0.2067,-0.140048 0.34046,-0.154443 0.2379,-0.0256 0.24299,-0.01243 0.23455,0.606109 -0.005,0.347755 -0.0644,1.026242 -0.13251,1.507748 -0.14924,1.05482 -0.14887,1.052056 -0.29659,2.188668 -0.0648,0.498408 -0.13014,0.997773 -0.14525,1.109699 -0.0151,0.111926 -0.0781,0.597462 -0.14,1.078969 -0.0619,0.481507 -0.13001,0.9849 -0.15138,1.118652 -0.0214,0.133752 -0.0885,0.615259 -0.14916,1.070015 -0.16076,1.204888 -0.33802,1.356982 -1.46602,1.257925 z m 0.973,-0.23233 c 0.15444,-0.129282 0.19363,-0.193975 0.20046,-0.254755 0.007,-0.06078 0.0394,-0.226105 0.0536,-0.333106 0.0645,-0.483828 0.24742,-1.847183 0.38504,-2.869587 0.0828,-0.615258 0.17384,-1.293745 0.20228,-1.507748 0.0284,-0.214003 0.0912,-0.673624 0.13952,-1.021379 0.24771,-1.783482 0.42243,-3.501552 0.36221,-3.561769 -0.094,-0.09403 -0.49836,0.357971 -1.50966,1.687592 -0.33501,0.440474 -0.71354,0.91353 -0.84116,1.051235 -0.12762,0.137705 -0.39613,0.488635 -0.5967,0.779843 -0.20688,0.30038 -0.96018,1.197594 -1.15037,1.456625 -0.25657,0.349434 -0.51977,0.688677 -0.58489,0.753875 -0.26438,0.264708 -1.31165,1.736297 -1.37283,1.929072 -0.10352,0.326166 0.23575,0.680194 1.03354,1.078507 0.91693,0.457795 1.83248,0.769939 2.51772,0.858379 0.29575,0.03817 0.57497,0.07464 0.6203,0.08216 0.20507,0.03405 0.41727,-0.02543 0.54094,-0.128944 z m 3.53498,-11.787068 c -0.13497,-0.0579 -0.10245,-0.358229 0.008,-0.52015 0.0258,-0.03762 0.24851,-0.373032 0.50855,-0.707412 0.26003,-0.334379 0.59073,-0.739283 0.73489,-0.899785 0.26956,-0.300115 0.71722,-0.82836 1.39878,-1.650579 0.214,-0.258168 0.55897,-0.670889 0.76659,-0.917157 1.37165,-1.62698 1.70456,-2.029698 2.33122,-2.820066 0.76891,-0.969789 0.93859,-0.897574 2.37415,1.010467 0.9356,1.243532 1.5474,2.502986 1.63601,3.367893 0.075,0.731931 -0.0163,0.981102 -0.41666,1.13704 -0.14917,0.0581 -1.43121,0.352904 -2.84898,0.655112 -1.41777,0.302207 -2.77475,0.607096 -3.0155,0.67753 -0.54302,0.158866 -2.55547,0.607025 -3.0155,0.671533 -0.18725,0.02626 -0.39517,0.02427 -0.46205,-0.0044 z m 1.38616,-0.374766 c 0.3745,-0.08493 0.74657,-0.172871 0.82683,-0.195423 0.0803,-0.02255 1.43722,-0.32421 3.01549,-0.670352 3.36909,-0.738898 4.08711,-0.918112 4.268,-1.065269 0.10078,-0.08199 0.12002,-0.273877 0.0779,-0.776655 -0.0445,-0.531322 -0.14677,-0.848034 -0.50027,-1.550003 -0.7778,-1.544488 -2.1573,-3.28337 -2.60372,-3.282024 -0.14647,4.41e-4 -0.30153,0.122899 -0.46188,0.364777 -0.13276,0.200263 -0.50483,0.672589 -0.82683,1.049613 -0.322,0.377025 -0.78243,0.920181 -1.02318,1.207013 -0.24076,0.286832 -0.57246,0.67873 -0.73712,0.870886 -0.16466,0.192155 -0.68277,0.808994 -1.15137,1.370752 -0.46859,0.561758 -0.94669,1.130502 -1.06245,1.263876 -0.64376,0.741725 -1.13457,1.405143 -1.13457,1.533562 0,0.161606 0.11458,0.151069 1.3132,-0.120753 z" />
      <path
         style="display:inline;fill:#000000"
         d="m 148.98989,68.993183 c 0,-0.233456 0.34409,-0.368944 0.85358,-0.336103 0.32722,0.02109 0.46631,0.07401 0.48744,0.185473 0.0239,0.125845 -0.0605,0.155379 -0.43685,0.152949 -0.25654,-0.0017 -0.56493,0.03176 -0.68531,0.07425 -0.16728,0.05905 -0.21886,0.041 -0.21886,-0.07657 z"
         id="path202" />
      <path
         style="display:inline;fill:#000000"
         d="m 153.53137,71.201534 c -0.0368,-0.03678 -0.0669,-0.151451 -0.0669,-0.254821 0,-0.103371 -0.13732,-0.31623 -0.30517,-0.47302 -0.33468,-0.312636 -0.3187,-0.432228 0.0455,-0.340813 0.27891,0.07 0.52854,0.41725 0.57025,0.793248 0.0289,0.260043 -0.10633,0.412796 -0.24372,0.275406 z"
         id="path201" />
      <path
         style="display:inline;fill:#000000"
         d="m 151.21716,72.991437 c -0.44389,-0.22947 -0.63116,-0.383685 -0.65334,-0.538007 -0.0365,-0.25388 0.0561,-0.267658 0.48984,-0.07292 0.17569,0.07888 0.50548,0.189996 0.73286,0.246935 0.45742,0.114546 0.50042,0.205317 0.23316,0.49219 -0.17935,0.192508 -0.18339,0.191864 -0.80252,-0.128195 z"
         id="path200" />
      <path
         style="display:inline;fill:#ffffff;stroke:#ffffff;stroke-width:0.125"
         d="m 1065.5304,424.92213 c -0.1441,-0.16343 -0.5507,-0.67728 -0.9037,-1.14189 -0.8475,-1.11572 -1.2712,-1.49063 -2.1186,-1.87487 -1.7093,-0.775 -3.8117,-0.56539 -5.2218,0.52061 -0.2609,0.20096 -1.2479,1.3378 -1.5798,1.81976 -0.024,0.0347 -0.063,0.0439 -0.086,0.0203 -0.062,-0.0625 0.4272,-1.45096 0.7493,-2.1245 2.013,-4.21022 6.4146,-7.72685 9.1474,-7.30835 1.2535,0.19196 2.1581,1.07291 2.5458,2.47928 0.1619,0.58716 0.1935,1.88811 0.065,2.66564 -0.1597,0.96471 -0.541,2.06216 -1.0905,3.13851 -0.4784,0.93695 -1.0984,2.01224 -1.1947,2.07175 -0.027,0.017 -0.1679,-0.10284 -0.3119,-0.26626 z"
         id="path102"
         transform="matrix(0.12937048,0,0,0.12937048,11.857751,16.439572)" />
      <path
         style="display:inline;fill:#000000;stroke:none;stroke-width:0.0585236"
         d="m 149.98043,71.698638 -0.33719,0.296298 c -0.47645,0.418669 -1.01458,0.464577 -1.34714,0.132023 -0.18169,-0.181696 -0.20048,-0.281669 -0.15149,-0.806299 0,0 0.0152,-0.266313 0.0796,-0.469476 0.0645,-0.203164 0.2908,-0.423855 0.2908,-0.423855 0.16852,-0.194857 0.32905,-0.322881 0.56873,-0.474436 0.61116,-0.325827 1.26624,-0.06071 1.2697,0.557587 l 0.008,0.559333 c -0.0905,0 -0.25735,0.377923 -0.18912,0.428241 z m -0.0689,-0.526725 c 0.28135,-0.544073 0.14829,-1.074845 -0.26945,-1.074845 -0.40857,0 -1.00364,0.557611 -1.1938,1.118652 -0.0579,0.170879 -0.0461,0.167921 0.0975,-0.02432 0.23281,-0.311851 0.76476,-0.30053 0.99897,0.02126 0.0961,0.132071 0.18459,0.241504 0.19659,0.243185 0.012,0.0017 0.0886,-0.126089 0.17023,-0.283935 z"
         id="path288"
         sodipodi:nodetypes="cssczccccccsscssccs"
         inkscape:label="path203-2" />
      <path
         style="display:inline;fill:#000000;stroke:none;stroke-width:0.0292618;stroke-dasharray:none"
         d="m 148.10841,75.25016 c -0.51706,-0.04802 -1.12689,-0.486966 -1.3481,-0.880558 -0.22869,-0.406887 -0.31878,-1.163225 -0.14589,-1.224744 0.0576,-0.0205 0.29695,0.11482 0.53186,0.300713 0.23492,0.185892 0.38636,0.259511 0.46249,0.302615 0.0761,0.0431 0.16858,0.08193 0.37194,0.204623 0.19789,0.119393 0.58356,0.280241 0.68579,0.317587 0.28748,0.09652 0.62394,0.236284 1.21518,0.299807 0.31737,0.0341 0.56729,0.09126 0.56729,0.204455 0,0.105657 -0.68791,0.445347 -0.93702,0.487702 -0.24911,0.04236 -0.49435,0.0396 -0.733,0.0392 -0.23865,-4.07e-4 -0.67054,-0.0514 -0.67054,-0.0514 z"
         id="path286"
         sodipodi:nodetypes="cssszscsszzc"
         inkscape:label="path203-1" />
    </g>
  </g>
</svg>
