<?xml version="1.0" encoding="UTF-8" standalone="no"?>
<!-- Created with Inkscape (http://www.inkscape.org/) -->

<svg
   version="1.1"
   id="svg1"
   width="239.67999"
   height="89.599998"
   viewBox="0 0 239.67999 89.599998"
   sodipodi:docname="Logo.svg"
   inkscape:version="1.4.3 (0d15f75, 2025-12-25)"
   xmlns:inkscape="http://www.inkscape.org/namespaces/inkscape"
   xmlns:sodipodi="http://sodipodi.sourceforge.net/DTD/sodipodi-0.dtd"
   xmlns="http://www.w3.org/2000/svg"
   xmlns:svg="http://www.w3.org/2000/svg">
  <defs
     id="defs1" />
  <sodipodi:namedview
     id="namedview1"
     pagecolor="#ffffff"
     bordercolor="#000000"
     borderopacity="0.25"
     inkscape:showpageshadow="2"
     inkscape:pageopacity="0.0"
     inkscape:pagecheckerboard="0"
     inkscape:deskcolor="#d1d1d1"
     inkscape:zoom="1.8621046"
     inkscape:cx="112.23859"
     inkscape:cy="57.730377"
     inkscape:window-width="1470"
     inkscape:window-height="896"
     inkscape:window-x="0"
     inkscape:window-y="32"
     inkscape:window-maximized="1"
     inkscape:current-layer="g1" />
  <g
     inkscape:groupmode="layer"
     inkscape:label="Image"
     id="g1">
      <path
       style="fill:#ffffff"
       d="m 185.60902,86.972862 c -3.93945,-0.877096 -3.34017,-5.058323 0.74544,-5.200979 5.73548,-0.200264 20.27053,-11.9414 16.08705,-12.994812 -1.41659,-0.356701 -2.44808,-1.073821 -3.02348,-2.102003 -0.27329,-0.488345 -0.38461,-0.473972 -1.28287,0.165653 -3.50027,2.49241 -11.36174,2.100493 -16.33559,-0.814378 -6.61604,-3.877256 -9.67874,-12.779267 -7.38745,-21.472226 0.86376,-3.276997 1.56232,-5.562455 1.88426,-6.164621 0.14423,-0.269777 0.36313,-0.949884 0.48645,-1.51135 0.6296,-2.866568 5.57594,-3.618761 7.52261,-1.14397 0.96757,1.230064 0.81485,1.981121 -0.82847,4.074427 -6.12592,7.803345 -2.94471,20.882808 4.93469,20.288796 5.97325,-0.450312 8.6892,-9.691518 5.81249,-19.7774 -1.55993,-5.46915 -1.10316,-6.287805 4.19844,-7.524731 4.84421,-1.130214 5.15735,-0.524366 5.46058,10.564731 0.28588,10.45459 0.77337,14.946583 2.01299,18.548799 0.6733,1.956528 0.96764,1.718883 2.05393,-1.658275 2.70832,-8.41986 1.87581,-18.065261 -2.21539,-25.66735 -1.00359,-1.864827 -1.16231,-2.867568 -0.55071,-3.479174 0.53816,-0.538159 5.9455,-0.489076 6.94162,0.06301 0.68396,0.379076 0.99111,0.312848 2.88,-0.620971 13.61951,-6.73316 26.75592,5.12157 20.7594,18.73396 -2.43028,5.516858 -6.68554,8 -13.70925,8 -4.03327,0 -4.03327,0 -4.43881,2.32 -2.36287,13.517549 -11.51038,23.611216 -24.11684,26.611335 -5.1374,1.222612 -5.61369,1.268577 -7.89109,0.761528 z m 40.01604,-38.740478 c 6.23666,-4.202888 0.83769,-13.849999 -5.668,-10.127819 -3.28387,1.878838 -3.69228,8.062118 -0.66814,10.115545 1.4998,1.01838 4.83359,1.024838 6.33614,0.01227 z M 153.12,67.517243 c -0.528,-0.141581 -2.04,-0.506882 -3.36,-0.81178 -16.56858,-3.827065 -22.41681,-21.991618 -13.54299,-42.064427 4.79061,-10.836463 16.57256,-18.9397317 26.03919,-17.9089569 10.08074,1.0976424 14.15043,7.6977769 4.41931,7.1671409 -5.56058,-0.303217 -8.20712,0.464765 -13.43472,3.89853 -18.17776,11.940108 -14.17741,37.433557 6.11921,38.99656 2.40038,0.184849 4.11126,0.06389 9.79822,-0.692742 2.27949,-0.303278 5.26289,3.056848 4.75744,5.358168 -0.87353,3.977163 -14.14122,7.841868 -20.79566,6.057507 z M 47.742381,64.755457 c -3.133187,-1.515582 -6.156301,-5.324989 -7.583132,-9.555458 -1.62066,-4.805162 -2.396059,-9.400475 -2.051839,-12.16 0.87378,-7.004896 0.788586,-7.258022 -1.346273,-4 -2.065098,3.151561 -4.344259,7.732244 -6.289149,12.64 -0.348734,0.88 -0.949572,2.63751 -1.335197,3.905577 -2.380904,7.82925 -6.592559,5.886086 -9.852179,-4.545577 -1.463957,-4.685056 -1.705948,-5.738229 -2.02201,-8.8 -0.172597,-1.672 -0.450236,-3.832 -0.616974,-4.8 -0.166737,-0.968 -0.403368,-2.470135 -0.525846,-3.338079 -0.282283,-2.000415 -0.543781,-1.410359 -1.408445,3.178079 -0.662356,3.514864 -1.574513,6.963172 -2.624068,9.92 -0.555527,1.565043 -0.715331,2.945868 -0.864396,7.46902 -0.213518,6.478885 -1.4772973,8.399267 -4.0068732,6.088664 -0.1672,-0.152726 -0.6278717,-0.277684 -1.0237148,-0.277684 -3.9498623,0 -5.42044183,-20.582227 -2.3892545,-33.439999 0.1659662,-0.704 0.6701627,-3.08 1.1204367,-5.28 0.450274,-2.2 1.2521914,-5.656 1.7820386,-7.68 0.5298473,-2.024 0.9675733,-4.1120002 0.9727244,-4.6400002 0.049719,-5.0962891 3.0090258,-7.455597 5.7196598,-4.5599999 5.224536,5.5810361 9.266056,14.8949091 9.311465,21.4587031 0.01523,2.201412 1.14994,9.361128 1.806189,11.39656 0.227695,0.706223 0.721214,-0.14956 5.239734,-9.085926 3.604611,-7.12891 5.990721,-11.251165 8.018734,-13.853202 5.236687,-6.7189193 15.278501,-9.6552862 18.131035,-5.3017685 1.152328,1.7586745 0.538049,20.9342425 -0.900348,28.1056325 -0.353011,1.76 -0.786348,3.92 -0.962971,4.8 -0.612777,3.053073 -0.760193,6.745796 -0.466273,11.68 0.706742,11.86451 -0.146535,13.426144 -5.833074,10.675458 z m 25.377617,-1.141959 c -3.000518,-1.720796 -1.074328,-8.158854 5.448251,-18.210129 2.133267,-3.287358 2.133267,-3.287358 1.739251,-4.585364 -0.216709,-0.713903 -0.530687,-1.802006 -0.697729,-2.418006 -0.167042,-0.616 -0.440972,-1.552 -0.608734,-2.08 -1.159753,-3.65012 -1.634911,-10.40476 -0.85997,-12.224942 2.018969,-4.742153 6.402461,-2.145834 7.133179,4.224943 0.653035,5.693494 0.789625,5.757032 3.365751,1.565665 3.507938,-5.707428 5.598792,-7.083838 8.75655,-5.764443 4.471073,1.868135 3.488663,8.206941 -2.497425,16.1141 -3.771688,4.982106 -3.637934,4.659326 -2.676844,6.459895 3.3431,6.263181 6.738966,7.825182 20.257722,9.317968 5.74191,0.634041 6.0624,0.684587 6.48,1.02199 0.66245,0.53524 0.46326,1.993827 -0.38053,2.786526 -1.38577,1.301869 -7.91123,2.684619 -11.69947,2.47913 -6.928532,-0.37583 -13.272856,-3.287225 -18.273596,-8.385706 -2.041786,-2.081695 -2.117353,-2.093693 -3.234608,-0.513579 -0.806745,1.140965 -1.677059,2.154306 -6.647182,7.739576 -2.243611,2.521301 -4.09513,3.338065 -5.604616,2.472376 z m -9.664622,-0.157319 c -2.973953,-0.576804 -5.974807,-8.273732 -5.963627,-15.29618 0.01495,-9.391365 5.206967,-22.588448 8.871404,-22.549369 5.119089,0.05459 5.967962,5.912299 2.414569,16.661892 -1.219583,3.689438 -1.645825,6.799257 -1.852516,13.51578 -0.243732,7.920167 -0.399076,8.263456 -3.46983,7.667877 z M 106.22906,52.550364 c -4.21249,-2.114749 -4.77674,-11.9768 -1.28564,-22.470365 0.32205,-0.967999 0.82344,-2.551999 1.1142,-3.519999 1.60576,-5.345852 6.33021,-8.262429 6.60904,-4.08 0.0147,0.22 0.0945,0.76 0.17729,1.2 0.32179,1.709135 0.11916,6.32458 -0.35121,7.999999 -1.3673,4.870164 -1.81858,7.750523 -2.08066,13.28 -0.25399,5.35898 -0.54908,7.241005 -1.19234,7.604673 -0.85699,0.484492 -2.00807,0.478985 -2.99068,-0.01431 z M 123.68,47.004095 c -2.70712,-1.32221 -4.40229,-9.742713 -3.80381,-18.894876 0.20211,-3.090781 0.20211,-3.090781 -2.52343,-3.04 -3.21372,0.05988 -4.07276,-0.417535 -4.07276,-2.263431 0,-2.174047 1.63026,-3.083645 6.72639,-3.75296 1.44639,-0.189966 1.44639,-0.189966 2.19621,-2.661397 4.43232,-14.6090704 9.22716,-17.5209405 8.94368,-5.431431 -0.0609,2.596 -0.0448,4.72 0.0356,4.72 0.0805,0 1.50294,-0.525651 3.16104,-1.168113 3.41488,-1.323157 4.36994,-1.256387 5.14449,0.359658 0.89778,1.873159 -2.42905,5.151332 -7.00744,6.904948 -3.02605,1.159038 -2.65056,0.598434 -3.84695,5.743507 -1.9508,8.389394 -2.27344,12.094052 -1.38439,15.895636 0.80368,3.4365 -0.72748,4.97615 -3.56866,3.588459 z M 64.799998,22.013498 c -1.725472,-0.989557 -1.90895,-2.81659 -0.489971,-4.879007 3.207666,-4.662181 8.240523,-5.670929 10.123769,-2.029132 1.883556,3.642396 -5.76494,9.126928 -9.633798,6.908139 z m 44.555652,-5.27492 c -1.03328,-0.269477 -1.59543,-1.848209 -1.08937,-3.059381 1.27659,-3.055306 5.64689,-4.5173806 7.33372,-2.453479 2.18985,2.679382 -2.21104,6.564738 -6.24435,5.51286 z"
       id="path1" />
  </g>
</svg>
