<?xml version="1.0" encoding="UTF-8" standalone="no"?>
<!-- Created with Inkscape (http://www.inkscape.org/) -->

<svg
   width="61.228924mm"
   height="61.193718mm"
   viewBox="0 0 61.228924 61.193718"
   version="1.1"
   id="svg1"
   inkscape:export-filename="Erdbeere.svg"
   inkscape:export-xdpi="96"
   inkscape:export-ydpi="96"
   inkscape:version="1.4.4 (dcaf3e7d9e, 2026-05-05)"
   sodipodi:docname="Mandarine.svg"
   xmlns:inkscape="http://www.inkscape.org/namespaces/inkscape"
   xmlns:sodipodi="http://sodipodi.sourceforge.net/DTD/sodipodi-0.dtd"
   xmlns="http://www.w3.org/2000/svg"
   xmlns:svg="http://www.w3.org/2000/svg">
  <sodipodi:namedview
     id="namedview1"
     pagecolor="#ffffff"
     bordercolor="#000000"
     borderopacity="0.25"
     inkscape:showpageshadow="2"
     inkscape:pageopacity="0.0"
     inkscape:pagecheckerboard="0"
     inkscape:deskcolor="#d1d1d1"
     inkscape:document-units="mm"
     inkscape:zoom="3.1118716"
     inkscape:cx="115.68601"
     inkscape:cy="108.77698"
     inkscape:window-width="1600"
     inkscape:window-height="996"
     inkscape:window-x="0"
     inkscape:window-y="0"
     inkscape:window-maximized="1"
     inkscape:current-layer="svg1" />
  <defs
     id="defs1" />
  <path
     style="display:inline;fill:#367815;fill-opacity:1;stroke:#367815;stroke-width:6.04724407;stroke-linecap:round;stroke-linejoin:round;stroke-dasharray:none;stroke-opacity:1"
     d="m 581.1875,315.18682 c -3.72902,-0.38615 -6.86702,-1.26034 -10.0625,-2.80325 -3.33323,-1.60941 -5.93056,-3.56357 -9.25367,-6.9622 -4.13439,-4.22835 -7.60372,-9.27773 -9.64181,-14.03303 -0.23258,-0.54266 -1.72179,-4.56387 -1.70224,-4.58342 0.0195,-0.0195 2.10725,3.46738 2.63045,4.13271 3.85313,4.89986 9.73221,10.98288 13.6491,12.94251 3.97159,1.987 8.77858,3.2695 22.75567,6.07119 3.74687,0.75105 6.95312,1.41226 7.125,1.46935 0.28522,0.0947 0.21431,0.15323 -0.8125,0.67006 -2.85173,1.43539 -5.72699,2.44895 -8.0625,2.84211 -1.78384,0.3003 -4.9905,0.42322 -6.625,0.25397 z"
     id="path280"
     transform="matrix(0.25241466,0.07931696,-0.07931696,0.25241466,-97.92245,-113.15014)"
     sodipodi:nodetypes="ssssssssssss" />
  <path
     style="display:inline;fill:#367815;fill-opacity:1;stroke:#367815;stroke-width:6.04724407;stroke-linecap:round;stroke-linejoin:round;stroke-dasharray:none;stroke-opacity:1"
     d="m 594.3125,306.73387 c -0.79063,-0.16704 -3.82801,-0.75531 -6.74974,-1.30727 -7.7748,-1.46878 -10.94801,-2.24374 -14.58348,-3.56154 -7.81142,-2.83154 -12.50196,-6.65431 -18.56131,-15.12742 -1.47831,-2.0672 -3.16904,-4.65324 -3.09236,-4.72992 0.0692,-0.0692 4.59695,1.34581 8.11189,2.53506 5.91284,2.00056 10.57532,3.93075 16.0625,6.64964 5.55534,2.75267 9.98267,5.44012 13.62222,8.26889 2.06927,1.60831 4.6573,4.20739 6.04412,6.06994 1.30932,1.75847 1.37034,1.67252 -0.85384,1.20262 z"
     id="path279"
     transform="matrix(0.25241466,0.07931696,-0.07931696,0.25241466,-97.92245,-113.15014)" />
  <path
     style="display:inline;fill:#367815;fill-opacity:1;stroke:#367815;stroke-width:6.04724;stroke-linecap:round;stroke-linejoin:round;stroke-dasharray:none;stroke-opacity:1"
     d="m 623.78064,300.84375 c 10.18801,-10.71398 13.16199,-15.16579 18.55452,-27.77465 1.44847,-3.38683 2.08271,-4.68703 3.42472,-7.02074 2.95024,-5.13032 7.69343,-11.33533 13.39232,-17.51975 1.81145,-1.96578 2.46123,-2.56207 2.58091,-2.36844 0.11479,0.18574 0.81726,4.05773 1.07082,5.90233 0.8815,6.41289 1.02176,11.86091 0.38136,14.8125 -2.49027,11.47742 -13.1191,22.3785 -30.0897,30.8604 -2.93966,1.46924 -12.59106,5.84663 -12.87072,5.84663 -0.0343,0 2.52611,-1.65547 3.55577,-2.73828 z"
     id="path199"
     transform="matrix(0.25241466,0.07931696,-0.07931696,0.25241466,-97.92245,-113.15014)"
     sodipodi:nodetypes="cssssscssc" />
  <path
     style="display:inline;fill:#367815;fill-opacity:1;stroke:#367815;stroke-width:6.04724;stroke-linecap:round;stroke-linejoin:round;stroke-dasharray:none;stroke-opacity:1"
     d="m 620.04476,298.96268 c 0.78938,-3.28761 1.68939,-6.37411 2.46621,-10.27518 1.74738,-8.77515 2.94546,-12.85911 5.04216,-17.1875 1.72255,-3.55599 3.53432,-5.96797 7.08905,-9.4375 4.50685,-4.39884 8.25577,-7.18342 15.63112,-11.61031 1.73157,-1.03933 4.44519,-2.65672 4.49012,-2.65672 0.0449,0 -1.43947,1.06234 -1.75854,1.42328 -6.69003,7.56788 -10.9844,14.01848 -13.79313,20.71875 -1.96239,4.68129 -2.68936,6.34006 -3.66695,8.36705 -2.37064,4.91546 -3.72278,7.03301 -7.22282,11.31142 -2.77594,3.39328 -8.41964,9.93983 -8.27722,9.34671 z"
     id="path278"
     transform="matrix(0.25241466,0.07931696,-0.07931696,0.25241466,-97.92245,-113.15014)"
     sodipodi:nodetypes="sssssssssss" />
  <path
     style="display:inline;fill:#367815;stroke:#367815;stroke-width:0.628797;stroke-dasharray:none;stroke-opacity:1"
     d="m 588.71979,170.78342 c -1.02469,0.30658 -3.45027,0.32736 -4.42272,0.77303 -0.58721,0.32226 -0.17402,1.78977 -0.31929,2.51215 -0.0997,0.77541 0.4412,1.44352 0.83817,2.05396 0.67267,0.92587 1.49942,1.72509 2.25693,2.58026 0.72206,0.79706 1.44891,1.59697 2.05549,2.48691 0.67103,0.90638 1.81774,3.21723 2.32671,4.22238 0.44977,0.93574 0.87218,1.88441 1.22507,2.86142 0.8133,2.17549 1.56362,4.37512 2.43162,6.5298 0.53788,1.26634 1.05882,2.54168 1.66483,3.77739 0.42942,0.80299 0.78879,1.70688 1.5359,2.2728 0.48818,0.39355 1.18373,0.31064 1.73814,0.11877 1.12224,-0.35218 2.20798,-0.83177 3.19155,-1.4801 0.47027,-0.26945 0.63966,-1.01313 0.17187,-1.36328 -0.45885,-0.40067 -1.10704,-0.34066 -1.65714,-0.48445 -0.77474,-0.14755 -1.27658,-0.82263 -1.5492,-1.51791 -0.47224,-0.91844 -0.85109,-1.88266 -1.22784,-2.84346 -0.3814,-0.98765 -0.70901,-1.99531 -1.04467,-2.99904 -0.61151,-1.98453 -1.19313,-3.97867 -1.70076,-5.99253 -0.39255,-1.57295 -1.35584,-4.48226 -1.68245,-6.07057 -0.20172,-1.13619 -0.42196,-2.2695 -0.55263,-3.41677 -0.12201,-0.89808 -0.24035,-1.80555 -0.53917,-2.66526 -0.20384,-0.51242 -0.60014,-0.98316 -1.14844,-1.13477 -0.24556,-0.0445 0.28441,-0.93653 0.0358,-0.91455 -1.67998,0.14847 -1.66929,0.13089 -3.62775,0.69382 z"
     id="path94"
     transform="matrix(0.21269772,0.06683659,-0.06570542,0.20909794,-82.280289,-63.106112)"
     sodipodi:nodetypes="cccccccccccccccccccccccsc" />
  <g
     inkscape:label="Ebene 1"
     inkscape:groupmode="layer"
     id="layer1"
     transform="translate(-60.900875,-91.237409)">
    <g
       id="g275"
       inkscape:label="Mandarine"
       style="display:inline"
       transform="matrix(1.6440978,0.5166294,-0.50788575,1.6162724,-32.525293,-4.5655937)"
       inkscape:export-filename="..\..\..\..\Nebensachen\Trampolin\g275.svg"
       inkscape:export-xdpi="96"
       inkscape:export-ydpi="96">
      <path
         style="display:inline;fill:#ff7a00;fill-opacity:1;stroke:#ff7a00;stroke-width:0.353553;stroke-dasharray:none;stroke-opacity:1"
         d="m 585.30764,342.59575 c -9.83921,-1.04518 -18.60556,-3.64153 -27.48878,-8.14141 -2.90448,-1.47129 -6.98654,-3.86616 -9.09627,-5.33661 -9.43391,-6.57527 -20.28434,-18.7306 -26.69032,-29.90013 -1.60913,-2.80569 -4.04636,-7.62425 -3.85669,-7.6249 0.0735,-2.5e-4 1.40362,-0.1995 2.95575,-0.44278 4.58782,-0.71909 7.0458,-1.66121 6.53038,-2.50304 -0.10643,-0.17383 -0.38486,-0.36959 -0.61872,-0.43503 -0.72801,-0.20371 -4.8983,-0.15058 -7.67306,0.0977 -1.45841,0.13052 -2.65758,0.22666 -2.66482,0.21364 -0.007,-0.013 -0.58177,-1.97264 -1.27672,-4.3547 -2.07103,-7.09881 -2.89224,-10.90676 -3.41202,-15.82152 -0.31904,-3.01663 -0.26978,-12.02092 0.0835,-15.25669 1.30709,-11.97332 5.1573,-21.87395 12.15055,-31.24458 4.74095,-6.35263 11.96653,-12.80547 19.14716,-17.09943 5.24533,-3.13667 14.61517,-7.50644 19.54785,-9.11643 0.9319,-0.30417 23.49113,-5.92967 26.57072,-6.62584 1.01762,-0.23003 1.2837,-0.10452 1.84658,0.87107 0.61424,1.06459 2.52573,7.07616 2.64037,8.3039 0.0878,0.9399 0.0372,1.22863 -0.36345,2.07557 -0.63454,1.34131 -0.62265,2.28985 0.037,2.94948 1.02577,1.02578 2.85261,1.10496 5.81306,0.25196 5.18779,-1.49477 8.01579,-4.71591 6.11921,-6.96988 -0.62328,-0.74072 -1.30619,-1.05951 -2.26967,-1.05951 -0.65716,0 -0.90082,-0.0931 -1.27303,-0.48614 -0.86085,-0.90915 -3.58867,-7.11838 -3.58867,-8.16877 0,-0.62041 2.12556,-1.9732 8.48528,-5.40037 1.4098,-0.75972 3.99516,-2.23156 5.74525,-3.27075 4.37432,-2.59744 5.15489,-3.01552 7.6924,-4.12017 12.74759,-5.54936 28.94277,-6.35548 45.13214,-2.24645 11.4415,2.90397 20.72541,7.17591 29.19984,13.43615 2.9072,2.14761 5.7878,4.66671 10.27766,8.98787 l 4.44401,4.27705 -1.41637,2.69424 c -1.59059,3.0256 -3.09982,5.23835 -5.69596,8.35108 -2.5306,3.03413 -7.46898,7.935 -9.55388,9.48132 -1.51795,1.12582 -1.77547,1.39012 -1.82236,1.87022 -0.10652,1.09132 1.19245,1.39567 2.70013,0.63265 4.18639,-2.11871 11.02655,-9.40646 15.21884,-16.21468 1.48997,-2.41968 2.17582,-3.28252 2.60923,-3.28252 1.02776,0 6.43092,9.19452 9.1417,15.55635 3.02259,7.09365 4.9967,14.92421 5.74901,22.8042 0.39485,4.1357 0.27008,11.75962 -0.25609,15.64794 -2.23363,16.50639 -9.19985,30.69898 -20.6929,42.15857 -6.09531,6.07756 -12.52226,10.61686 -20.77929,14.67625 -7.17836,3.52908 -14.69893,6.12173 -25.89778,8.92804 -9.86274,2.47149 -16.37849,4.94424 -24.92552,9.4593 -12.14719,6.41689 -21.61226,9.65851 -32.52691,11.1399 -3.58065,0.48598 -12.49761,0.62969 -15.99829,0.25783 z m 45.69944,-69.77722 c 1.5196,-0.55416 2.87547,-1.47341 4.1855,-2.83767 1.7506,-1.82306 2.52346,-3.71352 2.52725,-6.18176 0.002,-1.26965 -0.0296,-1.38674 -0.44801,-1.66087 -0.76068,-0.49841 -2.81229,-0.22266 -7.8584,1.05625 -10.77907,2.7319 -12.19759,3.30684 -12.19759,4.94378 0,1.71249 2.00251,3.26517 5.63354,4.36806 3.2159,0.9768 6.03901,1.08485 8.15771,0.31221 z M 600.5963,254.73041 c 1.51817,-1.47168 2.38133,-2.16557 3.1073,-2.49792 1.32911,-0.60849 2.54669,-0.60433 3.8958,0.0133 1.58307,0.72475 2.60429,0.57845 2.60429,-0.3731 0,-0.80834 -0.54105,-1.42262 -1.79808,-2.04146 -1.09449,-0.53881 -1.28488,-0.57517 -2.94171,-0.56181 -2.91779,0.0235 -4.9689,1.02325 -6.63995,3.23632 -1.20724,1.59882 -1.63395,3.19065 -1.10707,4.12982 0.241,0.42957 0.96532,-0.0497 2.87942,-1.90516 z m -10.15626,-6.6532 c 0.3503,-0.30756 0.88103,-1.04339 1.1794,-1.63518 0.80969,-1.60593 1.76948,-2.94553 3.22733,-4.50441 1.43974,-1.53952 2.08957,-2.62366 2.00599,-3.34671 -0.0778,-0.67322 -0.95884,-0.73818 -1.97053,-0.14528 -1.50114,0.87973 -4.40876,4.31944 -5.55553,6.57219 -0.6329,1.2433 -0.98899,2.71986 -0.77119,3.19787 0.28287,0.62084 1.08703,0.56175 1.88453,-0.13848 z m 42.54053,-3.03244 c 0.32291,-0.32254 0.97982,-1.04969 1.4598,-1.61588 1.227,-1.44738 2.30325,-1.92405 4.13269,-1.83036 1.14647,0.0587 1.65372,0.19956 3.24901,0.90209 2.57542,1.13416 3.1477,1.08999 3.1477,-0.24294 0,-0.53458 -0.12568,-0.76473 -0.70187,-1.28529 -0.86745,-0.78368 -2.50379,-1.62371 -3.84185,-1.97223 -2.62948,-0.68489 -5.39248,0.002 -7.34216,1.82594 -1.09361,1.02295 -1.56207,1.92632 -1.68141,3.24237 -0.14882,1.6412 0.50653,2.04664 1.57809,0.9763 z m 11.42527,-16.22211 c 0.67235,-0.23438 0.86389,-0.74318 0.49292,-1.30935 -0.64286,-0.98113 -3.77586,-2.64477 -5.35138,-2.84162 -1.69486,-0.21175 -4.90367,0.50203 -5.90616,1.31379 -0.41882,0.33914 -0.51463,1.15557 -0.17548,1.49519 0.13787,0.13806 1.40498,0.24198 3.7786,0.3099 2.90565,0.0831 3.70296,0.16156 4.27829,0.42081 0.97637,0.43995 1.90689,0.78581 2.13913,0.79507 0.10703,0.004 0.44186,-0.0784 0.74408,-0.18379 z"
         id="path92"
         transform="matrix(0.12937048,0,0,0.12937048,11.857751,16.439571)" />
      <path
         id="path293"
         style="display:inline;fill:#000000;stroke:#000000;stroke-width:0;stroke-dasharray:none"
         d="m 96.149204,28.695685 c -0.04894,0.01324 -0.104149,0.0316 -0.166238,0.05505 -0.165573,0.06255 -0.381122,0.16106 -0.662872,0.293093 -1.876655,0.87943 -4.241618,2.78408 -4.777705,3.847729 -0.392468,0.778695 -0.708679,1.832125 -0.950208,3.165274 -0.13573,0.749175 -0.35455,1.60589 -0.486251,1.903689 -0.218727,0.494581 -0.253012,0.527933 -0.394083,0.386862 -0.197784,-0.197753 -0.614853,-0.196495 -1.114119,0.0035 -0.423409,0.169415 -0.617705,0.415752 -0.522825,0.663012 0.124511,0.324471 -0.312224,0.0068 -1.013145,-0.737007 -1.180838,-1.253121 -2.382863,-2.046593 -4.258707,-2.81148 -0.958613,-0.39088 -3.056074,-1.065978 -3.311829,-1.065978 -0.326679,0 0.0225,1.681942 0.578206,2.785435 1.482317,2.94349 4.343742,4.296221 6.758754,3.195026 0.283566,-0.1293 0.633754,-0.318784 0.778194,-0.421396 0.259096,-0.184042 0.271164,-0.184278 0.887026,0.0052 0.446371,0.137254 0.693328,0.506433 0.594748,0.567963 -0.07582,0.04733 -0.728673,0.220655 -1.450933,0.385447 -1.932317,0.440879 -2.56791,0.645107 -3.647733,1.170766 -4.323477,2.104672 -6.196506,6.31452 -4.859355,10.922508 l 0.221565,0.763024 -0.356252,-0.06453 c -1.622481,-0.293943 -3.424421,-2.082903 -4.723353,-4.600499 -0.659512,-1.27827 -0.762579,-1.596148 -0.614425,-2.043924 0.158133,-0.477935 -0.12713,-0.700624 -0.232233,-0.377313 -0.09781,0.205318 -0.07289,0.24213 -0.170165,-0.04111 -0.09575,-0.278795 -0.365137,-0.235887 -0.306564,0.04747 0.07073,0.342152 0.05586,0.382882 -0.190684,0.218718 -0.195412,-0.130114 -0.344852,0.08222 -0.176128,0.220814 0.06805,0.0559 0.263545,0.213688 0.434563,0.350596 0.171018,0.136908 0.340445,0.345477 0.376405,0.463504 0.133558,0.438418 1.007829,2.16203 1.453528,2.834004 0.639888,0.96475 1.86729,2.245685 2.602106,2.681293 0.560578,0.332318 1.179447,0.513038 1.845574,0.644934 0.190672,0.03775 0.297203,0.17186 0.517556,0.639035 1.044516,2.214496 2.910476,4.151898 5.055074,5.24902 2.877028,1.471814 6.06347,1.517804 9.065894,0.130599 0,0 0.161703,-0.06925 0.358561,-0.150736 0.448182,-0.185522 0.376786,-0.07763 0.624085,0.468103 0.282471,0.62335 0.957084,2.547318 1.24542,4.003689 0.09271,0.46828 0.174614,0.918283 0.188374,1.204649 0.04943,0.243425 0.275313,0.394207 0.605374,0.462469 0.443412,0.09171 0.88185,-0.001 0.866962,-0.25799 -0.01939,-0.334617 -0.683926,-0.57982 -0.917845,-0.557481 -0.243402,-0.04071 -0.245979,-0.422363 -0.481292,-1.577065 -0.252486,-1.199173 -0.664088,-2.199756 -1.179131,-3.391704 -0.159781,-0.369776 -0.290329,-0.532197 -0.272139,-0.648512 0.03771,-0.241124 2.556757,-1.207091 3.240786,-1.295061 0.480616,-0.0618 0.618677,0.288609 0.650831,0.420867 1.132331,2.174164 1.311742,3.082103 1.889641,5.20487 -0.0099,0.410545 0.318523,0.423463 0.627853,0.507386 0.28578,0.05813 0.97557,0.06877 0.95937,-0.289618 -0.0151,-0.350433 -0.80128,-0.492694 -1.02141,-0.45292 -0.328524,0.04632 -0.363739,-0.312942 -0.735209,-1.814887 -0.333732,-1.185948 -0.843489,-2.206628 -1.404586,-3.324476 -0.06658,-0.127134 -0.135838,-0.230847 -0.12616,-0.389066 0.120582,-0.137514 0.06961,-0.136657 0.743853,-0.30363 1.758752,-0.43554 3.398072,-1.531651 4.579952,-2.719511 1.76191,-1.770827 2.67835,-3.842798 2.78671,-6.299237 0.10322,-2.340014 -0.42161,-4.260007 -1.68911,-6.179128 l -0.42818,-0.648385 0.286,-0.820855 c 0.31787,-1.096907 0.39894,-2.090655 0.39894,-3.443254 0,-0.976445 0.0258,-1.157291 0.20063,-1.40282 0.22035,-0.309488 0.0619,-0.672717 -0.11708,-0.33253 -0.15248,0.204104 -0.13139,0.103148 -0.18103,-0.242661 0.009,-0.153388 -0.22053,-0.165418 -0.20923,0.0065 -0.0373,0.446279 0.0195,0.413279 -0.17889,0.21888 -0.19335,-0.261332 -0.35355,-0.02437 -0.0396,0.307865 0.26858,0.319698 0.18459,0.491029 0.17859,1.796047 -0.005,1.016287 -0.0578,1.545341 -0.23232,2.307542 -0.12456,0.5439 -0.29938,1.048989 -0.34148,1.117159 -0.0547,0.08852 -0.23074,-0.06205 -0.71223,-0.516253 -1.79966,-1.697716 -3.834312,-2.651303 -6.5081,-3.050059 -1.980095,-0.295302 -4.302274,0.211618 -5.899949,1.288306 -0.69131,0.465879 -1.414421,0.822852 -1.526798,0.753402 -0.168802,-0.104326 -0.20688,-0.717994 0.01648,-0.863411 0.120376,-0.07838 0.700399,-0.34362 1.288908,-0.589438 3.757699,-1.569577 6.018907,-3.759142 6.386514,-6.184411 0.09413,-0.62104 0.08462,-0.884829 -0.06069,-1.702326 -0.09457,-0.532064 -0.193988,-1.219138 -0.220818,-1.526768 -0.03975,-0.455863 -0.08136,-0.616448 -0.423938,-0.523767 z m -0.109666,0.476276 c 0.05569,-0.01666 0.09597,-0.0051 0.11739,0.04017 0.07794,0.164729 0.315947,1.393475 0.364007,2.34234 0.0367,0.724712 0.0067,1.02845 -0.154834,1.560197 -0.522481,1.720153 -2.157073,3.323624 -4.681868,4.592431 -0.454757,0.228532 -1.167838,0.559288 -1.584622,0.735117 l -0.757692,0.319884 0.840226,-1.035595 c 1.398372,-1.723377 1.970944,-2.299294 2.859948,-4.475908 0.152661,-0.373773 0.545823,-1.111966 0.855715,-1.567454 0.61317,-0.901257 1.751869,-2.394594 2.14173,-2.511183 z m -0.761106,0.275254 c 0.237206,-0.07604 0.141882,0.10478 -0.23624,0.535599 -0.542628,0.618251 -0.930896,1.079491 -1.258486,1.611789 -0.369289,0.600054 -0.750411,1.218772 -1.017381,1.894733 -0.433697,1.098109 -0.940353,1.919974 -1.243148,2.355365 -0.246532,0.354491 -0.754795,1.065696 -1.235598,1.559711 -0.815879,0.838291 -0.933849,0.8113 -0.7869,0.448159 0.0866,-0.214003 0.265443,-0.977393 0.397471,-1.696584 0.403078,-2.195661 0.825645,-3.202739 1.73576,-4.136713 0.742706,-0.762177 1.398943,-1.275097 2.463515,-1.925349 0.610662,-0.372999 0.996513,-0.58757 1.181007,-0.64671 z m -16.416019,5.387618 c 0.02655,-0.01775 0.689129,0.17841 1.480791,0.446848 2.555604,0.866559 4.800728,2.171221 5.604907,3.303906 l 0.04408,0.06232 c 0.240011,0.338054 0.435407,0.525649 0.428882,0.550962 l -1.97e-4,3.82e-4 -1.96e-4,3.82e-4 -1.96e-4,3.83e-4 -2.86e-4,9.1e-5 9e-5,2.91e-4 -2.86e-4,9.2e-5 -2.86e-4,9.1e-5 c -0.02035,0.01531 -0.348479,0.02217 -0.659555,-0.02482 -0.297662,-0.04496 -0.903013,-0.175642 -1.41127,-0.268602 -2.279803,-0.416984 -3.418868,-1.092928 -4.443124,-2.367582 -0.570762,-0.710295 -1.289682,-1.540069 -1.043357,-1.704752 z m 0.02559,0.787939 c 0.05134,-0.02155 0.194002,0.116308 0.508194,0.56046 0.550849,0.778699 1.601189,1.725685 2.177608,2.017779 0.607038,0.307609 1.506561,0.627781 3.394031,1.000376 0.826903,0.163235 1.518352,0.37604 1.536502,0.39419 0.07079,0.07079 -0.830089,0.529947 -1.330914,0.67832 -1.040704,0.308316 -2.339438,0.12895 -3.348548,-0.462428 -1.264144,-0.740838 -2.598237,-2.520965 -2.925681,-3.904201 -0.03479,-0.146951 -0.05241,-0.267196 -0.01119,-0.284496 z m 9.029422,2.968316 c 0.232033,-0.0691 0.475251,-0.107916 0.549032,-0.06231 0.05773,0.03568 0.104912,0.190854 0.104912,0.344701 0,0.487549 0.389611,1.928194 0.667362,2.578531 0.21891,0.512562 0.309233,0.628185 0.492613,0.629066 0.123538,5.9e-4 0.200242,0.04053 0.170432,0.08876 -0.02981,0.04823 -0.181848,0.132265 -0.33776,0.186615 -0.274475,0.09568 -0.289395,0.08431 -0.476875,-0.355296 -0.106496,-0.249712 -0.26257,-0.687627 -0.3465,-0.973115 -0.190713,-0.64871 -0.564592,-1.372912 -1.008421,-1.762599 -0.189952,-0.16678 -0.323666,-0.360005 -0.297036,-0.429405 0.02927,-0.07629 0.250208,-0.175844 0.482241,-0.244948 z m 4.819847,0.106281 c 1.546948,-0.501406 3.404021,-0.524523 5.287322,-0.03995 1.95963,0.504232 3.451896,1.3306 4.830626,2.67471 l 0.80045,0.780054 -0.31223,0.59282 c -0.30071,0.57107 -1.41244,1.799677 -1.9205,2.122341 -0.18893,0.119999 -0.21764,0.181148 -0.12814,0.274038 0.25098,0.260598 1.55145,-0.946624 2.23917,-2.078727 0.40098,-0.660086 0.35054,-0.678818 0.95993,0.353082 2.62522,4.445327 1.43193,9.967721 -2.7667,12.804698 -1.30399,0.881091 -2.704382,1.437325 -4.992296,1.982941 -0.739226,0.176289 -1.958596,0.642172 -2.607524,0.996216 -1.410995,0.769815 -2.508845,1.200189 -3.696565,1.44919 -2.535392,0.531535 -5.102307,0.0272 -7.408273,-1.455604 -1.387814,-0.892408 -3.044246,-2.778696 -3.861225,-4.397123 l -0.303043,-0.600457 0.460533,-0.06695 c 1.026025,-0.148831 1.099988,-0.453534 0.08933,-0.368104 l -0.711639,0.05993 -0.212086,-0.718095 c -0.352032,-1.191075 -0.442357,-1.829067 -0.432457,-3.052314 0.02305,-2.840357 1.323326,-5.229367 3.739388,-6.870084 0.805418,-0.546949 2.425909,-1.303854 3.192074,-1.490959 0.347755,-0.08492 1.157694,-0.282367 1.799703,-0.438739 0.642009,-0.156372 1.254898,-0.310221 1.3619,-0.341961 0.168903,-0.0501 0.223795,0.03151 0.41813,0.619942 0.185396,0.561373 0.20315,0.711108 0.10317,0.871207 -0.192961,0.308979 0.05232,0.53323 0.493733,0.45158 0.83564,-0.154566 1.342888,-0.643023 1.011599,-0.974312 -0.08516,-0.08517 -0.217666,-0.131004 -0.294166,-0.101644 -0.09665,0.03709 -0.211544,-0.110192 -0.376543,-0.483284 -0.1306,-0.29531 -0.237467,-0.591836 -0.237467,-0.658826 0,-0.06699 0.317469,-0.284067 0.705349,-0.482199 0.387881,-0.198132 0.988696,-0.537189 1.335323,-0.753586 0.436186,-0.272308 0.91747,-0.492698 1.43312,-0.659833 z"
         sodipodi:nodetypes="ssssssccscssssccsssccssscssssscssssscssscssccsssccccccccssscccsscccccccccsssssssssssscscccssssssssssssssssscccccccccssssssssssssssssscssssssssscccscscssssscccccccssssssssssssssssssc" />
      <g
         id="g2"
         inkscape:label="stippen_bw"
         style="display:inline">
        <circle
           style="fill:#999999;fill-opacity:1;stroke-width:0.348212"
           id="path2"
           cx="98.130928"
           cy="52.713837"
           r="0.32352409" />
        <circle
           style="fill:#999999;fill-opacity:1;stroke-width:0.348212"
           id="path2-8"
           cx="99.542274"
           cy="52.181858"
           r="0.32352409" />
        <circle
           style="fill:#999999;fill-opacity:1;stroke-width:0.348212"
           id="path2-1"
           cx="100.86519"
           cy="53.504772"
           r="0.32352409" />
        <circle
           style="fill:#999999;fill-opacity:1;stroke-width:0.348212"
           id="path2-2"
           cx="100.69199"
           cy="55.193806"
           r="0.32352409" />
        <circle
           style="fill:#999999;fill-opacity:1;stroke-width:0.348212"
           id="path2-23"
           cx="100.47936"
           cy="48.849781"
           r="0.32352409" />
        <circle
           style="fill:#999999;fill-opacity:1;stroke-width:0.348212"
           id="path2-85"
           cx="98.512009"
           cy="47.238388"
           r="0.32352409" />
        <circle
           style="fill:#999999;fill-opacity:1;stroke-width:0.348212"
           id="path2-9"
           cx="98.531723"
           cy="43.967831"
           r="0.32352409" />
        <circle
           style="fill:#999999;fill-opacity:1;stroke-width:0.348212"
           id="path2-4"
           cx="102.79074"
           cy="48.304489"
           r="0.32352409" />
        <circle
           style="fill:#999999;fill-opacity:1;stroke-width:0.348212"
           id="path2-3"
           cx="103.33781"
           cy="45.382126"
           r="0.32352409" />
        <circle
           style="fill:#999999;fill-opacity:1;stroke-width:0.348212"
           id="path2-87"
           cx="104.83394"
           cy="47.075336"
           r="0.32352409" />
        <circle
           style="fill:#999999;fill-opacity:1;stroke-width:0.348212"
           id="path2-93"
           cx="104.03004"
           cy="49.80658"
           r="0.32352409" />
        <circle
           style="fill:#999999;fill-opacity:1;stroke-width:0.348212"
           id="path2-5"
           cx="102.71728"
           cy="52.181858"
           r="0.32352409" />
        <circle
           style="fill:#999999;fill-opacity:1;stroke-width:0.348212"
           id="path2-0"
           cx="103.98047"
           cy="53.132683"
           r="0.32352409" />
        <circle
           style="fill:#999999;fill-opacity:1;stroke-width:0.348212"
           id="path2-50"
           cx="98.973091"
           cy="56.278576"
           r="0.32352409" />
        <circle
           style="fill:#999999;fill-opacity:1;stroke-width:0.348212"
           id="path2-13"
           cx="97.385597"
           cy="57.137268"
           r="0.32352409" />
        <circle
           style="fill:#999999;fill-opacity:1;stroke-width:0.348212"
           id="path2-46"
           cx="84.932259"
           cy="47.059216"
           r="0.32352409" />
        <circle
           style="fill:#999999;fill-opacity:1;stroke-width:0.348212"
           id="path2-84"
           cx="87.196442"
           cy="43.655464"
           r="0.32352409" />
        <circle
           style="fill:#999999;fill-opacity:1;stroke-width:0.348212"
           id="path2-88"
           cx="87.373238"
           cy="41.817402"
           r="0.32352409" />
        <circle
           style="fill:#999999;fill-opacity:1;stroke-width:0.348212"
           id="path2-59"
           cx="83.930061"
           cy="43.770737"
           r="0.32352409" />
        <circle
           style="fill:#999999;fill-opacity:1;stroke-width:0.348212"
           id="path2-6"
           cx="81.566734"
           cy="44.719772"
           r="0.32352409" />
        <circle
           style="fill:#999999;fill-opacity:1;stroke-width:0.348212"
           id="path2-42"
           cx="82.139496"
           cy="46.404625"
           r="0.32352409" />
        <circle
           style="fill:#999999;fill-opacity:1;stroke-width:0.348212"
           id="path2-7"
           cx="80.321457"
           cy="47.936581"
           r="0.32352409" />
        <circle
           style="fill:#999999;fill-opacity:1;stroke-width:0.348212"
           id="path2-65"
           cx="82.296577"
           cy="50.228241"
           r="0.32352409" />
        <circle
           style="fill:#999999;fill-opacity:1;stroke-width:0.348212"
           id="path2-20"
           cx="80.07061"
           cy="52.195599"
           r="0.32352409" />
        <circle
           style="fill:#e6e6e6;fill-opacity:1;stroke-width:0.348212"
           id="path2-07"
           cx="82.930779"
           cy="53.246201"
           r="0.32352409" />
        <circle
           style="fill:#e6e6e6;fill-opacity:1;stroke-width:0.348212"
           id="path2-07-7"
           cx="85.718246"
           cy="53.427132"
           r="0.32352409" />
        <circle
           style="fill:#e6e6e6;fill-opacity:1;stroke-width:0.348212"
           id="path2-07-9"
           cx="80.19783"
           cy="55.064205"
           r="0.32352409" />
        <circle
           style="fill:#e6e6e6;fill-opacity:1;stroke-width:0.348212"
           id="path2-07-6"
           cx="79.330612"
           cy="49.985752"
           r="0.32352409" />
        <circle
           style="fill:#e6e6e6;fill-opacity:1;stroke-width:0.348212"
           id="path2-07-0"
           cx="82.511589"
           cy="48.760193"
           r="0.32352409" />
        <circle
           style="fill:#e6e6e6;fill-opacity:1;stroke-width:0.348212"
           id="path2-07-94"
           cx="80.167969"
           cy="46.667416"
           r="0.32352409" />
        <circle
           style="fill:#e6e6e6;fill-opacity:1;stroke-width:0.348212"
           id="path2-07-1"
           cx="84.82296"
           cy="44.461163"
           r="0.32352409" />
        <circle
           style="fill:#e6e6e6;fill-opacity:1;stroke-width:0.348212"
           id="path2-07-4"
           cx="91.604774"
           cy="44.413383"
           r="0.32352409" />
        <circle
           style="fill:#e6e6e6;fill-opacity:1;stroke-width:0.348212"
           id="path2-07-98"
           cx="92.675056"
           cy="40.679352"
           r="0.32352409" />
        <circle
           style="fill:#e6e6e6;fill-opacity:1;stroke-width:0.348212"
           id="path2-07-988"
           cx="94.648384"
           cy="42.465736"
           r="0.32352409" />
        <circle
           style="fill:#e6e6e6;fill-opacity:1;stroke-width:0.348212"
           id="path2-07-8"
           cx="95.573524"
           cy="48.742275"
           r="0.32352409" />
        <circle
           style="fill:#e6e6e6;fill-opacity:1;stroke-width:0.348212"
           id="path2-07-10"
           cx="93.47477"
           cy="53.019207"
           r="0.32352409" />
        <circle
           style="fill:#e6e6e6;fill-opacity:1;stroke-width:0.348212"
           id="path2-07-65"
           cx="89.812416"
           cy="52.547974"
           r="0.32352409" />
        <circle
           style="fill:#e6e6e6;fill-opacity:1;stroke-width:0.348212"
           id="path2-07-81"
           cx="87.395325"
           cy="49.392681"
           r="0.32352409" />
        <circle
           style="fill:#e6e6e6;fill-opacity:1;stroke-width:0.348212"
           id="path2-07-68"
           cx="86.38298"
           cy="56.836853"
           r="0.32352409" />
        <circle
           style="fill:#e6e6e6;fill-opacity:1;stroke-width:0.348212"
           id="path2-07-99"
           cx="91.809631"
           cy="57.262691"
           r="0.32352409" />
        <circle
           style="fill:#e6e6e6;fill-opacity:1;stroke-width:0.348212"
           id="path2-07-3"
           cx="94.75589"
           cy="56.037132"
           r="0.32352409" />
        <circle
           style="fill:#e6e6e6;fill-opacity:1;stroke-width:0.348212"
           id="path2-07-80"
           cx="101.48992"
           cy="46.685333"
           r="0.32352409" />
      </g>
      <path
         style="display:inline;fill:#000000"
         d="m 94.905479,45.970322 c -0.08025,-0.05489 -0.364778,-0.08766 -0.632282,-0.07283 -0.378852,0.021 -0.486371,-0.0052 -0.486371,-0.118516 0,-0.09229 0.148999,-0.176907 0.407546,-0.231449 0.327337,-0.06905 0.476875,-0.05 0.759816,0.09684 0.357813,0.185689 0.453727,0.357683 0.223933,0.401557 -0.0697,0.01331 -0.192391,-0.02071 -0.272642,-0.0756 z"
         id="path230" />
      <path
         style="display:inline;fill:#000000"
         d="m 93.543641,48.072436 c 0,-0.400674 0.422058,-0.737512 0.924104,-0.737512 0.336633,0 0.82683,0.260997 0.82683,0.440232 0,0.181605 -0.09049,0.180413 -0.464396,-0.0061 -0.373004,-0.186079 -0.758356,-0.101987 -0.962852,0.210113 -0.16933,0.258432 -0.323686,0.302915 -0.323686,0.09328 z"
         id="path229" />
      <path
         style="display:inline;fill:#000000"
         d="m 87.999017,48.492596 c 0,-0.362919 0.696738,-1.254946 0.980204,-1.254946 0.177183,0 0.08475,0.248597 -0.188243,0.506255 -0.152929,0.144341 -0.333333,0.395895 -0.400897,0.55901 -0.117054,0.282593 -0.391064,0.415498 -0.391064,0.189681 z"
         id="path228" />
      <path
         style="display:inline;fill:#000000"
         d="m 89.166306,49.467472 c 0,-0.111117 0.127953,-0.329984 0.28434,-0.48637 0.31774,-0.317741 0.895414,-0.390294 1.219678,-0.153186 0.234686,0.171607 0.112512,0.39425 -0.141689,0.258205 -0.328171,-0.175631 -0.604045,-0.10364 -0.930896,0.242923 -0.372565,0.395034 -0.431433,0.413922 -0.431433,0.138428 z"
         id="path227" />
      <path
         style="display:inline;fill:#000000"
         d="m 92.485261,51.697419 c -0.506996,-0.145811 -0.803563,-0.376367 -0.77039,-0.598915 0.02412,-0.161837 0.215198,-0.244586 1.099214,-0.476038 1.507297,-0.394638 1.559778,-0.394717 1.541802,-0.0023 -0.01838,0.401271 -0.247961,0.755629 -0.647302,0.999123 -0.335137,0.204346 -0.702856,0.227838 -1.223324,0.07815 z"
         id="path226" />
      <g
         id="g153"
         inkscape:label="stippen_color"
         style="display:inline">
        <g
           id="g155"
           inkscape:label="dark">
          <circle
             style="fill:#cc6200;fill-opacity:1;stroke-width:0.348212"
             id="circle112"
             cx="98.130928"
             cy="52.713837"
             r="0.32352409" />
          <circle
             style="fill:#cc6200;fill-opacity:1;stroke-width:0.348212"
             id="circle113"
             cx="99.542274"
             cy="52.181858"
             r="0.32352409" />
          <circle
             style="fill:#cc6200;fill-opacity:1;stroke-width:0.348212"
             id="circle114"
             cx="100.86519"
             cy="53.504772"
             r="0.32352409" />
          <circle
             style="fill:#cc6200;fill-opacity:1;stroke-width:0.348212"
             id="circle115"
             cx="100.69199"
             cy="55.193806"
             r="0.32352409" />
          <circle
             style="fill:#cc6200;fill-opacity:1;stroke-width:0.348212"
             id="circle116"
             cx="100.47936"
             cy="48.849781"
             r="0.32352409" />
          <circle
             style="fill:#cc6200;fill-opacity:1;stroke-width:0.348212"
             id="circle117"
             cx="98.512009"
             cy="47.238388"
             r="0.32352409" />
          <circle
             style="fill:#cc6200;fill-opacity:1;stroke-width:0.348212"
             id="circle118"
             cx="98.531723"
             cy="43.967831"
             r="0.32352409" />
          <circle
             style="fill:#cc6200;fill-opacity:1;stroke-width:0.348212"
             id="circle119"
             cx="102.79074"
             cy="48.304489"
             r="0.32352409" />
          <circle
             style="fill:#cc6200;fill-opacity:1;stroke-width:0.348212"
             id="circle120"
             cx="103.33781"
             cy="45.382126"
             r="0.32352409" />
          <circle
             style="fill:#cc6200;fill-opacity:1;stroke-width:0.348212"
             id="circle121"
             cx="104.83394"
             cy="47.075336"
             r="0.32352409" />
          <circle
             style="fill:#cc6200;fill-opacity:1;stroke-width:0.348212"
             id="circle122"
             cx="104.03004"
             cy="49.80658"
             r="0.32352409" />
          <circle
             style="fill:#cc6200;fill-opacity:1;stroke-width:0.348212"
             id="circle123"
             cx="102.71728"
             cy="52.181858"
             r="0.32352409" />
          <circle
             style="fill:#cc6200;fill-opacity:1;stroke-width:0.348212"
             id="circle124"
             cx="103.98047"
             cy="53.132683"
             r="0.32352409" />
          <circle
             style="fill:#cc6200;fill-opacity:1;stroke-width:0.348212"
             id="circle125"
             cx="98.973091"
             cy="56.278576"
             r="0.32352409" />
          <circle
             style="fill:#cc6200;fill-opacity:1;stroke-width:0.348212"
             id="circle126"
             cx="97.385597"
             cy="57.137268"
             r="0.32352409" />
          <circle
             style="fill:#cc6200;fill-opacity:1;stroke-width:0.348212"
             id="circle127"
             cx="84.932259"
             cy="47.059216"
             r="0.32352409" />
          <circle
             style="fill:#cc6200;fill-opacity:1;stroke-width:0.348212"
             id="circle128"
             cx="87.196442"
             cy="43.655464"
             r="0.32352409" />
          <circle
             style="fill:#cc6200;fill-opacity:1;stroke-width:0.348212"
             id="circle129"
             cx="87.373238"
             cy="41.817402"
             r="0.32352409" />
          <circle
             style="fill:#cc6200;fill-opacity:1;stroke-width:0.348212"
             id="circle130"
             cx="83.930061"
             cy="43.770737"
             r="0.32352409" />
          <circle
             style="fill:#cc6200;fill-opacity:1;stroke-width:0.348212"
             id="circle131"
             cx="81.566734"
             cy="44.719772"
             r="0.32352409" />
          <circle
             style="fill:#cc6200;fill-opacity:1;stroke-width:0.348212"
             id="circle132"
             cx="82.139496"
             cy="46.404625"
             r="0.32352409" />
          <circle
             style="fill:#cc6200;fill-opacity:1;stroke-width:0.348212"
             id="circle133"
             cx="80.321457"
             cy="47.936581"
             r="0.32352409" />
          <circle
             style="fill:#cc6200;fill-opacity:1;stroke-width:0.348212"
             id="circle134"
             cx="82.296577"
             cy="50.228241"
             r="0.32352409" />
          <circle
             style="fill:#cc6200;fill-opacity:1;stroke-width:0.348212"
             id="circle135"
             cx="80.07061"
             cy="52.195599"
             r="0.32352409" />
        </g>
        <g
           id="g154"
           inkscape:label="bright">
          <circle
             style="fill:#ff9c4d;fill-opacity:1;stroke-width:0.348212"
             id="circle136"
             cx="82.930779"
             cy="53.246201"
             r="0.32352409" />
          <circle
             style="fill:#ff9c4d;fill-opacity:1;stroke-width:0.348212"
             id="circle137"
             cx="85.718246"
             cy="53.427132"
             r="0.32352409" />
          <circle
             style="fill:#ff9c4d;fill-opacity:1;stroke-width:0.348212"
             id="circle138"
             cx="80.19783"
             cy="55.064205"
             r="0.32352409" />
          <circle
             style="fill:#ff9c4d;fill-opacity:1;stroke-width:0.348212"
             id="circle139"
             cx="79.330612"
             cy="49.985752"
             r="0.32352409" />
          <circle
             style="fill:#ff9c4d;fill-opacity:1;stroke-width:0.348212"
             id="circle140"
             cx="82.511589"
             cy="48.760193"
             r="0.32352409" />
          <circle
             style="fill:#ff9c4d;fill-opacity:1;stroke-width:0.348212"
             id="circle141"
             cx="80.167969"
             cy="46.667416"
             r="0.32352409" />
          <circle
             style="fill:#ff9c4d;fill-opacity:1;stroke-width:0.348212"
             id="circle142"
             cx="84.82296"
             cy="44.461163"
             r="0.32352409" />
          <circle
             style="fill:#ff9c4d;fill-opacity:1;stroke-width:0.348212"
             id="circle143"
             cx="91.604774"
             cy="44.413383"
             r="0.32352409" />
          <circle
             style="fill:#ff9c4d;fill-opacity:1;stroke-width:0.348212"
             id="circle144"
             cx="92.675056"
             cy="40.679352"
             r="0.32352409" />
          <circle
             style="fill:#ff9c4d;fill-opacity:1;stroke-width:0.348212"
             id="circle145"
             cx="94.648384"
             cy="42.465736"
             r="0.32352409" />
          <circle
             style="fill:#ff9c4d;fill-opacity:1;stroke-width:0.348212"
             id="circle146"
             cx="95.573524"
             cy="48.742275"
             r="0.32352409" />
          <circle
             style="fill:#ff9c4d;fill-opacity:1;stroke-width:0.348212"
             id="circle147"
             cx="93.47477"
             cy="53.019207"
             r="0.32352409" />
          <circle
             style="fill:#ff9c4d;fill-opacity:1;stroke-width:0.348212"
             id="circle148"
             cx="89.812416"
             cy="52.547974"
             r="0.32352409" />
          <circle
             style="fill:#ff9c4d;fill-opacity:1;stroke-width:0.348212"
             id="circle149"
             cx="87.395325"
             cy="49.392681"
             r="0.32352409" />
          <circle
             style="fill:#ff9c4d;fill-opacity:1;stroke-width:0.348212"
             id="circle150"
             cx="86.38298"
             cy="56.836853"
             r="0.32352409" />
          <circle
             style="fill:#ff9c4d;fill-opacity:1;stroke-width:0.348212"
             id="circle151"
             cx="91.809631"
             cy="57.262691"
             r="0.32352409" />
          <circle
             style="fill:#ff9c4d;fill-opacity:1;stroke-width:0.348212"
             id="circle152"
             cx="94.75589"
             cy="56.037132"
             r="0.32352409" />
          <circle
             style="fill:#ff9c4d;fill-opacity:1;stroke-width:0.348212"
             id="circle153"
             cx="101.48992"
             cy="46.685333"
             r="0.32352409" />
        </g>
      </g>
    </g>
  </g>
</svg>
