<svg width="200.4mm" height="85.46mm" version="1.1" viewBox="0 0 200.4 85.46" xmlns="http://www.w3.org/2000/svg"><g transform="translate(-2.529 -2.038)" fill="none" stroke-linecap="round"><g stroke="#5ab22e"><path transform="translate(-2.704 -1.808)" d="m148.9 54c4.56-7 9.12-14 12.5-15.33s5.596 3 7.807 7.333"/><path transform="translate(-2.704 -1.808)" d="m137.7 54c3.112-9.999 6.223-20 8.099-20 1.876-1e-6 2.516 9.998 3.157 20"/><path transform="translate(-2.704 -1.808)" d="m124.8 54c3.406-12 6.811-24 8.958-24s3.035 12 3.924 24"/><path transform="translate(-2.704 -1.808)" d="m107.3 54c3.765-15.19 7.53-30.37 10.44-30.37s4.953 15.19 6.999 30.37"/></g><path transform="translate(-2.704 7.187)" d="m97.2 45c1.787-20.33 3.573-40.67 5.265-40.67s3.288 20.33 4.884 40.67" stroke="#e8294a"/><g stroke="#f7c948"><path transform="translate(-2.704 7.187)" d="m80 45c2.87-15 5.74-30 8.607-30s5.729 15 8.592 30"/><path transform="translate(-2.704 7.187)" d="m67.14 45c2.62-11.67 5.239-23.33 7.383-23.33 2.143 0 3.81 11.67 5.477 23.33"/><path transform="translate(-2.704 7.187)" d="m56.06 45c2.089-10 4.179-20 6.026-20 1.847 1e-4 3.452 10 5.057 20"/><path transform="translate(-1.646 6.187)" d="m40 38c5-4.333 10-8.667 12.5-7.333s2.5 8.333 2.5 15.33"/></g></g><g transform="translate(-2.529 -2.038)"><rect x="2.529" y="44.19" width="46" height="8" fill="#a3a3a3"/><rect x="157" y="44.19" width="46" height="8" fill="#a3a3a3"/><g fill="#f7c948" stroke-linecap="round"><path d="m59.17 28.24q-0.2352 0-0.3293-0.09407-0.09407-0.09407-0.09407-0.334v-2.451q0-0.2352 0.09407-0.3293 0.09407-0.09407 0.334-0.09407 0.2352 0 0.3293 0.09878 0.09407 0.09407 0.09407 0.334v2.446q0 0.2352-0.09407 0.3293-0.09407 0.09407-0.334 0.09407zm-0.4704-1.976q-0.1599 0.1411-0.2916 0.1364-0.127-0.0047-0.2775-0.1646-0.1552-0.1646-0.1458-0.3104 0.0094-0.1458 0.1976-0.3104l0.5974-0.5362q0.1552-0.1411 0.2869-0.127 0.1364 0.0094 0.2822 0.1693 0.1505 0.1599 0.1364 0.3057-0.0094 0.1411-0.1976 0.3104z" aria-label="1"/><path d="m70.76 24.91q-0.174 0-0.301-0.1317-0.127-0.1317-0.127-0.3057 0-0.08937 0.01882-0.1693 0.02352-0.07996 0.06115-0.1505 0.03763-0.07526 0.08937-0.1364 0.1223-0.1552 0.301-0.2822 0.1787-0.127 0.3716-0.2399 0.1929-0.1129 0.3622-0.2258 0.1693-0.1129 0.2728-0.2446 0.1082-0.1317 0.1082-0.2916 0-0.04704-0.02352-0.1176-0.01882-0.07526-0.09407-0.1317-0.07526-0.06115-0.2399-0.06115-0.09878 0-0.1693 0.02822-0.07056 0.02352-0.1129 0.07526-0.04233 0.04704-0.06585 0.1223-0.01882 0.07056-0.01882 0.1646 0 0.09878-0.01881 0.1929-0.01882 0.08937-0.1082 0.1505-0.08937 0.05644-0.3057 0.05644-0.2117 0-0.301-0.06115-0.08937-0.06585-0.1082-0.1646-0.01882-0.1035-0.01882-0.207 0-0.2164 0.07996-0.4327 0.08467-0.2164 0.2446-0.3904 0.1599-0.1787 0.3857-0.2869t0.5127-0.1082q0.3434 0 0.6209 0.1693 0.2775 0.1646 0.4421 0.4469 0.1646 0.2775 0.1646 0.6256 0 0.2305-0.07526 0.4186t-0.1976 0.3387q-0.1176 0.1458-0.254 0.254-0.1364 0.1035-0.2634 0.174-0.127 0.06585-0.2117 0.09878-0.08467 0.03293-0.1035 0.03293l0.04704-0.07526h0.7432q0.1082 0 0.207 0.01882 0.09878 0.01882 0.1599 0.1129 0.06115 0.08937 0.06115 0.3057 0 0.207-0.06585 0.301-0.06115 0.08937-0.1646 0.1082-0.09878 0.01882-0.207 0.01882z" aria-label="2"/><path d="m85.71 17.73q-0.254 0-0.4798-0.08467-0.2258-0.08467-0.4045-0.2305-0.174-0.1505-0.2728-0.3387-0.09878-0.1929-0.09878-0.3998 0-0.2963 0.4704-0.2963 0.1317 0 0.1976 0.02352 0.07056 0.02352 0.1129 0.08467 0.04233 0.05644 0.08467 0.1646 0 0 0.02822 0.06115 0.03293 0.05645 0.1176 0.1176 0.08467 0.05644 0.2493 0.05644 0.127 0 0.2164-0.03293t0.1364-0.09407q0.05174-0.06115 0.05174-0.1411 0-0.09407-0.04704-0.1552-0.04704-0.06115-0.127-0.08937t-0.1881-0.02822q-0.1035 0-0.2023-0.01411-0.09878-0.01411-0.1646-0.09878-0.06115-0.08467-0.06115-0.2963 0-0.2164 0.06115-0.2963 0.06585-0.08467 0.1646-0.09407 0.1035-0.01411 0.207-0.01411 0.09407 0 0.1552-0.0094 0.06585-0.01411 0.09878-0.04704t0.03293-0.09407q0-0.07056-0.03763-0.1176-0.03293-0.05174-0.09878-0.07526-0.06585-0.02822-0.1552-0.02822-0.1129 0-0.1787 0.02822-0.06585 0.02822-0.1035 0.07526-0.03293 0.04233-0.05644 0.08467-0.08937 0.1976-0.2399 0.2399-0.1458 0.03763-0.3528-0.07526-0.2023-0.1223-0.2305-0.2587-0.02822-0.1364 0.06585-0.3246 0 0.0047 0.02352-0.05174 0.02822-0.06115 0.09878-0.1505 0.07056-0.08937 0.1881-0.1787 0.1176-0.09407 0.301-0.1552 0.1834-0.06115 0.4374-0.06115 0.2963 0 0.5174 0.09407 0.2258 0.09407 0.3763 0.2446 0.1552 0.1505 0.2305 0.334 0.07996 0.1787 0.07996 0.3575 0 0.174-0.06115 0.2963-0.05644 0.1176-0.1364 0.1881-0.07526 0.06585-0.127 0.09407 0.04233 0.02822 0.1082 0.08467 0.06585 0.05174 0.127 0.1364 0.06585 0.08467 0.1082 0.1976 0.04704 0.1082 0.04704 0.2493 0 0.3246-0.1646 0.5786-0.1646 0.2493-0.4516 0.3951-0.2869 0.1458-0.6538 0.1458z" aria-label="3"/></g><path d="m85.51 6.215q-0.2427 0-0.4346-0.0508-0.1863-0.0508-0.3217-0.1185-0.1298-0.07338-0.2145-0.1298-0.07902-0.06209-0.1072-0.08467-0.07902-0.06209-0.1355-0.1298-0.0508-0.06773-0.0508-0.158 0-0.07338 0.03951-0.1524 0.03951-0.07902 0.1298-0.1693 0.07338-0.08467 0.1468-0.1242 0.07338-0.04516 0.1468-0.04516 0.06773 0 0.1411 0.03387 0.07338 0.03387 0.1806 0.1242 0.02258 0.01693 0.06773 0.0508 0.0508 0.03387 0.1355 0.06209 0.09031 0.02822 0.2371 0.02822 0.158 0 0.2653-0.05644 0.1129-0.05644 0.175-0.158 0.06209-0.1072 0.06209-0.254 0-0.1355-0.06773-0.2427-0.06209-0.1072-0.1693-0.1637-0.1072-0.06209-0.2427-0.06209-0.07902 0-0.1411 0.01693-0.06209 0.01693-0.1072 0.04516-0.03951 0.02822-0.06209 0.0508-0.0508 0.04516-0.1129 0.08467-0.05644 0.03387-0.1468 0.03387-0.07338 0.00564-0.1524-0.01129-0.07902-0.02258-0.175-0.07338-0.1524-0.07902-0.2145-0.1411-0.06209-0.06209-0.06209-0.1468l0.2201-1.643q0.01129-0.07902 0.03951-0.1806t0.1129-0.175q0.09031-0.07902 0.2766-0.07902l1.349 0.00564q0.1129 0 0.2088 0.02258 0.09596 0.02258 0.1524 0.1129 0.06209 0.09031 0.06209 0.3048 0 0.1976-0.05645 0.2879-0.05644 0.08467-0.1524 0.1016-0.09031 0.01693-0.1919 0.01693h-0.9934l-0.07902 0.5701q0.03387-0.02258 0.07338-0.03387t0.07902-0.01693q0.03951-0.01129 0.07902-0.01129h0.03387q0.254 0 0.4854 0.1016 0.2371 0.1016 0.4177 0.2822 0.1863 0.1806 0.2935 0.412 0.1072 0.2314 0.1072 0.4911 0 0.3895-0.175 0.6999-0.175 0.3104-0.4798 0.4911-0.2992 0.1806-0.6717 0.1806zm4.132-2.766q0.1242 0.1185 0.158 0.2145 0.03951 0.09031 0 0.1863-0.03951 0.09031-0.158 0.2145l-1.795 1.942q-0.1072 0.1129-0.1976 0.1524-0.09031 0.04516-0.1863 0.01129-0.09031-0.03387-0.2088-0.1468-0.1185-0.1185-0.158-0.2088-0.03387-0.09596 0.0056-0.1863 0.04515-0.09596 0.1524-0.2088l1.795-1.947q0.175-0.175 0.2935-0.1806 0.1242-0.01129 0.2992 0.158zm-2.388 0q0.1185-0.1129 0.2088-0.1468 0.09596-0.03387 0.1863 0.01129 0.09031 0.03951 0.1976 0.158l1.795 1.947q0.1129 0.1185 0.1524 0.2088 0.04516 0.09031 0.01129 0.1863-0.03387 0.09031-0.1637 0.2088-0.1185 0.1129-0.2088 0.1468-0.09031 0.03387-0.1806-0.01129-0.08467-0.03951-0.2032-0.1524l-1.795-1.942q-0.1129-0.1185-0.1524-0.2088-0.03951-0.09596-0.0056-0.1919 0.03951-0.09596 0.158-0.2145zm4.741 2.704q-0.2032 0-0.2935-0.05644-0.09031-0.06209-0.1129-0.1637-0.01693-0.1016-0.01693-0.2088v-3.088q0-0.2484 0.09596-0.3387t0.3443-0.09031h2.134q0.1129 0 0.2088 0.02258 0.09595 0.01693 0.158 0.1072 0.06209 0.09031 0.06209 0.3048 0 0.2032-0.06209 0.2935t-0.1637 0.1129q-0.09596 0.01693-0.2088 0.01693h-1.71v0.7281h1.163q0.1129 0 0.1976 0.01693 0.09031 0.01693 0.1411 0.09596 0.0508 0.07902 0.0508 0.2653 0 0.175-0.0508 0.254-0.0508 0.07902-0.1411 0.09596-0.09031 0.01693-0.2088 0.01693h-1.151v0.7564h1.716q0.1129 0 0.2088 0.02258 0.09595 0.02258 0.158 0.1129 0.06209 0.08467 0.06209 0.2992 0 0.2032-0.06209 0.2935-0.06209 0.09031-0.1637 0.1072-0.09596 0.02258-0.2088 0.02258zm4.047 0q-0.2314 0-0.412-0.02822-0.175-0.02258-0.3048-0.09031-0.1242-0.06773-0.2032-0.1863-0.07902-0.1185-0.1185-0.3048-0.03387-0.1919-0.03387-0.4685v-2.608q0-0.1129 0.01693-0.2088 0.02258-0.09596 0.1129-0.158 0.09031-0.06209 0.2935-0.06209 0.2032 0 0.2879 0.06209 0.09031 0.06209 0.1129 0.158 0.02258 0.09596 0.02258 0.2088v2.568q0 0.09031 0.0056 0.1524 0.01129 0.05644 0.03387 0.09031 0.02822 0.03387 0.07338 0.04516 0.04516 0.01129 0.1185 0.01129 0.06773 0 0.1355 0.01693 0.07338 0.01693 0.1242 0.1016 0.0508 0.08467 0.0508 0.2822 0 0.2032-0.0508 0.2935t-0.1242 0.1072q-0.06773 0.01693-0.1411 0.01693zm2.015 0.0508q-0.3951 0-0.683-0.1298-0.2822-0.1298-0.4628-0.3387-0.1806-0.2145-0.2709-0.4741-0.08467-0.2596-0.08467-0.5193 0-0.4233 0.1919-0.7507 0.1919-0.3274 0.5306-0.5136 0.3387-0.1919 0.7789-0.1919 0.3274 0 0.5644 0.1072 0.2427 0.1016 0.3951 0.2709 0.158 0.1637 0.2314 0.3556 0.07902 0.1919 0.07902 0.3669 0 0.3104-0.1524 0.4628-0.1468 0.1468-0.3782 0.1468h-1.343q0.01129 0.1468 0.1016 0.2484 0.09596 0.1016 0.2371 0.158 0.1411 0.05644 0.2992 0.05644 0.1355 0 0.2371-0.01129 0.1016-0.01693 0.175-0.03951 0.07338-0.02822 0.1355-0.0508 0.06209-0.02822 0.1072-0.04516 0.0508-0.01693 0.09596-0.02258 0.08467-0.00564 0.1524 0.0508 0.07338 0.0508 0.1298 0.158 0.03951 0.06209 0.0508 0.1185 0.01693 0.05644 0.01693 0.1129 0 0.1355-0.1411 0.2427-0.1355 0.1072-0.3895 0.1693-0.2484 0.06209-0.604 0.06209zm-0.604-1.671h0.8918q0.09031 0 0.1298-0.02822 0.04515-0.03387 0.04515-0.1242 0-0.1016-0.06209-0.175-0.06209-0.07902-0.1693-0.1185-0.1016-0.04516-0.2371-0.04516-0.175 0-0.3104 0.06773-0.1355 0.06773-0.2145 0.1806-0.07338 0.1129-0.07338 0.2427zm2.647 1.62q-0.2032 0-0.2935-0.06209-0.09031-0.06209-0.1072-0.158-0.01693-0.09596-0.01693-0.2088v-1.976q0-0.1129 0.01693-0.2032 0.02258-0.09596 0.1129-0.1524 0.09031-0.06209 0.2992-0.06209 0.2088 0 0.3048 0.08467 0.096 0.07902 0.096 0.2653l-0.0734 0.06209q0.0113-0.02822 0.0677-0.09596 0.0564-0.06773 0.1468-0.1411 0.0903-0.07338 0.2088-0.1242 0.1242-0.05644 0.2653-0.05644 0.1863 0 0.333 0.05644 0.1524 0.0508 0.2709 0.158 0.1242 0.1016 0.2145 0.2596 0.079-0.1129 0.1919-0.2201 0.1129-0.1072 0.2653-0.1806 0.158-0.07338 0.35-0.07338 0.3274 0 0.5532 0.1693 0.2314 0.1637 0.35 0.4741t0.1185 0.7507v1.01q0 0.1072-0.0226 0.2088-0.0169 0.09596-0.1072 0.158-0.0903 0.05644-0.2992 0.05644t-0.2992-0.06209q-0.0847-0.06209-0.1072-0.158-0.0169-0.1016-0.0169-0.2088v-1.01q0-0.175-0.0395-0.2935-0.0395-0.1185-0.1242-0.1806-0.079-0.06773-0.2032-0.06773-0.1298 0-0.2201 0.06209-0.0903 0.05644-0.1355 0.1806-0.0452 0.1185-0.0452 0.3048v1.01q0 0.1129-0.0282 0.2145-0.0282 0.09596-0.1242 0.158-0.0903 0.05644-0.2935 0.0508-0.2032-0.00564-0.2879-0.06773-0.0847-0.06209-0.1016-0.158-0.0169-0.1016-0.0169-0.2032v-1.01q0-0.175-0.0395-0.2935-0.0395-0.1242-0.1185-0.1863-0.079-0.06209-0.2088-0.06209-0.1411 0-0.2314 0.07338-0.0903 0.07338-0.1355 0.1976-0.0395 0.1185-0.0395 0.2709v1.016q0 0.1129-0.0226 0.2088-0.0169 0.09596-0.1072 0.158-0.0903 0.05644-0.2992 0.05644zm5.52 0.0508q-0.3951 0-0.683-0.1298-0.2822-0.1298-0.4628-0.3387-0.1806-0.2145-0.2709-0.4741-0.0847-0.2596-0.0847-0.5193 0-0.4233 0.1919-0.7507 0.1919-0.3274 0.5306-0.5136 0.3387-0.1919 0.7789-0.1919 0.3274 0 0.5644 0.1072 0.2427 0.1016 0.3951 0.2709 0.158 0.1637 0.2314 0.3556 0.079 0.1919 0.079 0.3669 0 0.3104-0.1524 0.4628-0.1468 0.1468-0.3782 0.1468h-1.343q0.0113 0.1468 0.1016 0.2484 0.096 0.1016 0.2371 0.158 0.1411 0.05644 0.2992 0.05644 0.1355 0 0.2371-0.01129 0.1016-0.01693 0.175-0.03951 0.0734-0.02822 0.1355-0.0508 0.0621-0.02822 0.1072-0.04516 0.0508-0.01693 0.096-0.02258 0.0847-0.00564 0.1524 0.0508 0.0734 0.0508 0.1298 0.158 0.0395 0.06209 0.0508 0.1185 0.0169 0.05644 0.0169 0.1129 0 0.1355-0.1411 0.2427-0.1355 0.1072-0.3895 0.1693-0.2484 0.06209-0.604 0.06209zm-0.604-1.671h0.8918q0.0903 0 0.1298-0.02822 0.0452-0.03387 0.0452-0.1242 0-0.1016-0.0621-0.175-0.0621-0.07902-0.1693-0.1185-0.1016-0.04516-0.2371-0.04516-0.175 0-0.3104 0.06773-0.1355 0.06773-0.2145 0.1806-0.0734 0.1129-0.0734 0.2427zm2.659 1.614q-0.2088 0-0.2992-0.05644-0.0847-0.06209-0.1072-0.158-0.0169-0.1016-0.0169-0.2088v-1.987q0-0.1072 0.0226-0.1976 0.0226-0.09596 0.1072-0.1524 0.0903-0.05644 0.2992-0.05644 0.1806 0 0.2653 0.0508 0.0847 0.04516 0.1072 0.1129 0.0282 0.06773 0.0282 0.1298 0 0.05644 0.0113 0.07902l-0.0339 0.1072q0.0113-0.08467 0.0847-0.1693 0.079-0.09031 0.1919-0.158 0.1185-0.07338 0.2484-0.1129 0.1355-0.03951 0.2653-0.03951 0.2709 0 0.4798 0.1016 0.2145 0.09596 0.3612 0.2822 0.1468 0.1863 0.2201 0.4403 0.079 0.2484 0.079 0.5475v1.027q0 0.1072-0.0226 0.2088-0.0169 0.09596-0.1072 0.1524-0.0847 0.05644-0.2935 0.05644-0.2145 0-0.3048-0.05644-0.0847-0.06209-0.1072-0.158-0.0226-0.1016-0.0226-0.2088v-1.022q0-0.1693-0.0564-0.2879-0.0564-0.1185-0.1693-0.1806-0.1129-0.06773-0.2766-0.06773-0.1637 0-0.2822 0.06773-0.1185 0.06773-0.1863 0.1863-0.0621 0.1185-0.0621 0.2822v1.027q0 0.1072-0.0226 0.2088-0.0169 0.09596-0.1072 0.1524-0.0847 0.05644-0.2935 0.05644zm4.149 0.00564q-0.2879 0-0.4967-0.06209-0.2032-0.06209-0.3387-0.1919-0.1355-0.1298-0.2032-0.3274-0.0621-0.2032-0.0621-0.4798v-2.292q0-0.1129 0.0169-0.2032 0.0226-0.09031 0.1129-0.1468 0.0903-0.06209 0.2935-0.06209 0.2032 0 0.2935 0.06209 0.0903 0.06209 0.1072 0.158 0.0226 0.09596 0.0226 0.2088v2.241q0 0.09031 0.0113 0.1524 0.0169 0.05644 0.0452 0.08467 0.0282 0.02822 0.079 0.03951t0.1242 0.01129q0.1242 0 0.2201 0.02258 0.096 0.02258 0.1468 0.1016 0.0564 0.07902 0.0564 0.2653 0 0.2032-0.0621 0.2935t-0.1637 0.1072q-0.096 0.01693-0.2032 0.01693zm-1.276-2.777h0.6209l0.7789-0.02258q0.1072 0 0.2032 0.02258 0.096 0.01693 0.158 0.1072 0.0621 0.09031 0.0621 0.2992 0 0.1919-0.0621 0.2822-0.0564 0.09031-0.1524 0.1185-0.096 0.02258-0.2088 0.02258l-0.7394-0.01693h-0.683q-0.1637-0.00564-0.2314-0.09596-0.0621-0.09596-0.0621-0.3161 0-0.2032 0.079-0.2992 0.079-0.1016 0.2371-0.1016zm3.545 2.828q-0.3951 0-0.683-0.1298-0.2822-0.1298-0.4628-0.3387-0.1806-0.2145-0.2709-0.4741-0.0847-0.2596-0.0847-0.5193 0-0.4233 0.1919-0.7507 0.1919-0.3274 0.5306-0.5136 0.3387-0.1919 0.7789-0.1919 0.3274 0 0.5644 0.1072 0.2427 0.1016 0.3951 0.2709 0.158 0.1637 0.2314 0.3556 0.079 0.1919 0.079 0.3669 0 0.3104-0.1524 0.4628-0.1468 0.1468-0.3782 0.1468h-1.343q0.0113 0.1468 0.1016 0.2484 0.096 0.1016 0.2371 0.158 0.1411 0.05644 0.2992 0.05644 0.1355 0 0.2371-0.01129 0.1016-0.01693 0.175-0.03951 0.0734-0.02822 0.1355-0.0508 0.0621-0.02822 0.1072-0.04516 0.0508-0.01693 0.096-0.02258 0.0847-0.00564 0.1524 0.0508 0.0734 0.0508 0.1298 0.158 0.0395 0.06209 0.0508 0.1185 0.0169 0.05644 0.0169 0.1129 0 0.1355-0.1411 0.2427-0.1355 0.1072-0.3895 0.1693-0.2484 0.06209-0.604 0.06209zm-0.604-1.671h0.8918q0.0903 0 0.1298-0.02822 0.0452-0.03387 0.0452-0.1242 0-0.1016-0.0621-0.175-0.0621-0.07902-0.1693-0.1185-0.1016-0.04516-0.2371-0.04516-0.175 0-0.3104 0.06773-0.1355 0.06773-0.2145 0.1806-0.0734 0.1129-0.0734 0.2427z" fill="#e8294a" stroke-linecap="round" aria-label="5x Elemente"/><path d="m19.7 19.88q0.08467 0.1693 0.09031 0.2879 0.0056 0.1185-0.07338 0.2088-0.07902 0.09031-0.254 0.1806-0.2709 0.1298-0.4177 0.07902-0.1468-0.04516-0.2766-0.3217l-0.9596-1.964-0.9483 1.97q-0.1355 0.2653-0.2822 0.3104-0.1468 0.0508-0.412-0.07902-0.175-0.08467-0.2596-0.175-0.07902-0.09031-0.07338-0.2088 0.0056-0.1185 0.09031-0.2879l1.417-2.935q0.06773-0.1355 0.1976-0.2145 0.1355-0.08467 0.2766-0.08467 0.1016 0 0.1863 0.03951 0.09031 0.03387 0.1637 0.1016 0.07338 0.06773 0.1185 0.1637zm-2.783-0.1016 0.429-0.8805h0.9313l0.429 0.8805zm3.579 0.8128q-0.254 0-0.3612-0.07338-0.1072-0.07902-0.1298-0.1976-0.01693-0.1185-0.01693-0.2427v-1.857q0-0.1242 0.02258-0.2371 0.02258-0.1129 0.1298-0.1806 0.1072-0.07338 0.3612-0.07338 0.2314 0 0.333 0.06209 0.1072 0.05644 0.1355 0.1411 0.02822 0.08467 0.02258 0.158 0 0.06773 0.01129 0.08467l-0.04516 0.03387q-0.0056-0.08467 0.06209-0.1693 0.07338-0.08467 0.1863-0.1524 0.1185-0.07338 0.2484-0.1129 0.1355-0.04515 0.254-0.04515 0.2822 0 0.4967 0.1072 0.2145 0.1072 0.3556 0.3048 0.1468 0.1919 0.2201 0.4516 0.07338 0.2596 0.07338 0.5644v0.9257q0 0.1242-0.02258 0.2427t-0.1298 0.1919q-0.1016 0.07338-0.3612 0.07338t-0.3669-0.07338q-0.1072-0.07902-0.1298-0.1976-0.02258-0.1185-0.02258-0.2427v-0.92q0-0.1298-0.0508-0.2201-0.04516-0.09031-0.1355-0.1355-0.08467-0.0508-0.2145-0.0508-0.1242 0-0.2201 0.0508-0.09031 0.0508-0.1411 0.1411-0.0508 0.09031-0.0508 0.2145v0.9257q0 0.1242-0.02258 0.2427t-0.1298 0.1919q-0.1016 0.07338-0.3612 0.07338zm3.754 0.05644q-0.158 0-0.3556-0.03951-0.1919-0.03387-0.3782-0.1016-0.1806-0.07338-0.2992-0.1693-0.1185-0.09596-0.1185-0.2201 0-0.05644 0.02258-0.1242 0.02822-0.07338 0.07338-0.158 0.04516-0.08467 0.1129-0.1806 0.03951-0.05645 0.09031-0.08467 0.05645-0.02822 0.1298-0.02822 0.1016 0 0.1976 0.04516 0.09596 0.03951 0.1919 0.09596 0.09596 0.0508 0.1976 0.09596 0.1072 0.03951 0.2258 0.03951 0.1072 0 0.158-0.02258 0.05645-0.02258 0.05645-0.06773 0-0.04516-0.03951-0.07338-0.03387-0.02822-0.1016-0.04516-0.06209-0.02258-0.1468-0.03951-0.08467-0.01693-0.1806-0.03951-0.09596-0.02258-0.1976-0.05644-0.1298-0.03951-0.254-0.1016-0.1242-0.06773-0.2258-0.175-0.09596-0.1072-0.158-0.2596-0.05645-0.1524-0.05645-0.3725 0-0.2935 0.1355-0.4911 0.1355-0.1976 0.4008-0.2992 0.2653-0.1016 0.6548-0.1016 0.09596 0 0.1919 0.01129 0.09596 0.01129 0.1919 0.03387 0.1016 0.02258 0.1976 0.06209 0.1016 0.03387 0.2032 0.07902 0.2088 0.09031 0.2145 0.254 0.0056 0.158-0.1185 0.333-0.06773 0.1072-0.1411 0.1637-0.06773 0.0508-0.1411 0.0508-0.09031 0-0.1976-0.0508t-0.2258-0.1016-0.2371-0.0508q-0.06773 0-0.1185 0.01693-0.04516 0.01129-0.06773 0.03951-0.02258 0.02258-0.02258 0.05644 0 0.06209 0.03951 0.1016 0.04516 0.03387 0.1129 0.05645 0.07338 0.02258 0.1637 0.03951 0.09596 0.01693 0.2032 0.03387 0.1468 0.02258 0.2992 0.07338 0.158 0.04516 0.2879 0.1355 0.1298 0.09031 0.2088 0.2484 0.07902 0.158 0.07902 0.412 0 0.4798-0.3217 0.7281-0.3161 0.2484-0.937 0.2484zm3.037-0.1185q-0.2766 0-0.4798-0.1129-0.2032-0.1129-0.333-0.3048-0.1298-0.1976-0.1919-0.4459-0.06209-0.2484-0.05645-0.5249 0.0056-0.2709 0.06773-0.5249 0.06773-0.254 0.1976-0.4516 0.1298-0.1976 0.3274-0.3104 0.1976-0.1185 0.4685-0.1185 0.2484 0 0.4798 0.1185 0.2371 0.1185 0.4233 0.3217 0.1863 0.1976 0.2935 0.4516 0.1072 0.254 0.1072 0.5249 0 0.2822-0.1072 0.5362-0.1072 0.2484-0.2935 0.4403-0.1806 0.1863-0.4177 0.2935-0.2314 0.1072-0.4854 0.1072zm-1.044 1.264q-0.2484 0-0.3556-0.07338-0.1072-0.07338-0.1298-0.1863-0.01693-0.1129-0.01693-0.2371v-3.065q0-0.1242 0.01693-0.2371 0.02258-0.1129 0.1242-0.1863 0.1072-0.07902 0.3556-0.07902 0.1976 0 0.3274 0.05644 0.1298 0.0508 0.1863 0.1637v3.342q0.01129 0.1242-0.01693 0.2371-0.02258 0.1185-0.1298 0.1919-0.1072 0.07338-0.3612 0.07338zm0.9088-2.224q0.1129 0 0.2032-0.05644 0.09596-0.05645 0.1524-0.1468 0.05645-0.09596 0.05645-0.2032 0-0.1129-0.05645-0.2032-0.0508-0.09596-0.1468-0.1468-0.09031-0.05644-0.2032-0.05644-0.1129 0-0.2088 0.05644-0.09031 0.05645-0.1468 0.1468-0.0508 0.09031-0.0508 0.2032 0 0.1072 0.05645 0.2032 0.05644 0.09031 0.1468 0.1468 0.09031 0.05644 0.1976 0.05644zm2.173 1.027q-0.254 0-0.3612-0.07338-0.1072-0.07902-0.1298-0.1976-0.01693-0.1242-0.01693-0.2484v-1.84q0-0.1298 0.02258-0.2427 0.02258-0.1185 0.1298-0.1919 0.1072-0.07338 0.3612-0.07338 0.2484 0 0.35 0.06773 0.1072 0.06773 0.1298 0.1524 0.02258 0.07902 0.02258 0.1242l-0.09031-0.03387t0.04516-0.0508 0.1298-0.1185q0.09031-0.06773 0.2088-0.1185 0.1242-0.0508 0.2766-0.0508 0.0508 0 0.1242 0.01129 0.07902 0.0056 0.1637 0.02822 0.09031 0.02258 0.1637 0.06773 0.07902 0.04516 0.1242 0.1185 0.0508 0.07338 0.0508 0.1806 0 0.2822-0.1242 0.4798-0.1185 0.1976-0.3161 0.1976-0.1072 0-0.1524-0.01129-0.04516-0.01693-0.06773-0.02822-0.01693-0.01693-0.04516-0.02822-0.02258-0.01693-0.09031-0.01693-0.08467 0-0.158 0.02258-0.06773 0.01693-0.1242 0.05645-0.0508 0.03951-0.07902 0.09596-0.02822 0.0508-0.02822 0.1129v1.101q0 0.1242-0.02258 0.2427-0.02258 0.1185-0.1298 0.1919-0.1072 0.07338-0.3669 0.07338zm3.212-0.01129q-0.2709 0-0.508-0.1072-0.2314-0.1072-0.4064-0.2992-0.175-0.1976-0.2709-0.4572-0.09596-0.2596-0.09596-0.5644v-0.92q0-0.1298 0.02258-0.2427 0.02258-0.1185 0.1298-0.1919 0.1072-0.07902 0.3612-0.07902 0.2596 0 0.3612 0.07902 0.1072 0.07338 0.1298 0.1919 0.02258 0.1185 0.02258 0.2484v0.9144q0 0.1298 0.04516 0.2201 0.0508 0.09031 0.1411 0.1411 0.09596 0.04516 0.2201 0.04516 0.1242 0 0.2145-0.0508 0.09031-0.0508 0.1411-0.1411 0.0508-0.09031 0.0508-0.2145v-0.9257q0-0.1298 0.02258-0.2427 0.02258-0.1185 0.1298-0.1919 0.1072-0.07338 0.3612-0.07338 0.2596 0 0.3612 0.07902 0.1072 0.07338 0.1298 0.1919 0.02258 0.1185 0.02258 0.2427v1.857q0 0.1242-0.02258 0.2371-0.02258 0.1129-0.1298 0.1863-0.1072 0.07338-0.3612 0.07338-0.1863 0-0.2935-0.04516-0.1016-0.03951-0.1468-0.1016-0.04516-0.06773-0.05644-0.1298-0.0056-0.06773-0.0056-0.1129l0.09596 0.02822t-0.04516 0.05644q-0.04515 0.0508-0.1355 0.1242-0.08467 0.06773-0.2088 0.1242-0.1185 0.0508-0.2766 0.0508zm0.8749-3.11q-0.2596 0-0.3669-0.07338-0.1072-0.07902-0.1298-0.1976-0.02258-0.1242-0.02258-0.254t0.02258-0.2484q0.02258-0.1185 0.1298-0.1919 0.1129-0.07338 0.3725-0.07338 0.2596 0 0.3669 0.07902 0.1072 0.07338 0.1298 0.1976 0.02258 0.1185 0.02258 0.2484 0 0.1242-0.02258 0.2427t-0.1298 0.1976q-0.1072 0.07338-0.3725 0.07338zm-1.417 0q-0.2596 0-0.3669-0.07338-0.1072-0.07902-0.1298-0.1976-0.02258-0.1242-0.02258-0.254 0.0056-0.1298 0.02258-0.2484 0.02258-0.1185 0.1298-0.1919 0.1129-0.07338 0.3725-0.07338t0.3669 0.07902q0.1072 0.07338 0.1298 0.1976 0.02258 0.1185 0.02258 0.2484 0 0.1242-0.02258 0.2427t-0.1298 0.1976q-0.1072 0.07338-0.3725 0.07338zm2.975 3.116q-0.254 0-0.3612-0.07338-0.1072-0.07902-0.1298-0.1976-0.01693-0.1185-0.01693-0.2427v-1.857q0-0.1242 0.02258-0.2371 0.02258-0.1129 0.1298-0.1806 0.1072-0.07338 0.3612-0.07338 0.2314 0 0.333 0.06209 0.1072 0.05644 0.1355 0.1411 0.02822 0.08467 0.02258 0.158 0 0.06773 0.01129 0.08467l-0.04516 0.03387q-0.0056-0.08467 0.06209-0.1693 0.07338-0.08467 0.1863-0.1524 0.1185-0.07338 0.2484-0.1129 0.1355-0.04515 0.254-0.04515 0.2822 0 0.4967 0.1072t0.3556 0.3048q0.1468 0.1919 0.2201 0.4516 0.07338 0.2596 0.07338 0.5644v0.9257q0 0.1242-0.02258 0.2427t-0.1298 0.1919q-0.1016 0.07338-0.3612 0.07338-0.2596 0-0.3669-0.07338-0.1072-0.07902-0.1298-0.1976-0.02258-0.1185-0.02258-0.2427v-0.92q0-0.1298-0.0508-0.2201-0.04516-0.09031-0.1355-0.1355-0.08467-0.0508-0.2145-0.0508-0.1242 0-0.2201 0.0508-0.09031 0.0508-0.1411 0.1411-0.0508 0.09031-0.0508 0.2145v0.9257q0 0.1242-0.02258 0.2427t-0.1298 0.1919q-0.1016 0.07338-0.3612 0.07338zm4.013 1.197q-0.1976 0-0.4064-0.05644-0.2032-0.0508-0.3782-0.1411-0.175-0.09031-0.2822-0.1976-0.1072-0.1016-0.1072-0.2032 0-0.1129 0.03951-0.2088 0.04516-0.09596 0.1298-0.1863 0.09031-0.09596 0.158-0.1524 0.06773-0.05645 0.1637-0.05645 0.08467 0 0.1468 0.03951 0.06773 0.03951 0.1355 0.08467 0.06773 0.0508 0.1637 0.09031 0.1016 0.03951 0.254 0.03951 0.08467 0 0.158-0.03951 0.07338-0.03387 0.1242-0.1016 0.05644-0.06209 0.09031-0.1524 0.03387-0.08467 0.03387-0.1863v-2.326q0.02258-0.1693 0.1411-0.2427 0.1185-0.07338 0.3612-0.07338 0.2484 0 0.35 0.07338 0.1016 0.07338 0.1185 0.1919 0.02258 0.1129 0.02258 0.2371v2.173q0 0.333-0.1298 0.5927-0.1242 0.2596-0.333 0.4346-0.2088 0.1806-0.4572 0.2709-0.2484 0.09596-0.4967 0.09596zm-0.1411-1.276q-0.2484 0-0.4798-0.1129-0.2258-0.1129-0.4064-0.3104-0.1806-0.1976-0.2879-0.4459-0.1016-0.254-0.1016-0.5306 0-0.2653 0.1016-0.5136 0.1072-0.2484 0.2879-0.4403 0.1863-0.1976 0.412-0.3104 0.2314-0.1185 0.4741-0.1185 0.2484 0 0.4064 0.1016 0.1637 0.1016 0.254 0.2879 0.09595 0.1863 0.1355 0.4459 0.03951 0.254 0.03951 0.5644 0 0.429-0.07338 0.7394-0.06773 0.3104-0.2484 0.4798-0.1806 0.1637-0.5136 0.1637zm0.1355-0.9934q0.1072 0 0.1919-0.05644 0.09031-0.05645 0.1411-0.1468 0.05644-0.09031 0.05644-0.1919 0-0.1129-0.05644-0.2032-0.0508-0.09031-0.1411-0.1411-0.09031-0.05645-0.2032-0.05645-0.1072 0-0.1976 0.05645-0.09031 0.05644-0.1468 0.1468-0.0508 0.09031-0.0508 0.1976 0 0.1016 0.05644 0.1919 0.05645 0.09031 0.1468 0.1468 0.09595 0.05644 0.2032 0.05644zm3.217 1.14q-0.4233 0-0.7168-0.1355-0.2935-0.1411-0.4741-0.3612-0.1806-0.2258-0.2653-0.4854-0.08467-0.2596-0.08467-0.5024 0-0.4459 0.1976-0.7846 0.1976-0.3387 0.5475-0.5306 0.35-0.1919 0.8015-0.1919 0.35 0 0.5983 0.1129 0.2484 0.1129 0.4008 0.2879 0.158 0.175 0.2314 0.3725 0.07338 0.1976 0.07338 0.3669 0 0.3217-0.158 0.4911-0.158 0.1693-0.4064 0.1693h-1.202q0.02258 0.09031 0.09031 0.158 0.07338 0.06209 0.1806 0.1016 0.1072 0.03387 0.2314 0.03387 0.1242 0 0.2201-0.01129 0.09596-0.01693 0.1637-0.03951 0.07338-0.02258 0.1298-0.04516 0.06209-0.02258 0.1072-0.03387 0.0508-0.01693 0.09596-0.01693 0.1016 0 0.1863 0.06773 0.08467 0.06773 0.1524 0.2032 0.03951 0.07338 0.05644 0.1411 0.01693 0.06209 0.01693 0.1185 0 0.1693-0.1411 0.2822-0.1355 0.1129-0.3951 0.1693-0.2596 0.06209-0.6378 0.06209zm-0.4572-1.722h0.6322q0.07902 0 0.1129-0.03387 0.03951-0.03387 0.03951-0.1016 0-0.07338-0.04516-0.1242-0.03951-0.0508-0.1129-0.07338-0.07338-0.02822-0.175-0.02822-0.1355 0-0.2371 0.05644-0.1016 0.0508-0.158 0.1355-0.0508 0.07902-0.05644 0.1693z" fill="#f7c948" stroke-linecap="round" aria-label="Ansprünge"/><g fill="#5ab22e" stroke-linecap="round"><path d="m161.7 20.6q-0.2484 0-0.3556-0.07338-0.1072-0.07902-0.1298-0.1976-0.0226-0.1185-0.0226-0.2484v-2.929q0-0.1242 0.0226-0.2371t0.1298-0.1863q0.1129-0.07338 0.3669-0.07338 0.2484 0 0.3387 0.06209 0.0903 0.06209 0.1637 0.158l1.411 1.897v-1.62q0-0.1242 0.0226-0.2371 0.0282-0.1129 0.1355-0.1863 0.1072-0.07338 0.3612-0.07338 0.2596 0 0.3612 0.07902 0.1072 0.07338 0.1298 0.1919 0.0226 0.1185 0.0226 0.2484v2.913q0 0.1242-0.0226 0.2427t-0.1298 0.1976q-0.1072 0.07338-0.3669 0.07338-0.1919 0-0.2935-0.03387-0.0959-0.02822-0.1637-0.1185l-1.462-1.93v1.569q0 0.1242-0.0226 0.2427t-0.1298 0.1976q-0.1072 0.07338-0.3669 0.07338zm5.577-0.01129q-0.254 0-0.3782-0.08467-0.1185-0.08467-0.1129-0.1919h0.079q-0.0282 0.03951-0.1129 0.1072-0.079 0.06209-0.2145 0.1185-0.1355 0.0508-0.333 0.0508-0.254 0-0.4911-0.1129-0.2314-0.1185-0.4177-0.3217-0.1806-0.2032-0.2879-0.4572-0.1072-0.2596-0.1072-0.5419 0-0.2766 0.1072-0.5306 0.1072-0.254 0.2935-0.4516 0.1863-0.2032 0.4177-0.3161 0.2314-0.1185 0.4854-0.1185 0.1919 0 0.3217 0.05645 0.1355 0.05644 0.2145 0.1242 0.0847 0.06773 0.1129 0.1129h-0.0621q-6e-3 -0.1411 0.1129-0.2201 0.1242-0.07902 0.3782-0.07902t0.3556 0.07902q0.1072 0.07338 0.1298 0.1919 0.0226 0.1185 0.0226 0.2427v1.834q0 0.1242-0.0226 0.2427t-0.1298 0.1919q-0.1016 0.07338-0.3612 0.07338zm-0.9313-1.022q0.1072 0 0.1919-0.05644 0.0903-0.05644 0.1411-0.1468 0.0564-0.09596 0.0564-0.2032 0-0.1129-0.0564-0.2032-0.0508-0.09031-0.1411-0.1468-0.0903-0.05645-0.2032-0.05645-0.1129 0-0.2088 0.05645-0.0903 0.05644-0.1468 0.1524-0.0564 0.09031-0.0564 0.2032 0 0.1072 0.0564 0.1976 0.0621 0.09031 0.158 0.1468 0.0959 0.05644 0.2088 0.05644zm3.234 1.061q-0.2314 0-0.4911-0.09031-0.254-0.09596-0.4798-0.2766-0.2258-0.1863-0.3669-0.4628-0.1411-0.2766-0.1411-0.6435 0-0.3612 0.1411-0.6322 0.1411-0.2766 0.3612-0.4572 0.2258-0.1806 0.4798-0.2709 0.2596-0.09596 0.4854-0.09596 0.2145 0 0.3725 0.04516 0.158 0.04516 0.2596 0.1016 0.1016 0.0508 0.1468 0.07902 0.1129 0.06773 0.2088 0.158 0.1016 0.08467 0.1016 0.2314 0 0.07338-0.0282 0.1524-0.0282 0.07338-0.0903 0.1693-0.2032 0.3104-0.4064 0.3104-0.0903 0-0.158-0.02822-0.0677-0.03387-0.1242-0.07338-0.0564-0.03951-0.1242-0.06773-0.0621-0.03387-0.158-0.03387-0.1129 0-0.2088 0.05644-0.096 0.05644-0.1524 0.1524-0.0565 0.09031-0.0565 0.2088 0 0.1185 0.0565 0.2145 0.0564 0.09596 0.1468 0.1524 0.096 0.05644 0.2032 0.05644 0.079 0 0.1298-0.01693 0.0564-0.01693 0.0847-0.03387 0.0282-0.02258 0.0339-0.02258 0.079-0.04516 0.1468-0.08467 0.0734-0.03951 0.1468-0.03951 0.0959 0 0.1976 0.07338 0.1016 0.06773 0.2258 0.2258 0.1185 0.1468 0.1298 0.2766 0.0169 0.1242-0.0621 0.2371-0.079 0.1072-0.2427 0.2088-0.0169 0.01129-0.1185 0.06773-0.096 0.0508-0.2596 0.1016-0.1637 0.0508-0.3895 0.0508zm1.851-0.02822q-0.254 0-0.3612-0.07338-0.1072-0.07902-0.1298-0.1976-0.0169-0.1185-0.0169-0.2427v-3.138q0-0.1298 0.0226-0.2427 0.0226-0.1185 0.1298-0.1919 0.1072-0.07338 0.3612-0.07338t0.3556 0.07902q0.1072 0.07338 0.1298 0.1919 0.0226 0.1129 0.0226 0.2427v1.027q0.0847-0.07902 0.2258-0.158 0.1468-0.08467 0.3387-0.08467 0.3612 0 0.6491 0.1919 0.2879 0.1863 0.4572 0.508 0.1693 0.3217 0.1693 0.7281v0.9257q0 0.1242-0.0226 0.2427-0.0226 0.1129-0.1298 0.1919-0.1016 0.07338-0.3612 0.07338-0.2484 0-0.3612-0.07338-0.1072-0.07338-0.1298-0.1919-0.0226-0.1185-0.0226-0.254v-0.92q0-0.1242-0.0452-0.2088-0.0452-0.09031-0.1298-0.1411-0.0847-0.0508-0.2032-0.0508-0.1524 0-0.2822 0.09596t-0.1524 0.2201v1.016q0 0.1242-0.0226 0.2427-0.0226 0.1185-0.1298 0.1919-0.1016 0.07338-0.3612 0.07338zm3.748 0.0508q-0.158 0-0.3556-0.03951-0.1919-0.03387-0.3782-0.1016-0.1806-0.07338-0.2992-0.1693-0.1185-0.09596-0.1185-0.2201 0-0.05644 0.0226-0.1242 0.0282-0.07338 0.0734-0.158 0.0452-0.08467 0.1129-0.1806 0.0395-0.05645 0.0903-0.08467 0.0565-0.02822 0.1298-0.02822 0.1016 0 0.1976 0.04516 0.096 0.03951 0.1919 0.09596 0.0959 0.0508 0.1976 0.09596 0.1072 0.03951 0.2258 0.03951 0.1072 0 0.158-0.02258 0.0564-0.02258 0.0564-0.06773 0-0.04516-0.0395-0.07338-0.0339-0.02822-0.1016-0.04516-0.0621-0.02258-0.1468-0.03951-0.0847-0.01693-0.1806-0.03951-0.096-0.02258-0.1976-0.05644-0.1298-0.03951-0.254-0.1016-0.1242-0.06773-0.2258-0.175-0.096-0.1072-0.158-0.2596-0.0564-0.1524-0.0564-0.3725 0-0.2935 0.1355-0.4911 0.1355-0.1976 0.4008-0.2992t0.6548-0.1016q0.0959 0 0.1919 0.01129 0.0959 0.01129 0.1919 0.03387 0.1016 0.02258 0.1976 0.06209 0.1016 0.03387 0.2032 0.07902 0.2088 0.09031 0.2145 0.254 6e-3 0.158-0.1185 0.333-0.0677 0.1072-0.1411 0.1637-0.0677 0.0508-0.1411 0.0508-0.0903 0-0.1976-0.0508-0.1072-0.0508-0.2258-0.1016-0.1185-0.0508-0.2371-0.0508-0.0677 0-0.1185 0.01693-0.0452 0.01129-0.0677 0.03951-0.0226 0.02258-0.0226 0.05644 0 0.06209 0.0395 0.1016 0.0452 0.03387 0.1129 0.05645 0.0734 0.02258 0.1637 0.03951 0.096 0.01693 0.2032 0.03387 0.1468 0.02258 0.2992 0.07338 0.158 0.04516 0.2879 0.1355 0.1298 0.09031 0.2088 0.2484 0.079 0.158 0.079 0.412 0 0.4798-0.3217 0.7281-0.3161 0.2484-0.937 0.2484zm3.037-0.1185q-0.2766 0-0.4798-0.1129t-0.333-0.3048q-0.1298-0.1976-0.1919-0.4459-0.0621-0.2484-0.0564-0.5249 6e-3 -0.2709 0.0677-0.5249 0.0677-0.254 0.1976-0.4516 0.1298-0.1976 0.3274-0.3104 0.1976-0.1185 0.4685-0.1185 0.2484 0 0.4798 0.1185 0.2371 0.1185 0.4233 0.3217 0.1863 0.1976 0.2935 0.4516 0.1072 0.254 0.1072 0.5249 0 0.2822-0.1072 0.5362-0.1072 0.2484-0.2935 0.4403-0.1806 0.1863-0.4177 0.2935-0.2314 0.1072-0.4854 0.1072zm-1.044 1.264q-0.2484 0-0.3556-0.07338-0.1072-0.07338-0.1298-0.1863-0.0169-0.1129-0.0169-0.2371v-3.065q0-0.1242 0.0169-0.2371 0.0226-0.1129 0.1242-0.1863 0.1072-0.07902 0.3556-0.07902 0.1976 0 0.3274 0.05644 0.1298 0.0508 0.1863 0.1637v3.342q0.0113 0.1242-0.0169 0.2371-0.0226 0.1185-0.1298 0.1919-0.1072 0.07338-0.3612 0.07338zm0.9088-2.224q0.1129 0 0.2032-0.05644 0.096-0.05645 0.1524-0.1468 0.0564-0.09596 0.0564-0.2032 0-0.1129-0.0564-0.2032-0.0508-0.09596-0.1468-0.1468-0.0903-0.05644-0.2032-0.05644-0.1129 0-0.2088 0.05644-0.0903 0.05645-0.1468 0.1468-0.0508 0.09031-0.0508 0.2032 0 0.1072 0.0565 0.2032 0.0564 0.09031 0.1468 0.1468 0.0903 0.05644 0.1976 0.05644zm2.173 1.027q-0.254 0-0.3612-0.07338-0.1072-0.07902-0.1298-0.1976-0.0169-0.1242-0.0169-0.2484v-1.84q0-0.1298 0.0226-0.2427 0.0226-0.1185 0.1298-0.1919 0.1072-0.07338 0.3612-0.07338 0.2484 0 0.35 0.06773 0.1072 0.06773 0.1298 0.1524 0.0226 0.07902 0.0226 0.1242l-0.0903-0.03387t0.0452-0.0508 0.1298-0.1185q0.0903-0.06773 0.2088-0.1185 0.1242-0.0508 0.2766-0.0508 0.0508 0 0.1242 0.01129 0.079 0.0056 0.1637 0.02822 0.0903 0.02258 0.1637 0.06773 0.079 0.04516 0.1242 0.1185 0.0508 0.07338 0.0508 0.1806 0 0.2822-0.1242 0.4798-0.1185 0.1976-0.3161 0.1976-0.1072 0-0.1524-0.01129-0.0452-0.01693-0.0677-0.02822-0.0169-0.01693-0.0452-0.02822-0.0226-0.01693-0.0903-0.01693-0.0847 0-0.158 0.02258-0.0677 0.01693-0.1242 0.05645-0.0508 0.03951-0.079 0.09596-0.0282 0.0508-0.0282 0.1129v1.101q0 0.1242-0.0226 0.2427-0.0226 0.1185-0.1298 0.1919-0.1072 0.07338-0.3669 0.07338zm3.212-0.01129q-0.2709 0-0.508-0.1072-0.2314-0.1072-0.4064-0.2992-0.175-0.1976-0.2709-0.4572-0.096-0.2596-0.096-0.5644v-0.92q0-0.1298 0.0226-0.2427 0.0226-0.1185 0.1298-0.1919 0.1072-0.07902 0.3612-0.07902 0.2596 0 0.3612 0.07902 0.1072 0.07338 0.1298 0.1919 0.0226 0.1185 0.0226 0.2484v0.9144q0 0.1298 0.0452 0.2201 0.0508 0.09031 0.1411 0.1411 0.0959 0.04516 0.2201 0.04516 0.1242 0 0.2145-0.0508 0.0903-0.0508 0.1411-0.1411 0.0508-0.09031 0.0508-0.2145v-0.9257q0-0.1298 0.0226-0.2427 0.0226-0.1185 0.1298-0.1919 0.1072-0.07338 0.3612-0.07338 0.2596 0 0.3612 0.07902 0.1072 0.07338 0.1298 0.1919 0.0226 0.1185 0.0226 0.2427v1.857q0 0.1242-0.0226 0.2371-0.0226 0.1129-0.1298 0.1863-0.1072 0.07338-0.3612 0.07338-0.1863 0-0.2935-0.04516-0.1016-0.03951-0.1468-0.1016-0.0452-0.06773-0.0565-0.1298-6e-3 -0.06773-6e-3 -0.1129l0.096 0.02822t-0.0452 0.05644q-0.0452 0.0508-0.1355 0.1242-0.0847 0.06773-0.2088 0.1242-0.1185 0.0508-0.2766 0.0508zm0.8749-3.11q-0.2596 0-0.3669-0.07338-0.1072-0.07902-0.1298-0.1976-0.0226-0.1242-0.0226-0.254t0.0226-0.2484q0.0226-0.1185 0.1298-0.1919 0.1129-0.07338 0.3725-0.07338 0.2596 0 0.3669 0.07902 0.1072 0.07338 0.1298 0.1976 0.0226 0.1185 0.0226 0.2484 0 0.1242-0.0226 0.2427t-0.1298 0.1976q-0.1072 0.07338-0.3725 0.07338zm-1.417 0q-0.2596 0-0.3669-0.07338-0.1072-0.07902-0.1298-0.1976-0.0226-0.1242-0.0226-0.254 6e-3 -0.1298 0.0226-0.2484 0.0226-0.1185 0.1298-0.1919 0.1129-0.07338 0.3725-0.07338t0.3669 0.07902q0.1072 0.07338 0.1298 0.1976 0.0226 0.1185 0.0226 0.2484 0 0.1242-0.0226 0.2427t-0.1298 0.1976q-0.1072 0.07338-0.3725 0.07338zm2.975 3.116q-0.254 0-0.3612-0.07338-0.1072-0.07902-0.1298-0.1976-0.0169-0.1185-0.0169-0.2427v-1.857q0-0.1242 0.0226-0.2371 0.0226-0.1129 0.1298-0.1806 0.1072-0.07338 0.3612-0.07338 0.2314 0 0.333 0.06209 0.1072 0.05644 0.1355 0.1411 0.0282 0.08467 0.0226 0.158 0 0.06773 0.0113 0.08467l-0.0452 0.03387q-6e-3 -0.08467 0.0621-0.1693 0.0734-0.08467 0.1863-0.1524 0.1185-0.07338 0.2484-0.1129 0.1355-0.04515 0.254-0.04515 0.2822 0 0.4967 0.1072t0.3556 0.3048q0.1468 0.1919 0.2201 0.4516 0.0734 0.2596 0.0734 0.5644v0.9257q0 0.1242-0.0226 0.2427t-0.1298 0.1919q-0.1016 0.07338-0.3612 0.07338t-0.3669-0.07338q-0.1072-0.07902-0.1298-0.1976-0.0226-0.1185-0.0226-0.2427v-0.92q0-0.1298-0.0508-0.2201-0.0452-0.09031-0.1355-0.1355-0.0847-0.0508-0.2145-0.0508-0.1242 0-0.2201 0.0508-0.0903 0.0508-0.1411 0.1411-0.0508 0.09031-0.0508 0.2145v0.9257q0 0.1242-0.0226 0.2427t-0.1298 0.1919q-0.1016 0.07338-0.3612 0.07338zm4.013 1.197q-0.1976 0-0.4064-0.05644-0.2032-0.0508-0.3782-0.1411-0.175-0.09031-0.2822-0.1976-0.1072-0.1016-0.1072-0.2032 0-0.1129 0.0395-0.2088 0.0452-0.09596 0.1298-0.1863 0.0903-0.09596 0.158-0.1524 0.0677-0.05645 0.1637-0.05645 0.0847 0 0.1468 0.03951 0.0677 0.03951 0.1355 0.08467 0.0677 0.0508 0.1637 0.09031 0.1016 0.03951 0.254 0.03951 0.0847 0 0.158-0.03951 0.0734-0.03387 0.1242-0.1016 0.0564-0.06209 0.0903-0.1524 0.0339-0.08467 0.0339-0.1863v-2.326q0.0226-0.1693 0.1411-0.2427 0.1185-0.07338 0.3612-0.07338 0.2484 0 0.35 0.07338t0.1185 0.1919q0.0226 0.1129 0.0226 0.2371v2.173q0 0.333-0.1298 0.5927-0.1242 0.2596-0.333 0.4346-0.2088 0.1806-0.4572 0.2709-0.2484 0.09596-0.4967 0.09596zm-0.1411-1.276q-0.2484 0-0.4798-0.1129-0.2258-0.1129-0.4064-0.3104-0.1806-0.1976-0.2879-0.4459-0.1016-0.254-0.1016-0.5306 0-0.2653 0.1016-0.5136 0.1072-0.2484 0.2879-0.4403 0.1863-0.1976 0.412-0.3104 0.2314-0.1185 0.4741-0.1185 0.2484 0 0.4064 0.1016 0.1637 0.1016 0.254 0.2879 0.096 0.1863 0.1355 0.4459 0.0395 0.254 0.0395 0.5644 0 0.429-0.0734 0.7394-0.0677 0.3104-0.2484 0.4798-0.1806 0.1637-0.5136 0.1637zm0.1355-0.9934q0.1072 0 0.1919-0.05644 0.0903-0.05645 0.1411-0.1468 0.0564-0.09031 0.0564-0.1919 0-0.1129-0.0564-0.2032-0.0508-0.09031-0.1411-0.1411-0.0903-0.05645-0.2032-0.05645-0.1072 0-0.1976 0.05645-0.0903 0.05644-0.1468 0.1468-0.0508 0.09031-0.0508 0.1976 0 0.1016 0.0564 0.1919 0.0564 0.09031 0.1468 0.1468 0.096 0.05644 0.2032 0.05644zm3.217 1.14q-0.4233 0-0.7168-0.1355-0.2935-0.1411-0.4741-0.3612-0.1806-0.2258-0.2653-0.4854-0.0847-0.2596-0.0847-0.5024 0-0.4459 0.1976-0.7846 0.1976-0.3387 0.5475-0.5306 0.35-0.1919 0.8015-0.1919 0.35 0 0.5983 0.1129 0.2484 0.1129 0.4008 0.2879 0.158 0.175 0.2314 0.3725 0.0734 0.1976 0.0734 0.3669 0 0.3217-0.158 0.4911-0.158 0.1693-0.4064 0.1693h-1.202q0.0226 0.09031 0.0903 0.158 0.0734 0.06209 0.1806 0.1016 0.1072 0.03387 0.2314 0.03387 0.1242 0 0.2201-0.01129 0.0959-0.01693 0.1637-0.03951 0.0734-0.02258 0.1298-0.04516 0.0621-0.02258 0.1072-0.03387 0.0508-0.01693 0.096-0.01693 0.1016 0 0.1863 0.06773 0.0847 0.06773 0.1524 0.2032 0.0395 0.07338 0.0564 0.1411 0.0169 0.06209 0.0169 0.1185 0 0.1693-0.1411 0.2822-0.1355 0.1129-0.3951 0.1693-0.2596 0.06209-0.6378 0.06209zm-0.4572-1.722h0.6322q0.079 0 0.1129-0.03387 0.0395-0.03387 0.0395-0.1016 0-0.07338-0.0452-0.1242-0.0395-0.0508-0.1129-0.07338-0.0734-0.02822-0.175-0.02822-0.1355 0-0.2371 0.05644-0.1016 0.0508-0.158 0.1355-0.0508 0.07902-0.0564 0.1693z" aria-label="Nachsprünge"/><path d="m115 17.24q-0.2352 0-0.3292-0.09407-0.0941-0.09407-0.0941-0.334v-2.451q0-0.2352 0.0941-0.3293 0.0941-0.09407 0.334-0.09407 0.2352 0 0.3293 0.09878 0.0941 0.09407 0.0941 0.334v2.446q0 0.2352-0.0941 0.3293-0.0941 0.09407-0.334 0.09407zm-0.4704-1.976q-0.1599 0.1411-0.2916 0.1364-0.127-0.0047-0.2775-0.1646-0.1552-0.1646-0.1458-0.3104 9e-3 -0.1458 0.1976-0.3104l0.5974-0.5362q0.1552-0.1411 0.2869-0.127 0.1364 0.0094 0.2822 0.1693 0.1505 0.1599 0.1364 0.3057-9e-3 0.1411-0.1976 0.3104z" aria-label="1"/><path d="m130.5 23.75q-0.174 0-0.301-0.1317t-0.127-0.3057q0-0.08937 0.0188-0.1693 0.0235-0.07996 0.0611-0.1505 0.0376-0.07526 0.0894-0.1364 0.1223-0.1552 0.301-0.2822 0.1788-0.127 0.3716-0.2399t0.3622-0.2258q0.1693-0.1129 0.2728-0.2446 0.1082-0.1317 0.1082-0.2916 0-0.04704-0.0235-0.1176-0.0188-0.07526-0.0941-0.1317-0.0753-0.06115-0.2399-0.06115-0.0988 0-0.1693 0.02822-0.0706 0.02352-0.1129 0.07526-0.0423 0.04704-0.0658 0.1223-0.0188 0.07055-0.0188 0.1646 0 0.09878-0.0188 0.1929-0.0188 0.08937-0.1082 0.1505-0.0894 0.05644-0.3057 0.05644-0.2117 0-0.301-0.06115-0.0894-0.06585-0.1082-0.1646-0.0188-0.1035-0.0188-0.207 0-0.2164 0.08-0.4327 0.0847-0.2164 0.2446-0.3904 0.1599-0.1787 0.3857-0.2869 0.2258-0.1082 0.5127-0.1082 0.3434 0 0.6209 0.1693 0.2775 0.1646 0.4421 0.4469 0.1646 0.2775 0.1646 0.6256 0 0.2305-0.0753 0.4186t-0.1976 0.3387q-0.1176 0.1458-0.254 0.254-0.1364 0.1035-0.2634 0.174-0.127 0.06585-0.2117 0.09878-0.0847 0.03293-0.1035 0.03293l0.047-0.07526h0.7432q0.1082 0 0.207 0.01882 0.0988 0.01881 0.1599 0.1129 0.0611 0.08937 0.0611 0.3057 0 0.207-0.0659 0.301-0.0611 0.08937-0.1646 0.1082-0.0988 0.01882-0.207 0.01882z" aria-label="2"/><path d="m143.4 28.23q-0.254 0-0.4798-0.08467-0.2258-0.08467-0.4045-0.2305-0.174-0.1505-0.2728-0.3387-0.0988-0.1929-0.0988-0.3998 0-0.2963 0.4704-0.2963 0.1317 0 0.1976 0.02352 0.0705 0.02352 0.1129 0.08467 0.0423 0.05644 0.0847 0.1646 0 0 0.0282 0.06115 0.0329 0.05644 0.1176 0.1176 0.0847 0.05644 0.2493 0.05644 0.127 0 0.2164-0.03293 0.0894-0.03293 0.1364-0.09407 0.0517-0.06115 0.0517-0.1411 0-0.09407-0.047-0.1552-0.047-0.06115-0.127-0.08937t-0.1882-0.02822q-0.1035 0-0.2023-0.01411-0.0988-0.01411-0.1646-0.09878-0.0611-0.08467-0.0611-0.2963 0-0.2164 0.0611-0.2963 0.0658-0.08467 0.1646-0.09407 0.1035-0.01411 0.207-0.01411 0.0941 0 0.1552-0.0094 0.0659-0.01411 0.0988-0.04704 0.0329-0.03292 0.0329-0.09407 0-0.07056-0.0376-0.1176-0.0329-0.05174-0.0988-0.07526-0.0659-0.02822-0.1552-0.02822-0.1129 0-0.1787 0.02822-0.0659 0.02822-0.1035 0.07526-0.0329 0.04233-0.0564 0.08467-0.0894 0.1976-0.2399 0.2399-0.1458 0.03763-0.3528-0.07526-0.2023-0.1223-0.2305-0.2587-0.0282-0.1364 0.0659-0.3246 0 0.0047 0.0235-0.05174 0.0282-0.06115 0.0988-0.1505 0.0706-0.08937 0.1882-0.1787 0.1176-0.09407 0.301-0.1552 0.1834-0.06115 0.4374-0.06115 0.2963 0 0.5174 0.09407 0.2258 0.09407 0.3763 0.2446 0.1552 0.1505 0.2305 0.334 0.08 0.1787 0.08 0.3575 0 0.174-0.0611 0.2963-0.0564 0.1176-0.1364 0.1881-0.0753 0.06585-0.127 0.09407 0.0423 0.02822 0.1082 0.08467 0.0659 0.05174 0.127 0.1364 0.0658 0.08467 0.1082 0.1976 0.047 0.1082 0.047 0.2493 0 0.3246-0.1646 0.5786-0.1646 0.2493-0.4516 0.3951-0.2869 0.1458-0.6538 0.1458z" aria-label="3"/></g><path d="m73.94 66.54 20.59-5.889" fill="#00f" stroke="#a3a3a3" stroke-linecap="round" stroke-linejoin="round" stroke-width="1.3"/><path d="m132.1 66.54-20.59-5.889" fill="#00f" stroke="#a3a3a3" stroke-linecap="round" stroke-linejoin="round" stroke-width="1.3"/><g fill="none" stroke="#505050" stroke-linecap="round" stroke-linejoin="round" stroke-width="1.7"><path d="m40.53 56.65h125"/><path d="m42.53 56.65 18 30"/><path d="m163.6 56.65-18.07 30"/></g><g fill="#00f"><path d="m40.53 54.19h125" stroke="#6e6e6e" stroke-linecap="round" stroke-linejoin="round" stroke-width="3"/><g stroke="#505050" stroke-width="1.7"><g stroke-linecap="round" stroke-linejoin="round"><path d="m60.53 86.65 20-30"/><path d="m145.5 86.65-20-30"/><path d="m77.86 60.65h50.33"/></g><path d="m55.53 86.65h10"/><path d="m140.5 86.65h10"/></g></g></g></svg>
